<svg width="22" height="19" viewBox="0 0 22 19" fill="none" xmlns="http://www.w3.org/2000/svg">
<path fill-rule="evenodd" clip-rule="evenodd" d="M18.4,4.3C18.5,4.3,18.5,4.4,18.4,4.3l0,4.2c0,0.1-0.1,0.2-0.1,0.3l-3.4,2v3.9c0,0.1-0.1,0.2-0.1,0.3L7.6,19
	c0,0,0,0-0.1,0c0,0,0,0,0,0c0,0-0.1,0-0.2,0c0,0,0,0,0,0c0,0,0,0,0,0l-7.1-4.1C0.1,14.8,0,14.7,0,14.6V2.4c0,0,0-0.1,0-0.1
	c0,0,0,0,0,0c0,0,0,0,0,0c0,0,0,0,0,0c0,0,0,0,0,0c0,0,0,0,0,0c0,0,0,0,0,0l0,0L3.7,0C3.8,0,3.9,0,4,0l3.6,2.1l0,0c0,0,0,0,0,0
	c0,0,0,0,0,0c0,0,0,0,0,0c0,0,0,0,0,0c0,0,0,0,0,0c0,0,0,0,0,0c0,0,0,0.1,0,0.1V10l3-1.7V4.4c0,0,0-0.1,0-0.1c0,0,0,0,0,0
	c0,0,0,0,0,0c0,0,0,0,0,0c0,0,0,0,0,0c0,0,0,0,0,0c0,0,0,0,0,0l0,0l3.6-2.1c0.1-0.1,0.2-0.1,0.3,0l3.6,2.1c0,0,0,0,0,0c0,0,0,0,0,0
	C18.4,4.2,18.4,4.2,18.4,4.3C18.4,4.2,18.4,4.2,18.4,4.3C18.4,4.2,18.4,4.3,18.4,4.3C18.4,4.3,18.4,4.3,18.4,4.3z M17.9,8.3V4.9
	l-1.2,0.7l-1.7,1V10L17.9,8.3L17.9,8.3z M14.3,14.4V11l-1.7,1l-4.9,2.8v3.4L14.3,14.4z M0.6,2.9v11.5l6.6,3.8v-3.4l-3.4-1.9l0,0h0
	c0,0,0,0,0,0s0,0,0,0l0,0c0,0,0,0,0,0c0,0,0,0,0,0l0,0c0,0,0,0,0,0c0,0,0,0,0,0l0,0c0,0,0,0,0,0c0,0,0,0,0,0l0,0v-8l-1.7-1L0.6,2.9
	L0.6,2.9z M3.9,0.6l-3,1.7l3,1.7l3-1.7L3.9,0.6L3.9,0.6z M5.4,11.3l1.7-1V2.9L5.9,3.6l-1.7,1v7.5L5.4,11.3z M14.6,2.7l-3,1.7l3,1.7
	l3-1.7L14.6,2.7z M14.3,6.6l-1.7-1l-1.2-0.7v3.4l1.7,1l1.3,0.7L14.3,6.6L14.3,6.6z M7.4,14.2l4.4-2.5l2.2-1.2l-3-1.7l-3.4,2
	l-3.1,1.8L7.4,14.2z" fill="#25392B"/>
</svg>