<svg width="19" height="19" viewBox="0 0 19 19" fill="none" xmlns="http://www.w3.org/2000/svg">
<path d="M2 16.25H3.4L12.025 7.625L10.625 6.225L2 14.85V16.25ZM16.3 6.175L12.05 1.975L13.45 0.575C13.8333 0.191667 14.3043 0 14.863 0C15.421 0 15.8917 0.191667 16.275 0.575L17.675 1.975C18.0583 2.35833 18.2583 2.821 18.275 3.363C18.2917 3.90433 18.1083 4.36667 17.725 4.75L16.3 6.175ZM1 18.25C0.716667 18.25 0.479333 18.154 0.288 17.962C0.0960001 17.7707 0 17.5333 0 17.25V14.425C0 14.2917 0.025 14.1627 0.075 14.038C0.125 13.9127 0.2 13.8 0.3 13.7L10.6 3.4L14.85 7.65L4.55 17.95C4.45 18.05 4.33767 18.125 4.213 18.175C4.08767 18.225 3.95833 18.25 3.825 18.25H1Z" fill="currentColor"/>
</svg>
