<?xml version="1.0" encoding="UTF-8"?><svg id="Layer_1" xmlns="http://www.w3.org/2000/svg" width="300" height="300" viewBox="0 0 300 300"><defs><style>.cls-1{font-size:27px;}.cls-1,.cls-2,.cls-3{fill:#fff;}.cls-1,.cls-3{font-family:Manrope-ExtraBold, Manrope;font-variation-settings:'wght' 800;}.cls-4{fill:#00c88c;}.cls-3{font-size:51px;}</style></defs><path class="cls-4" d="M105.53,261.26H22.59v-86.23c0-9.39,7.61-17,17-17h48.94c9.39,0,17,7.61,17,17v86.23Z"/><path class="cls-4" d="M277.41,261.26h-82.94v-58.55c0-9.39,7.61-17,17-17h48.94c9.39,0,17,7.61,17,17v58.55Z"/><g><g><path class="cls-4" d="M165.72,35.25h-13.85v-8.69c0-.7-.57-1.27-1.27-1.27h-1.37c-.7,0-1.27,.57-1.27,1.27v8.69h-13.85c-1.12,0-2.19,.45-2.98,1.24-.79,.79-1.24,1.87-1.24,2.99v3.87c0,1.12,.44,2.2,1.24,2.99,.79,.79,1.87,1.24,2.98,1.24h-.05v11.94c0,3.17,.95,6.27,2.72,8.9,1.78,2.63,4.3,4.66,7.24,5.84,.71,.28,1.36,.71,1.91,1.25l1.96,1.96c.54,.54,1.27,.84,2.03,.84s1.49-.3,2.03-.84l1.96-1.96c.54-.54,1.19-.97,1.91-1.25,2.94-1.18,5.46-3.22,7.24-5.84,1.78-2.63,2.72-5.73,2.72-8.9v-11.94h-.05c1.12,0,2.19-.45,2.98-1.24,.79-.79,1.24-1.87,1.24-2.99v-3.87c0-.56-.11-1.11-.32-1.62-.21-.51-.52-.98-.92-1.37-.39-.39-.86-.7-1.37-.92-.51-.21-1.06-.32-1.62-.32Z"/><polygon class="cls-2" points="149.91 47.55 147.06 53.33 140.69 54.25 145.3 58.75 144.21 65.1 149.91 62.1 155.61 65.1 154.52 58.75 159.14 54.25 152.76 53.33 149.91 47.55"/></g><path class="cls-4" d="M143.9,92.05c1.96-3.56,3.21-9.03,3.21-15.17,0-.57-.01-1.13-.03-1.68h5.66c-.02,.55-.03,1.12-.03,1.68,0,6.14,1.25,11.61,3.21,15.17h-12.01Z"/><path class="cls-4" d="M158.48,92.05h-17.14c-2.26,0-4.1,1.83-4.1,4.1h25.33c0-2.26-1.83-4.1-4.1-4.1Z"/><path class="cls-4" d="M173.85,53.7c0,8.03-7.13,12.2-10.44,13.7,.6-1.54,1.05-3.18,1.37-4.92,2.6-1.75,5.45-4.62,5.45-8.79,0-.85-.77-1.81-1.81-1.81-.96,0-1.96,.31-2.76,.65,.03-1.28,.04-2.56,.05-3.84,.84-.25,1.76-.43,2.72-.43,2.94,0,5.42,2.48,5.42,5.42Z"/><path class="cls-4" d="M131.23,48.28c.95,0,1.87,.18,2.72,.43,0,1.29,.02,2.57,.05,3.84-.81-.34-1.8-.65-2.76-.65-1.03,0-1.81,.95-1.81,1.81,0,4.17,2.85,7.03,5.45,8.79,.33,1.74,.78,3.38,1.37,4.92-3.31-1.5-10.44-5.67-10.44-13.7,0-2.94,2.48-5.42,5.42-5.42Z"/></g><text class="cls-1" transform="translate(128.9 148.32)"><tspan x="0" y="0">#1</tspan></text><text class="cls-3" transform="translate(48.66 214.98)"><tspan x="0" y="0">2</tspan></text><path class="cls-4" d="M191.47,261.26H108.53V122.85c0-9.39,7.61-17,17-17h48.94c9.39,0,17,7.61,17,17v138.41Z"/><rect class="cls-4" x="22.59" y="263.6" width="254.83" height="11.11"/><text class="cls-3" transform="translate(138.3 170.19)"><tspan x="0" y="0">1</tspan></text><text class="cls-3" transform="translate(220.87 241.84)"><tspan x="0" y="0">3</tspan></text></svg>
