<?xml version="1.0" encoding="UTF-8"?>
<svg id="Layer_1" data-name="Layer 1" xmlns="http://www.w3.org/2000/svg" viewBox="0 0 300 300">
  <defs>
    <style>
      .cls-1 {
        fill: #c4f135;
        stroke-width: 0px;
      }
    </style>
  </defs>
  <path class="cls-1" d="m89.65,228.2v43.56c0,4.61,3.74,8.34,8.34,8.34h0c2.71,0,5.25-1.32,6.82-3.53l34.17-48.38h-49.33Z"/>
  <path class="cls-1" d="m247.78,61H52.22c-12.09,0-21.89,9.8-21.89,21.89v134.22c0,12.09,9.8,21.89,21.89,21.89h195.57c12.09,0,21.89-9.8,21.89-21.89V82.89c0-12.09-9.8-21.89-21.89-21.89Zm-62.77,74.21c0,1.96-.78,3.84-2.16,5.23-1.38,1.39-3.26,2.16-5.22,2.16h.09v20.87c0,5.55-1.66,10.97-4.76,15.56-3.1,4.59-7.51,8.15-12.65,10.21-1.25.5-2.38,1.24-3.33,2.19l-3.43,3.43c-.94.94-2.22,1.47-3.55,1.47s-2.61-.53-3.55-1.47l-3.43-3.43c-.95-.95-2.08-1.7-3.33-2.19-5.14-2.06-9.55-5.62-12.65-10.21-3.1-4.59-4.76-10.01-4.76-15.56v-20.87h.09c-1.96,0-3.83-.78-5.22-2.16-1.38-1.39-2.16-3.27-2.16-5.23v-6.77c0-1.96.78-3.84,2.16-5.23,1.38-1.39,3.26-2.16,5.22-2.16h22.34v-15.19c0-1.22.99-2.22,2.22-2.22h6.16c1.22,0,2.22.99,2.22,2.22v15.19h22.33c.97,0,1.93.19,2.83.56.9.37,1.71.91,2.4,1.6.69.69,1.23,1.5,1.6,2.4.37.9.56,1.86.56,2.83v6.77Z"/>
</svg>