<?xml version="1.0" encoding="UTF-8"?>
<svg id="Layer_1" data-name="Layer 1" xmlns="http://www.w3.org/2000/svg" viewBox="0 0 300 300">
  <defs>
    <style>
      .cls-1 {
        fill: none;
        stroke: #fff;
        stroke-miterlimit: 10;
        stroke-width: 3px;
      }

      .cls-2 {
        fill: #fff;
      }

      .cls-2, .cls-3 {
        stroke-width: 0px;
      }

      .cls-3 {
        fill: #00c88c;
      }
    </style>
  </defs>
  <rect class="cls-3" x="49.5" y="61" width="201" height="201" rx="16.67" ry="16.67"/>
  <path class="cls-2" d="m193.68,115.26c.11.02.21.06.3.12.09.06.17.14.23.23.06.09.1.19.12.3l.14.74c.04.21,0,.44-.13.62-.12.18-.31.31-.53.35h0s.44,2.28.44,2.28c.12.61.05,1.24-.19,1.8-.24.57-.65,1.05-1.17,1.39-.13.08-.23.19-.32.31l-.3.45c-.08.12-.21.21-.36.24s-.3,0-.42-.09l-.45-.3c-.12-.08-.26-.14-.41-.17-.61-.12-1.16-.41-1.6-.85-.44-.44-.73-1-.85-1.6l-.44-2.28h0c-.21.04-.44,0-.62-.13-.18-.12-.31-.31-.35-.53l-.14-.74c-.04-.21,0-.44.13-.62.12-.18.31-.31.53-.35l2.65-.51-.32-1.66c-.03-.13.06-.26.2-.29l.26-.05c.13-.03.26.06.29.2l.32,1.66,2.65-.51c.11-.02.22-.02.32,0Zm-101.2,35.06l-1.83-1.99,1.25-1.15c.1-.09.11-.25.01-.35l-.18-.2c-.09-.1-.25-.11-.35-.01l-1.25,1.15-1.83-1.99c-.15-.16-.35-.26-.57-.26-.22,0-.43.07-.59.22l-.56.51c-.16.15-.26.35-.27.57,0,.22.07.43.22.59h0s-1.71,1.57-1.71,1.57c-.46.42-.77.96-.92,1.57-.14.6-.1,1.23.12,1.81.05.14.08.29.07.44l-.02.54c0,.15.05.29.15.4s.24.17.39.18l.54.02c.15,0,.3.04.43.11.56.27,1.18.36,1.79.27.61-.09,1.18-.37,1.64-.78l1.71-1.58h0c.15.15.35.25.57.26.22,0,.43-.07.59-.22l.56-.51c.08-.07.14-.16.19-.26.05-.1.07-.2.08-.31,0-.11-.01-.22-.05-.32-.04-.1-.09-.19-.17-.27Zm73.62,66.84l-.83,2.57-1.61-.52c-.13-.04-.27.03-.31.16l-.08.25c-.04.13.03.27.16.31l1.61.52-.83,2.57c-.07.21-.05.43.05.63.1.19.27.34.48.41l.72.23c.21.07.43.05.63-.05.19-.1.34-.27.41-.48h0s2.21.73,2.21.73c.59.19,1.22.2,1.81.03.59-.17,1.12-.52,1.52-.99.1-.12.21-.21.35-.28l.48-.25c.13-.07.23-.18.28-.33s.03-.29-.03-.43l-.25-.48c-.07-.13-.11-.28-.12-.43-.04-.62-.27-1.21-.65-1.69-.38-.49-.9-.85-1.49-1.04l-2.21-.72h0c.07-.2.05-.42-.05-.62-.1-.19-.27-.34-.48-.41l-.72-.23c-.1-.03-.21-.05-.32-.04-.11,0-.21.04-.31.09-.1.05-.18.12-.25.2-.07.08-.12.18-.16.28Z"/>
  <path class="cls-1" d="m197.75,117.27c15.01-4.1,27.16-3.19,30.5,2.68,1.1,1.93,2.85,7.23-7.8,21.98-18.64,25.81-45.69,39.59-69.8,49.13-20.78,8.22-66.8,26.44-73.19,15.94-5.61-9.21,22.11-35.89,34.86-46.81,25.93-22.2,52.91-33.1,71.55-38.76m-99.58,24.15c-10.79-11.21-15.8-22.32-12.25-28.06,1.17-1.89,4.98-5.97,23.03-3.68,31.58,4,56.64,21.15,76.55,37.75,17.17,14.3,55.19,45.98,49.04,56.62-6.34,10.96-55.58-7.36-57.79-8.19-32.98-12.45-56.29-31.53-70.83-45.83m74.43,72.38c-3.85,15.08-10.65,25.19-17.4,25.19-2.22,0-7.7-1.09-15.26-17.64-13.23-28.96-11.83-59.29-8.21-84.96,3.12-22.13,10.03-71.14,22.32-71.5,12.68-.38,23.04,51.3,23.46,53.44,6.73,34.39,2.8,64.07-1.66,83.8"/>
</svg>