<?xml version="1.0" encoding="UTF-8"?><svg id="Layer_1" xmlns="http://www.w3.org/2000/svg" width="1231.7346" height="627.54737" viewBox="0 0 1231.7346 627.54737"><defs><style>.cls-1{font-size:55.23825px;}.cls-1,.cls-2,.cls-3{fill:#263a2c;}.cls-1,.cls-4,.cls-5,.cls-3{font-family:Manrope-ExtraBold, Manrope;font-variation-settings:'wght' 800;}.cls-6{letter-spacing:-.04001em;}.cls-7{letter-spacing:-.07998em;}.cls-8{letter-spacing:-.01999em;}.cls-9{letter-spacing:-.02em;}.cls-10{letter-spacing:-.03em;}.cls-11{fill:#c4d93b;}.cls-12{fill:#3db988;}.cls-13,.cls-14{font-size:30.27548px;}.cls-15{fill:none;stroke:#3db988;stroke-linecap:round;stroke-miterlimit:10;stroke-width:7px;}.cls-4,.cls-16{font-size:60.55095px;}.cls-4,.cls-5{fill:#231f20;}.cls-14{letter-spacing:-.01em;}.cls-17{letter-spacing:-.01501em;}.cls-18{letter-spacing:-.00999em;}.cls-3{font-size:30px;}.cls-19{letter-spacing:-.06999em;}</style></defs><rect class="cls-11" x="10.20439" y="26.29251" width="853.36337" height="164.24598" rx="26.54045" ry="26.54045"/><text class="cls-1" transform="translate(47.21561 135.12231)"><tspan x="0" y="0">Collection Data </tspan><tspan class="cls-19" x="435.21484" y="0">T</tspan><tspan x="465.04297" y="0">ypes (C</tspan><tspan class="cls-9" x="672.57031" y="0">D</tspan><tspan x="710.68457" y="0">T)</tspan></text><rect class="cls-2" x="12.9621" y="232.49759" width="170.24811" height="97.66283" rx="26.51691" ry="26.51691"/><g><path class="cls-11" d="M63.73807,292.3313l2.75977-3.26611c2.02637,1.82031,4.65186,3.03662,7.44775,3.03662,3.104,0,4.74707-1.36572,4.74707-3.23047,0-2.37793-1.82666-3.01465-4.43066-4.1123l-3.66797-1.59473c-2.80322-1.09082-5.69531-3.16357-5.69531-7.07764,0-4.24658,3.82324-7.52197,9.27002-7.52197,3.27197,0,6.36084,1.27246,8.54443,3.39648l-2.4248,3.01318c-1.81543-1.44629-3.66113-2.28027-6.34717-2.28027-2.53271,0-4.23975,1.13965-4.23975,3.11377,0,2.07666,2.13037,2.83594,4.55078,3.76367l3.50049,1.52393c3.396,1.30615,5.79883,3.3335,5.79883,7.18799,0,4.33496-3.65186,7.94727-9.88916,7.94727-3.75391,0-7.30615-1.43115-9.92432-3.89941Z"/><path class="cls-11" d="M88.34598,285.69165c0-6.53906,4.96631-10.4873,10.33252-10.4873,5.98389,0,9.30127,3.96875,9.30127,9.51611,0,.93994-.12695,1.85449-.2085,2.37012h-16.05664v-3.33105h13.00781l-.90186,1.04346c0-3.95996-1.8623-5.97168-5.00049-5.97168-3.31396,0-5.86865,2.38574-5.86865,6.86035,0,4.66357,2.80762,6.88623,6.97607,6.88623,2.09814,0,3.82568-.61475,5.62158-1.6377l1.61426,2.92334c-2.13916,1.396-4.90967,2.36719-7.85352,2.36719-6.13916,0-10.96387-3.8667-10.96387-10.53906Z"/><path class="cls-11" d="M118.08133,287.68188v-8.24951h-5.36279v-3.51904l5.56055-.21924,.61377-6.27783h3.90967v6.27783h9.11523v3.73828h-9.11523v8.23047c0,3.31152,1.24365,4.80371,4.63135,4.80371,1.67188,0,3.05127-.3374,4.35986-.80811l.91455,3.43359c-1.7959,.59326-3.81934,1.13867-6.41406,1.13867-6.12549,0-8.21289-3.44092-8.21289-8.54883Z"/></g><rect class="cls-2" x="224.33567" y="232.49759" width="336.4138" height="97.66283" rx="26.23762" ry="26.23762"/><g><path class="cls-11" d="M271.98465,268.79175h6.98682c7.87646,0,12.60352,4.40088,12.60352,13.22021,0,8.8457-4.72705,13.46582-12.3501,13.46582h-7.24023v-26.68604Zm6.69727,22.83594c5.09277,0,8.0083-3.04932,8.0083-9.61572,0-6.54004-2.91553-9.37012-8.0083-9.37012h-1.9502v18.98584h1.9502Z"/><path class="cls-11" d="M305.36356,279.16919h-8.65918v-3.73828h13.38037v20.04688h-4.72119v-16.30859Zm-1.30176-10.54395c0-1.88086,1.4126-3.18164,3.35303-3.18164s3.35303,1.30078,3.35303,3.18164c0,1.90625-1.4126,3.15137-3.35303,3.15137s-3.35303-1.24512-3.35303-3.15137Z"/><path class="cls-11" d="M320.75809,285.48022c0-6.69824,5.271-10.53906,11.39111-10.53906,3.20947,0,5.7417,1.21631,7.4043,2.82275l-2.22754,2.95752c-1.58789-1.25293-3.15234-1.93018-4.94922-1.93018-4.01758,0-6.78564,2.65674-6.78564,6.68896,0,4.00635,2.72754,6.63721,6.64404,6.63721,2.28418,0,4.17529-1.01221,5.71777-2.20508l1.9751,3.01318c-2.32422,2.00391-5.25391,3.04199-8.10254,3.04199-6.29443,0-11.06738-3.84082-11.06738-10.4873Z"/><path class="cls-11" d="M350.00369,287.4187v-8.24951h-5.36279v-3.51904l5.56006-.21924,.61426-6.27783h3.90967v6.27783h9.11523v3.73828h-9.11523v8.23047c0,3.31152,1.24365,4.80371,4.63135,4.80371,1.67188,0,3.05127-.3374,4.35986-.80811l.91455,3.43359c-1.7959,.59326-3.81934,1.13867-6.41406,1.13867-6.12549,0-8.21289-3.44092-8.21289-8.54883Z"/><path class="cls-11" d="M378.84012,279.16919h-8.65918v-3.73828h13.38037v20.04688h-4.72119v-16.30859Zm-1.30176-10.54395c0-1.88086,1.4126-3.18164,3.35303-3.18164s3.35303,1.30078,3.35303,3.18164c0,1.90625-1.4126,3.15137-3.35303,3.15137s-3.35303-1.24512-3.35303-3.15137Z"/><path class="cls-11" d="M393.41824,285.48022c0-6.69824,4.78125-10.53906,10.06592-10.53906s10.06592,3.84082,10.06592,10.53906c0,6.64648-4.78125,10.4873-10.06592,10.4873s-10.06592-3.84082-10.06592-10.4873Zm15.29883,0c0-4.03223-1.96143-6.68896-5.23291-6.68896s-5.23291,2.65674-5.23291,6.68896c0,4.00635,1.96143,6.63721,5.23291,6.63721s5.23291-2.63086,5.23291-6.63721Z"/><path class="cls-11" d="M419.09256,275.43091h3.85449l.36035,3.01758h.16357c1.91699-1.93896,4.17285-3.50732,7.22998-3.50732,4.63379,0,6.72217,2.95508,6.72217,8.12012v12.4165h-4.72119v-11.80273c0-3.21582-1.03613-4.68652-3.73682-4.68652-1.97754,0-3.31494,.95898-5.15137,2.81689v13.67236h-4.72119v-20.04688Z"/><path class="cls-11" d="M443.0994,290.09497c0-4.49414,3.95361-6.73193,13.854-7.42871-.16748-2.24463-1.50342-3.93066-4.771-3.93066-2.25684,0-4.48779,.98438-6.54932,2.12744l-1.75146-3.12451c2.43018-1.45605,5.71729-2.79736,9.17188-2.79736,5.56348,0,8.62109,3.08984,8.62109,8.67285v11.86377h-3.87988l-.36084-2.48438h-.13721c-2.10352,1.62451-4.7959,2.97412-7.48145,2.97412-3.90918,0-6.71582-2.396-6.71582-5.87256Zm13.854-.26562v-4.21387c-7.20166,.47314-9.27881,1.95215-9.27881,4.11475,0,1.76562,1.56152,2.52881,3.54785,2.52881,2.02002,0,3.87988-.94141,5.73096-2.42969Z"/><path class="cls-11" d="M470.01981,275.43091h3.89502l.40137,4.55908h.11182c2.03662-3.26953,5.0791-5.04883,8.52783-5.04883,1.61914,0,2.70898,.24902,3.90332,.81641l-1,3.9917c-1.32812-.41943-2.10791-.62354-3.62891-.62354-2.73975,0-5.43652,1.40576-7.48926,5.29932v11.05273h-4.72119v-20.04688Z"/><path class="cls-11" d="M491.94266,303.28589l.88867-3.65283c.53027,.16309,1.12354,.27051,1.67578,.27051,2.55127,0,4.01465-1.41016,4.82959-3.41016l.48145-1.25928-8.98486-19.80322h4.71729l4.09717,9.80029c.74561,1.83008,1.49756,3.89697,2.22412,5.91992h.16357c.61865-1.95215,1.34961-4.03418,1.9873-5.91992l3.61182-9.80029h4.49365l-8.37109,20.96045c-1.72412,4.50293-4.13232,7.30273-8.9624,7.30273-1.05859,0-2.06836-.16357-2.85205-.4082Z"/></g><rect class="cls-2" x="677.93024" y="232.49759" width="190.6216" height="97.66283" rx="26.5954" ry="26.5954"/><g><path class="cls-11" d="M729.15701,269.05493h4.7207v22.69434h12.52051v3.9917h-17.24121v-26.68604Z"/><path class="cls-11" d="M760.84256,279.43237h-8.66016v-3.73828h13.38086v20.04688h-4.7207v-16.30859Zm-1.30273-10.54395c0-1.88086,1.41309-3.18164,3.35352-3.18164s3.35352,1.30078,3.35352,3.18164c0,1.90625-1.41309,3.15186-3.35352,3.15186s-3.35352-1.24561-3.35352-3.15186Z"/><path class="cls-11" d="M775.76443,293.12866l2.06055-3.00879c2.39062,1.5874,5.12988,2.54395,8.3877,2.54395,2.77734,0,4.08105-1.05811,4.08105-2.38721,0-1.31543-.88086-2.04688-5.5498-3.01416-5.34863-1.12158-7.72461-3.01123-7.72461-6.06592,0-3.4834,3.17578-5.99219,8.78418-5.99219,3.32031,0,6.35547,1.30322,8.38965,2.65039l-2.17188,2.89746c-1.94141-1.25049-4.25781-2.00684-6.63867-2.00684-2.59766,0-3.67285,1.00244-3.67285,2.22803,0,1.41455,1.47461,1.90967,5.22754,2.72168,6.40625,1.41406,8.07324,3.12158,8.07324,6.30273,0,3.44922-3.32227,6.23291-9.41602,6.23291-3.74219,0-7.34668-1.41357-9.83008-3.10205Z"/><path class="cls-11" d="M805.48221,287.68188v-8.24951h-5.36328v-3.51904l5.56055-.21924,.61426-6.27783h3.91016v6.27783h9.11523v3.73828h-9.11523v8.23047c0,3.31152,1.24316,4.80371,4.63086,4.80371,1.67188,0,3.05176-.3374,4.36035-.80811l.91406,3.43359c-1.7959,.59326-3.81934,1.13867-6.41406,1.13867-6.125,0-8.21289-3.44092-8.21289-8.54883Z"/></g><text class="cls-4" transform="translate(195.17166 323.99048)"><tspan x="0" y="0">,</tspan></text><text class="cls-5" transform="translate(579.14236 321.37231)"><tspan class="cls-16" x="0" y="0">,</tspan><tspan class="cls-13" x="19.13379" y="0">a</tspan><tspan class="cls-14" x="36.78418" y="0">n</tspan><tspan class="cls-13" x="55.73633" y="0">d</tspan></text><rect class="cls-2" x="199.06315" y="389.82469" width="107.54063" height="33.631" rx="7.69278" ry="7.69278"/><g><path class="cls-11" d="M215.43045,404.21313h-6.56836v-2.44727h10.14941v13.12207h-3.58105v-10.6748Zm-.9873-6.90234c0-1.23145,1.07129-2.08301,2.54297-2.08301,1.47217,0,2.54346,.85156,2.54346,2.08301,0,1.24805-1.07129,2.06348-2.54346,2.06348-1.47168,0-2.54297-.81543-2.54297-2.06348Z"/><path class="cls-11" d="M230.71072,409.61255v-5.39941h-4.06787v-2.30371l4.21729-.14355,.46582-4.10938h2.96582v4.10938h6.91357v2.44727h-6.91357v5.38672c0,2.16797,.94336,3.14453,3.5127,3.14453,1.26807,0,2.31445-.2207,3.30713-.5293l.69336,2.24805c-1.36182,.38867-2.89648,.74512-4.86475,.74512-4.64648,0-6.22949-2.25195-6.22949-5.5957Z"/><path class="cls-11" d="M245.30887,408.30981c0-4.28027,3.7666-6.86523,7.83691-6.86523,4.53906,0,7.05518,2.59863,7.05518,6.22949,0,.61523-.09619,1.21387-.1582,1.55176h-12.17871v-2.18066h9.86621l-.68408,.68262c0-2.5918-1.4126-3.9082-3.79297-3.9082-2.51367,0-4.45117,1.56152-4.45117,4.49023,0,3.05273,2.12939,4.50781,5.2915,4.50781,1.59131,0,2.90186-.40234,4.26367-1.07227l1.22461,1.91309c-1.62256,.91406-3.72412,1.5498-5.95703,1.5498-4.65674,0-8.31592-2.53125-8.31592-6.89844Z"/><path class="cls-11" d="M263.41531,401.76587h2.74805l.27344,1.6709h.08447c.67188-1.13379,1.62354-1.99219,3.37988-1.99219,1.40625,0,2.35791,.74902,2.75732,2.20508,.70801-1.29102,1.71631-2.20508,3.46143-2.20508,2.15039,0,3.38916,1.52441,3.38916,4.14551v9.29785h-3.44775v-9.0791c0-1.15234-.35938-1.73145-1.2124-1.73145-.81396,0-1.2915,.54102-1.90332,1.64062v9.16992h-2.9668v-9.0791c0-1.15234-.354-1.73145-1.20703-1.73145-.80273,0-1.33594,.54102-1.90869,1.64062v9.16992h-3.44775v-13.12207Z"/><path class="cls-11" d="M282.47244,413.17798l1.56299-1.96973c1.81299,1.03906,3.89062,1.66504,6.36182,1.66504,2.10693,0,3.0957-.69238,3.0957-1.5625,0-.86035-.66797-1.33984-4.20947-1.97266-4.05664-.73438-5.85938-1.97168-5.85938-3.9707,0-2.28027,2.40869-3.92285,6.66309-3.92285,2.51807,0,4.82031,.85352,6.36328,1.73535l-1.64746,1.89648c-1.47266-.81836-3.229-1.31348-5.03516-1.31348-1.97021,0-2.78564,.65625-2.78564,1.45801,0,.92676,1.11865,1.25098,3.96484,1.78223,4.85938,.9248,6.12354,2.04297,6.12354,4.125,0,2.25781-2.52002,4.08008-7.14209,4.08008-2.83887,0-5.57275-.9248-7.45605-2.03027Z"/></g><path class="cls-12" d="M49.06704,383.95943h-13.70918v-8.44696c0-.68101-.56203-1.23309-1.25532-1.23309h-1.35705c-.69329,0-1.25532,.55207-1.25532,1.23309v8.44696h-13.70813c-1.10782,0-2.17024,.43301-2.95359,1.20376-.78335,.77075-1.22344,1.81614-1.22344,2.90614v3.76283c0,1.09002,.44009,2.13541,1.22344,2.90616,.78335,.77075,1.84577,1.20374,2.95359,1.20374h-.04908v11.60523c.00005,3.08469,.93905,6.09859,2.69602,8.6533,1.75694,2.55495,4.25131,4.53332,7.16154,5.68033,.70609,.2767,1.34768,.69176,1.88591,1.21977l1.94067,1.90956c.53326,.52455,1.25635,.81902,2.01032,.81902s1.47708-.29446,2.01034-.81902l1.9407-1.90956c.53863-.52801,1.1806-.94306,1.88704-1.21977,2.91033-1.14702,5.40465-3.12538,7.16159-5.68033,1.75694-2.5547,2.69592-5.56861,2.69592-8.6533v-11.60523h-.04896c1.10769,0,2.17019-.43299,2.95351-1.20374,.78332-.77075,1.22343-1.81614,1.22343-2.90616v-3.76283c0-.54029-.10821-1.07525-.3186-1.57433s-.5187-.95251-.90734-1.33422c-.38865-.38174-.84985-.68434-1.35725-.89046-.50765-.20615-1.0517-.31177-1.60078-.31089Z"/><text class="cls-3" transform="translate(76.70385 416.25549)"><tspan class="cls-7" x="0" y="0">Y</tspan><tspan x="16.50049" y="0">ou put</tspan></text><text class="cls-3" transform="translate(316.49084 417.41623)"><tspan x="0" y="0">in</tspan><tspan class="cls-10" x="27.95947" y="0">t</tspan><tspan x="40.37891" y="0">o MSC (Mo</tspan><tspan class="cls-18" x="197.96777" y="0">m</tspan><tspan class="cls-17" x="225.14746" y="0">e</tspan><tspan x="242.93701" y="0">n</tspan><tspan class="cls-10" x="262.0166" y="0">t</tspan><tspan x="274.43604" y="0">o Ser</tspan><tspan class="cls-8" x="349.97559" y="0">v</tspan><tspan x="366.41602" y="0">erless Cach</tspan><tspan class="cls-6" x="539.39453" y="0">e</tspan><tspan x="556.43359" y="0">)</tspan></text><path class="cls-12" d="M46.78615,472.55218h-13.70918v-8.44696c0-.68101-.56203-1.23309-1.25532-1.23309h-1.35705c-.69329,0-1.25532,.55207-1.25532,1.23309v8.44696H15.50115c-1.10782,0-2.17024,.43301-2.95359,1.20376-.78335,.77075-1.22344,1.81614-1.22344,2.90614v3.76283c0,1.09002,.44009,2.13541,1.22344,2.90616,.78335,.77075,1.84577,1.20374,2.95359,1.20374h-.04908v11.60523c.00005,3.08469,.93905,6.09859,2.69602,8.6533,1.75694,2.55495,4.25131,4.53332,7.16154,5.68033,.70609,.2767,1.34768,.69176,1.88591,1.21977l1.94067,1.90956c.53326,.52455,1.25635,.81902,2.01032,.81902s1.47708-.29446,2.01034-.81902l1.9407-1.90956c.53863-.52801,1.1806-.94306,1.88704-1.21977,2.91033-1.14702,5.40465-3.12538,7.16159-5.68033,1.75694-2.5547,2.69592-5.56861,2.69592-8.6533v-11.60523h-.04896c1.10769,0,2.17019-.43299,2.95351-1.20374,.78332-.77075,1.22343-1.81614,1.22343-2.90616v-3.76283c0-.54029-.10821-1.07525-.3186-1.57433s-.5187-.95251-.90734-1.33422c-.38865-.38174-.84985-.68434-1.35725-.89046-.50765-.20615-1.0517-.31177-1.60078-.31089Z"/><text class="cls-3" transform="translate(74.42294 504.84824)"><tspan class="cls-7" x="0" y="0">Y</tspan><tspan x="16.50049" y="0">ou put</tspan></text><text class="cls-3" transform="translate(370.42651 504.84727)"><tspan x="0" y="0">in</tspan><tspan class="cls-10" x="27.95947" y="0">t</tspan><tspan x="40.37891" y="0">o a</tspan></text><rect class="cls-2" x="195.76192" y="477.69728" width="164.44498" height="34.35117" rx="7.07713" ry="7.07713"/><g><path class="cls-11" d="M205.58524,496.90259c0-4.28027,3.7666-6.86523,7.83691-6.86523,4.53906,0,7.05518,2.59863,7.05518,6.22949,0,.61523-.09619,1.21387-.1582,1.55176h-12.17871v-2.18066h9.86621l-.68408,.68262c0-2.5918-1.4126-3.9082-3.79297-3.9082-2.51367,0-4.45117,1.56152-4.45117,4.49023,0,3.05273,2.12939,4.50781,5.2915,4.50781,1.59131,0,2.90186-.40234,4.26367-1.07227l1.22461,1.91309c-1.62256,.91406-3.72412,1.5498-5.95703,1.5498-4.65674,0-8.31592-2.53125-8.31592-6.89844Z"/><path class="cls-11" d="M229.23953,498.70435v-11.64258h-5.0752v-2.44727h8.65625v14.25c0,1.75195,1.19922,2.41699,2.7334,2.41699,.78711,0,1.625-.1582,2.60156-.50977l.83203,2.28418c-1.49561,.47852-2.53174,.74512-4.30908,.74512-3.54932,0-5.43896-1.87695-5.43896-5.09668Z"/><path class="cls-11" d="M242.73563,496.90259c0-4.28027,3.7666-6.86523,7.83691-6.86523,4.53906,0,7.05518,2.59863,7.05518,6.22949,0,.61523-.09619,1.21387-.1582,1.55176h-12.17871v-2.18066h9.86621l-.68408,.68262c0-2.5918-1.4126-3.9082-3.79297-3.9082-2.51367,0-4.45117,1.56152-4.45117,4.49023,0,3.05273,2.12939,4.50781,5.2915,4.50781,1.59131,0,2.90186-.40234,4.26367-1.07227l1.22461,1.91309c-1.62256,.91406-3.72412,1.5498-5.95703,1.5498-4.65674,0-8.31592-2.53125-8.31592-6.89844Z"/><path class="cls-11" d="M260.84207,490.35864h2.74805l.27344,1.6709h.08447c.67188-1.13379,1.62354-1.99219,3.37988-1.99219,1.40625,0,2.35791,.74902,2.75732,2.20508,.70801-1.29102,1.71631-2.20508,3.46143-2.20508,2.15039,0,3.38916,1.52441,3.38916,4.14551v9.29785h-3.44775v-9.0791c0-1.15234-.35938-1.73145-1.2124-1.73145-.81396,0-1.2915,.54102-1.90332,1.64062v9.16992h-2.9668v-9.0791c0-1.15234-.354-1.73145-1.20703-1.73145-.80273,0-1.33594,.54102-1.90869,1.64062v9.16992h-3.44775v-13.12207Z"/><path class="cls-11" d="M279.88602,496.90259c0-4.28027,3.7666-6.86523,7.83691-6.86523,4.53906,0,7.05518,2.59863,7.05518,6.22949,0,.61523-.09619,1.21387-.1582,1.55176h-12.17871v-2.18066h9.86621l-.68408,.68262c0-2.5918-1.4126-3.9082-3.79297-3.9082-2.51367,0-4.45117,1.56152-4.45117,4.49023,0,3.05273,2.12939,4.50781,5.2915,4.50781,1.59131,0,2.90186-.40234,4.26367-1.07227l1.22461,1.91309c-1.62256,.91406-3.72412,1.5498-5.95703,1.5498-4.65674,0-8.31592-2.53125-8.31592-6.89844Z"/><path class="cls-11" d="M299.11014,490.35864h2.92334l.27344,1.97461h.12402c1.4541-1.26855,3.16504-2.2959,5.48389-2.2959,3.51514,0,5.09912,1.93457,5.09912,5.31543v8.12793h-3.58105v-7.72559c0-2.10547-.78613-3.06836-2.83447-3.06836-1.5,0-2.51465,.62793-3.90723,1.84473v8.94922h-3.58105v-13.12207Z"/><path class="cls-11" d="M321.01346,498.20532v-5.39941h-4.06787v-2.30371l4.21729-.14355,.46582-4.10938h2.96582v4.10938h6.91357v2.44727h-6.91357v5.38672c0,2.16797,.94336,3.14453,3.5127,3.14453,1.26807,0,2.31445-.2207,3.30713-.5293l.69336,2.24805c-1.36182,.38867-2.89648,.74512-4.86475,.74512-4.64648,0-6.22949-2.25195-6.22949-5.5957Z"/><path class="cls-11" d="M335.62479,501.77075l1.56299-1.96973c1.81299,1.03906,3.89062,1.66504,6.36182,1.66504,2.10693,0,3.0957-.69238,3.0957-1.5625,0-.86035-.66797-1.33984-4.20947-1.97266-4.05664-.73438-5.85938-1.97168-5.85938-3.9707,0-2.28027,2.40869-3.92285,6.66309-3.92285,2.51807,0,4.82031,.85352,6.36328,1.73535l-1.64746,1.89648c-1.47266-.81836-3.229-1.31348-5.03516-1.31348-1.97021,0-2.78564,.65625-2.78564,1.45801,0,.92676,1.11865,1.25098,3.96484,1.78223,4.85938,.9248,6.12354,2.04297,6.12354,4.125,0,2.25781-2.52002,4.08008-7.14209,4.08008-2.83887,0-5.57275-.9248-7.45605-2.03027Z"/></g><rect class="cls-2" x="470.34927" y="476.14767" width="209.5318" height="35.31727" rx="7.80315" ry="7.80315"/><g><path class="cls-11" d="M484.51297,497.69458c0-4.38477,3.99805-6.89941,8.64014-6.89941,2.43408,0,4.35498,.79688,5.61621,1.84863l-1.68994,1.93555c-1.2041-.82031-2.39111-1.26367-3.75391-1.26367-3.04736,0-5.14697,1.73926-5.14697,4.37891,0,2.62207,2.06885,4.34473,5.03955,4.34473,1.73242,0,3.16699-.66309,4.33691-1.44336l1.49805,1.97168c-1.7627,1.3125-3.98486,1.99121-6.146,1.99121-4.77393,0-8.39404-2.51367-8.39404-6.86426Z"/><path class="cls-11" d="M502.46854,497.69458c0-4.38477,3.62695-6.89941,7.63525-6.89941s7.63477,2.51465,7.63477,6.89941c0,4.35059-3.62646,6.86426-7.63477,6.86426s-7.63525-2.51367-7.63525-6.86426Zm11.60449,0c0-2.63965-1.48779-4.37891-3.96924-4.37891s-3.96924,1.73926-3.96924,4.37891c0,2.62207,1.48779,4.34473,3.96924,4.34473s3.96924-1.72266,3.96924-4.34473Z"/><path class="cls-11" d="M526.37088,499.46216v-11.64258h-5.0752v-2.44727h8.65625v14.25c0,1.75195,1.19922,2.41699,2.7334,2.41699,.78711,0,1.625-.1582,2.60156-.50977l.83203,2.28418c-1.49561,.47852-2.53174,.74512-4.30908,.74512-3.54932,0-5.43896-1.87695-5.43896-5.09668Z"/><path class="cls-11" d="M544.94607,499.46216v-11.64258h-5.0752v-2.44727h8.65625v14.25c0,1.75195,1.19922,2.41699,2.7334,2.41699,.78711,0,1.625-.1582,2.60156-.50977l.83203,2.28418c-1.49561,.47852-2.53174,.74512-4.30908,.74512-3.54932,0-5.43896-1.87695-5.43896-5.09668Z"/><path class="cls-11" d="M558.44217,497.6604c0-4.28027,3.7666-6.86523,7.83691-6.86523,4.53906,0,7.05518,2.59863,7.05518,6.22949,0,.61523-.09619,1.21387-.1582,1.55176h-12.17871v-2.18066h9.86621l-.68408,.68262c0-2.5918-1.4126-3.9082-3.79297-3.9082-2.51367,0-4.45117,1.56152-4.45117,4.49023,0,3.05273,2.12939,4.50781,5.2915,4.50781,1.59131,0,2.90186-.40234,4.26367-1.07227l1.22461,1.91309c-1.62256,.91406-3.72412,1.5498-5.95703,1.5498-4.65674,0-8.31592-2.53125-8.31592-6.89844Z"/><path class="cls-11" d="M577.38895,497.69458c0-4.38477,3.99805-6.89941,8.64014-6.89941,2.43408,0,4.35498,.79688,5.61621,1.84863l-1.68994,1.93555c-1.2041-.82031-2.39111-1.26367-3.75391-1.26367-3.04736,0-5.14697,1.73926-5.14697,4.37891,0,2.62207,2.06885,4.34473,5.03955,4.34473,1.73242,0,3.16699-.66309,4.33691-1.44336l1.49805,1.97168c-1.7627,1.3125-3.98486,1.99121-6.146,1.99121-4.77393,0-8.39404-2.51367-8.39404-6.86426Z"/><path class="cls-11" d="M599.56961,498.96313v-5.39941h-4.06787v-2.30371l4.21729-.14355,.46582-4.10938h2.96582v4.10938h6.91357v2.44727h-6.91357v5.38672c0,2.16797,.94336,3.14453,3.5127,3.14453,1.26807,0,2.31445-.2207,3.30713-.5293l.69336,2.24805c-1.36182,.38867-2.89648,.74512-4.86475,.74512-4.64648,0-6.22949-2.25195-6.22949-5.5957Z"/><path class="cls-11" d="M621.43973,493.56372h-6.56836v-2.44727h10.14941v13.12207h-3.58105v-10.6748Zm-.9873-6.90234c0-1.23145,1.07129-2.08301,2.54297-2.08301,1.47217,0,2.54346,.85156,2.54346,2.08301,0,1.24805-1.07129,2.06348-2.54346,2.06348-1.47168,0-2.54297-.81543-2.54297-2.06348Z"/><path class="cls-11" d="M632.4949,497.69458c0-4.38477,3.62695-6.89941,7.63477-6.89941,4.00879,0,7.63477,2.51465,7.63477,6.89941,0,4.35059-3.62598,6.86426-7.63477,6.86426-4.00781,0-7.63477-2.51367-7.63477-6.86426Zm11.60449,0c0-2.63965-1.48828-4.37891-3.96973-4.37891s-3.96875,1.73926-3.96875,4.37891c0,2.62207,1.4873,4.34473,3.96875,4.34473s3.96973-1.72266,3.96973-4.34473Z"/><path class="cls-11" d="M651.96658,491.11645h2.92383l.27344,1.97461h.12402c1.4541-1.26855,3.16504-2.2959,5.4834-2.2959,3.51562,0,5.09961,1.93457,5.09961,5.31543v8.12793h-3.58105v-7.72559c0-2.10547-.78613-3.06836-2.83496-3.06836-1.5,0-2.51465,.62793-3.90723,1.84473v8.94922h-3.58105v-13.12207Z"/></g><path class="cls-12" d="M48.06987,561.14494h-13.70918v-8.44696c0-.68101-.56203-1.23309-1.25532-1.23309h-1.35705c-.69329,0-1.25532,.55207-1.25532,1.23309v8.44696h-13.70813c-1.10782,0-2.17024,.43301-2.95359,1.20376-.78335,.77075-1.22344,1.81614-1.22344,2.90614v3.76283c0,1.09002,.44009,2.13541,1.22344,2.90616,.78335,.77075,1.84577,1.20374,2.95359,1.20374h-.04908v11.60523c.00005,3.08469,.93905,6.09859,2.69602,8.6533,1.75694,2.55495,4.25131,4.53332,7.16154,5.68033,.70609,.2767,1.34768,.69176,1.88591,1.21977l1.94067,1.90956c.53326,.52455,1.25635,.81902,2.01032,.81902s1.47708-.29446,2.01034-.81902l1.9407-1.90956c.53863-.52801,1.1806-.94306,1.88704-1.21977,2.91033-1.14702,5.40465-3.12538,7.16159-5.68033,1.75694-2.5547,2.69592-5.56861,2.69592-8.6533v-11.60523h-.04896c1.10769,0,2.17019-.43299,2.95351-1.20374,.78332-.77075,1.22343-1.81614,1.22343-2.90616v-3.76283c0-.54029-.10821-1.07525-.3186-1.57433s-.5187-.95251-.90734-1.33422c-.38865-.38174-.84985-.68434-1.35725-.89046-.50765-.20615-1.0517-.31177-1.60078-.31089Z"/><text class="cls-3" transform="translate(74.70666 593.44002)"><tspan x="0" y="0">The</tspan></text><text class="cls-3" transform="translate(313.93763 593.44002)"><tspan x="0" y="0">of a </tspan></text><rect class="cls-2" x="380.78193" y="565.50227" width="205.75481" height="35.13893" rx="7.33253" ry="7.33253"/><g><path class="cls-11" d="M394.32596,585.52954c0-4.28027,3.23975-6.89941,6.68652-6.89941,1.73877,0,3.00684,.56641,4.19043,1.53906h.08496l-.16943-2.21094v-4.75098h3.58105v18.86621h-2.92334l-.27393-1.5332h-.104c-1.18164,1.02637-2.875,1.85352-4.58154,1.85352-3.9126,0-6.49072-2.53613-6.49072-6.86426Zm10.79248,2.7373v-5.89746c-1.08936-.86914-2.14307-1.18164-3.23877-1.18164-2.12354,0-3.8877,1.56445-3.8877,4.30469,0,2.84473,1.3877,4.34473,3.68848,4.34473,1.25879,0,2.37939-.48438,3.43799-1.57031Z"/><path class="cls-11" d="M420.42117,581.39868h-6.56836v-2.44727h10.14941v13.12207h-3.58105v-10.6748Zm-.9873-6.90234c0-1.23145,1.07129-2.08301,2.54297-2.08301,1.47217,0,2.54346,.85156,2.54346,2.08301,0,1.24805-1.07129,2.06348-2.54346,2.06348-1.47168,0-2.54297-.81543-2.54297-2.06348Z"/><path class="cls-11" d="M432.09598,585.52954c0-4.38477,3.99805-6.89941,8.64014-6.89941,2.43408,0,4.35498,.79688,5.61621,1.84863l-1.68994,1.93555c-1.2041-.82031-2.39111-1.26367-3.75391-1.26367-3.04736,0-5.14697,1.73926-5.14697,4.37891,0,2.62207,2.06885,4.34473,5.03955,4.34473,1.73242,0,3.16699-.66309,4.33691-1.44336l1.49805,1.97168c-1.7627,1.3125-3.98486,1.99121-6.146,1.99121-4.77393,0-8.39404-2.51367-8.39404-6.86426Z"/><path class="cls-11" d="M454.27664,586.7981v-5.39941h-4.06787v-2.30371l4.21729-.14355,.46582-4.10938h2.96582v4.10938h6.91357v2.44727h-6.91357v5.38672c0,2.16797,.94336,3.14453,3.5127,3.14453,1.26807,0,2.31445-.2207,3.30713-.5293l.69336,2.24805c-1.36182,.38867-2.89648,.74512-4.86475,.74512-4.64648,0-6.22949-2.25195-6.22949-5.5957Z"/><path class="cls-11" d="M476.14676,581.39868h-6.56836v-2.44727h10.14941v13.12207h-3.58105v-10.6748Zm-.9873-6.90234c0-1.23145,1.07129-2.08301,2.54297-2.08301,1.47217,0,2.54346,.85156,2.54346,2.08301,0,1.24805-1.07129,2.06348-2.54346,2.06348-1.47168,0-2.54297-.81543-2.54297-2.06348Z"/><path class="cls-11" d="M487.20193,585.52954c0-4.38477,3.62695-6.89941,7.63525-6.89941s7.63477,2.51465,7.63477,6.89941c0,4.35059-3.62646,6.86426-7.63477,6.86426s-7.63525-2.51367-7.63525-6.86426Zm11.60449,0c0-2.63965-1.48779-4.37891-3.96924-4.37891s-3.96924,1.73926-3.96924,4.37891c0,2.62207,1.48779,4.34473,3.96924,4.34473s3.96924-1.72266,3.96924-4.34473Z"/><path class="cls-11" d="M506.6741,578.95142h2.92334l.27344,1.97461h.12402c1.4541-1.26855,3.16504-2.2959,5.48389-2.2959,3.51514,0,5.09912,1.93457,5.09912,5.31543v8.12793h-3.58105v-7.72559c0-2.10547-.78613-3.06836-2.83447-3.06836-1.5,0-2.51465,.62793-3.90723,1.84473v8.94922h-3.58105v-13.12207Z"/><path class="cls-11" d="M524.88065,588.55005c0-2.94141,2.99902-4.40625,10.50879-4.8623-.12695-1.46973-1.14062-2.57324-3.61914-2.57324-1.71191,0-3.40381,.64453-4.96777,1.39258l-1.32812-2.0459c1.84326-.95215,4.33643-1.83105,6.95654-1.83105,4.22021,0,6.53955,2.02246,6.53955,5.67773v7.76562h-2.94336l-.27344-1.62598h-.104c-1.5957,1.06348-3.6377,1.94629-5.6748,1.94629-2.96533,0-5.09424-1.56836-5.09424-3.84375Zm10.50879-.17383v-2.75879c-5.4624,.31055-7.03809,1.27832-7.03809,2.69434,0,1.15527,1.18457,1.65527,2.69092,1.65527,1.53223,0,2.94287-.61621,4.34717-1.59082Z"/><path class="cls-11" d="M545.29813,578.95142h2.9541l.30469,2.98438h.08447c1.54492-2.14062,3.85254-3.30566,6.46826-3.30566,1.22852,0,2.05518,.16309,2.96094,.53516l-.75879,2.6123c-1.00684-.27441-1.59814-.40723-2.75195-.40723-2.07861,0-4.12354,.91992-5.68066,3.46777v7.23535h-3.58105v-13.12207Z"/><path class="cls-11" d="M561.9241,597.18481l.67432-2.3916c.40234,.10742,.85205,.17773,1.271,.17773,1.93506,0,3.04541-.92383,3.66309-2.23242l.36572-.82422-6.81543-12.96289h3.57812l3.10791,6.41504c.56543,1.19824,1.13574,2.55078,1.68701,3.875h.12354c.46973-1.27832,1.02393-2.64062,1.50781-3.875l2.73926-6.41504h3.40869l-6.34961,13.71973c-1.30762,2.94727-3.13428,4.78027-6.79785,4.78027-.80322,0-1.56885-.10645-2.16357-.2666Z"/></g><text class="cls-3" transform="translate(600.61786 593.44002)"><tspan class="cls-17" x="0" y="0">c</tspan><tspan x="17.03955" y="0">ollection a</tspan><tspan class="cls-18" x="172.91748" y="0">r</tspan><tspan x="184.97705" y="0">e</tspan></text><rect class="cls-2" x="823.74999" y="565.50227" width="109.24078" height="36.14" rx="7.09955" ry="7.09955"/><g><path class="cls-11" d="M834.05252,579.09497l4.28613-.14355h9.22754v2.44727h-13.51367v-2.30371Zm4.17871-.85645c0-3.09473,1.9873-5.35254,6.47754-5.35254,1.62207,0,3.13672,.29004,4.49316,.72852l-.73633,2.28418c-1.10156-.38477-2.11816-.56543-3.35059-.56543-2.31836,0-3.32227,1.01562-3.32227,2.85449v13.88574h-3.56152v-13.83496Z"/><path class="cls-11" d="M858.94119,581.39868h-6.56836v-2.44727h10.14941v13.12207h-3.58105v-10.6748Zm-.9873-6.90234c0-1.23145,1.07129-2.08301,2.54297-2.08301,1.47266,0,2.54395,.85156,2.54395,2.08301,0,1.24805-1.07129,2.06348-2.54395,2.06348-1.47168,0-2.54297-.81543-2.54297-2.06348Z"/><path class="cls-11" d="M870.2449,585.49536c0-4.28027,3.7666-6.86523,7.83691-6.86523,4.53906,0,7.05469,2.59863,7.05469,6.22949,0,.61523-.0957,1.21387-.1582,1.55176h-12.17871v-2.18066h9.86621l-.68359,.68262c0-2.5918-1.41309-3.9082-3.79297-3.9082-2.51367,0-4.45117,1.56152-4.45117,4.49023,0,3.05273,2.12891,4.50781,5.29102,4.50781,1.5918,0,2.90234-.40234,4.26367-1.07227l1.22461,1.91309c-1.62207,.91406-3.72363,1.5498-5.95703,1.5498-4.65625,0-8.31543-2.53125-8.31543-6.89844Z"/><path class="cls-11" d="M893.8992,587.29712v-11.64258h-5.0752v-2.44727h8.65625v14.25c0,1.75195,1.19922,2.41699,2.7334,2.41699,.78711,0,1.625-.1582,2.60156-.50977l.83203,2.28418c-1.49609,.47852-2.53223,.74512-4.30957,.74512-3.54883,0-5.43848-1.87695-5.43848-5.09668Z"/><path class="cls-11" d="M907.14725,585.52954c0-4.28027,3.23926-6.89941,6.68652-6.89941,1.73828,0,3.00684,.56641,4.19043,1.53906h.08496l-.16992-2.21094v-4.75098h3.58105v18.86621h-2.92285l-.27441-1.5332h-.10352c-1.18164,1.02637-2.875,1.85352-4.58203,1.85352-3.91211,0-6.49023-2.53613-6.49023-6.86426Zm10.79199,2.7373v-5.89746c-1.08887-.86914-2.14258-1.18164-3.23828-1.18164-2.12402,0-3.8877,1.56445-3.8877,4.30469,0,2.84473,1.3877,4.34473,3.68848,4.34473,1.25879,0,2.37891-.48438,3.4375-1.57031Z"/></g><rect class="cls-2" x="995.36851" y="565.50227" width="129.11745" height="35.13896" rx="7.74915" ry="7.74915"/><g><path class="cls-11" d="M1015.03494,578.95142h3.62012l2.93359,6.78809c.54297,1.31934,1.03223,2.64062,1.52441,3.96484h.12402c.49219-1.32422,.94238-2.64551,1.50391-3.96484l2.93359-6.78809h3.43164l-5.93555,13.12207h-4.07227l-6.06348-13.12207Z"/><path class="cls-11" d="M1034.53885,588.55005c0-2.94141,2.99902-4.40625,10.50879-4.8623-.12695-1.46973-1.14062-2.57324-3.61914-2.57324-1.71191,0-3.40332,.64453-4.96777,1.39258l-1.32812-2.0459c1.84375-.95215,4.33691-1.83105,6.95703-1.83105,4.21973,0,6.53906,2.02246,6.53906,5.67773v7.76562h-2.94336l-.27344-1.62598h-.10352c-1.5957,1.06348-3.6377,1.94629-5.6748,1.94629-2.96582,0-5.09473-1.56836-5.09473-3.84375Zm10.50879-.17383v-2.75879c-5.46191,.31055-7.03809,1.27832-7.03809,2.69434,0,1.15527,1.18457,1.65527,2.69141,1.65527,1.53223,0,2.94238-.61621,4.34668-1.59082Z"/><path class="cls-11" d="M1057.91287,587.29712v-11.64258h-5.0752v-2.44727h8.65625v14.25c0,1.75195,1.19922,2.41699,2.7334,2.41699,.78711,0,1.625-.1582,2.60156-.50977l.83203,2.28418c-1.49512,.47852-2.53125,.74512-4.30859,.74512-3.5498,0-5.43945-1.87695-5.43945-5.09668Z"/><path class="cls-11" d="M1071.65408,587.07935v-8.12793h3.58105v7.72559c0,2.08789,.7627,3.06738,2.8418,3.06738,1.42676,0,2.45801-.51758,3.81152-1.93652v-8.85645h3.58105v13.12207h-2.94336l-.27344-2.08496h-.12402c-1.4375,1.43457-3.12207,2.40527-5.3877,2.40527-3.52637,0-5.08691-1.93457-5.08691-5.31445Z"/><path class="cls-11" d="M1089.98416,585.49536c0-4.28027,3.7666-6.86523,7.83691-6.86523,4.53906,0,7.05566,2.59863,7.05566,6.22949,0,.61523-.09668,1.21387-.1582,1.55176h-12.17871v-2.18066h9.86621l-.68457,.68262c0-2.5918-1.41211-3.9082-3.79297-3.9082-2.51367,0-4.45117,1.56152-4.45117,4.49023,0,3.05273,2.12988,4.50781,5.29199,4.50781,1.59082,0,2.90137-.40234,4.26367-1.07227l1.22461,1.91309c-1.62305,.91406-3.72461,1.5498-5.95703,1.5498-4.65723,0-8.31641-2.53125-8.31641-6.89844Z"/></g><text class="cls-3" transform="translate(1142.7402 593.44102)"><tspan x="0" y="0">pai</tspan><tspan class="cls-8" x="45.08936" y="0">r</tspan><tspan x="56.84961" y="0">s</tspan></text><g><line class="cls-15" x1="947.68569" y1="582.64119" x2="976.18398" y2="582.64119"/><polygon class="cls-12" points="967.26039 590.23616 974.85988 582.64119 967.26039 575.04609 973.70937 575.04609 981.30434 582.64119 973.70937 590.23616 967.26039 590.23616"/></g><rect class="cls-2" x="139.19168" y="566.29003" width="164.44498" height="34.35117" rx="7.07713" ry="7.07713"/><g><path class="cls-11" d="M149.01492,585.49536c0-4.28027,3.7666-6.86523,7.83691-6.86523,4.53906,0,7.05518,2.59863,7.05518,6.22949,0,.61523-.09619,1.21387-.1582,1.55176h-12.17871v-2.18066h9.86621l-.68408,.68262c0-2.5918-1.4126-3.9082-3.79297-3.9082-2.51367,0-4.45117,1.56152-4.45117,4.49023,0,3.05273,2.12939,4.50781,5.2915,4.50781,1.59131,0,2.90186-.40234,4.26367-1.07227l1.22461,1.91309c-1.62256,.91406-3.72412,1.5498-5.95703,1.5498-4.65674,0-8.31592-2.53125-8.31592-6.89844Z"/><path class="cls-11" d="M172.66922,587.29712v-11.64258h-5.0752v-2.44727h8.65625v14.25c0,1.75195,1.19922,2.41699,2.7334,2.41699,.78711,0,1.625-.1582,2.60156-.50977l.83203,2.28418c-1.49561,.47852-2.53174,.74512-4.30908,.74512-3.54932,0-5.43896-1.87695-5.43896-5.09668Z"/><path class="cls-11" d="M186.16531,585.49536c0-4.28027,3.7666-6.86523,7.83691-6.86523,4.53906,0,7.05518,2.59863,7.05518,6.22949,0,.61523-.09619,1.21387-.1582,1.55176h-12.17871v-2.18066h9.86621l-.68408,.68262c0-2.5918-1.4126-3.9082-3.79297-3.9082-2.51367,0-4.45117,1.56152-4.45117,4.49023,0,3.05273,2.12939,4.50781,5.2915,4.50781,1.59131,0,2.90186-.40234,4.26367-1.07227l1.22461,1.91309c-1.62256,.91406-3.72412,1.5498-5.95703,1.5498-4.65674,0-8.31592-2.53125-8.31592-6.89844Z"/><path class="cls-11" d="M204.27176,578.95142h2.74805l.27344,1.6709h.08447c.67188-1.13379,1.62354-1.99219,3.37988-1.99219,1.40625,0,2.35791,.74902,2.75732,2.20508,.70801-1.29102,1.71631-2.20508,3.46143-2.20508,2.15039,0,3.38916,1.52441,3.38916,4.14551v9.29785h-3.44775v-9.0791c0-1.15234-.35938-1.73145-1.2124-1.73145-.81396,0-1.2915,.54102-1.90332,1.64062v9.16992h-2.9668v-9.0791c0-1.15234-.354-1.73145-1.20703-1.73145-.80273,0-1.33594,.54102-1.90869,1.64062v9.16992h-3.44775v-13.12207Z"/><path class="cls-11" d="M223.3157,585.49536c0-4.28027,3.7666-6.86523,7.83691-6.86523,4.53906,0,7.05518,2.59863,7.05518,6.22949,0,.61523-.09619,1.21387-.1582,1.55176h-12.17871v-2.18066h9.86621l-.68408,.68262c0-2.5918-1.4126-3.9082-3.79297-3.9082-2.51367,0-4.45117,1.56152-4.45117,4.49023,0,3.05273,2.12939,4.50781,5.2915,4.50781,1.59131,0,2.90186-.40234,4.26367-1.07227l1.22461,1.91309c-1.62256,.91406-3.72412,1.5498-5.95703,1.5498-4.65674,0-8.31592-2.53125-8.31592-6.89844Z"/><path class="cls-11" d="M242.53982,578.95142h2.92334l.27344,1.97461h.12402c1.4541-1.26855,3.16504-2.2959,5.48389-2.2959,3.51514,0,5.09912,1.93457,5.09912,5.31543v8.12793h-3.58105v-7.72559c0-2.10547-.78613-3.06836-2.83447-3.06836-1.5,0-2.51465,.62793-3.90723,1.84473v8.94922h-3.58105v-13.12207Z"/><path class="cls-11" d="M264.44315,586.7981v-5.39941h-4.06787v-2.30371l4.21729-.14355,.46582-4.10938h2.96582v4.10938h6.91357v2.44727h-6.91357v5.38672c0,2.16797,.94336,3.14453,3.5127,3.14453,1.26807,0,2.31445-.2207,3.30713-.5293l.69336,2.24805c-1.36182,.38867-2.89648,.74512-4.86475,.74512-4.64648,0-6.22949-2.25195-6.22949-5.5957Z"/><path class="cls-11" d="M279.05447,590.36352l1.56299-1.96973c1.81299,1.03906,3.89062,1.66504,6.36182,1.66504,2.10693,0,3.0957-.69238,3.0957-1.5625,0-.86035-.66797-1.33984-4.20947-1.97266-4.05664-.73438-5.85938-1.97168-5.85938-3.9707,0-2.28027,2.40869-3.92285,6.66309-3.92285,2.51807,0,4.82031,.85352,6.36328,1.73535l-1.64746,1.89648c-1.47266-.81836-3.229-1.31348-5.03516-1.31348-1.97021,0-2.78564,.65625-2.78564,1.45801,0,.92676,1.11865,1.25098,3.96484,1.78223,4.85938,.9248,6.12354,2.04297,6.12354,4.125,0,2.25781-2.52002,4.08008-7.14209,4.08008-2.83887,0-5.57275-.9248-7.45605-2.03027Z"/></g></svg>