<svg version="1.1" xmlns="http://www.w3.org/2000/svg" viewBox="0 0 703 350" width="703" height="350">
  <!-- svg-source:excalidraw -->
  
  <defs>
    <style class="style-fonts">
      @font-face {
        font-family: "Virgil";
        src: url("https://excalidraw.com/Virgil.woff2");
      }
      @font-face {
        font-family: "Cascadia";
        src: url("https://excalidraw.com/Cascadia.woff2");
      }
    </style>
  </defs>
  <rect x="0" y="0" width="703" height="350" fill="#ffffff"></rect><g stroke-linecap="round" transform="translate(114 10) rotate(0 218.5 35)"><path d="M4.66 4.05 C4.66 4.05, 4.66 4.05, 4.66 4.05 M4.66 4.05 C4.66 4.05, 4.66 4.05, 4.66 4.05 M3.08 11.96 C5.76 8.88, 8.43 5.81, 11.61 2.15 M3.08 11.96 C5.34 9.36, 7.6 6.76, 11.61 2.15 M2.17 19.11 C5.75 14.99, 9.32 10.88, 17.91 1 M2.17 19.11 C7.57 12.89, 12.97 6.68, 17.91 1 M1.91 25.51 C8.15 18.33, 14.39 11.15, 23.56 0.6 M1.91 25.51 C7.89 18.62, 13.88 11.73, 23.56 0.6 M2.3 31.15 C7.69 24.95, 13.08 18.75, 28.54 0.96 M2.3 31.15 C9.87 22.44, 17.45 13.72, 28.54 0.96 M2.04 37.55 C10.41 27.92, 18.77 18.3, 34.19 0.57 M2.04 37.55 C13.02 24.92, 23.99 12.29, 34.19 0.57 M1.78 43.95 C13.39 30.58, 25.01 17.22, 39.17 0.93 M1.78 43.95 C12.32 31.82, 22.86 19.69, 39.17 0.93 M2.17 49.59 C14.67 35.21, 27.17 20.83, 44.82 0.53 M2.17 49.59 C14.49 35.41, 26.82 21.24, 44.82 0.53 M2.57 55.23 C13.27 42.92, 23.98 30.6, 49.8 0.89 M2.57 55.23 C12.97 43.26, 23.37 31.29, 49.8 0.89 M2.31 61.63 C19.05 42.37, 35.79 23.1, 55.45 0.5 M2.31 61.63 C16.08 45.78, 29.86 29.93, 55.45 0.5 M4.67 65.01 C24.24 42.49, 43.82 19.97, 60.43 0.86 M4.67 65.01 C19.27 48.21, 33.87 31.41, 60.43 0.86 M7.69 67.63 C20.44 52.97, 33.18 38.3, 66.08 0.46 M7.69 67.63 C19.57 53.97, 31.45 40.3, 66.08 0.46 M11.36 69.5 C29.01 49.2, 46.66 28.9, 71.06 0.82 M11.36 69.5 C30.81 47.13, 50.26 24.75, 71.06 0.82 M15.04 71.37 C37.18 45.89, 59.33 20.41, 76.71 0.43 M15.04 71.37 C38.7 44.15, 62.36 16.93, 76.71 0.43 M20.68 70.98 C44.24 43.87, 67.8 16.77, 81.69 0.79 M20.68 70.98 C44.6 43.45, 68.53 15.93, 81.69 0.79 M25.67 71.34 C41.57 53.05, 57.47 34.75, 87.34 0.39 M25.67 71.34 C42.5 51.97, 59.33 32.61, 87.34 0.39 M31.31 70.94 C53.43 45.5, 75.55 20.05, 92.32 0.75 M31.31 70.94 C43.63 56.77, 55.95 42.6, 92.32 0.75 M36.3 71.3 C54.73 50.1, 73.15 28.9, 97.97 0.36 M36.3 71.3 C52.04 53.19, 67.78 35.09, 97.97 0.36 M41.94 70.91 C58.94 51.35, 75.95 31.79, 102.95 0.72 M41.94 70.91 C63.72 45.85, 85.5 20.8, 102.95 0.72 M46.93 71.27 C61.15 54.91, 75.37 38.55, 108.6 0.33 M46.93 71.27 C67 48.18, 87.07 25.09, 108.6 0.33 M51.91 71.63 C64.41 57.26, 76.9 42.88, 113.58 0.69 M51.91 71.63 C65.5 56, 79.08 40.37, 113.58 0.69 M57.56 71.23 C73.76 52.59, 89.97 33.95, 118.57 1.05 M57.56 71.23 C81.31 43.91, 105.07 16.58, 118.57 1.05 M62.54 71.59 C82.05 49.15, 101.56 26.71, 124.21 0.65 M62.54 71.59 C75.84 56.3, 89.13 41.01, 124.21 0.65 M68.19 71.2 C91.4 44.49, 114.62 17.79, 129.2 1.01 M68.19 71.2 C90.38 45.67, 112.58 20.13, 129.2 1.01 M73.17 71.56 C86.49 56.24, 99.81 40.91, 134.84 0.62 M73.17 71.56 C93.38 48.32, 113.58 25.08, 134.84 0.62 M78.82 71.16 C91.99 56.01, 105.16 40.86, 139.83 0.98 M78.82 71.16 C95.68 51.76, 112.55 32.36, 139.83 0.98 M83.8 71.52 C96.86 56.5, 109.92 41.48, 145.47 0.58 M83.8 71.52 C96.27 57.19, 108.73 42.85, 145.47 0.58 M89.45 71.13 C112.42 44.7, 135.4 18.27, 150.46 0.94 M89.45 71.13 C111.77 45.45, 134.1 19.76, 150.46 0.94 M94.43 71.49 C108.49 55.32, 122.54 39.15, 156.1 0.55 M94.43 71.49 C109.58 54.07, 124.72 36.65, 156.1 0.55 M100.08 71.1 C120.28 47.85, 140.49 24.6, 161.09 0.91 M100.08 71.1 C123.38 44.29, 146.68 17.49, 161.09 0.91 M105.06 71.46 C123.73 49.98, 142.4 28.51, 166.73 0.51 M105.06 71.46 C125.15 48.35, 145.23 25.25, 166.73 0.51 M110.71 71.06 C129.78 49.11, 148.86 27.17, 171.72 0.87 M110.71 71.06 C128.08 51.07, 145.46 31.08, 171.72 0.87 M115.69 71.42 C133.49 50.95, 151.28 30.48, 177.36 0.48 M115.69 71.42 C132.4 52.21, 149.1 32.99, 177.36 0.48 M121.34 71.03 C134.63 55.73, 147.93 40.44, 182.35 0.84 M121.34 71.03 C142.46 46.73, 163.58 22.43, 182.35 0.84 M126.32 71.39 C148.02 46.43, 169.72 21.47, 187.99 0.44 M126.32 71.39 C149.18 45.1, 172.03 18.81, 187.99 0.44 M131.97 70.99 C150.75 49.39, 169.53 27.78, 192.98 0.8 M131.97 70.99 C147.12 53.56, 162.27 36.13, 192.98 0.8 M136.95 71.35 C153.8 51.98, 170.64 32.61, 198.62 0.41 M136.95 71.35 C153.92 51.83, 170.89 32.32, 198.62 0.41 M142.6 70.96 C161.36 49.38, 180.12 27.79, 203.61 0.77 M142.6 70.96 C166.07 43.96, 189.54 16.96, 203.61 0.77 M147.58 71.32 C168.75 46.97, 189.91 22.63, 208.6 1.13 M147.58 71.32 C165.64 50.55, 183.69 29.78, 208.6 1.13 M152.57 71.68 C171.44 49.97, 190.31 28.27, 214.24 0.74 M152.57 71.68 C174.74 46.18, 196.91 20.67, 214.24 0.74 M158.21 71.28 C175.4 51.51, 192.59 31.73, 219.23 1.1 M158.21 71.28 C176.83 49.87, 195.44 28.46, 219.23 1.1 M163.2 71.64 C179.01 53.45, 194.82 35.27, 224.87 0.7 M163.2 71.64 C180.96 51.22, 198.71 30.79, 224.87 0.7 M168.84 71.25 C187.18 50.16, 205.51 29.07, 229.86 1.06 M168.84 71.25 C183.23 54.69, 197.63 38.14, 229.86 1.06 M173.83 71.61 C190.85 52.03, 207.87 32.45, 235.5 0.67 M173.83 71.61 C192.09 50.6, 210.36 29.59, 235.5 0.67 M179.47 71.21 C194.1 54.39, 208.73 37.57, 240.49 1.03 M179.47 71.21 C202.8 44.38, 226.13 17.54, 240.49 1.03 M184.46 71.57 C205.8 47.03, 227.14 22.48, 246.13 0.63 M184.46 71.57 C198.11 55.88, 211.75 40.18, 246.13 0.63 M190.1 71.18 C205.38 53.61, 220.65 36.04, 251.12 0.99 M190.1 71.18 C208.39 50.15, 226.67 29.12, 251.12 0.99 M195.09 71.54 C208.16 56.51, 221.23 41.48, 256.76 0.6 M195.09 71.54 C214.29 49.46, 233.48 27.38, 256.76 0.6 M200.73 71.15 C218.87 50.29, 237 29.43, 261.75 0.96 M200.73 71.15 C219.26 49.83, 237.79 28.52, 261.75 0.96 M205.72 71.51 C223.17 51.44, 240.62 31.36, 267.39 0.56 M205.72 71.51 C225.77 48.44, 245.82 25.37, 267.39 0.56 M211.37 71.11 C227.18 52.92, 242.99 34.73, 272.38 0.92 M211.37 71.11 C234.03 45.04, 256.69 18.97, 272.38 0.92 M216.35 71.47 C236.86 47.88, 257.37 24.28, 278.02 0.53 M216.35 71.47 C230.71 54.96, 245.06 38.45, 278.02 0.53 M222 71.08 C235.99 54.98, 249.98 38.88, 283.01 0.89 M222 71.08 C236.68 54.18, 251.37 37.29, 283.01 0.89 M226.98 71.44 C251.55 43.17, 276.12 14.91, 288.65 0.49 M226.98 71.44 C246.41 49.09, 265.83 26.75, 288.65 0.49 M232.63 71.04 C245.72 55.97, 258.82 40.9, 293.64 0.85 M232.63 71.04 C251.56 49.26, 270.5 27.48, 293.64 0.85 M237.61 71.4 C255 51.39, 272.4 31.39, 299.28 0.46 M237.61 71.4 C253.87 52.7, 270.12 34.01, 299.28 0.46 M242.6 71.76 C257.18 54.99, 271.76 38.22, 304.27 0.82 M242.6 71.76 C263.57 47.63, 284.55 23.5, 304.27 0.82 M248.24 71.37 C263.44 53.89, 278.63 36.41, 309.26 1.18 M248.24 71.37 C265.4 51.63, 282.56 31.89, 309.26 1.18 M253.23 71.73 C267.39 55.44, 281.55 39.15, 314.9 0.78 M253.23 71.73 C274.85 46.85, 296.48 21.97, 314.9 0.78 M258.87 71.33 C278.96 48.23, 299.04 25.13, 319.89 1.14 M258.87 71.33 C282.16 44.55, 305.44 17.76, 319.89 1.14 M263.86 71.69 C285.05 47.32, 306.23 22.95, 325.53 0.75 M263.86 71.69 C283.82 48.74, 303.77 25.78, 325.53 0.75 M269.5 71.3 C282.69 56.12, 295.88 40.95, 330.52 1.11 M269.5 71.3 C287.15 50.99, 304.81 30.69, 330.52 1.11 M274.49 71.66 C289.38 54.52, 304.28 37.39, 336.16 0.72 M274.49 71.66 C293.08 50.27, 311.68 28.88, 336.16 0.72 M280.13 71.26 C302.58 45.44, 325.03 19.61, 341.15 1.08 M280.13 71.26 C300.87 47.41, 321.6 23.56, 341.15 1.08 M285.12 71.62 C297.51 57.37, 309.91 43.11, 346.79 0.68 M285.12 71.62 C302.87 51.2, 320.62 30.79, 346.79 0.68 M290.76 71.23 C309.45 49.73, 328.14 28.23, 351.78 1.04 M290.76 71.23 C313.93 44.58, 337.09 17.94, 351.78 1.04 M295.75 71.59 C308.9 56.46, 322.05 41.33, 357.42 0.65 M295.75 71.59 C317.15 46.97, 338.55 22.35, 357.42 0.65 M301.39 71.19 C320.75 48.92, 340.11 26.65, 362.41 1.01 M301.39 71.19 C317.63 52.51, 333.87 33.83, 362.41 1.01 M306.38 71.56 C323.89 51.42, 341.39 31.28, 368.05 0.61 M306.38 71.56 C325.16 49.95, 343.94 28.35, 368.05 0.61 M312.02 71.16 C333.43 46.53, 354.84 21.9, 373.04 0.97 M312.02 71.16 C334.46 45.35, 356.89 19.55, 373.04 0.97 M317.01 71.52 C337.51 47.94, 358.01 24.36, 378.68 0.58 M317.01 71.52 C332.21 54.03, 347.41 36.55, 378.68 0.58 M322.65 71.13 C342.25 48.58, 361.85 26.04, 383.67 0.94 M322.65 71.13 C338.73 52.63, 354.81 34.13, 383.67 0.94 M327.64 71.49 C345.67 50.74, 363.71 29.99, 389.31 0.54 M327.64 71.49 C341.22 55.86, 354.81 40.24, 389.31 0.54 M333.28 71.09 C345.87 56.61, 358.46 42.12, 394.3 0.9 M333.28 71.09 C348.16 53.98, 363.04 36.86, 394.3 0.9 M338.27 71.45 C351.19 56.59, 364.1 41.74, 399.28 1.26 M338.27 71.45 C358.65 48.01, 379.03 24.57, 399.28 1.26 M343.26 71.81 C364.75 47.08, 386.25 22.35, 404.93 0.87 M343.26 71.81 C356.2 56.93, 369.14 42.04, 404.93 0.87 M348.9 71.42 C370.37 46.72, 391.84 22.02, 409.91 1.23 M348.9 71.42 C364.57 53.39, 380.24 35.37, 409.91 1.23 M353.89 71.78 C375.73 46.65, 397.57 21.53, 415.56 0.83 M353.89 71.78 C376.92 45.28, 399.96 18.78, 415.56 0.83 M359.53 71.38 C377.15 51.11, 394.77 30.84, 420.54 1.19 M359.53 71.38 C378.98 49.01, 398.43 26.64, 420.54 1.19 M364.52 71.74 C388.52 44.13, 412.52 16.52, 425.53 1.55 M364.52 71.74 C386.36 46.61, 408.21 21.48, 425.53 1.55 M370.16 71.35 C382.7 56.92, 395.24 42.5, 429.21 3.42 M370.16 71.35 C382.61 57.03, 395.06 42.71, 429.21 3.42 M375.15 71.71 C392.7 51.51, 410.26 31.31, 433.54 4.54 M375.15 71.71 C392.5 51.74, 409.86 31.78, 433.54 4.54 M380.79 71.31 C393.12 57.13, 405.46 42.94, 435.24 8.67 M380.79 71.31 C396.31 53.46, 411.82 35.61, 435.24 8.67 M385.78 71.67 C400.19 55.1, 414.59 38.52, 438.26 11.3 M385.78 71.67 C403.42 51.38, 421.05 31.09, 438.26 11.3 M391.42 71.28 C402.86 58.12, 414.3 44.95, 437.34 18.45 M391.42 71.28 C403.08 57.86, 414.75 44.44, 437.34 18.45 M396.41 71.64 C412.01 53.69, 427.61 35.75, 437.74 24.09 M396.41 71.64 C410.06 55.93, 423.71 40.23, 437.74 24.09 M402.05 71.24 C413.12 58.51, 424.19 45.78, 437.48 30.49 M402.05 71.24 C412.39 59.35, 422.72 47.46, 437.48 30.49 M407.04 71.6 C414.16 63.41, 421.28 55.22, 437.22 36.89 M407.04 71.6 C417.5 59.56, 427.97 47.52, 437.22 36.89 M412.68 71.21 C419.22 63.69, 425.76 56.16, 437.61 42.53 M412.68 71.21 C420.98 61.66, 429.28 52.11, 437.61 42.53 M417.67 71.57 C424.38 63.85, 431.09 56.14, 437.35 48.93 M417.67 71.57 C424.82 63.35, 431.97 55.12, 437.35 48.93 M422 72.68 C425.91 68.19, 429.82 63.69, 437.09 55.33 M422 72.68 C427.63 66.2, 433.27 59.72, 437.09 55.33" stroke="#c2b2a9" stroke-width="0.5" fill="none"></path><path d="M17.5 0 M17.5 0 C156.89 0, 296.27 0, 419.5 0 M17.5 0 C165.56 0, 313.61 0, 419.5 0 M419.5 0 C431.17 0, 437 5.83, 437 17.5 M419.5 0 C431.17 0, 437 5.83, 437 17.5 M437 17.5 C437 29.69, 437 41.87, 437 52.5 M437 17.5 C437 28.78, 437 40.05, 437 52.5 M437 52.5 C437 64.17, 431.17 70, 419.5 70 M437 52.5 C437 64.17, 431.17 70, 419.5 70 M419.5 70 C281.53 70, 143.57 70, 17.5 70 M419.5 70 C279.95 70, 140.41 70, 17.5 70 M17.5 70 C5.83 70, 0 64.17, 0 52.5 M17.5 70 C5.83 70, 0 64.17, 0 52.5 M0 52.5 C0 43.13, 0 33.77, 0 17.5 M0 52.5 C0 41.26, 0 30.02, 0 17.5 M0 17.5 C0 5.83, 5.83 0, 17.5 0 M0 17.5 C0 5.83, 5.83 0, 17.5 0" stroke="#000000" stroke-width="1" fill="none"></path></g><g transform="translate(125.5 27.5) rotate(0 205.5 17.5)"><text x="205.5" y="25" font-family="Virgil, Segoe UI Emoji" font-size="28px" fill="#000000" text-anchor="middle" style="white-space: pre;" direction="ltr">Collection Data Types (CDT)</text></g><g stroke-linecap="round" transform="translate(66 140) rotate(0 79.5 27)"><path d="M1.72 5.47 C1.72 5.47, 1.72 5.47, 1.72 5.47 M1.72 5.47 C1.72 5.47, 1.72 5.47, 1.72 5.47 M1.46 11.87 C4.2 8.72, 6.94 5.57, 9.34 2.82 M1.46 11.87 C3.96 8.99, 6.47 6.12, 9.34 2.82 M1.86 17.51 C5.86 12.91, 9.86 8.31, 15.63 1.67 M1.86 17.51 C6.72 11.92, 11.58 6.33, 15.63 1.67 M1.6 23.91 C7.61 16.99, 13.63 10.07, 20.62 2.03 M1.6 23.91 C6.04 18.8, 10.49 13.68, 20.62 2.03 M1.99 29.56 C10.47 19.8, 18.94 10.05, 26.26 1.63 M1.99 29.56 C10.04 20.29, 18.09 11.03, 26.26 1.63 M1.73 35.95 C12.38 23.7, 23.03 11.45, 31.25 1.99 M1.73 35.95 C10.04 26.4, 18.35 16.84, 31.25 1.99 M0.16 43.86 C13.88 28.07, 27.61 12.28, 36.89 1.6 M0.16 43.86 C12.19 30.02, 24.23 16.17, 36.89 1.6 M1.86 47.99 C16.44 31.23, 31.01 14.46, 41.88 1.96 M1.86 47.99 C16.74 30.88, 31.61 13.77, 41.88 1.96 M4.22 51.37 C15.75 38.12, 27.27 24.86, 47.52 1.56 M4.22 51.37 C18.04 35.48, 31.85 19.59, 47.52 1.56 M7.9 53.24 C20.09 39.22, 32.29 25.19, 52.51 1.92 M7.9 53.24 C22.43 36.52, 36.97 19.8, 52.51 1.92 M12.23 54.36 C23.39 41.52, 34.56 28.67, 58.15 1.53 M12.23 54.36 C28.1 36.11, 43.96 17.85, 58.15 1.53 M15.91 56.23 C34.76 34.54, 53.62 12.84, 63.14 1.89 M15.91 56.23 C33.68 35.79, 51.45 15.34, 63.14 1.89 M21.55 55.83 C37.38 37.63, 53.2 19.42, 68.79 1.49 M21.55 55.83 C31.34 44.57, 41.13 33.31, 68.79 1.49 M26.54 56.19 C41.5 38.98, 56.47 21.76, 73.77 1.85 M26.54 56.19 C39.11 41.73, 51.69 27.26, 73.77 1.85 M32.18 55.8 C45.72 40.23, 59.25 24.65, 79.42 1.46 M32.18 55.8 C49.45 35.93, 66.73 16.05, 79.42 1.46 M37.17 56.16 C54.42 36.31, 71.68 16.46, 84.4 1.82 M37.17 56.16 C53.71 37.13, 70.25 18.1, 84.4 1.82 M42.15 56.52 C54.42 42.4, 66.7 28.28, 90.05 1.42 M42.15 56.52 C53.79 43.13, 65.43 29.74, 90.05 1.42 M47.8 56.12 C64.22 37.23, 80.65 18.33, 95.03 1.78 M47.8 56.12 C61.65 40.19, 75.5 24.25, 95.03 1.78 M52.78 56.48 C67.75 39.27, 82.71 22.06, 100.02 2.14 M52.78 56.48 C68.01 38.96, 83.25 21.44, 100.02 2.14 M58.43 56.09 C69.36 43.51, 80.29 30.93, 105.66 1.75 M58.43 56.09 C75.98 35.9, 93.53 15.7, 105.66 1.75 M63.41 56.45 C80.18 37.17, 96.94 17.88, 110.65 2.11 M63.41 56.45 C75.13 42.97, 86.85 29.49, 110.65 2.11 M69.06 56.05 C80.75 42.6, 92.45 29.14, 116.29 1.72 M69.06 56.05 C86.64 35.83, 104.23 15.6, 116.29 1.72 M74.04 56.41 C91.58 36.24, 109.13 16.06, 121.28 2.08 M74.04 56.41 C89.39 38.76, 104.73 21.11, 121.28 2.08 M79.69 56.02 C98.18 34.74, 116.68 13.46, 126.92 1.68 M79.69 56.02 C93.54 40.08, 107.4 24.14, 126.92 1.68 M84.67 56.38 C102.67 35.67, 120.68 14.96, 131.91 2.04 M84.67 56.38 C95.02 44.48, 105.36 32.59, 131.91 2.04 M90.32 55.99 C105.56 38.45, 120.81 20.9, 137.55 1.65 M90.32 55.99 C101.83 42.74, 113.34 29.5, 137.55 1.65 M95.3 56.35 C110.09 39.34, 124.88 22.33, 142.54 2.01 M95.3 56.35 C107.45 42.37, 119.6 28.4, 142.54 2.01 M100.95 55.95 C113.27 41.77, 125.6 27.59, 147.53 2.37 M100.95 55.95 C116.94 37.55, 132.93 19.16, 147.53 2.37 M105.93 56.31 C120.58 39.46, 135.23 22.6, 153.17 1.97 M105.93 56.31 C121.4 38.52, 136.87 20.73, 153.17 1.97 M111.58 55.92 C125.37 40.05, 139.17 24.18, 156.84 3.84 M111.58 55.92 C121.67 44.3, 131.76 32.69, 156.84 3.84 M116.56 56.28 C126.35 45.02, 136.14 33.76, 159.21 7.22 M116.56 56.28 C132.7 37.71, 148.85 19.14, 159.21 7.22 M122.21 55.88 C133.42 42.99, 144.63 30.09, 160.26 12.11 M122.21 55.88 C134.55 41.68, 146.9 27.47, 160.26 12.11 M127.19 56.24 C138.64 43.07, 150.1 29.9, 160.65 17.75 M127.19 56.24 C137.91 43.92, 148.62 31.59, 160.65 17.75 M132.84 55.85 C142.48 44.76, 152.12 33.66, 160.39 24.15 M132.84 55.85 C138.36 49.49, 143.89 43.13, 160.39 24.15 M137.82 56.21 C143.19 50.04, 148.55 43.87, 160.79 29.79 M137.82 56.21 C145.24 47.67, 152.66 39.14, 160.79 29.79 M143.47 55.81 C149.44 48.94, 155.42 42.06, 160.52 36.19 M143.47 55.81 C147.13 51.6, 150.79 47.38, 160.52 36.19 M148.45 56.17 C152.22 51.84, 156 47.5, 160.92 41.83 M148.45 56.17 C152.43 51.6, 156.4 47.03, 160.92 41.83" stroke="#00c88c" stroke-width="0.5" fill="none"></path><path d="M13.5 0 M13.5 0 C45.15 0, 76.79 0, 145.5 0 M13.5 0 C45.42 0, 77.34 0, 145.5 0 M145.5 0 C154.5 0, 159 4.5, 159 13.5 M145.5 0 C154.5 0, 159 4.5, 159 13.5 M159 13.5 C159 20.16, 159 26.82, 159 40.5 M159 13.5 C159 22.71, 159 31.93, 159 40.5 M159 40.5 C159 49.5, 154.5 54, 145.5 54 M159 40.5 C159 49.5, 154.5 54, 145.5 54 M145.5 54 C108.27 54, 71.04 54, 13.5 54 M145.5 54 C110.71 54, 75.92 54, 13.5 54 M13.5 54 C4.5 54, 0 49.5, 0 40.5 M13.5 54 C4.5 54, 0 49.5, 0 40.5 M0 40.5 C0 33.34, 0 26.18, 0 13.5 M0 40.5 C0 32.06, 0 23.63, 0 13.5 M0 13.5 C0 4.5, 4.5 0, 13.5 0 M0 13.5 C0 4.5, 4.5 0, 13.5 0" stroke="#000000" stroke-width="1" fill="none"></path></g><g transform="translate(96 154.5) rotate(0 49.5 12.5)"><text x="49.5" y="18" font-family="Virgil, Segoe UI Emoji" font-size="20px" fill="#000000" text-anchor="middle" style="white-space: pre;" direction="ltr">Dictionary</text></g><g stroke-linecap="round" transform="translate(265.5 139) rotate(0 79.5 27)"><path d="M1.72 5.47 C1.72 5.47, 1.72 5.47, 1.72 5.47 M1.72 5.47 C1.72 5.47, 1.72 5.47, 1.72 5.47 M1.46 11.87 C3.24 9.83, 5.01 7.79, 9.34 2.82 M1.46 11.87 C3.31 9.75, 5.15 7.63, 9.34 2.82 M1.86 17.51 C7.3 11.26, 12.74 5, 15.63 1.67 M1.86 17.51 C6.83 11.79, 11.81 6.07, 15.63 1.67 M1.6 23.91 C8.14 16.39, 14.68 8.86, 20.62 2.03 M1.6 23.91 C8.11 16.42, 14.62 8.93, 20.62 2.03 M1.99 29.56 C8.75 21.78, 15.51 14, 26.26 1.63 M1.99 29.56 C7.04 23.74, 12.1 17.93, 26.26 1.63 M1.73 35.95 C11.2 25.05, 20.68 14.15, 31.25 1.99 M1.73 35.95 C10.09 26.34, 18.44 16.73, 31.25 1.99 M0.16 43.86 C11.65 30.63, 23.15 17.4, 36.89 1.6 M0.16 43.86 C12.39 29.79, 24.62 15.72, 36.89 1.6 M1.86 47.99 C14.64 33.3, 27.41 18.6, 41.88 1.96 M1.86 47.99 C10.35 38.23, 18.83 28.47, 41.88 1.96 M4.22 51.37 C14.19 39.91, 24.16 28.44, 47.52 1.56 M4.22 51.37 C13.29 40.95, 22.35 30.52, 47.52 1.56 M7.9 53.24 C19.74 39.62, 31.58 26, 52.51 1.92 M7.9 53.24 C21.11 38.05, 34.31 22.86, 52.51 1.92 M12.23 54.36 C29.51 34.48, 46.8 14.59, 58.15 1.53 M12.23 54.36 C24.72 39.99, 37.21 25.62, 58.15 1.53 M15.91 56.23 C32.44 37.21, 48.97 18.19, 63.14 1.89 M15.91 56.23 C25.96 44.67, 36.01 33.1, 63.14 1.89 M21.55 55.83 C31.54 44.34, 41.54 32.84, 68.79 1.49 M21.55 55.83 C31.78 44.06, 42.01 32.3, 68.79 1.49 M26.54 56.19 C42.02 38.38, 57.51 20.57, 73.77 1.85 M26.54 56.19 C38.39 42.56, 50.24 28.92, 73.77 1.85 M32.18 55.8 C42.1 44.38, 52.03 32.96, 79.42 1.46 M32.18 55.8 C46.34 39.51, 60.49 23.22, 79.42 1.46 M37.17 56.16 C47.44 44.33, 57.72 32.51, 84.4 1.82 M37.17 56.16 C47.09 44.74, 57.01 33.33, 84.4 1.82 M42.15 56.52 C59.41 36.67, 76.66 16.82, 90.05 1.42 M42.15 56.52 C53.6 43.35, 65.05 30.18, 90.05 1.42 M47.8 56.12 C57.35 45.14, 66.9 34.15, 95.03 1.78 M47.8 56.12 C62 39.78, 76.2 23.45, 95.03 1.78 M52.78 56.48 C65.28 42.11, 77.77 27.74, 100.02 2.14 M52.78 56.48 C67.56 39.48, 82.34 22.48, 100.02 2.14 M58.43 56.09 C73.94 38.24, 89.46 20.39, 105.66 1.75 M58.43 56.09 C69.96 42.82, 81.5 29.54, 105.66 1.75 M63.41 56.45 C74.71 43.46, 86 30.47, 110.65 2.11 M63.41 56.45 C75.74 42.27, 88.06 28.1, 110.65 2.11 M69.06 56.05 C78.86 44.78, 88.66 33.51, 116.29 1.72 M69.06 56.05 C86.69 35.77, 104.32 15.49, 116.29 1.72 M74.04 56.41 C84.18 44.75, 94.32 33.09, 121.28 2.08 M74.04 56.41 C92.15 35.59, 110.25 14.77, 121.28 2.08 M79.69 56.02 C94.53 38.95, 109.37 21.88, 126.92 1.68 M79.69 56.02 C95.32 38.04, 110.95 20.06, 126.92 1.68 M84.67 56.38 C95.8 43.58, 106.93 30.77, 131.91 2.04 M84.67 56.38 C96.07 43.27, 107.47 30.16, 131.91 2.04 M90.32 55.99 C103.9 40.36, 117.49 24.73, 137.55 1.65 M90.32 55.99 C107.86 35.8, 125.41 15.61, 137.55 1.65 M95.3 56.35 C112.34 36.74, 129.39 17.14, 142.54 2.01 M95.3 56.35 C112.18 36.93, 129.06 17.51, 142.54 2.01 M100.95 55.95 C111.71 43.57, 122.47 31.19, 147.53 2.37 M100.95 55.95 C113.07 42, 125.2 28.06, 147.53 2.37 M105.93 56.31 C123.06 36.6, 140.19 16.9, 153.17 1.97 M105.93 56.31 C120.79 39.22, 135.64 22.13, 153.17 1.97 M111.58 55.92 C121.15 44.9, 130.73 33.89, 156.84 3.84 M111.58 55.92 C128.48 36.47, 145.38 17.02, 156.84 3.84 M116.56 56.28 C126.29 45.09, 136.02 33.9, 159.21 7.22 M116.56 56.28 C127.52 43.67, 138.47 31.07, 159.21 7.22 M122.21 55.88 C135.92 40.1, 149.64 24.32, 160.26 12.11 M122.21 55.88 C137.35 38.46, 152.49 21.04, 160.26 12.11 M127.19 56.24 C135.82 46.32, 144.45 36.39, 160.65 17.75 M127.19 56.24 C140.23 41.25, 153.27 26.25, 160.65 17.75 M132.84 55.85 C143.12 44.02, 153.4 32.19, 160.39 24.15 M132.84 55.85 C139.23 48.5, 145.62 41.15, 160.39 24.15 M137.82 56.21 C146.25 46.52, 154.67 36.83, 160.79 29.79 M137.82 56.21 C144.22 48.85, 150.62 41.49, 160.79 29.79 M143.47 55.81 C147.03 51.71, 150.6 47.61, 160.52 36.19 M143.47 55.81 C148.32 50.23, 153.16 44.66, 160.52 36.19 M148.45 56.17 C153.24 50.67, 158.02 45.17, 160.92 41.83 M148.45 56.17 C152.83 51.14, 157.2 46.11, 160.92 41.83" stroke="#00c88c" stroke-width="0.5" fill="none"></path><path d="M13.5 0 M13.5 0 C65.18 0, 116.86 0, 145.5 0 M13.5 0 C62.99 0, 112.48 0, 145.5 0 M145.5 0 C154.5 0, 159 4.5, 159 13.5 M145.5 0 C154.5 0, 159 4.5, 159 13.5 M159 13.5 C159 20.5, 159 27.49, 159 40.5 M159 13.5 C159 21.6, 159 29.7, 159 40.5 M159 40.5 C159 49.5, 154.5 54, 145.5 54 M159 40.5 C159 49.5, 154.5 54, 145.5 54 M145.5 54 C107.1 54, 68.69 54, 13.5 54 M145.5 54 C105.58 54, 65.67 54, 13.5 54 M13.5 54 C4.5 54, 0 49.5, 0 40.5 M13.5 54 C4.5 54, 0 49.5, 0 40.5 M0 40.5 C0 33.66, 0 26.83, 0 13.5 M0 40.5 C0 31.26, 0 22.02, 0 13.5 M0 13.5 C0 4.5, 4.5 0, 13.5 0 M0 13.5 C0 4.5, 4.5 0, 13.5 0" stroke="#000000" stroke-width="1" fill="none"></path></g><g transform="translate(324.5 153.5) rotate(0 20.5 12.5)"><text x="20.5" y="18" font-family="Virgil, Segoe UI Emoji" font-size="20px" fill="#000000" text-anchor="middle" style="white-space: pre;" direction="ltr">List</text></g><g stroke-linecap="round" transform="translate(468 139) rotate(0 79.5 27)"><path d="M1.72 5.47 C1.72 5.47, 1.72 5.47, 1.72 5.47 M1.72 5.47 C1.72 5.47, 1.72 5.47, 1.72 5.47 M1.46 11.87 C3.98 8.98, 6.49 6.09, 9.34 2.82 M1.46 11.87 C3.13 9.95, 4.8 8.03, 9.34 2.82 M1.86 17.51 C5.03 13.87, 8.2 10.22, 15.63 1.67 M1.86 17.51 C4.74 14.2, 7.63 10.88, 15.63 1.67 M1.6 23.91 C6.64 18.1, 11.69 12.3, 20.62 2.03 M1.6 23.91 C7.23 17.43, 12.86 10.96, 20.62 2.03 M1.99 29.56 C11.13 19.05, 20.26 8.54, 26.26 1.63 M1.99 29.56 C8.59 21.96, 15.19 14.37, 26.26 1.63 M1.73 35.95 C12.06 24.07, 22.39 12.18, 31.25 1.99 M1.73 35.95 C8.01 28.73, 14.29 21.5, 31.25 1.99 M0.16 43.86 C7.93 34.92, 15.7 25.98, 36.89 1.6 M0.16 43.86 C8.11 34.71, 16.07 25.56, 36.89 1.6 M1.86 47.99 C14.98 32.9, 28.1 17.81, 41.88 1.96 M1.86 47.99 C11.9 36.44, 21.95 24.89, 41.88 1.96 M4.22 51.37 C13.32 40.91, 22.42 30.44, 47.52 1.56 M4.22 51.37 C17.2 36.44, 30.18 21.51, 47.52 1.56 M7.9 53.24 C17.61 42.08, 27.32 30.91, 52.51 1.92 M7.9 53.24 C17.27 42.46, 26.64 31.68, 52.51 1.92 M12.23 54.36 C28.78 35.32, 45.32 16.29, 58.15 1.53 M12.23 54.36 C23.21 41.73, 34.18 29.1, 58.15 1.53 M15.91 56.23 C25.46 45.24, 35.01 34.25, 63.14 1.89 M15.91 56.23 C30.11 39.89, 44.31 23.55, 63.14 1.89 M21.55 55.83 C34.04 41.46, 46.53 27.09, 68.79 1.49 M21.55 55.83 C36.33 38.83, 51.11 21.83, 68.79 1.49 M26.54 56.19 C42.05 38.34, 57.57 20.49, 73.77 1.85 M26.54 56.19 C38.07 42.92, 49.61 29.65, 73.77 1.85 M32.18 55.8 C43.47 42.81, 54.77 29.81, 79.42 1.46 M32.18 55.8 C44.5 41.62, 56.82 27.45, 79.42 1.46 M37.17 56.16 C46.97 44.88, 56.77 33.61, 84.4 1.82 M37.17 56.16 C54.8 35.88, 72.43 15.6, 84.4 1.82 M42.15 56.52 C52.43 44.69, 62.71 32.87, 90.05 1.42 M42.15 56.52 C60.51 35.4, 78.86 14.29, 90.05 1.42 M47.8 56.12 C62.64 39.05, 77.48 21.98, 95.03 1.78 M47.8 56.12 C63.43 38.14, 79.06 20.16, 95.03 1.78 M52.78 56.48 C63.91 43.68, 75.04 30.87, 100.02 2.14 M52.78 56.48 C64.18 43.37, 75.58 30.26, 100.02 2.14 M58.43 56.09 C72.01 40.46, 85.6 24.83, 105.66 1.75 M58.43 56.09 C75.97 35.9, 93.52 15.71, 105.66 1.75 M63.41 56.45 C80.45 36.85, 97.49 17.24, 110.65 2.11 M63.41 56.45 C80.29 37.03, 97.17 17.62, 110.65 2.11 M69.06 56.05 C79.97 43.5, 90.88 30.95, 116.29 1.72 M69.06 56.05 C81.35 41.91, 93.65 27.77, 116.29 1.72 M74.04 56.41 C91.17 36.71, 108.3 17, 121.28 2.08 M74.04 56.41 C88.9 39.33, 103.75 22.24, 121.28 2.08 M79.69 56.02 C89.68 44.53, 99.67 33.03, 126.92 1.68 M79.69 56.02 C97.33 35.73, 114.96 15.44, 126.92 1.68 M84.67 56.38 C95.45 43.99, 106.22 31.59, 131.91 2.04 M84.67 56.38 C96.81 42.42, 108.94 28.46, 131.91 2.04 M90.32 55.99 C107.34 36.4, 124.37 16.81, 137.55 1.65 M90.32 55.99 C109.11 34.36, 127.91 12.74, 137.55 1.65 M95.3 56.35 C107.48 42.34, 119.66 28.33, 142.54 2.01 M95.3 56.35 C113.71 35.17, 132.11 14, 142.54 2.01 M100.95 55.95 C118.33 35.95, 135.71 15.96, 147.53 2.37 M100.95 55.95 C111.75 43.52, 122.55 31.1, 147.53 2.37 M105.93 56.31 C123.26 36.38, 140.58 16.45, 153.17 1.97 M105.93 56.31 C119.1 41.17, 132.26 26.03, 153.17 1.97 M111.58 55.92 C121.04 45.03, 130.5 34.15, 156.84 3.84 M111.58 55.92 C124.45 41.11, 137.31 26.31, 156.84 3.84 M116.56 56.28 C132.93 37.45, 149.3 18.62, 159.21 7.22 M116.56 56.28 C131.53 39.06, 146.49 21.85, 159.21 7.22 M122.21 55.88 C137.1 38.74, 152 21.61, 160.26 12.11 M122.21 55.88 C136.47 39.47, 150.74 23.06, 160.26 12.11 M127.19 56.24 C138.97 42.69, 150.75 29.14, 160.65 17.75 M127.19 56.24 C140.38 41.07, 153.57 25.9, 160.65 17.75 M132.84 55.85 C141.33 46.08, 149.82 36.31, 160.39 24.15 M132.84 55.85 C139.3 48.41, 145.77 40.97, 160.39 24.15 M137.82 56.21 C143.07 50.17, 148.31 44.14, 160.79 29.79 M137.82 56.21 C143.73 49.41, 149.65 42.61, 160.79 29.79 M143.47 55.81 C148.76 49.72, 154.06 43.63, 160.52 36.19 M143.47 55.81 C146.97 51.78, 150.47 47.75, 160.52 36.19 M148.45 56.17 C153.24 50.67, 158.03 45.16, 160.92 41.83 M148.45 56.17 C152.82 51.15, 157.19 46.13, 160.92 41.83" stroke="#00c88c" stroke-width="0.5" fill="none"></path><path d="M13.5 0 M13.5 0 C41.77 0, 70.04 0, 145.5 0 M13.5 0 C58.33 0, 103.17 0, 145.5 0 M145.5 0 C154.5 0, 159 4.5, 159 13.5 M145.5 0 C154.5 0, 159 4.5, 159 13.5 M159 13.5 C159 23.52, 159 33.53, 159 40.5 M159 13.5 C159 22.59, 159 31.68, 159 40.5 M159 40.5 C159 49.5, 154.5 54, 145.5 54 M159 40.5 C159 49.5, 154.5 54, 145.5 54 M145.5 54 C113.63 54, 81.75 54, 13.5 54 M145.5 54 C96.68 54, 47.87 54, 13.5 54 M13.5 54 C4.5 54, 0 49.5, 0 40.5 M13.5 54 C4.5 54, 0 49.5, 0 40.5 M0 40.5 C0 33.51, 0 26.51, 0 13.5 M0 40.5 C0 32.12, 0 23.75, 0 13.5 M0 13.5 C0 4.5, 4.5 0, 13.5 0 M0 13.5 C0 4.5, 4.5 0, 13.5 0" stroke="#000000" stroke-width="1" fill="none"></path></g><g transform="translate(529.5 153.5) rotate(0 18 12.5)"><text x="18" y="18" font-family="Virgil, Segoe UI Emoji" font-size="20px" fill="#000000" text-anchor="middle" style="white-space: pre;" direction="ltr">Set</text></g><g stroke-linecap="round" transform="translate(10 109) rotate(0 341.5 57)"><path d="M28.5 0 M28.5 0 C164.72 0, 300.94 0, 654.5 0 M654.5 0 C673.5 0, 683 9.5, 683 28.5 M683 28.5 C683 45.02, 683 61.53, 683 85.5 M683 85.5 C683 104.5, 673.5 114, 654.5 114 M654.5 114 C456.74 114, 258.98 114, 28.5 114 M28.5 114 C9.5 114, 0 104.5, 0 85.5 M0 85.5 C0 68.11, 0 50.72, 0 28.5 M0 28.5 C0 9.5, 9.5 0, 28.5 0" stroke="#000000" stroke-width="1.5" fill="none" stroke-dasharray="1.5 7"></path></g><g stroke-linecap="round" transform="translate(10 262) rotate(0 341.5 39)"><path d="M19.5 0 M19.5 0 C155.82 0, 292.15 0, 663.5 0 M663.5 0 C676.5 0, 683 6.5, 683 19.5 M683 19.5 C683 33.18, 683 46.85, 683 58.5 M683 58.5 C683 71.5, 676.5 78, 663.5 78 M663.5 78 C484.02 78, 304.55 78, 19.5 78 M19.5 78 C6.5 78, 0 71.5, 0 58.5 M0 58.5 C0 45.19, 0 31.88, 0 19.5 M0 19.5 C0 6.5, 6.5 0, 19.5 0" stroke="#000000" stroke-width="1.5" fill="none" stroke-dasharray="1.5 7"></path></g><g stroke-linecap="round" transform="translate(92.5 281) rotate(0 53 20)"><path d="M2.66 2.31 C2.66 2.31, 2.66 2.31, 2.66 2.31 M2.66 2.31 C2.66 2.31, 2.66 2.31, 2.66 2.31 M0.43 10.98 C2.1 9.06, 3.77 7.14, 7.65 2.67 M0.43 10.98 C2.31 8.81, 4.19 6.65, 7.65 2.67 M0.83 16.62 C5.35 11.42, 9.87 6.22, 13.29 2.28 M0.83 16.62 C4.75 12.11, 8.67 7.6, 13.29 2.28 M0.57 23.02 C4.31 18.71, 8.06 14.4, 18.28 2.64 M0.57 23.02 C7.18 15.41, 13.79 7.8, 18.28 2.64 M0.96 28.66 C6.2 22.64, 11.43 16.61, 23.92 2.24 M0.96 28.66 C6.86 21.87, 12.76 15.09, 23.92 2.24 M0.7 35.06 C10.87 23.36, 21.04 11.66, 28.91 2.6 M0.7 35.06 C11.92 22.14, 23.15 9.23, 28.91 2.6 M3.06 38.44 C11.01 29.29, 18.96 20.15, 33.9 2.97 M3.06 38.44 C15.08 24.62, 27.09 10.8, 33.9 2.97 M6.74 40.31 C18.98 26.22, 31.22 12.14, 39.54 2.57 M6.74 40.31 C14.34 31.55, 21.95 22.8, 39.54 2.57 M11.07 41.42 C23.34 27.3, 35.61 13.19, 44.53 2.93 M11.07 41.42 C20.39 30.7, 29.71 19.97, 44.53 2.93 M16.71 41.03 C23.7 32.98, 30.7 24.93, 50.17 2.54 M16.71 41.03 C26.22 30.08, 35.73 19.14, 50.17 2.54 M21.7 41.39 C34.54 26.61, 47.38 11.84, 55.16 2.9 M21.7 41.39 C33.44 27.88, 45.18 14.38, 55.16 2.9 M27.34 40.99 C40.44 25.92, 53.54 10.85, 60.8 2.5 M27.34 40.99 C39.88 26.56, 52.43 12.13, 60.8 2.5 M32.33 41.35 C44.11 27.8, 55.88 14.25, 65.79 2.86 M32.33 41.35 C45.52 26.18, 58.71 11.01, 65.79 2.86 M37.97 40.96 C48.28 29.1, 58.59 17.24, 71.43 2.47 M37.97 40.96 C45.82 31.92, 53.68 22.89, 71.43 2.47 M42.96 41.32 C50.6 32.53, 58.24 23.74, 76.42 2.83 M42.96 41.32 C51.57 31.41, 60.18 21.5, 76.42 2.83 M48.6 40.92 C58.99 28.97, 69.38 17.02, 82.06 2.43 M48.6 40.92 C55.47 33.02, 62.34 25.11, 82.06 2.43 M53.59 41.28 C66.44 26.5, 79.29 11.72, 87.05 2.79 M53.59 41.28 C65.31 27.8, 77.03 14.32, 87.05 2.79 M59.23 40.89 C66.4 32.64, 73.56 24.4, 92.69 2.4 M59.23 40.89 C70.59 27.82, 81.96 14.74, 92.69 2.4 M64.22 41.25 C74.6 29.31, 84.97 17.37, 98.33 2 M64.22 41.25 C75.93 27.77, 87.65 14.29, 98.33 2 M69.86 40.85 C82.95 25.8, 96.04 10.74, 102.66 3.12 M69.86 40.85 C79.74 29.49, 89.62 18.12, 102.66 3.12 M74.85 41.21 C83.73 31, 92.61 20.78, 105.68 5.74 M74.85 41.21 C83.13 31.69, 91.41 22.16, 105.68 5.74 M80.49 40.82 C88.59 31.5, 96.69 22.18, 106.73 10.63 M80.49 40.82 C87.43 32.83, 94.38 24.85, 106.73 10.63 M85.48 41.18 C92.8 32.75, 100.13 24.33, 106.47 17.03 M85.48 41.18 C90.06 35.91, 94.64 30.64, 106.47 17.03 M91.12 40.78 C96.65 34.43, 102.17 28.07, 106.87 22.67 M91.12 40.78 C94.51 36.89, 97.9 32.99, 106.87 22.67 M96.76 40.39 C99.86 36.83, 102.95 33.28, 106.6 29.07 M96.76 40.39 C99.18 37.61, 101.6 34.83, 106.6 29.07" stroke="#c4f135" stroke-width="0.5" fill="none"></path><path d="M10 0 M10 0 C44.23 0, 78.45 0, 96 0 M10 0 C31.49 0, 52.97 0, 96 0 M96 0 C102.67 0, 106 3.33, 106 10 M96 0 C102.67 0, 106 3.33, 106 10 M106 10 C106 15.52, 106 21.03, 106 30 M106 10 C106 14.89, 106 19.79, 106 30 M106 30 C106 36.67, 102.67 40, 96 40 M106 30 C106 36.67, 102.67 40, 96 40 M96 40 C65.06 40, 34.11 40, 10 40 M96 40 C63.88 40, 31.76 40, 10 40 M10 40 C3.33 40, 0 36.67, 0 30 M10 40 C3.33 40, 0 36.67, 0 30 M0 30 C0 22.38, 0 14.76, 0 10 M0 30 C0 25.06, 0 20.11, 0 10 M0 10 C0 3.33, 3.33 0, 10 0 M0 10 C0 3.33, 3.33 0, 10 0" stroke="#000000" stroke-width="1" fill="none"></path></g><g transform="translate(102.5 291) rotate(0 43 10)"><text x="43" y="14" font-family="Virgil, Segoe UI Emoji" font-size="16px" fill="#000000" text-anchor="middle" style="white-space: pre;" direction="ltr">Field/Value</text></g><g stroke-linecap="round" transform="translate(293.5 280) rotate(0 53 20)"><path d="M2.66 2.31 C2.66 2.31, 2.66 2.31, 2.66 2.31 M2.66 2.31 C2.66 2.31, 2.66 2.31, 2.66 2.31 M0.43 10.98 C1.96 9.22, 3.49 7.46, 7.65 2.67 M0.43 10.98 C3.13 7.88, 5.82 4.78, 7.65 2.67 M0.83 16.62 C3.67 13.35, 6.51 10.08, 13.29 2.28 M0.83 16.62 C4.03 12.93, 7.23 9.25, 13.29 2.28 M0.57 23.02 C6.95 15.67, 13.34 8.33, 18.28 2.64 M0.57 23.02 C7.61 14.91, 14.66 6.8, 18.28 2.64 M0.96 28.66 C6.88 21.85, 12.8 15.04, 23.92 2.24 M0.96 28.66 C9.91 18.37, 18.85 8.08, 23.92 2.24 M0.7 35.06 C11.23 22.95, 21.75 10.84, 28.91 2.6 M0.7 35.06 C7.24 27.53, 13.78 20, 28.91 2.6 M3.06 38.44 C14.37 25.43, 25.68 12.42, 33.9 2.97 M3.06 38.44 C11.65 28.55, 20.24 18.67, 33.9 2.97 M6.74 40.31 C13.59 32.42, 20.45 24.53, 39.54 2.57 M6.74 40.31 C16.06 29.58, 25.39 18.85, 39.54 2.57 M11.07 41.42 C23.91 26.65, 36.75 11.87, 44.53 2.93 M11.07 41.42 C22.81 27.92, 34.55 14.41, 44.53 2.93 M16.71 41.03 C29.81 25.96, 42.91 10.89, 50.17 2.54 M16.71 41.03 C29.25 26.6, 41.8 12.16, 50.17 2.54 M21.7 41.39 C33.48 27.84, 45.25 14.29, 55.16 2.9 M21.7 41.39 C34.89 26.21, 48.08 11.04, 55.16 2.9 M27.34 40.99 C37.65 29.13, 47.96 17.27, 60.8 2.5 M27.34 40.99 C35.19 31.96, 43.05 22.92, 60.8 2.5 M32.33 41.35 C39.97 32.56, 47.61 23.77, 65.79 2.86 M32.33 41.35 C40.94 31.44, 49.55 21.53, 65.79 2.86 M37.97 40.96 C48.36 29.01, 58.75 17.06, 71.43 2.47 M37.97 40.96 C44.84 33.05, 51.71 25.15, 71.43 2.47 M42.96 41.32 C55.81 26.53, 68.66 11.75, 76.42 2.83 M42.96 41.32 C54.68 27.83, 66.4 14.35, 76.42 2.83 M48.6 40.92 C55.77 32.68, 62.93 24.43, 82.06 2.43 M48.6 40.92 C59.96 27.85, 71.33 14.78, 82.06 2.43 M53.59 41.28 C63.77 29.57, 73.94 17.87, 87.05 2.79 M53.59 41.28 C65.08 28.06, 76.57 14.84, 87.05 2.79 M59.23 40.89 C72.58 25.53, 85.93 10.17, 92.69 2.4 M59.23 40.89 C69.31 29.3, 79.38 17.7, 92.69 2.4 M64.22 41.25 C74.04 29.94, 83.87 18.64, 98.33 2 M64.22 41.25 C73.38 30.71, 82.54 20.17, 98.33 2 M69.86 40.85 C79.99 29.21, 90.11 17.56, 102.66 3.12 M69.86 40.85 C78.54 30.87, 87.22 20.89, 102.66 3.12 M74.85 41.21 C85.61 28.84, 96.37 16.46, 105.68 5.74 M74.85 41.21 C81.57 33.48, 88.3 25.74, 105.68 5.74 M80.49 40.82 C89.7 30.22, 98.91 19.63, 106.73 10.63 M80.49 40.82 C86.14 34.32, 91.79 27.82, 106.73 10.63 M85.48 41.18 C92.07 33.59, 98.67 26, 106.47 17.03 M85.48 41.18 C90.64 35.25, 95.79 29.31, 106.47 17.03 M91.12 40.78 C97.39 33.58, 103.65 26.37, 106.87 22.67 M91.12 40.78 C95.05 36.26, 98.99 31.73, 106.87 22.67 M96.76 40.39 C99.97 36.71, 103.17 33.02, 106.6 29.07 M96.76 40.39 C99.38 37.38, 101.99 34.38, 106.6 29.07" stroke="#c4f135" stroke-width="0.5" fill="none"></path><path d="M10 0 M10 0 C34.55 0, 59.11 0, 96 0 M10 0 C33.7 0, 57.41 0, 96 0 M96 0 C102.67 0, 106 3.33, 106 10 M96 0 C102.67 0, 106 3.33, 106 10 M106 10 C106 16.07, 106 22.14, 106 30 M106 10 C106 17.67, 106 25.34, 106 30 M106 30 C106 36.67, 102.67 40, 96 40 M106 30 C106 36.67, 102.67 40, 96 40 M96 40 C68.73 40, 41.45 40, 10 40 M96 40 C64.39 40, 32.79 40, 10 40 M10 40 C3.33 40, 0 36.67, 0 30 M10 40 C3.33 40, 0 36.67, 0 30 M0 30 C0 22.23, 0 14.47, 0 10 M0 30 C0 22.65, 0 15.3, 0 10 M0 10 C0 3.33, 3.33 0, 10 0 M0 10 C0 3.33, 3.33 0, 10 0" stroke="#000000" stroke-width="1" fill="none"></path></g><g transform="translate(325 290) rotate(0 21.5 10)"><text x="21.5" y="14" font-family="Virgil, Segoe UI Emoji" font-size="16px" fill="#000000" text-anchor="middle" style="white-space: pre;" direction="ltr">Value</text></g><g stroke-linecap="round" transform="translate(494.5 281) rotate(0 53 20)"><path d="M2.66 2.31 C2.66 2.31, 2.66 2.31, 2.66 2.31 M2.66 2.31 C2.66 2.31, 2.66 2.31, 2.66 2.31 M0.43 10.98 C3.2 7.79, 5.97 4.6, 7.65 2.67 M0.43 10.98 C2.96 8.06, 5.5 5.15, 7.65 2.67 M0.83 16.62 C5.71 11, 10.59 5.39, 13.29 2.28 M0.83 16.62 C5.5 11.24, 10.17 5.87, 13.29 2.28 M0.57 23.02 C6.8 15.84, 13.04 8.67, 18.28 2.64 M0.57 23.02 C7.55 14.98, 14.53 6.95, 18.28 2.64 M0.96 28.66 C8.04 20.52, 15.11 12.38, 23.92 2.24 M0.96 28.66 C6.35 22.46, 11.74 16.26, 23.92 2.24 M0.7 35.06 C7.14 27.65, 13.58 20.23, 28.91 2.6 M0.7 35.06 C7.96 26.7, 15.22 18.35, 28.91 2.6 M3.06 38.44 C12.63 27.42, 22.21 16.41, 33.9 2.97 M3.06 38.44 C9.39 31.15, 15.73 23.87, 33.9 2.97 M6.74 40.31 C19.33 25.81, 31.93 11.32, 39.54 2.57 M6.74 40.31 C18.23 27.09, 29.72 13.87, 39.54 2.57 M11.07 41.42 C18.23 33.18, 25.4 24.93, 44.53 2.93 M11.07 41.42 C22.43 28.35, 33.8 15.27, 44.53 2.93 M16.71 41.03 C26.89 29.32, 37.07 17.61, 50.17 2.54 M16.71 41.03 C28.2 27.81, 39.69 14.59, 50.17 2.54 M21.7 41.39 C35.05 26.03, 48.4 10.67, 55.16 2.9 M21.7 41.39 C31.77 29.79, 41.85 18.2, 55.16 2.9 M27.34 40.99 C36.98 29.9, 46.62 18.82, 60.8 2.5 M27.34 40.99 C36.33 30.65, 45.31 20.32, 60.8 2.5 M32.33 41.35 C42.65 29.47, 52.98 17.59, 65.79 2.86 M32.33 41.35 C41.18 31.17, 50.03 20.99, 65.79 2.86 M37.97 40.96 C49.65 27.53, 61.32 14.1, 71.43 2.47 M37.97 40.96 C45.27 32.56, 52.57 24.16, 71.43 2.47 M42.96 41.32 C54.7 27.81, 66.45 14.3, 76.42 2.83 M42.96 41.32 C50.16 33.03, 57.36 24.74, 76.42 2.83 M48.6 40.92 C59.11 28.83, 69.63 16.74, 82.06 2.43 M48.6 40.92 C56.82 31.47, 65.04 22.01, 82.06 2.43 M53.59 41.28 C66.9 25.96, 80.22 10.65, 87.05 2.79 M53.59 41.28 C61.95 31.67, 70.31 22.05, 87.05 2.79 M59.23 40.89 C70.11 28.37, 81 15.85, 92.69 2.4 M59.23 40.89 C68.12 30.66, 77.01 20.44, 92.69 2.4 M64.22 41.25 C73.96 30.04, 83.7 18.84, 98.33 2 M64.22 41.25 C73.62 30.43, 83.02 19.62, 98.33 2 M69.86 40.85 C80.94 28.11, 92.02 15.37, 102.66 3.12 M69.86 40.85 C81.45 27.52, 93.05 14.18, 102.66 3.12 M74.85 41.21 C84.52 30.09, 94.19 18.96, 105.68 5.74 M74.85 41.21 C84.44 30.18, 94.02 19.15, 105.68 5.74 M80.49 40.82 C86.29 34.15, 92.09 27.48, 106.73 10.63 M80.49 40.82 C86.93 33.42, 93.36 26.01, 106.73 10.63 M85.48 41.18 C92.75 32.81, 100.02 24.45, 106.47 17.03 M85.48 41.18 C93.56 31.88, 101.65 22.58, 106.47 17.03 M91.12 40.78 C95.2 36.1, 99.27 31.41, 106.87 22.67 M91.12 40.78 C94.87 36.47, 98.63 32.15, 106.87 22.67 M96.76 40.39 C99.83 36.86, 102.91 33.33, 106.6 29.07 M96.76 40.39 C99.11 37.69, 101.45 34.99, 106.6 29.07" stroke="#c4f135" stroke-width="0.5" fill="none"></path><path d="M10 0 M10 0 C31.39 0, 52.78 0, 96 0 M10 0 C35.02 0, 60.04 0, 96 0 M96 0 C102.67 0, 106 3.33, 106 10 M96 0 C102.67 0, 106 3.33, 106 10 M106 10 C106 14.49, 106 18.98, 106 30 M106 10 C106 14.94, 106 19.88, 106 30 M106 30 C106 36.67, 102.67 40, 96 40 M106 30 C106 36.67, 102.67 40, 96 40 M96 40 C62.02 40, 28.05 40, 10 40 M96 40 C75.14 40, 54.28 40, 10 40 M10 40 C3.33 40, 0 36.67, 0 30 M10 40 C3.33 40, 0 36.67, 0 30 M0 30 C0 22.56, 0 15.13, 0 10 M0 30 C0 23.98, 0 17.97, 0 10 M0 10 C0 3.33, 3.33 0, 10 0 M0 10 C0 3.33, 3.33 0, 10 0" stroke="#000000" stroke-width="1" fill="none"></path></g><g transform="translate(526 291) rotate(0 21.5 10)"><text x="21.5" y="14" font-family="Virgil, Segoe UI Emoji" font-size="16px" fill="#000000" text-anchor="middle" style="white-space: pre;" direction="ltr">Value</text></g><g transform="translate(37 238) rotate(0 35 10)"><text x="35" y="14" font-family="Virgil, Segoe UI Emoji" font-size="16px" fill="#000000" text-anchor="middle" style="white-space: pre;" direction="ltr">Elements</text></g></svg>