<svg version="1.1" xmlns="http://www.w3.org/2000/svg" viewBox="0 0 703 350" width="703" height="350">
  <!-- svg-source:excalidraw -->
  
  <defs>
    <style class="style-fonts">
      @font-face {
        font-family: "Virgil";
        src: url("https://excalidraw.com/Virgil.woff2");
      }
      @font-face {
        font-family: "Cascadia";
        src: url("https://excalidraw.com/Cascadia.woff2");
      }
    </style>
  </defs>
  <rect x="0" y="0" width="703" height="350" fill="#ffffff"></rect><g stroke-linecap="round" transform="translate(114 10) rotate(0 218.5 35)"><path d="M17.5 0 L423.6 0.27 L430.16 2.46 L432.62 4.38 L435.91 9.84 L437 17.5 L436.73 56.6 L435.91 60.16 L432.62 65.63 L427.16 68.91 L419.5 70 L13.4 69.73 L6.84 67.54 L2.46 63.16 L1.09 60.16 L0 52.5 L0 17.5 L1.09 9.84 L4.38 4.38 L9.84 1.09 L17.5 0" stroke="none" stroke-width="0" fill="#c2b2a9"></path><path d="M17.5 0 M17.5 0 C133.39 0, 249.29 0, 419.5 0 M17.5 0 C128.66 0, 239.83 0, 419.5 0 M419.5 0 C431.17 0, 437 5.83, 437 17.5 M419.5 0 C431.17 0, 437 5.83, 437 17.5 M437 17.5 C437 27.36, 437 37.23, 437 52.5 M437 17.5 C437 27.51, 437 37.53, 437 52.5 M437 52.5 C437 64.17, 431.17 70, 419.5 70 M437 52.5 C437 64.17, 431.17 70, 419.5 70 M419.5 70 C299.81 70, 180.12 70, 17.5 70 M419.5 70 C290.74 70, 161.99 70, 17.5 70 M17.5 70 C5.83 70, 0 64.17, 0 52.5 M17.5 70 C5.83 70, 0 64.17, 0 52.5 M0 52.5 C0 43.83, 0 35.16, 0 17.5 M0 52.5 C0 43.09, 0 33.68, 0 17.5 M0 17.5 C0 5.83, 5.83 0, 17.5 0 M0 17.5 C0 5.83, 5.83 0, 17.5 0" stroke="#000000" stroke-width="1" fill="none"></path></g><g transform="translate(125.5 27.5) rotate(0 205.5 18)"><text x="205.5" y="25" font-family="Virgil, Segoe UI Emoji" font-size="28px" fill="#000000" text-anchor="middle" style="white-space: pre;" direction="ltr">Collection Data Types (CDT)</text></g><g stroke-linecap="round" transform="translate(66 140) rotate(0 79.5 27)"><path d="M13.5 0 L145.5 0 L151.41 0.84 L155.63 3.38 L157.1 5.27 L158.79 10.34 L159 40.5 L158.16 46.41 L157.1 48.73 L153.73 52.1 L151.41 53.16 L145.5 54 L13.5 54 L7.59 53.16 L3.38 50.63 L1.9 48.73 L0.21 43.66 L0.21 10.34 L1.9 5.27 L5.27 1.9 L7.59 0.84 L13.5 0" stroke="none" stroke-width="0" fill="#00c88c"></path><path d="M13.5 0 M13.5 0 C50.29 0, 87.07 0, 145.5 0 M13.5 0 C60.62 0, 107.74 0, 145.5 0 M145.5 0 C154.5 0, 159 4.5, 159 13.5 M145.5 0 C154.5 0, 159 4.5, 159 13.5 M159 13.5 C159 23.6, 159 33.7, 159 40.5 M159 13.5 C159 23.37, 159 33.25, 159 40.5 M159 40.5 C159 49.5, 154.5 54, 145.5 54 M159 40.5 C159 49.5, 154.5 54, 145.5 54 M145.5 54 C116.24 54, 86.98 54, 13.5 54 M145.5 54 C117.85 54, 90.19 54, 13.5 54 M13.5 54 C4.5 54, 0 49.5, 0 40.5 M13.5 54 C4.5 54, 0 49.5, 0 40.5 M0 40.5 C0 32.26, 0 24.02, 0 13.5 M0 40.5 C0 33.04, 0 25.58, 0 13.5 M0 13.5 C0 4.5, 4.5 0, 13.5 0 M0 13.5 C0 4.5, 4.5 0, 13.5 0" stroke="#000000" stroke-width="1" fill="none"></path></g><g transform="translate(96 154.5) rotate(0 49.5 13)"><text x="49.5" y="18" font-family="Virgil, Segoe UI Emoji" font-size="20px" fill="#000000" text-anchor="middle" style="white-space: pre;" direction="ltr">Dictionary</text></g><g stroke-linecap="round" transform="translate(265.5 139) rotate(0 79.5 27)"><path d="M13.5 0 L145.5 0 L151.41 0.84 L155.63 3.38 L157.1 5.27 L158.79 10.34 L159 40.5 L158.16 46.41 L157.1 48.73 L153.73 52.1 L151.41 53.16 L145.5 54 L13.5 54 L7.59 53.16 L3.38 50.63 L1.9 48.73 L0.21 43.66 L0.21 10.34 L1.9 5.27 L5.27 1.9 L7.59 0.84 L13.5 0" stroke="none" stroke-width="0" fill="#00c88c"></path><path d="M13.5 0 M13.5 0 C48.29 0, 83.08 0, 145.5 0 M13.5 0 C64.1 0, 114.71 0, 145.5 0 M145.5 0 C154.5 0, 159 4.5, 159 13.5 M145.5 0 C154.5 0, 159 4.5, 159 13.5 M159 13.5 C159 22.05, 159 30.61, 159 40.5 M159 13.5 C159 20.69, 159 27.88, 159 40.5 M159 40.5 C159 49.5, 154.5 54, 145.5 54 M159 40.5 C159 49.5, 154.5 54, 145.5 54 M145.5 54 C99.28 54, 53.06 54, 13.5 54 M145.5 54 C102.62 54, 59.74 54, 13.5 54 M13.5 54 C4.5 54, 0 49.5, 0 40.5 M13.5 54 C4.5 54, 0 49.5, 0 40.5 M0 40.5 C0 32.06, 0 23.62, 0 13.5 M0 40.5 C0 32.81, 0 25.12, 0 13.5 M0 13.5 C0 4.5, 4.5 0, 13.5 0 M0 13.5 C0 4.5, 4.5 0, 13.5 0" stroke="#000000" stroke-width="1" fill="none"></path></g><g transform="translate(324.5 153.5) rotate(0 20.5 13)"><text x="20.5" y="18" font-family="Virgil, Segoe UI Emoji" font-size="20px" fill="#000000" text-anchor="middle" style="white-space: pre;" direction="ltr">List</text></g><g stroke-linecap="round" transform="translate(468 139) rotate(0 79.5 27)"><path d="M13.5 0 L145.5 0 L151.41 0.84 L155.63 3.38 L157.1 5.27 L158.79 10.34 L159 40.5 L158.16 46.41 L157.1 48.73 L153.73 52.1 L151.41 53.16 L145.5 54 L13.5 54 L7.59 53.16 L3.38 50.63 L1.9 48.73 L0.21 43.66 L0.21 10.34 L1.9 5.27 L5.27 1.9 L7.59 0.84 L13.5 0" stroke="none" stroke-width="0" fill="#00c88c"></path><path d="M13.5 0 M13.5 0 C43.87 0, 74.23 0, 145.5 0 M13.5 0 C50.55 0, 87.61 0, 145.5 0 M145.5 0 C154.5 0, 159 4.5, 159 13.5 M145.5 0 C154.5 0, 159 4.5, 159 13.5 M159 13.5 C159 19.75, 159 26, 159 40.5 M159 13.5 C159 23.53, 159 33.57, 159 40.5 M159 40.5 C159 49.5, 154.5 54, 145.5 54 M159 40.5 C159 49.5, 154.5 54, 145.5 54 M145.5 54 C97.68 54, 49.85 54, 13.5 54 M145.5 54 C112.46 54, 79.43 54, 13.5 54 M13.5 54 C4.5 54, 0 49.5, 0 40.5 M13.5 54 C4.5 54, 0 49.5, 0 40.5 M0 40.5 C0 32.2, 0 23.9, 0 13.5 M0 40.5 C0 30.11, 0 19.73, 0 13.5 M0 13.5 C0 4.5, 4.5 0, 13.5 0 M0 13.5 C0 4.5, 4.5 0, 13.5 0" stroke="#000000" stroke-width="1" fill="none"></path></g><g transform="translate(529.5 153.5) rotate(0 18 13)"><text x="18" y="18" font-family="Virgil, Segoe UI Emoji" font-size="20px" fill="#000000" text-anchor="middle" style="white-space: pre;" direction="ltr">Set</text></g><g stroke-linecap="round" transform="translate(10 106) rotate(0 341.5 58.5)"><path d="M29.25 0 M29.25 0 C165.14 0, 301.04 0, 653.75 0 M653.75 0 C673.25 0, 683 9.75, 683 29.25 M683 29.25 C683 46.2, 683 63.15, 683 87.75 M683 87.75 C683 107.25, 673.25 117, 653.75 117 M653.75 117 C456.46 117, 259.17 117, 29.25 117 M29.25 117 C9.75 117, 0 107.25, 0 87.75 M0 87.75 C0 69.9, 0 52.06, 0 29.25 M0 29.25 C0 9.75, 9.75 0, 29.25 0" stroke="#000000" stroke-width="1.5" fill="none" stroke-dasharray="1.5 7"></path></g><g stroke-linecap="round" transform="translate(10 262) rotate(0 341.5 39)"><path d="M19.5 0 M19.5 0 C155.82 0, 292.15 0, 663.5 0 M663.5 0 C676.5 0, 683 6.5, 683 19.5 M683 19.5 C683 33.18, 683 46.85, 683 58.5 M683 58.5 C683 71.5, 676.5 78, 663.5 78 M663.5 78 C484.02 78, 304.55 78, 19.5 78 M19.5 78 C6.5 78, 0 71.5, 0 58.5 M0 58.5 C0 45.19, 0 31.88, 0 19.5 M0 19.5 C0 6.5, 6.5 0, 19.5 0" stroke="#000000" stroke-width="1.5" fill="none" stroke-dasharray="1.5 7"></path></g><g stroke-linecap="round" transform="translate(92.5 281) rotate(0 53 20)"><path d="M10 0 L96 0 L100.38 0.63 L103.5 2.5 L105.38 5.63 L106 10 L106 30 L105.38 34.38 L103.5 37.5 L100.38 39.38 L96 40 L10 40 L5.63 39.38 L2.5 37.5 L0.62 34.38 L0 30 L0 10 L0.63 5.63 L2.5 2.5 L5.63 0.62 L10 0" stroke="none" stroke-width="0" fill="#c4f135"></path><path d="M10 0 M10 0 C28.19 0, 46.38 0, 96 0 M10 0 C42.11 0, 74.23 0, 96 0 M96 0 C102.67 0, 106 3.33, 106 10 M96 0 C102.67 0, 106 3.33, 106 10 M106 10 C106 16.41, 106 22.81, 106 30 M106 10 C106 17.1, 106 24.19, 106 30 M106 30 C106 36.67, 102.67 40, 96 40 M106 30 C106 36.67, 102.67 40, 96 40 M96 40 C67.03 40, 38.06 40, 10 40 M96 40 C69.79 40, 43.57 40, 10 40 M10 40 C3.33 40, 0 36.67, 0 30 M10 40 C3.33 40, 0 36.67, 0 30 M0 30 C0 24.41, 0 18.81, 0 10 M0 30 C0 24.13, 0 18.25, 0 10 M0 10 C0 3.33, 3.33 0, 10 0 M0 10 C0 3.33, 3.33 0, 10 0" stroke="#000000" stroke-width="1" fill="none"></path></g><g transform="translate(102.5 291) rotate(0 43 10.5)"><text x="43" y="15" font-family="Virgil, Segoe UI Emoji" font-size="16px" fill="#000000" text-anchor="middle" style="white-space: pre;" direction="ltr">Field/Value</text></g><g stroke-linecap="round" transform="translate(293.5 280) rotate(0 53 20)"><path d="M10 0 L96 0 L100.38 0.63 L103.5 2.5 L105.38 5.63 L106 10 L106 30 L105.38 34.38 L103.5 37.5 L100.38 39.38 L96 40 L10 40 L5.63 39.38 L2.5 37.5 L0.62 34.38 L0 30 L0 10 L0.63 5.63 L2.5 2.5 L5.63 0.62 L10 0" stroke="none" stroke-width="0" fill="#c4f135"></path><path d="M10 0 M10 0 C41 0, 72 0, 96 0 M10 0 C44.22 0, 78.45 0, 96 0 M96 0 C102.67 0, 106 3.33, 106 10 M96 0 C102.67 0, 106 3.33, 106 10 M106 10 C106 17.46, 106 24.93, 106 30 M106 10 C106 16.32, 106 22.63, 106 30 M106 30 C106 36.67, 102.67 40, 96 40 M106 30 C106 36.67, 102.67 40, 96 40 M96 40 C69.31 40, 42.63 40, 10 40 M96 40 C62.78 40, 29.56 40, 10 40 M10 40 C3.33 40, 0 36.67, 0 30 M10 40 C3.33 40, 0 36.67, 0 30 M0 30 C0 25.33, 0 20.66, 0 10 M0 30 C0 24.08, 0 18.17, 0 10 M0 10 C0 3.33, 3.33 0, 10 0 M0 10 C0 3.33, 3.33 0, 10 0" stroke="#000000" stroke-width="1" fill="none"></path></g><g transform="translate(325 290) rotate(0 21.5 10.5)"><text x="21.5" y="15" font-family="Virgil, Segoe UI Emoji" font-size="16px" fill="#000000" text-anchor="middle" style="white-space: pre;" direction="ltr">Value</text></g><g stroke-linecap="round" transform="translate(494.5 281) rotate(0 53 20)"><path d="M10 0 L96 0 L100.38 0.63 L103.5 2.5 L105.38 5.63 L106 10 L106 30 L105.38 34.38 L103.5 37.5 L100.38 39.38 L96 40 L10 40 L5.63 39.38 L2.5 37.5 L0.62 34.38 L0 30 L0 10 L0.63 5.63 L2.5 2.5 L5.63 0.62 L10 0" stroke="none" stroke-width="0" fill="#c4f135"></path><path d="M10 0 M10 0 C40.27 0, 70.55 0, 96 0 M10 0 C43.9 0, 77.8 0, 96 0 M96 0 C102.67 0, 106 3.33, 106 10 M96 0 C102.67 0, 106 3.33, 106 10 M106 10 C106 17.69, 106 25.37, 106 30 M106 10 C106 15.36, 106 20.72, 106 30 M106 30 C106 36.67, 102.67 40, 96 40 M106 30 C106 36.67, 102.67 40, 96 40 M96 40 C62.13 40, 28.26 40, 10 40 M96 40 C62.04 40, 28.09 40, 10 40 M10 40 C3.33 40, 0 36.67, 0 30 M10 40 C3.33 40, 0 36.67, 0 30 M0 30 C0 24.29, 0 18.58, 0 10 M0 30 C0 22.99, 0 15.97, 0 10 M0 10 C0 3.33, 3.33 0, 10 0 M0 10 C0 3.33, 3.33 0, 10 0" stroke="#000000" stroke-width="1" fill="none"></path></g><g transform="translate(526 291) rotate(0 21.5 10.5)"><text x="21.5" y="15" font-family="Virgil, Segoe UI Emoji" font-size="16px" fill="#000000" text-anchor="middle" style="white-space: pre;" direction="ltr">Value</text></g><g transform="translate(37 238) rotate(0 35 10.5)"><text x="35" y="15" font-family="Virgil, Segoe UI Emoji" font-size="16px" fill="#000000" text-anchor="middle" style="white-space: pre;" direction="ltr">Elements</text></g></svg>