<?xml version="1.0" encoding="UTF-8"?><svg id="Layer_1" xmlns="http://www.w3.org/2000/svg" viewBox="0 0 100 100"><path d="M85.04,49.13l-2.98-1.85c-.03-.29-.05-.58-.08-.87l2.56-2.39c.26-.24,.38-.6,.31-.95-.07-.35-.31-.64-.65-.76l-3.28-1.23c-.08-.28-.17-.56-.26-.85l2.04-2.84c.33-.46,.23-1.1-.23-1.43-.13-.09-.28-.16-.44-.18l-3.46-.56c-.13-.26-.27-.52-.42-.78l1.45-3.19c.15-.32,.12-.7-.08-1-.2-.3-.53-.47-.89-.46l-3.51,.12c-.18-.23-.37-.45-.55-.67l.81-3.42c.08-.35-.02-.71-.27-.96-.25-.25-.62-.36-.96-.27l-3.42,.81c-.22-.19-.45-.37-.67-.55l.12-3.51c.01-.36-.16-.69-.46-.89-.3-.2-.67-.23-1-.08l-3.19,1.45c-.26-.14-.52-.28-.78-.42l-.56-3.46c-.09-.56-.62-.94-1.18-.85-.16,.03-.31,.09-.43,.18l-2.84,2.04c-.28-.09-.56-.17-.84-.26l-1.23-3.28c-.12-.33-.41-.58-.76-.65-.35-.07-.71,.05-.95,.31l-2.39,2.57c-.29-.03-.58-.06-.87-.08l-1.85-2.98c-.3-.48-.93-.63-1.41-.33-.14,.08-.25,.2-.33,.33l-1.85,2.98c-.29,.02-.58,.05-.87,.08l-2.39-2.57c-.39-.41-1.03-.44-1.45-.05-.12,.11-.21,.24-.26,.39l-1.23,3.28c-.28,.08-.56,.17-.85,.26l-2.84-2.04c-.29-.21-.66-.25-.99-.12-.33,.14-.56,.43-.62,.78l-.56,3.46c-.26,.14-.52,.27-.78,.42l-3.19-1.45c-.32-.15-.7-.12-1,.08-.3,.2-.47,.53-.46,.89l.12,3.51c-.23,.18-.45,.37-.67,.55l-3.42-.8c-.35-.08-.71,.02-.96,.27-.25,.25-.36,.62-.27,.96l.8,3.42c-.19,.22-.37,.45-.55,.67l-3.51-.12c-.36-.01-.69,.16-.89,.46-.2,.3-.23,.67-.08,1l1.45,3.19c-.14,.26-.28,.51-.42,.78l-3.46,.56c-.56,.09-.94,.62-.85,1.18,.03,.16,.09,.31,.18,.43l2.04,2.84c-.09,.28-.18,.56-.26,.85l-3.28,1.23c-.53,.2-.8,.79-.6,1.32,.06,.15,.14,.28,.26,.39l2.56,2.39c-.03,.29-.06,.58-.08,.87l-2.98,1.85c-.3,.19-.49,.52-.49,.87,0,.36,.18,.69,.49,.87l2.98,1.85c.02,.29,.05,.58,.08,.87l-2.56,2.39c-.41,.39-.44,1.04-.05,1.45,.11,.12,.24,.21,.39,.26l3.28,1.23c.08,.28,.17,.57,.26,.85l-2.04,2.84c-.33,.46-.23,1.1,.23,1.43,.13,.09,.28,.16,.44,.18l3.45,.56c.14,.26,.27,.52,.42,.78l-1.45,3.19c-.15,.32-.12,.7,.08,1,.2,.3,.53,.47,.89,.46l3.51-.12c.18,.23,.37,.45,.55,.67l-.8,3.42c-.08,.35,.02,.71,.27,.96,.25,.25,.62,.36,.96,.27l3.42-.8c.22,.19,.45,.37,.67,.55l-.12,3.51c-.02,.57,.42,1.04,.99,1.06,.16,0,.32-.03,.46-.09l3.19-1.45c.26,.14,.52,.28,.78,.42l.56,3.45c.06,.35,.29,.65,.62,.78,.33,.14,.7,.09,.99-.11l2.84-2.05c.28,.09,.56,.18,.85,.26l1.23,3.28c.12,.33,.41,.58,.76,.65,.35,.07,.71-.05,.95-.31l2.39-2.56c.29,.03,.58,.06,.87,.09l1.85,2.98c.19,.3,.52,.49,.87,.49,.36,0,.69-.18,.87-.49l1.85-2.98c.29-.03,.58-.05,.87-.09l2.39,2.56c.24,.26,.6,.38,.95,.31,.35-.07,.64-.31,.76-.65l1.23-3.28c.28-.08,.57-.17,.85-.26l2.84,2.05c.46,.33,1.1,.23,1.43-.23,.09-.13,.15-.28,.18-.44l.56-3.45c.26-.14,.52-.28,.78-.42l3.19,1.45c.51,.24,1.12,.01,1.36-.5,.07-.15,.1-.31,.09-.47l-.12-3.51c.23-.18,.45-.36,.67-.55l3.42,.8c.35,.08,.71-.02,.96-.27,.25-.25,.36-.61,.27-.96l-.8-3.42c.19-.22,.37-.45,.55-.67l3.51,.12c.36,.01,.69-.16,.89-.46,.2-.3,.23-.67,.08-1l-1.45-3.19c.14-.26,.28-.52,.42-.78l3.46-.56c.35-.06,.65-.29,.78-.62,.14-.33,.09-.7-.12-.99l-2.04-2.84c.09-.28,.17-.56,.26-.85l3.28-1.23c.33-.12,.58-.41,.65-.76,.07-.35-.05-.71-.31-.95l-2.56-2.39c.03-.29,.06-.58,.08-.87l2.98-1.85c.3-.19,.49-.52,.49-.87,0-.36-.18-.69-.49-.87h0Zm-19.96,24.74c-1.14-.25-1.86-1.37-1.62-2.51,.24-1.14,1.37-1.87,2.5-1.62,1.14,.24,1.86,1.37,1.62,2.51-.24,1.14-1.37,1.87-2.51,1.62h0Zm-1.54-6.88c-.9-.01-1.68,.61-1.87,1.49v.02s-1.08,5.02-1.08,5.02c-3.32,1.51-7.01,2.34-10.89,2.34s-7.74-.88-11.12-2.45l-1.08-5.05c-.22-1.04-1.24-1.7-2.28-1.48l-4.46,.96c-.82-.85-1.59-1.75-2.29-2.7h21.84c.25,0,.42-.04,.42-.26v-7.48c0-.22-.17-.26-.42-.26h-6.58v-5h6.82c.62,0,3.33,.18,4.2,3.64,.27,1.06,.87,4.53,1.27,5.63,.41,1.24,2.06,3.73,3.82,3.73h10.75c.12,0,.25-.01,.39-.04-.75,1.01-1.56,1.97-2.44,2.87l-4.54-.97h-.45Zm-28.83,6.77c-1.14,.25-2.26-.48-2.51-1.62-.24-1.14,.48-2.27,1.62-2.51,1.14-.24,2.26,.48,2.51,1.62,.24,1.14-.48,2.26-1.62,2.51h0Zm-8.05-32.65c.47,1.07,0,2.32-1.07,2.79-1.06,.47-2.31,0-2.78-1.08-.47-1.07,0-2.31,1.07-2.79,1.06-.47,2.31,0,2.78,1.07h0Zm-2.4,5.88l4.7-2.09c.97-.43,1.41-1.57,.98-2.54l-.98-2.21h3.77v17h-7.61c-.67-2.37-1.02-4.83-1.01-7.3,0-.97,.05-1.92,.15-2.86h0Zm19.47-1.84v-5h8.96c.46,0,3.27,.54,3.27,2.63,0,1.74-2.15,2.37-3.92,2.37h-8.31Zm32.07,4.1c0,.64-.02,1.27-.07,1.9h-2.62c-.21,0-.37,.17-.37,.37v1.26c0,2.84-1.6,3.46-3.01,3.62-1.34,.15-2.82-.56-3-1.38-.79-4.44-2.1-5.39-4.18-7.02,2.58-1.64,5.26-4.05,5.26-7.28,0-3.49-2.39-5.69-4.02-6.76-2.29-1.51-4.82-1.81-5.5-1.81H31.06c3.69-4.12,8.69-7.03,14.34-8.09l3.2,3.36c.72,.76,1.93,.79,2.68,.06h0s3.59-3.43,3.59-3.43c7.52,1.4,13.88,6.08,17.55,12.5l-2.45,5.52c-.43,.97,0,2.11,.98,2.54l4.7,2.09c.08,.84,.12,1.69,.12,2.55h0Zm-27.35-27.9c.84-.81,2.18-.77,2.98,.07,.8,.85,.77,2.18-.07,2.99-.84,.81-2.18,.78-2.98-.07-.8-.84-.77-2.18,.07-2.99h0Zm24.7,19.87c.47-1.06,1.71-1.55,2.78-1.08,0,0,0,0,0,0,1.07,.47,1.55,1.72,1.07,2.79-.47,1.07-1.71,1.55-2.78,1.08,0,0,0,0,0,0-1.06-.47-1.54-1.72-1.07-2.79h0Z"/></svg>