<?xml version="1.0" encoding="UTF-8"?><svg id="Layer_1" xmlns="http://www.w3.org/2000/svg" viewBox="0 0 100 100"><defs><style>.cls-1{fill:#c4f135;}.cls-2{fill:#25392b;}.cls-3{fill:#282828;fill-rule:evenodd;}</style></defs><g><path class="cls-3" d="M70.94,67.07h0c-.61,2.93-3.31,10.45-11.93,14.52l-3.46-3.89-5.84,5.87c-6.74-.09-13.04-3.33-17.05-8.74,.62,.19,1.26,.31,1.91,.36,.96,.02,1.99-.33,1.99-1.95v-15.83c.05-1.44-1.08-2.65-2.51-2.7-.26,0-.52,.02-.77,.09-2.7,.62-4.86,7.36-4.86,7.36-.06-6.31,2.66-12.32,7.43-16.44,4.02-3.41,7.96-4.59,10.94-5.05-2.95,1.68-4.61,4.43-4.61,6.73,0,3.69,2.23,3.26,2.89,2.71v21.38c.11,.27,.26,.52,.43,.75,.6,.83,1.56,1.32,2.59,1.31,2.24,0,5.13-2.55,5.13-2.55v-17.31c0-1.76-1.33-3.89-2.66-4.62,0,0,2.46-.43,4.36,1.02h0c.36-.44,.74-.85,1.14-1.25,4.42-4.34,8.6-5.58,12.07-6.19h0s-6.33,4.97-6.33,11.63c0,4.96,.13,17.04,.13,17.04,2.35,2.26,5.84-1,8.99-4.25Z"/><path class="cls-3" d="M50,26.75c-19.47,0-35.25,15.78-35.25,35.25,0,19.47,15.78,35.25,35.25,35.25,19.47,0,35.25-15.78,35.25-35.25h0c0-19.47-15.78-35.25-35.25-35.25,0,0,0,0,0,0Zm0,69.08c-18.69,0-33.84-15.15-33.84-33.84,0-18.69,15.15-33.84,33.84-33.84,18.69,0,33.84,15.15,33.84,33.84h0c0,18.69-15.15,33.84-33.84,33.84Z"/></g><rect class="cls-1" x="4" y="2" width="92" height="23" rx="11.5" ry="11.5"/><g><path class="cls-2" d="M26.81,18.25l3.86-12.24h3l3.86,12.24h-2.11l-3.5-10.98h.46l-3.46,10.98h-2.11Zm2.15-2.65v-1.91h6.43v1.91h-6.43Z"/><path class="cls-2" d="M39.23,18.25V5.75h2.05v12.5h-2.05Z"/><path class="cls-2" d="M43.81,22.33V9.07h1.81v6.44h.25v6.82h-2.07Zm4.43-3.83c-.9,0-1.65-.21-2.25-.64-.61-.42-1.06-1-1.37-1.74-.31-.73-.46-1.56-.46-2.47s.15-1.75,.46-2.48c.31-.73,.75-1.31,1.35-1.73,.59-.42,1.32-.63,2.2-.63s1.62,.21,2.26,.63c.64,.42,1.13,1,1.48,1.73,.35,.73,.53,1.56,.53,2.49s-.17,1.74-.52,2.47c-.35,.73-.83,1.31-1.46,1.73-.63,.43-1.37,.64-2.21,.64Zm-.31-1.84c.53,0,.97-.13,1.32-.4s.6-.63,.77-1.08c.17-.46,.25-.96,.25-1.53s-.08-1.06-.25-1.52-.43-.82-.79-1.09c-.36-.27-.81-.4-1.36-.4-.52,0-.95,.13-1.27,.38-.33,.25-.57,.6-.73,1.05-.16,.45-.23,.98-.23,1.58s.08,1.12,.23,1.57c.16,.45,.4,.81,.74,1.06,.34,.25,.78,.38,1.33,.38Z"/><path class="cls-2" d="M54.28,18.25V6h1.83v6.44h.25v5.8h-2.07Zm6.37,0v-4.42c0-.29-.02-.61-.06-.96-.04-.35-.13-.69-.28-1.02-.14-.33-.36-.59-.65-.8-.29-.21-.67-.31-1.16-.31-.26,0-.52,.04-.77,.13s-.49,.23-.69,.44-.37,.49-.5,.85c-.12,.36-.19,.82-.19,1.38l-1.22-.52c0-.78,.15-1.49,.46-2.12,.3-.63,.75-1.14,1.34-1.52,.59-.38,1.31-.57,2.18-.57,.68,0,1.24,.11,1.68,.34,.44,.23,.79,.52,1.05,.87s.45,.73,.58,1.12c.12,.4,.21,.77,.24,1.13,.04,.35,.05,.64,.05,.86v5.13h-2.07Z"/><path class="cls-2" d="M67.5,18.5c-.66,0-1.22-.13-1.68-.38s-.81-.59-1.04-1.01c-.24-.42-.35-.88-.35-1.38,0-.44,.07-.84,.22-1.19,.15-.35,.37-.66,.68-.92s.7-.47,1.19-.63c.37-.12,.8-.23,1.3-.32,.5-.1,1.03-.19,1.62-.27,.58-.08,1.19-.17,1.82-.27l-.73,.42c0-.63-.14-1.1-.42-1.4-.29-.3-.78-.45-1.46-.45-.41,0-.81,.1-1.2,.29-.39,.19-.66,.52-.81,.99l-1.87-.59c.23-.78,.66-1.4,1.3-1.87s1.5-.71,2.58-.71c.82,0,1.53,.13,2.15,.4,.62,.27,1.08,.7,1.38,1.31,.16,.32,.26,.65,.3,.99s.05,.7,.05,1.1v5.64h-1.79v-1.99l.3,.32c-.41,.66-.9,1.15-1.45,1.46-.55,.31-1.24,.46-2.07,.46Zm.41-1.63c.46,0,.86-.08,1.19-.25,.33-.17,.59-.37,.79-.6,.2-.24,.33-.46,.39-.67,.11-.26,.17-.56,.18-.9,.01-.34,.02-.61,.02-.82l.63,.19c-.62,.1-1.15,.18-1.59,.25-.44,.07-.82,.14-1.14,.21-.32,.06-.6,.14-.84,.22-.24,.08-.44,.18-.6,.3-.17,.11-.29,.24-.38,.39s-.13,.32-.13,.52c0,.23,.06,.43,.17,.6,.11,.17,.28,.31,.5,.41,.22,.1,.49,.15,.81,.15Z"/></g></svg>