<?xml version="1.0" encoding="UTF-8"?><svg id="Layer_1" xmlns="http://www.w3.org/2000/svg" viewBox="0 0 100 100"><defs><style>.cls-1{fill:none;}.cls-2{fill:#3ddb85;}</style></defs><path class="cls-2" d="M66.01,58.35c-1.57,0-2.84-1.28-2.84-2.84s1.28-2.84,2.84-2.84,2.84,1.28,2.84,2.84-1.28,2.84-2.84,2.84m-31.43,0c-1.57,0-2.84-1.28-2.84-2.84s1.28-2.84,2.84-2.84,2.84,1.28,2.84,2.84-1.28,2.84-2.84,2.84m32.45-17.71l5.68-9.84c.33-.57,.13-1.29-.43-1.62-.57-.33-1.29-.13-1.62,.43l-5.75,9.97c-4.4-2.01-9.34-3.13-14.62-3.13s-10.22,1.12-14.62,3.13l-5.75-9.97c-.33-.56-1.05-.76-1.62-.43-.57,.33-.76,1.05-.43,1.62l5.68,9.84c-9.76,5.31-16.43,15.19-17.41,26.86H84.44c-.98-11.67-7.65-21.55-17.41-26.86"/><path class="cls-1" d="M-10.67,2.5H110.67V67.5H-10.67V2.5Z"/></svg>