<?xml version="1.0" encoding="UTF-8"?><svg id="Layer_1" xmlns="http://www.w3.org/2000/svg" xmlns:xlink="http://www.w3.org/1999/xlink" viewBox="0 0 100 100"><defs><style>.cls-1{fill:url(#linear-gradient);}.cls-1,.cls-2,.cls-3,.cls-4,.cls-5,.cls-6,.cls-7,.cls-8,.cls-9,.cls-10{fill-rule:evenodd;}.cls-2{fill:rgba(51,10,76,.32);}.cls-3{fill:rgba(237,237,237,.6);}.cls-4{fill:#fff;}.cls-5{fill:url(#linear-gradient-3);}.cls-6{fill:url(#linear-gradient-2);}.cls-7{fill:url(#linear-gradient-4);}.cls-8{fill:url(#linear-gradient-6);}.cls-9{fill:url(#linear-gradient-7);}.cls-10{fill:url(#linear-gradient-5);}</style><linearGradient id="linear-gradient" x1="-313.75" y1="380.41" x2="-314.3" y2="357.94" gradientTransform="translate(665.19 1167.67) scale(1.96 -3.02)" gradientUnits="userSpaceOnUse"><stop offset="0" stop-color="#d9d8dc"/><stop offset="1" stop-color="#fff" stop-opacity=".38"/></linearGradient><linearGradient id="linear-gradient-2" x1="-356.87" y1="347.18" x2="-361.35" y2="327.64" gradientTransform="translate(665.19 1208.66) scale(1.72 -3.43)" gradientUnits="userSpaceOnUse"><stop offset="0" stop-color="#8d67af" stop-opacity=".67"/><stop offset="1" stop-color="#9f8daf"/></linearGradient><linearGradient id="linear-gradient-3" x1="-330.22" y1="359.25" x2="-330.22" y2="344.55" gradientTransform="translate(665.19 1185.01) scale(1.85 -3.19)" gradientUnits="userSpaceOnUse"><stop offset="0" stop-color="#26053d" stop-opacity=".76"/><stop offset="1" stop-color="#b7b4b4" stop-opacity=".28"/></linearGradient><linearGradient id="linear-gradient-4" x1="-225.5" y1="489.89" x2="-218.7" y2="476.2" gradientTransform="translate(665.19 1077.66) scale(2.79 -2.12)" gradientUnits="userSpaceOnUse"><stop offset="0" stop-color="#91739f" stop-opacity=".46"/><stop offset="1" stop-color="#32054f" stop-opacity=".54"/></linearGradient><linearGradient id="linear-gradient-5" x1="-281.14" y1="384.43" x2="-293.22" y2="397.34" gradientTransform="translate(665.19 1141.83) scale(2.14 -2.76)" gradientUnits="userSpaceOnUse"><stop offset="0" stop-color="#463d49" stop-opacity=".33"/><stop offset="1" stop-color="#340a50" stop-opacity=".82"/></linearGradient><linearGradient id="linear-gradient-6" x1="-381.41" y1="324.1" x2="-385.01" y2="311.46" gradientTransform="translate(665.19 1235.33) scale(1.6 -3.7)" gradientUnits="userSpaceOnUse"><stop offset="0" stop-color="#715383" stop-opacity=".14"/><stop offset="1" stop-color="#f4f4f4" stop-opacity=".23"/></linearGradient><linearGradient id="linear-gradient-7" x1="-437.83" y1="291.95" x2="-449.32" y2="294.11" gradientTransform="translate(665.19 1292.7) scale(1.39 -4.27)" gradientUnits="userSpaceOnUse"><stop offset="0" stop-color="#a5a1a8" stop-opacity=".36"/><stop offset="1" stop-color="#370c50" stop-opacity=".58"/></linearGradient></defs><path class="cls-1" d="M52.04,13.35c-5.34,1.89-10.49,7.42-15.46,16.57-7.45,13.73-17.08,33.24-3.82,48.69,6.13,7.15,16.26,11.36,29.54,4.68,10.67-5.37,13.64-20.77,9.81-28.01-7.9-14.93-15.92-18.61-18.07-27.87-1.43-6.17-2.1-10.86-2-14.07h0Z"/><path class="cls-6" d="M52.04,13.35c-5.37,1.91-10.52,7.44-15.46,16.57-7.41,13.7-17.08,33.24-3.82,48.69,6.13,7.15,16.13,9.45,21.67,5.22,3.62-2.76,6.07-5.4,7.49-10.95,1.58-6.18,.37-14.5-.46-18.32-1.05-4.84-1.39-10.14-1.03-15.92-.1-.12-.19-.23-.29-.35-2.89-3.53-5.11-6.61-6.1-10.87-1.43-6.17-2.1-10.86-2-14.07h0Z"/><path class="cls-5" d="M47.6,15.63c-5,3.95-8.71,10.57-11.15,19.87-3.65,13.95-4.05,26.82-2.76,34.3,2.5,14.51,15.44,20.01,28.71,13.26,8.17-4.16,11.57-13.08,11.39-22.76-.19-10.03-19.56-21.39-22.99-29.75-2.29-5.58-3.36-10.55-3.21-14.93h0Z"/><path class="cls-7" d="M60.27,41.78c5.99,7.69,7.3,13.04,3.92,16.05-5.07,4.52-17.47,7.47-25.19,2-5.14-3.65-7.09-11.47-5.84-23.47-2.1,4.37-3.89,8.87-5.38,13.47-1.47,4.55-1.9,9.31-1.29,14.28,1.84,3.72,6.31,6.2,13.41,7.45,10.65,1.87,20.74,.95,27.5-2.46,4.51-2.27,6.64-4.54,6.4-6.79,.16-3.33-.86-6.49-3.08-9.5-2.22-3.01-5.7-6.69-10.46-11.04h0Z"/><path class="cls-10" d="M36.85,34.35c-.05,5.55,1.38,10.83,4.28,15.83,4.36,7.5,9.44,14.92,17.05,21.07,5.07,4.1,9.13,5.42,12.16,3.97-2.49,4.46-5.14,6.65-7.95,6.56-4.21-.13-9.35-1.97-17.58-11.86-5.49-6.59-9.24-12.83-11.26-18.71,.32-2.33,.66-4.66,1.02-6.97,.36-2.31,1.12-5.61,2.27-9.89h0Z"/><path class="cls-8" d="M49.72,41.73c.47,4.52,2.23,11.76,0,16.57s-12.5,13.52-9.67,21.18c2.84,7.66,9.75,5.94,14.09,2.41,4.34-3.53,6.66-9.28,7.17-13.32,.51-4.04-1.23-11.81-1.8-18.57-.38-4.51-.12-8.37,.77-11.59l-1.33-1.67-7.82-2.32c-1.25,1.85-1.73,4.29-1.42,7.3h0Z"/><path class="cls-9" d="M52.51,19.33c-2.53,1.07-4.93,3.19-7.2,6.36-3.4,4.75-5.13,7.61-3.85,17.03,.85,6.28,1.47,12.06,1.83,17.34l10.96-31.83c-.37-1.46-.7-2.92-1-4.4-.3-1.49-.55-2.99-.74-4.5Z"/><path class="cls-2" d="M54.15,28.16c-2.78,1.62-4.94,4.95-6.47,9.98-1.53,5.03-2.93,12.06-4.2,21.09,1.69-5.75,2.82-9.91,3.37-12.48,.83-3.86,1.11-9.33,3.31-13.04,1.47-2.47,2.79-4.32,3.98-5.55h0Z"/><path class="cls-4" d="M41.36,82.04c4.58,.65,6.97,1.24,7.18,1.75,.31,.76-.58,1.46-3.12,.99-1.69-.31-3.05-1.23-4.06-2.74Z"/><path class="cls-3" d="M43.66,19.33c-2.52,3.01-4.7,6.2-6.54,9.57s-3.17,5.88-3.96,7.54c-.25,1.24-.37,3.06-.36,5.47,0,2.41,.21,5.1,.63,8.05,.35-5.73,1.46-11.4,3.31-16.84,1.85-5.44,4.15-10.04,6.93-13.79Z"/></svg>