<?xml version="1.0" encoding="UTF-8"?><svg id="Layer_1" xmlns="http://www.w3.org/2000/svg" viewBox="0 0 100 100"><path d="M14.31,43.98c-.16-.36-.2-.44-.12-.56l.86-1.11c.08-.12,.29-.2,.45-.33h14.61c.16,.13,.2,.25,.12,.37l-.7,1.06c-.08,.12-.29,.25-.41,.56H14.31Zm-6.18,3c-.16,.41-.2,.32-.12,.2l.86-1.11c.08-.12,.29-.2,.45-.1H27.98c.16-.11,.25,.01,.2,.14l-.33,.98c-.04,.16-.2,.25-.37-.12H8.13Zm9.9,4c-.16,.17-.2,.05-.12-.07l.57-1.02c.08-.12,.25-.25,.41-.9h8.19c.16,.66,.25,.78,.25,.94l-.08,.98c0,.16-.16,.29-.29,.07h-8.92Zm41.69-7.87c-2.44,.62-4.1,1.08-6.5,1.7-.58,.15-.62,.19-1.12-.39-.58-.66-1.01-1.08-1.82-1.47-2.44-1.2-4.8-.85-7.01,.58-2.63,1.7-3.99,4.22-3.95,7.35,.04,3.1,2.17,5.65,5.23,6.08,2.63,.35,4.84-.58,6.58-2.55,.35-.43,.66-.89,1.05-1.43h-7.47c-.81,0-1.01-.5-.74-1.16,.5-1.2,1.43-3.21,1.97-4.22,.12-.23,.39-.62,.97-.62h14.09c-.08,1.05-.08,2.09-.23,3.14-.43,2.79-1.47,5.34-3.17,7.59-2.79,3.68-6.43,5.96-11.03,6.58-3.79,.5-7.32-.23-10.41-2.55-2.86-2.17-4.49-5.03-4.92-8.59-.5-4.22,.74-8.01,3.29-11.34,2.75-3.6,6.39-5.88,10.84-6.7,3.64-.66,7.12-.23,10.26,1.9,2.05,1.35,3.52,3.21,4.49,5.46,.23,.35,.08,.54-.39,.66Z"/><path d="M74.07,65.51c-3.72-.08-7.12-1.15-9.99-3.6-2.41-2.09-3.93-4.75-4.42-7.9-.74-4.62,.53-8.72,3.32-12.36,2.99-3.93,6.59-5.98,11.46-6.84,4.17-.74,8.1-.33,11.66,2.09,3.23,2.21,5.24,5.2,5.77,9.13,.7,5.53-.9,10.03-4.71,13.87-2.7,2.74-6.02,4.46-9.82,5.24-1.11,.2-2.21,.25-3.27,.37h0Zm9.74-16.54c-.04-.53-.04-.94-.12-1.35-.74-4.05-4.46-6.34-8.35-5.44-3.81,.86-6.26,3.27-7.16,7.12-.74,3.19,.82,6.43,3.77,7.74,2.25,.98,4.5,.86,6.67-.25,3.23-1.68,4.99-4.3,5.2-7.82h0Z"/></svg>