<?xml version="1.0" encoding="UTF-8"?><svg id="Layer_1" xmlns="http://www.w3.org/2000/svg" viewBox="0 0 100 100"><defs><style>.cls-1{fill:#fff;}.cls-2{fill:#282828;}</style></defs><path class="cls-2" d="M15,15H85V85H15V15Z"/><path class="cls-1" d="M44.18,35.17c-2.18,.03-4.06,.46-5.91,1.38-4.72,2.35-7.44,7.3-7.44,13.53s2.68,11.05,7.41,13.29c1.28,.61,2.56,.94,4.51,1.17,.98,.04,1.91,.11,2.86,0,1.95-.23,3.23-.56,4.51-1.17,4.73-2.25,7.41-7.05,7.41-13.29s-2.72-11.18-7.44-13.53c-1.85-.92-3.73-1.35-5.91-1.38h0Zm1.88,4.39c2.83,.75,4.89,3.31,5.67,7.04,.55,2.62,.4,5.64-.39,8.02-1.23,3.71-3.91,5.8-7.16,5.77-3.25,.03-5.93-2.06-7.16-5.77-.79-2.38-.94-5.41-.39-8.02,.79-3.73,2.84-6.28,5.67-7.04,1.28-.27,2.56-.22,3.75,0h0Zm-20.68-4.39c-1.56,0-2.83,1.27-2.83,2.83s1.27,2.83,2.83,2.83,2.83-1.27,2.83-2.83h0c0-1.56-1.27-2.83-2.83-2.83Zm-2.38,8.83v21h5v-21h-5Zm42.22,21c-2.27-.39-4.45-.69-6.3-1.74-.02-.02,1.09-4.2,1.14-4.27,2.97,1.01,7.16,2.43,9.98,1.13,1.54-.77,2.3-2.19,2.04-3.84-.29-1.85-1.56-2.91-5.07-4.22-3.91-1.46-6.21-3.26-7.15-5.6-.46-1.15-.61-2.61-.41-3.89,.58-3.56,3.35-6.03,7.6-6.79,1.23-.22,3.87-.22,5.16,0,1.87,.31,4.01,1.02,4.01,1.32,0,.11-1.09,3.97-1.15,4.06-1.85-.73-3.92-1.25-5.67-1.27-2.48-.03-5.17,1.44-4.69,4.04,.34,1.63,1.38,2.42,5.2,3.98,2.82,1.15,4.17,1.94,5.33,3.11,1.61,1.61,2.12,3.5,2.13,5.37,0,1.56-.14,2.29-.7,3.49-1.35,2.92-4.1,4.62-8.24,5.08-.77,.09-2.6,.11-3.23,.04h0Z"/></svg>