<?xml version="1.0" encoding="UTF-8"?><svg id="Layer_1" xmlns="http://www.w3.org/2000/svg" viewBox="0 0 100 100"><defs><style>.cls-1{fill:#e76f00;}.cls-2{fill:#5382a1;}</style></defs><path class="cls-2" d="M39.12,72.67s-3.17,1.84,2.26,2.47c6.57,.75,9.93,.64,17.17-.73,0,0,1.9,1.19,4.56,2.23-16.24,6.96-36.75-.4-23.99-3.97m-1.98-9.08s-3.55,2.63,1.87,3.19c7.02,.72,12.57,.78,22.16-1.06,0,0,1.33,1.35,3.41,2.08-19.63,5.74-41.5,.45-27.45-4.21"/><path class="cls-1" d="M53.86,48.19c4,4.61-1.05,8.75-1.05,8.75,0,0,10.16-5.24,5.49-11.81-4.36-6.12-7.7-9.17,10.39-19.66,0,0-28.4,7.09-14.83,22.72"/><path class="cls-2" d="M75.33,79.39s2.35,1.93-2.58,3.43c-9.37,2.84-39.01,3.7-47.24,.11-2.96-1.29,2.59-3.07,4.34-3.45,1.82-.39,2.86-.32,2.86-.32-3.29-2.32-21.27,4.55-9.13,6.52,33.11,5.37,60.35-2.42,51.76-6.29m-34.69-25.21s-15.07,3.58-5.34,4.88c4.11,.55,12.31,.43,19.94-.21,6.24-.53,12.5-1.65,12.5-1.65,0,0-2.2,.94-3.79,2.03-15.31,4.03-44.88,2.15-36.37-1.97,7.2-3.48,13.05-3.09,13.05-3.09m27.04,15.12c15.56-8.09,8.37-15.86,3.34-14.81-1.23,.26-1.78,.48-1.78,.48,0,0,.46-.72,1.33-1.03,9.94-3.49,17.58,10.3-3.21,15.77,0,0,.24-.21,.31-.41"/><path class="cls-1" d="M58.3,8.53s8.62,8.62-8.17,21.88c-13.47,10.63-3.07,16.7,0,23.63-7.86-7.09-13.63-13.33-9.76-19.14,5.68-8.53,21.42-12.66,17.94-26.36"/><path class="cls-2" d="M42.17,91.21c14.94,.96,37.87-.53,38.42-7.6,0,0-1.04,2.68-12.34,4.81-12.75,2.4-28.47,2.12-37.8,.58,0,0,1.91,1.58,11.73,2.21"/></svg>