<?xml version="1.0" encoding="UTF-8"?><svg id="Layer_1" xmlns="http://www.w3.org/2000/svg" viewBox="0 0 100 100"><defs><style>.cls-1{fill:#8cc84b;}</style></defs><path class="cls-1" d="M46.65,10.37c2.04-1.16,4.64-1.16,6.63,0l30.47,17.18c1.91,1.07,3.18,3.2,3.16,5.39v34.36c.01,2.27-1.37,4.41-3.36,5.46l-30,16.93c-2.09,1.15-4.64,1.08-6.67-.18l-9-5.2c-.61-.37-1.3-.66-1.74-1.25,.38-.52,1.07-.58,1.62-.81,1.25-.4,2.4-1.01,3.55-1.66,.29-.2,.65-.13,.92,.06l7.68,4.44c.55,.32,1.1-.1,1.57-.37l29.46-16.63c.36-.18,.57-.56,.54-.96V33.1c.04-.46-.22-.88-.64-1.07L50.57,14.98c-.36-.25-.83-.25-1.19,0l-30.24,17.09c-.41,.19-.69,.6-.64,1.06v33.87c-.04,.4,.18,.78,.55,.95l8.14,4.54c1.53,.81,3.41,1.27,5.09,.67,1.51-.56,2.51-1.99,2.5-3.58V35.79c-.03-.5,.45-.92,.94-.86h3.65c.51-.01,.91,.53,.84,1.03v34c0,3.02-1.24,6.31-4.04,7.79-3.44,1.78-7.69,1.41-11.09-.31l-8.64-4.78c-2.03-1.02-3.4-3.21-3.38-5.49V32.96c.02-2.28,1.27-4.37,3.27-5.46L46.65,10.37Zm8.82,24.24c4.39-.25,9.09-.17,13.04,2,3.06,1.66,4.75,5.14,4.81,8.54-.09,.46-.56,.71-1,.68-1.27,0-2.55,.02-3.82,0-.54,.02-.85-.48-.92-.96-.37-1.63-1.25-3.24-2.78-4.02-2.35-1.18-5.07-1.12-7.64-1.09-1.87,.1-3.88,.26-5.47,1.36-1.22,.83-1.59,2.54-1.15,3.87,.41,.97,1.53,1.29,2.45,1.58,5.29,1.38,10.9,1.27,16.09,3.07,2.15,.74,4.25,2.19,4.99,4.44,.96,3.02,.54,6.62-1.6,9.04-1.74,1.99-4.27,3.05-6.8,3.67-3.36,.75-6.85,.77-10.27,.43-3.21-.37-6.55-1.21-9.03-3.4-2.12-1.84-3.15-4.71-3.05-7.47,.03-.47,.49-.79,.94-.76h3.81c.51-.04,.89,.41,.92,.89,.24,1.53,.82,3.18,2.17,4.07,2.61,1.68,5.88,1.57,8.87,1.61,2.47-.11,5.25-.14,7.27-1.78,1.07-.93,1.38-2.49,1.09-3.83-.31-1.13-1.53-1.66-2.54-2.03-5.22-1.65-10.89-1.05-16.07-2.92-2.1-.74-4.13-2.15-4.94-4.3-1.13-3.05-.61-6.83,1.76-9.17,2.29-2.33,5.64-3.22,8.82-3.54l.05,.06Z"/></svg>