<?xml version="1.0" encoding="UTF-8"?><svg id="Layer_1" xmlns="http://www.w3.org/2000/svg" viewBox="0 0 100 100"><defs><style>.cls-1{fill:#8993be;}.cls-2{fill:#232531;fill-rule:evenodd;}</style></defs><ellipse class="cls-1" cx="50" cy="50" rx="40.5" ry="21.08"/><path class="cls-2" d="M20.92,61.92l4.34-21.99h10.33c4.4,.27,6.6,2.47,6.6,6.32,0,6.6-5.22,10.44-9.89,10.17h-5.07l-1.05,5.5h-5.25Zm7.21-8.79l1.47-8.79h3.81c2.05,0,3.52,.88,3.52,2.64-.29,4.98-2.64,5.86-5.28,6.16h-3.52Zm13.12,3.3l4.34-21.99h5.29l-1.05,5.5h4.99c4.4,.27,6.05,2.47,5.5,5.22l-1.92,11.27h-5.61l1.88-9.94c.27-1.34,.27-2.15-1.61-2.15h-4.03l-2.42,12.09h-5.36Zm16.84,5.5l4.34-21.99h10.33c4.4,.27,6.6,2.47,6.6,6.32,0,6.6-5.22,10.44-9.89,10.17h-5.07l-1.05,5.5h-5.25Zm7.21-8.79l1.47-8.79h3.81c2.05,0,3.52,.88,3.52,2.64-.29,4.98-2.64,5.86-5.28,6.16h-3.52Z"/></svg>