<?xml version="1.0" encoding="UTF-8"?><svg id="Layer_1" xmlns="http://www.w3.org/2000/svg" xmlns:xlink="http://www.w3.org/1999/xlink" viewBox="0 0 100 100"><defs><style>.cls-1{fill:url(#linear-gradient);}.cls-2{fill:url(#linear-gradient-2);}</style><linearGradient id="linear-gradient" x1=".02" y1="99.84" x2=".04" y2="99.82" gradientTransform="translate(-14.58 185068.9) scale(1849.27 -1853.39)" gradientUnits="userSpaceOnUse"><stop offset="0" stop-color="#387eb8"/><stop offset="1" stop-color="#366994"/></linearGradient><linearGradient id="linear-gradient-2" x1="-.32" y1="100.17" x2="-.3" y2="100.15" gradientTransform="translate(629.88 185696.24) scale(1849.27 -1853.39)" gradientUnits="userSpaceOnUse"><stop offset="0" stop-color="#ffe052"/><stop offset="1" stop-color="#ffc331"/></linearGradient></defs><path class="cls-1" d="M49.75,12.58c-18.93,0-17.75,8.31-17.75,8.31l.02,8.11h17.98v3H24.17s-12.4-1.41-12.4,18.14,10.82,18.86,10.82,18.86h7.41v-9.12s-.35-10.88,10.71-10.88h17.23s10.07,.16,10.07-9.85V22.6s1.53-10.02-18.25-10.02Zm-6.75,8.7v.43c0,1.81-1.47,3.28-3.28,3.28h-.43c-1.82,0-3.29-1.47-3.29-3.29v-.43c0-1.81,1.47-3.28,3.28-3.28h.43c1.82,0,3.29,1.47,3.29,3.29Z"/><path class="cls-2" d="M50.25,87.42c18.93,0,17.75-8.31,17.75-8.31l-.02-8.11h-17.98v-3h25.83s12.4,1.41,12.4-18.14-10.82-18.86-10.82-18.86h-6.41v9.12s.35,10.88-10.71,10.88h-18.23s-10.07-.16-10.07,9.85v16.55s-1.53,10.02,18.25,10.02h0Zm10.25-5.42c-1.93,0-3.5-1.56-3.5-3.49v-.22c0-1.81,1.47-3.28,3.28-3.28h.43c1.82,0,3.29,1.47,3.29,3.29v.43c0,1.81-1.47,3.28-3.28,3.28h-.22Z"/></svg>