<?xml version="1.0" encoding="UTF-8"?><svg id="Layer_1" xmlns="http://www.w3.org/2000/svg" xmlns:xlink="http://www.w3.org/1999/xlink" viewBox="0 0 100 100"><defs><style>.cls-1{fill:url(#linear-gradient);}.cls-2{fill:#fff;}.cls-3{fill:#9e1209;}.cls-4{fill:url(#radial-gradient-2);}.cls-5{fill:url(#linear-gradient-8);}.cls-6{fill:url(#linear-gradient-9);}.cls-7{fill:url(#linear-gradient-3);}.cls-8{fill:url(#linear-gradient-4);}.cls-9{fill:url(#linear-gradient-2);}.cls-10{fill:url(#linear-gradient-6);}.cls-11{fill:url(#linear-gradient-7);}.cls-12{fill:url(#linear-gradient-5);}.cls-13{fill:url(#radial-gradient);}.cls-14{fill:url(#linear-gradient-14);}.cls-15{fill:url(#linear-gradient-13);}.cls-16{fill:url(#linear-gradient-12);}.cls-17{fill:url(#linear-gradient-10);}.cls-18{fill:url(#linear-gradient-11);}</style><linearGradient id="linear-gradient" x1="239.67" y1="-10.88" x2="239.66" y2="-10.86" gradientTransform="translate(-474848.23 -21443.23) scale(1981.58 -1980.1)" gradientUnits="userSpaceOnUse"><stop offset="0" stop-color="#fb7655"/><stop offset="0" stop-color="#fb7655"/><stop offset=".41" stop-color="#e42b1e"/><stop offset=".99" stop-color="#900"/><stop offset="1" stop-color="#900"/></linearGradient><linearGradient id="linear-gradient-2" x1="236.77" y1="-10.06" x2="236.74" y2="-10.04" gradientTransform="translate(-139348.35 -10905.94) scale(588.89 -1091.48)" gradientUnits="userSpaceOnUse"><stop offset="0" stop-color="#871101"/><stop offset="0" stop-color="#871101"/><stop offset=".99" stop-color="#911209"/><stop offset="1" stop-color="#911209"/></linearGradient><linearGradient id="linear-gradient-3" x1="239.64" y1="-1.64" x2="239.63" y2="-1.58" gradientTransform="translate(-440596.08 -260.69) scale(1838.89 -214.69)" xlink:href="#linear-gradient-2"/><linearGradient id="linear-gradient-4" x1="239.43" y1="-9.62" x2="239.44" y2="-9.64" gradientTransform="translate(-152462.79 -9062.04) scale(636.89 -948.15)" gradientUnits="userSpaceOnUse"><stop offset="0" stop-color="#fff"/><stop offset="0" stop-color="#fff"/><stop offset=".23" stop-color="#e57252"/><stop offset=".46" stop-color="#de3b20"/><stop offset=".99" stop-color="#a60003"/><stop offset="1" stop-color="#a60003"/></linearGradient><linearGradient id="linear-gradient-5" x1="239.12" y1="-10.44" x2="239.12" y2="-10.46" gradientTransform="translate(-245863.77 -10845.22) scale(1028.42 -1043.12)" gradientUnits="userSpaceOnUse"><stop offset="0" stop-color="#fff"/><stop offset="0" stop-color="#fff"/><stop offset=".23" stop-color="#e4714e"/><stop offset=".56" stop-color="#be1a0d"/><stop offset=".99" stop-color="#a80d00"/><stop offset="1" stop-color="#a80d00"/></linearGradient><linearGradient id="linear-gradient-6" x1="238.19" y1="-10.95" x2="238.2" y2="-10.97" gradientTransform="translate(-219312.67 -7078.62) scale(921.02 -648.55)" gradientUnits="userSpaceOnUse"><stop offset="0" stop-color="#fff"/><stop offset="0" stop-color="#fff"/><stop offset=".18" stop-color="#e46342"/><stop offset=".4" stop-color="#c82410"/><stop offset=".99" stop-color="#a80d00"/><stop offset="1" stop-color="#a80d00"/></linearGradient><linearGradient id="linear-gradient-7" x1="237.73" y1="-11.75" x2="237.75" y2="-11.72" gradientTransform="translate(-164220.04 -2767.68) scale(691.02 -237.29)" gradientUnits="userSpaceOnUse"><stop offset="0" stop-color="#fff"/><stop offset="0" stop-color="#fff"/><stop offset=".54" stop-color="#c81f11"/><stop offset=".99" stop-color="#bf0905"/><stop offset="1" stop-color="#bf0905"/></linearGradient><linearGradient id="linear-gradient-8" x1="238.83" y1="-9.51" x2="238.84" y2="-9.53" gradientTransform="translate(-42374.33 -6690.42) scale(177.49 -709.36)" gradientUnits="userSpaceOnUse"><stop offset="0" stop-color="#fff"/><stop offset="0" stop-color="#fff"/><stop offset=".31" stop-color="#de4024"/><stop offset=".99" stop-color="#bf190b"/><stop offset="1" stop-color="#bf190b"/></linearGradient><linearGradient id="linear-gradient-9" x1="239.81" y1="-11.11" x2="239.84" y2="-11.08" gradientTransform="translate(-370349.49 -17065.83) scale(1544.41 -1542.21)" gradientUnits="userSpaceOnUse"><stop offset="0" stop-color="#bd0012"/><stop offset="0" stop-color="#bd0012"/><stop offset=".07" stop-color="#fff"/><stop offset=".17" stop-color="#fff"/><stop offset=".27" stop-color="#c82f1c"/><stop offset=".33" stop-color="#820c01"/><stop offset=".46" stop-color="#a31601"/><stop offset=".72" stop-color="#b31301"/><stop offset=".99" stop-color="#e82609"/><stop offset="1" stop-color="#e82609"/></linearGradient><linearGradient id="linear-gradient-10" x1="239.44" y1="-9.64" x2="239.43" y2="-9.64" gradientTransform="translate(-297060.27 -9098.63) scale(1240.83 -951.17)" gradientUnits="userSpaceOnUse"><stop offset="0" stop-color="#8c0c01"/><stop offset="0" stop-color="#8c0c01"/><stop offset=".54" stop-color="#990c00"/><stop offset=".99" stop-color="#a80d0e"/><stop offset="1" stop-color="#a80d0e"/></linearGradient><linearGradient id="linear-gradient-11" x1="238.19" y1="-10.43" x2="238.18" y2="-10.42" gradientTransform="translate(-218579.11 -10703.06) scale(917.99 -1031.18)" gradientUnits="userSpaceOnUse"><stop offset="0" stop-color="#7e110b"/><stop offset="0" stop-color="#7e110b"/><stop offset=".99" stop-color="#9e0c00"/><stop offset="1" stop-color="#9e0c00"/></linearGradient><linearGradient id="linear-gradient-12" x1="237.62" y1="-11.23" x2="237.61" y2="-11.22" gradientTransform="translate(-184851.2 -8939.14) scale(778.27 -798.67)" gradientUnits="userSpaceOnUse"><stop offset="0" stop-color="#79130d"/><stop offset="0" stop-color="#79130d"/><stop offset=".99" stop-color="#9e120b"/><stop offset="1" stop-color="#9e120b"/></linearGradient><radialGradient id="radial-gradient" cx="238.16" cy="-9.74" fx="238.16" fy="-9.74" r=".02" gradientTransform="translate(-216475.59 -4583.95) scale(909.23 -475.1)" gradientUnits="userSpaceOnUse"><stop offset="0" stop-color="#a80d00"/><stop offset="0" stop-color="#a80d00"/><stop offset=".99" stop-color="#7e0e08"/><stop offset="1" stop-color="#7e0e08"/></radialGradient><radialGradient id="radial-gradient-2" cx="238.97" cy="-9.25" fx="238.97" fy="-9.25" r=".02" gradientTransform="translate(-227313.63 -6782.72) scale(951.41 -740.63)" gradientUnits="userSpaceOnUse"><stop offset="0" stop-color="#a30c00"/><stop offset="0" stop-color="#a30c00"/><stop offset=".99" stop-color="#800e08"/><stop offset="1" stop-color="#800e08"/></radialGradient><linearGradient id="linear-gradient-13" x1="239.2" y1="-9.2" x2="239.19" y2="-9.18" gradientTransform="translate(-93722.59 -7206.81) scale(391.92 -792.34)" gradientUnits="userSpaceOnUse"><stop offset="0" stop-color="#8b2114"/><stop offset="0" stop-color="#8b2114"/><stop offset=".43" stop-color="#9e100a"/><stop offset=".99" stop-color="#b3100c"/><stop offset="1" stop-color="#b3100c"/></linearGradient><linearGradient id="linear-gradient-14" x1="237.56" y1="-11.55" x2="237.58" y2="-11.56" gradientTransform="translate(-181098.53 -3658.42) scale(762.62 -318.55)" gradientUnits="userSpaceOnUse"><stop offset="0" stop-color="#b31000"/><stop offset="0" stop-color="#b31000"/><stop offset=".44" stop-color="#910f08"/><stop offset=".99" stop-color="#791c12"/><stop offset="1" stop-color="#791c12"/></linearGradient></defs><path class="cls-1" d="M68.86,61.24l-39.19,23.27,50.74-3.44,3.91-51.16-15.46,31.34h0Z"/><path class="cls-9" d="M80.49,81.03l-4.36-30.1-11.88,15.69,16.24,14.41h0Z"/><path class="cls-7" d="M80.55,81.03l-31.95-2.51-18.76,5.92,50.71-3.41h0Z"/><path class="cls-8" d="M29.89,84.45l7.98-26.15-17.56,3.76,9.58,22.39h0Z"/><path class="cls-12" d="M64.25,66.7l-7.34-28.77-21.02,19.7,28.36,9.07h0Z"/><path class="cls-10" d="M82.65,38.34l-19.87-16.23-5.53,17.89,25.4-1.66h0Z"/><path class="cls-11" d="M73.36,16.49l-11.68,6.3-7.37-7.3,19.06,1h0Z"/><path class="cls-5" d="M15.68,70.83l4.89-8.93-3.96-10.63-.94,19.56Z"/><path class="cls-2" d="M16.35,50.93l3.98,11.3,17.31-3.88,19.76-18.37,5.58-17.72-8.78-6.2-14.93,5.59c-4.7,4.38-13.83,13.03-14.16,13.19-.33,.17-6.03,10.94-8.76,16.08h0Z"/><path class="cls-6" d="M30.34,30.63c10.19-10.11,23.34-16.08,28.38-10.99,5.04,5.09-.3,17.46-10.5,27.56-10.19,10.1-23.17,16.41-28.22,11.32-5.04-5.09,.14-17.78,10.33-27.89h0Z"/><path class="cls-17" d="M29.89,84.44l7.92-26.23,26.3,8.45c-9.51,8.92-20.08,16.45-34.22,17.78h0Z"/><path class="cls-18" d="M57.45,39.93l6.75,26.74c7.94-8.35,15.07-17.33,18.56-28.44l-25.32,1.69h0Z"/><path class="cls-16" d="M82.69,38.37c2.7-8.15,3.33-19.85-9.42-22.02l-10.45,5.77,19.87,16.25Z"/><path class="cls-3" d="M15.68,70.71c.37,13.46,10.08,13.66,14.22,13.78l-9.55-22.31-4.67,8.54Z"/><path class="cls-13" d="M57.48,39.97c6.1,3.75,18.41,11.29,18.65,11.42,.39,.22,5.3-8.29,6.42-13.1l-25.07,1.67Z"/><path class="cls-4" d="M37.79,58.21l10.59,20.42c6.26-3.39,11.16-7.53,15.65-11.96l-26.24-8.46h0Z"/><path class="cls-15" d="M20.31,62.2l-1.5,17.86c2.83,3.87,6.72,4.2,10.81,3.9-2.95-7.35-8.86-22.06-9.31-21.76Z"/><path class="cls-14" d="M62.76,22.17l21.03,2.95c-1.12-4.76-4.57-7.83-10.44-8.78l-10.59,5.83h0Z"/></svg>