<?xml version="1.0" encoding="UTF-8"?><svg id="Layer_1" xmlns="http://www.w3.org/2000/svg" viewBox="0 0 100 100"><defs><style>.cls-1{fill:#282828;}</style></defs><path class="cls-1" d="M52.73,27.47l11.15,6.41c.4,.23,.42,.85,0,1.07l-13.25,7.62c-.4,.23-.87,.22-1.25,0l-13.25-7.62c-.41-.22-.42-.86,0-1.07l11.14-6.41V14.92L18.82,31.28v32.73l10.91-6.27v-12.82c0-.46,.53-.78,.93-.54l13.25,7.62c.4,.23,.63,.65,.63,1.07v15.24c0,.46-.53,.78-.93,.54l-11.15-6.41-10.91,6.27,28.46,16.36,28.46-16.36-10.91-6.27-11.15,6.41c-.39,.24-.95-.07-.93-.54v-15.24c0-.46,.26-.86,.63-1.07l13.25-7.62c.39-.24,.95,.07,.93,.54v12.82l10.91,6.27V31.28L52.73,14.92v12.55Z"/></svg>