<?xml version="1.0" encoding="UTF-8"?><svg id="Layer_1" xmlns="http://www.w3.org/2000/svg" viewBox="0 0 100 100"><defs><style>.cls-1{fill:#fff;fill-rule:evenodd;}</style></defs><path class="cls-1" d="M70.94,55.07h0c-.61,2.93-3.31,10.45-11.93,14.52l-3.46-3.89-5.84,5.87c-6.74-.09-13.04-3.33-17.05-8.74,.62,.19,1.26,.31,1.91,.36,.96,.02,1.99-.33,1.99-1.95v-15.83c.05-1.44-1.08-2.65-2.51-2.7-.26,0-.52,.02-.77,.09-2.7,.62-4.86,7.36-4.86,7.36-.06-6.31,2.66-12.32,7.43-16.44,4.02-3.41,7.96-4.59,10.94-5.05-2.95,1.68-4.61,4.43-4.61,6.73,0,3.69,2.23,3.26,2.89,2.71v21.38c.11,.27,.26,.52,.43,.75,.6,.83,1.56,1.32,2.59,1.31,2.24,0,5.13-2.55,5.13-2.55v-17.31c0-1.76-1.33-3.89-2.66-4.62,0,0,2.46-.43,4.36,1.02h0c.36-.44,.74-.85,1.14-1.25,4.42-4.34,8.6-5.58,12.07-6.19h0s-6.33,4.97-6.33,11.63c0,4.96,.13,17.04,.13,17.04,2.35,2.26,5.84-1,8.99-4.25Z"/><path class="cls-1" d="M50,14.75c-19.47,0-35.25,15.78-35.25,35.25,0,19.47,15.78,35.25,35.25,35.25,19.47,0,35.25-15.78,35.25-35.25h0c0-19.47-15.78-35.25-35.25-35.25,0,0,0,0,0,0Zm0,69.08c-18.69,0-33.84-15.15-33.84-33.84,0-18.69,15.15-33.84,33.84-33.84,18.69,0,33.84,15.15,33.84,33.84h0c0,18.69-15.15,33.84-33.84,33.84Z"/></svg>