<svg fill="none" xmlns="http://www.w3.org/2000/svg" viewBox="157 138.98 1271.43 234.02">
<path d="M227.585 370.922C228.376 371.76 229.373 372.376 230.478 372.706C231.582 373.037 232.753 373.071 233.875 372.804C234.996 372.538 236.028 371.982 236.866 371.19C237.704 370.399 238.319 369.401 238.648 368.296L247.462 336.23L287.591 184.714C287.78 183.885 288.245 183.145 288.909 182.615C289.574 182.086 290.398 181.797 291.248 181.797C292.098 181.797 292.922 182.086 293.587 182.615C294.251 183.145 294.716 183.885 294.905 184.714L299.218 196.34C300.733 200.467 303.234 204.162 306.502 207.103C309.77 210.044 313.706 212.143 317.97 213.217L355.474 223.531C359.113 224.529 362.367 226.602 364.809 229.479C367.251 232.357 368.769 235.904 369.163 239.657C369.438 244.15 368.686 248.647 366.964 252.806C365.242 256.965 362.595 260.677 359.224 263.66L349.848 271.723C342.409 278.23 337.106 286.829 334.63 296.396C332.155 305.964 332.622 316.056 335.972 325.354L351.348 368.484C351.712 369.461 352.292 370.343 353.044 371.066C353.796 371.788 354.701 372.332 355.692 372.656C356.683 372.98 357.734 373.077 358.768 372.939C359.801 372.801 360.791 372.432 361.662 371.859C381.109 357.54 396.147 338.051 405.065 315.608C413.982 293.165 416.421 268.669 412.105 244.908C407.57 219.532 395.506 196.108 377.48 177.681C359.454 159.254 336.301 146.676 311.031 141.584C293.445 138.01 275.306 138.145 257.774 141.979C240.243 145.813 223.704 153.263 209.215 163.851C194.726 174.44 182.605 187.936 173.627 203.475C164.65 219.014 159.013 236.255 157.077 254.096C156.889 255.586 157.047 257.099 157.539 258.518C158.031 259.936 158.844 261.222 159.915 262.275C160.986 263.327 162.285 264.119 163.712 264.587C165.139 265.054 166.655 265.187 168.141 264.973C173.194 264.502 178.29 265.093 183.101 266.709C187.912 268.326 192.332 270.93 196.076 274.357C199.82 277.783 202.806 281.955 204.841 286.604C206.877 291.253 207.917 296.276 207.895 301.352V320.104C208.119 338.862 215.111 356.909 227.585 370.922Z" fill="#25392B"/>
<path d="M316.093 248.326C322.514 248.326 327.719 243.12 327.719 236.699C327.719 230.278 322.514 225.073 316.093 225.073C309.672 225.073 304.467 230.278 304.467 236.699C304.467 243.12 309.672 248.326 316.093 248.326Z" fill="#25392B"/>
<g clip-path="url(#clip0_4715_29796)">
<path d="M642.267 220.664C636.603 216.435 629.498 214.29 621.167 214.29C604.996 214.29 592.26 220.563 583.245 232.947C580.685 228.43 577.128 224.451 572.636 221.08C566.631 216.573 559.356 214.29 551.019 214.29C541.776 214.29 534.096 216.264 528.18 220.152C524.602 222.515 521.316 225.294 518.362 228.467V227.641C518.362 224.27 517.151 221.342 514.756 218.936C509.935 214.141 502.073 214.163 497.427 218.979C495.128 221.374 493.96 224.292 493.96 227.642V329.034H518.362C518.362 324.604 518.362 320.175 518.362 315.746C518.362 306.368 518.362 296.99 518.362 287.613C518.362 279.121 518.362 270.63 518.362 262.138C518.362 260.223 518.373 258.196 518.592 256.284C518.825 254.245 519.997 252.701 521.193 251.091C523.652 247.779 526.478 244.734 529.716 242.169C533.845 238.899 539.194 237.241 545.605 237.241C552.432 237.241 557.232 239.011 559.868 242.5C562.683 246.233 564.107 252.373 564.107 260.736V329.033H588.514C588.514 324.763 588.514 320.493 588.514 316.224C588.514 307.091 588.514 297.957 588.514 288.824C588.514 280.313 588.514 271.802 588.514 263.291C588.514 261.503 588.538 259.559 588.565 257.767C588.598 255.55 588.965 254.466 590.209 252.668C592.922 248.744 596.117 245.134 599.863 242.169C604.055 238.851 609.261 237.241 615.758 237.241C622.585 237.241 627.384 239.011 630.019 242.5C632.825 246.233 634.254 252.373 634.254 260.736V329.033H658.661V256.987C658.661 250.005 657.327 243.215 654.715 236.804C652.028 230.265 647.846 224.836 642.267 220.664Z" fill="#25392B"/>
<path d="M763.853 221.517C755.416 216.722 745.58 214.29 734.614 214.29C723.51 214.29 713.6 216.722 705.151 221.517C696.681 226.344 690.057 233.267 685.46 242.094C680.905 250.847 678.59 260.97 678.59 272.181C678.59 283.402 680.905 293.526 685.46 302.267C690.056 311.099 696.681 318.022 705.151 322.844C713.589 327.639 723.499 330.071 734.614 330.071C745.59 330.071 755.426 327.639 763.843 322.844C772.313 318.033 778.98 311.115 783.652 302.283C788.282 293.536 790.628 283.407 790.628 272.18C790.628 260.963 788.282 250.834 783.652 242.071C778.98 233.251 772.312 226.333 763.853 221.517ZM761.505 292.22C758.392 297.436 754.422 301.293 749.719 303.676C740.011 308.605 728.747 308.477 719.296 303.676C714.602 301.298 710.666 297.447 707.616 292.241C704.554 287.009 702.997 280.187 702.997 271.973C702.997 263.903 704.554 257.156 707.616 251.919C710.667 246.724 714.581 242.917 719.264 240.601C724.065 238.233 729.228 237.033 734.614 237.033C739.862 237.033 744.95 238.233 749.751 240.601C754.433 242.917 758.392 246.734 761.505 251.94C764.631 257.167 766.221 263.909 766.221 271.973C766.221 280.187 764.632 286.998 761.505 292.22Z" fill="#25392B"/>
<path d="M1202.23 220.136C1196.19 216.258 1189.01 214.29 1180.89 214.29C1172.13 214.29 1164.4 216.162 1157.88 219.854C1153.35 222.441 1148.99 225.673 1144.9 229.496V227.641C1144.9 224.275 1143.68 221.346 1141.29 218.936C1136.47 214.14 1128.62 214.173 1123.96 218.978C1121.67 221.372 1120.5 224.285 1120.5 227.641V329.033H1144.9C1144.9 326.97 1144.9 324.908 1144.9 322.845C1144.9 317.772 1144.9 312.698 1144.9 307.624C1144.9 301.209 1144.9 294.793 1144.9 288.378C1144.9 282.29 1144.9 276.203 1144.9 270.115C1144.9 266.027 1144.87 261.938 1144.9 257.849C1144.9 257.277 1144.89 256.71 1144.87 256.137C1144.84 254.744 1146.71 253.279 1147.59 252.316C1148.8 250.973 1150.06 249.675 1151.38 248.43C1153.8 246.141 1156.4 244.032 1159.18 242.201C1164.19 238.91 1169.95 237.24 1176.3 237.24C1190.06 237.24 1196.47 244.442 1196.47 259.903V329.033H1220.88V257.823C1220.88 249.956 1219.28 242.621 1216.13 236.036C1212.94 229.357 1208.26 224.009 1202.23 220.136Z" fill="#25392B"/>
<path d="M1421.42 242.073C1416.75 233.251 1410.1 226.34 1401.63 221.517C1393.19 216.722 1383.35 214.29 1372.39 214.29C1361.27 214.29 1351.37 216.722 1342.94 221.517C1334.47 226.34 1327.83 233.262 1323.23 242.094C1318.68 250.857 1316.37 260.975 1316.37 272.181C1316.37 283.398 1318.68 293.52 1323.23 302.267C1327.83 311.105 1334.47 318.028 1342.94 322.844C1351.36 327.639 1361.26 330.071 1372.39 330.071C1383.36 330.071 1393.2 327.639 1401.64 322.844C1410.1 318.033 1416.75 311.115 1421.42 302.283C1426.06 293.536 1428.4 283.407 1428.4 272.18C1428.4 260.964 1426.06 250.836 1421.42 242.073ZM1399.29 292.22C1396.18 297.442 1392.21 301.298 1387.49 303.676C1377.78 308.589 1366.53 308.467 1357.08 303.676C1352.38 301.298 1348.44 297.452 1345.4 292.241C1342.33 287.014 1340.77 280.192 1340.77 271.973C1340.77 263.898 1342.33 257.151 1345.4 251.914C1348.44 246.724 1352.36 242.917 1357.05 240.601C1361.85 238.233 1367.01 237.033 1372.39 237.033C1377.64 237.033 1382.72 238.233 1387.53 240.601C1392.22 242.917 1396.18 246.73 1399.29 251.934C1402.42 257.184 1404.01 263.925 1404.01 271.973C1404.01 280.166 1402.42 286.982 1399.29 292.22Z" fill="#25392B"/>
<path d="M1076.83 221.907C1068.91 216.85 1059.45 214.29 1048.71 214.29C1037.24 214.29 1027.41 217.043 1019.48 222.471C1011.59 227.886 1005.67 235.071 1001.87 243.834C998.137 252.464 996.238 262 996.238 272.181C996.238 290.332 1001.29 304.669 1011.28 314.791C1021.26 324.931 1035.26 330.073 1052.88 330.073C1061.41 330.073 1068.53 329.267 1074.03 327.678C1079.5 326.094 1085.09 323.704 1090.66 320.548C1090.88 320.423 1091 320.341 1091.21 320.213L1096.81 316.916L1085.2 298.444L1079.35 301.531C1076 303.056 1072.62 304.464 1069.17 305.34C1065.04 306.385 1060.11 306.92 1054.55 306.92C1044.32 306.92 1036.32 304.417 1030.76 299.49C1025.76 295.068 1022.64 289.184 1021.27 281.574H1088.68C1092.36 281.574 1095.36 280.378 1097.61 278.032C1099.85 275.717 1100.98 272.838 1100.98 269.477C1100.98 259.674 1098.93 250.478 1094.88 242.158C1090.79 233.763 1084.72 226.947 1076.83 221.907ZM1021.11 260.708C1021.76 255.68 1023.26 251.374 1025.6 247.886C1028.35 243.752 1031.82 240.68 1035.93 238.744C1044.32 234.808 1053.09 234.808 1061.5 238.744C1065.62 240.68 1069.13 243.763 1071.96 247.907C1074.33 251.406 1075.86 255.699 1076.52 260.707H1021.11V260.708Z" fill="#25392B"/>
<path d="M959.389 220.664C953.725 216.435 946.62 214.29 938.29 214.29C922.119 214.29 909.381 220.563 900.367 232.947C897.807 228.43 894.249 224.451 889.758 221.08C883.752 216.573 876.478 214.29 868.141 214.29C858.899 214.29 851.217 216.264 845.303 220.152C841.723 222.515 838.438 225.294 835.483 228.467V227.641C835.483 224.27 834.273 221.342 831.879 218.936C827.056 214.14 819.195 214.161 814.549 218.978C812.251 221.372 811.083 224.291 811.083 227.641V329.033H835.484C835.484 324.604 835.484 320.174 835.484 315.745C835.484 306.367 835.484 296.989 835.484 287.612C835.484 279.12 835.484 270.629 835.484 262.137C835.484 260.222 835.496 258.195 835.715 256.283C835.948 254.244 837.12 252.7 838.315 251.09C840.775 247.778 843.602 244.733 846.839 242.168C850.968 238.898 856.316 237.24 862.728 237.24C869.556 237.24 874.355 239.01 876.99 242.499C879.806 246.232 881.23 252.372 881.23 260.735V329.032H905.637C905.637 324.762 905.637 320.492 905.637 316.223C905.637 307.09 905.637 297.956 905.637 288.823C905.637 280.312 905.637 271.801 905.637 263.291C905.637 261.502 905.662 259.558 905.687 257.766C905.722 255.549 906.088 254.465 907.331 252.667C910.044 248.743 913.24 245.133 916.987 242.168C921.179 238.85 926.385 237.24 932.881 237.24C939.708 237.24 944.509 239.01 947.144 242.499C949.949 246.232 951.379 252.372 951.379 260.735V329.032H975.785V256.987C975.785 250.005 974.451 243.215 971.838 236.804C969.149 230.265 964.968 224.836 959.389 220.664Z" fill="#25392B"/>
<path d="M1299.57 304.733L1290.38 307.438C1285.31 308.727 1282.1 309.364 1277.87 306.13C1276.01 304.705 1275.41 301.18 1275.41 298.205V238.073H1304.44V216.375H1279.09H1275.41H1275.38V196.428C1275.38 189.696 1269.92 184.24 1263.19 184.24C1256.46 184.24 1251 189.696 1251 196.428V216.375H1232.48V238.073H1251V270.304V299.867C1251 319.628 1262.46 330.072 1284.13 330.072C1290.35 330.072 1296.29 328.756 1301.94 326.258L1309.03 323.091L1299.57 304.733Z" fill="#25392B"/>
</g>
<defs>
<clipPath id="clip0_4715_29796">
<rect width="934.44" height="145.833" fill="white" transform="translate(493.96 184.24)"/>
</clipPath>
</defs>
</svg>