<?xml version="1.0" encoding="utf-8"?>
<!-- Generator: Adobe Illustrator 26.2.1, SVG Export Plug-In . SVG Version: 6.00 Build 0)  -->
<svg version="1.1" id="Layer_1" xmlns="http://www.w3.org/2000/svg" xmlns:xlink="http://www.w3.org/1999/xlink" x="0px" y="0px"
	 viewBox="0 0 1200 1200" style="enable-background:new 0 0 1200 1200;" xml:space="preserve">
<style type="text/css">
	.st0{fill:#C4F135;}
	.st1{fill:#25392B;}
</style>
<rect x="-1.4" y="0.9" class="st0" width="1200" height="1200"/>
<g>
	<path class="st1" d="M338.7,994.3c22.5,42.6,86,35.4,98.9-10.4l16.9-60.3l151.1-570.6c0.8-3.2,2.4-5.6,4.8-7.2s5.6-3.2,8.8-3.2
		s6.4,0.8,8.8,2.4s4.8,4,5.6,7.2l16.1,43.4c5.6,15.3,15.3,28.9,27.3,40.2c12.1,11.3,26.5,19.3,42.6,23.3l143.1,38.6
		c13.7,4,26.5,11.3,36.2,22.5c8.8,11.3,14.5,24.9,15.3,39.4c0.8,16.9-2.4,33-8.8,48.2c-6.4,15.3-16.9,28.9-28.9,40.2L841,678.4
		c-28.1,24.1-48.2,57.1-57.9,93.2s-8,73.9,4.8,109.3l33,91.6c19.3,53,87.6,68.3,127,27.3c102.9-106.9,156.7-261.2,126.2-426.8
		c-17.7-95.6-64.3-183.2-132.6-252.4C872.4,252.5,784.8,206.7,689.1,189C399,135.1,143.4,340.9,114.5,613.3
		c-2.4,24.9,15.3,43.4,40.2,40.2c78-8,151.1,52.2,151.1,136.6v69.1C305.8,906.7,317,952.5,338.7,994.3z"/>
	<path class="st1" d="M743,557.1c16.1,0,28.9-12.9,28.9-28.9c0-16.1-12.9-28.9-28.9-28.9S714,512.1,714,528.1
		C714,544.2,726.9,557.1,743,557.1z"/>
</g>
</svg>
