<svg width="18" height="18" viewBox="0 0 18 18" fill="none" xmlns="http://www.w3.org/2000/svg">
<path d="M8.29289 0.707106L0.292893 8.70711C0.105357 8.89464 1.05547e-07 9.149 1.02384e-07 9.41421L1.19249e-08 17C5.33895e-09 17.5523 0.447715 18 1 18L4.625 18C5.17728 18 5.625 17.5523 5.625 17L5.625 12.25C5.625 11.6977 6.07272 11.25 6.625 11.25L11.375 11.25C11.9273 11.25 12.375 11.6977 12.375 12.25L12.375 17C12.375 17.5523 12.8227 18 13.375 18L17 18C17.5523 18 18 17.5523 18 17L18 9.41421C18 9.149 17.8946 8.89464 17.7071 8.70711L9.70711 0.707108C9.31658 0.316582 8.68342 0.316582 8.29289 0.707106Z" fill="#929c95"/>
</svg>
