<svg width="121" height="106" viewBox="0 0 121 106" fill="none" xmlns="http://www.w3.org/2000/svg">
<path d="M28.5203 101.804C31.2979 107.128 39.1838 106.249 40.7705 100.459L42.8372 92.9137L61.6579 21.9333C61.7571 21.5617 61.972 21.2312 62.2716 20.99C62.5713 20.7487 62.94 20.6092 63.3243 20.5916C63.7086 20.5741 64.0884 20.6794 64.4088 20.8923C64.7292 21.1052 64.9734 21.4147 65.1061 21.7757L67.0849 27.2138C67.7853 29.135 68.9378 30.8594 70.4449 32.2415C71.952 33.6236 73.7695 34.6228 75.744 35.1547L93.6558 39.9771C95.4035 40.4301 96.963 41.4246 98.111 42.8181C99.259 44.2116 99.9365 45.9326 100.047 47.7347C100.146 49.8041 99.7733 51.8689 98.9576 53.7734C98.1419 55.6778 96.9041 57.372 95.3378 58.728L90.9404 62.5317C87.4316 65.5733 84.9242 69.6046 83.747 74.0965C82.5699 78.5885 82.7782 83.3313 84.3444 87.7028L88.4266 99.1249C90.8049 105.772 99.3687 107.656 104.253 102.555C117.017 89.2272 123.741 70.0805 119.945 49.4533C117.741 37.5725 111.988 26.6387 103.444 18.0938C94.9002 9.54881 83.9673 3.79404 72.0869 1.58832C35.9738 -5.05166 4.22499 20.4712 0.589856 54.4077C0.256392 57.5298 2.49903 59.7614 5.62114 59.4426C15.2879 58.4496 24.4417 65.9873 24.4417 76.486V85.1047C24.432 90.9188 25.8314 96.6487 28.5203 101.804Z" fill="#32523B"/>
<path d="M78.7891 47.4233C80.7846 47.4233 82.4023 45.8057 82.4023 43.8102C82.4023 41.8147 80.7846 40.197 78.7891 40.197C76.7936 40.197 75.176 41.8147 75.176 43.8102C75.176 45.8057 76.7936 47.4233 78.7891 47.4233Z" fill="#32523B"/>
</svg>
