<?xml version="1.0" encoding="UTF-8"?>
<svg id="Layer_1" data-name="Layer 1" xmlns="http://www.w3.org/2000/svg" xmlns:xlink="http://www.w3.org/1999/xlink" viewBox="0 0 59.99 79.41">
  <defs>
    <style>
      .cls-1 {
        fill: none;
      }

      .cls-2 {
        clip-path: url(#clippath);
      }

      .cls-3 {
        fill: #fff;
      }

      .cls-4 {
        fill: #254d79;
      }

      .cls-5 {
        fill: #254d78;
      }

      .cls-6 {
        fill: #234b75;
      }

      .cls-7 {
        fill: #3e77b4;
      }

      .cls-8 {
        fill: #295482;
      }

      .cls-9 {
        fill: #28517f;
      }

      .cls-10 {
        fill: #2b5685;
      }

      .cls-11 {
        fill: #2c5888;
      }

      .cls-12 {
        fill: #264f7c;
      }

      .cls-13 {
        fill: #2d5989;
      }

      .cls-14 {
        clip-path: url(#clippath-1);
      }

      .cls-15 {
        clip-path: url(#clippath-4);
      }

      .cls-16 {
        clip-path: url(#clippath-3);
      }

      .cls-17 {
        clip-path: url(#clippath-2);
      }

      .cls-18 {
        clip-path: url(#clippath-6);
      }

      .cls-19 {
        clip-path: url(#clippath-5);
      }

      .cls-20 {
        isolation: isolate;
      }
    </style>
    <clipPath id="clippath">
      <path class="cls-1" d="M47.23,12.26l9.72,2.44c-.52-.13-1.06-.17-1.61-.13l-9.72-2.44c.54-.05,1.08,0,1.61,.13Z"/>
    </clipPath>
    <clipPath id="clippath-1">
      <path class="cls-1" d="M34.08,80.13l-9.72-2.44c-.59-.15-1.14-.46-1.59-.93l9.72,2.44c.45,.47,1,.78,1.59,.93Z"/>
    </clipPath>
    <clipPath id="clippath-2">
      <path class="cls-1" d="M26.2-.85l9.72,2.44c-.15-.04-.31-.05-.48-.04L25.72-.88c.17-.01,.33,0,.48,.04Z"/>
    </clipPath>
    <clipPath id="clippath-3">
      <path class="cls-1" d="M31.99,3.74L22.28,1.3c0-1.04,.72-1.94,1.64-2.02l9.72,2.44c-.92,.08-1.65,.98-1.64,2.02Z"/>
    </clipPath>
    <clipPath id="clippath-4">
      <path class="cls-1" d="M29.9,76.51l-9.72-2.44c-.71-.74-1.57-1.31-2.51-1.64-3.86-1.41-7.19-4.14-9.54-7.83-2.35-3.69-3.63-8.17-3.67-12.88l9.72,2.44c.04,4.7,1.32,9.19,3.67,12.88,2.35,3.69,5.68,6.42,9.54,7.83,.94,.34,1.79,.9,2.51,1.64Z"/>
    </clipPath>
    <clipPath id="clippath-5">
      <path class="cls-1" d="M12.54,36.36l-9.72-2.44c-.87-.22-1.69-.69-2.35-1.38-1.05-1.08-1.64-2.63-1.66-4.29l9.72,2.44c.01,1.67,.61,3.21,1.66,4.29,.66,.69,1.48,1.16,2.35,1.38Z"/>
    </clipPath>
    <clipPath id="clippath-6">
      <path class="cls-1" d="M8.49,24.95L-1.22,22.51c-.01-1.66,.56-3.3,1.59-4.57,1.02-1.27,2.42-2.05,3.89-2.18l9.72,2.44c-1.46,.13-2.87,.91-3.89,2.18-1.03,1.27-1.6,2.91-1.59,4.57Z"/>
    </clipPath>
  </defs>
  <g class="cls-20">
    <g class="cls-20">
      <g class="cls-2">
        <g class="cls-20">
          <path class="cls-11" d="M55.34,14.58l-9.72-2.44c.08,0,.16-.01,.24-.02l9.72,2.44c-.08,0-.16,0-.24,.02"/>
          <path class="cls-10" d="M55.59,14.56l-9.72-2.44c.46-.02,.92,.03,1.36,.14l9.72,2.44c-.44-.11-.9-.16-1.36-.14"/>
        </g>
      </g>
    </g>
    <g class="cls-20">
      <g class="cls-14">
        <g class="cls-20">
          <path class="cls-5" d="M34.08,80.13l-9.72-2.44c-.59-.15-1.14-.46-1.59-.93l9.72,2.44c.45,.47,1,.78,1.59,.93"/>
        </g>
      </g>
    </g>
    <polygon class="cls-6" points="32.49 79.2 22.77 76.76 20.19 74.07 29.9 76.51 32.49 79.2"/>
    <polygon class="cls-13" points="37.21 16.17 27.49 13.73 45.63 12.14 55.34 14.58 37.21 16.17"/>
    <g class="cls-20">
      <g class="cls-17">
        <g class="cls-20">
          <path class="cls-11" d="M35.43,1.56L25.72-.88s.04,0,.07,0l9.72,2.44s-.04,0-.07,0"/>
          <path class="cls-10" d="M35.5,1.55L25.78-.89c.14,0,.28,0,.42,.04l9.72,2.44c-.13-.03-.27-.05-.42-.04"/>
        </g>
      </g>
    </g>
    <polygon class="cls-13" points="33.64 1.71 23.92 -.73 25.72 -.88 35.43 1.56 33.64 1.71"/>
    <polygon class="cls-4" points="32.1 16.62 22.38 14.18 22.28 1.3 31.99 3.74 32.1 16.62"/>
    <g class="cls-20">
      <g class="cls-16">
        <g class="cls-20">
          <path class="cls-5" d="M31.99,3.74L22.28,1.3c0-.24,.03-.47,.1-.68l9.72,2.44c-.07,.22-.11,.45-.1,.68"/>
          <path class="cls-12" d="M32.1,3.05L22.38,.62c.04-.13,.1-.26,.16-.38l9.72,2.44c-.07,.12-.12,.25-.16,.38"/>
          <path class="cls-9" d="M32.26,2.68L22.54,.24c.06-.11,.13-.21,.2-.31l9.72,2.44c-.08,.09-.14,.2-.2,.31"/>
          <path class="cls-8" d="M32.46,2.37L22.75-.07c.08-.1,.17-.2,.27-.28l9.72,2.44c-.1,.08-.19,.18-.27,.28"/>
          <path class="cls-10" d="M32.74,2.09L23.02-.35c.16-.13,.33-.23,.52-.3l9.72,2.44c-.19,.07-.37,.17-.52,.3"/>
          <path class="cls-11" d="M33.26,1.8L23.55-.64c.12-.04,.25-.07,.38-.08l9.72,2.44c-.13,.01-.26,.04-.38,.08"/>
        </g>
      </g>
    </g>
    <g class="cls-20">
      <g class="cls-15">
        <g class="cls-20">
          <path class="cls-5" d="M29.9,76.51l-9.72-2.44c-.71-.74-1.57-1.31-2.51-1.64-3.86-1.41-7.19-4.14-9.54-7.83-2.35-3.69-3.63-8.17-3.67-12.88l9.72,2.44c.04,4.7,1.32,9.19,3.67,12.88,2.35,3.69,5.68,6.42,9.54,7.83,.94,.34,1.79,.9,2.51,1.64"/>
        </g>
      </g>
    </g>
    <polygon class="cls-4" points="14.19 54.17 4.47 51.73 4.33 34.04 14.05 36.48 14.19 54.17"/>
    <polygon class="cls-13" points="13.97 18.21 4.25 15.77 22.38 14.18 32.1 16.62 13.97 18.21"/>
    <g class="cls-20">
      <g class="cls-19">
        <g class="cls-20">
          <path class="cls-5" d="M12.54,36.36l-9.72-2.44c-.87-.22-1.69-.69-2.35-1.38-1.05-1.08-1.64-2.63-1.66-4.29l9.72,2.44c.01,1.67,.61,3.21,1.66,4.29,.66,.69,1.48,1.16,2.35,1.38"/>
        </g>
      </g>
    </g>
    <polygon class="cls-4" points="8.54 30.69 -1.18 28.25 -1.22 22.51 8.49 24.95 8.54 30.69"/>
    <g class="cls-20">
      <g class="cls-18">
        <g class="cls-20">
          <path class="cls-5" d="M8.49,24.95L-1.22,22.51c0-.77,.11-1.54,.35-2.27l9.72,2.44c-.23,.73-.35,1.5-.35,2.27"/>
          <path class="cls-12" d="M8.84,22.68L-.88,20.25c.14-.44,.32-.86,.54-1.26l9.72,2.44c-.22,.4-.4,.83-.54,1.26"/>
          <path class="cls-9" d="M9.38,21.42L-.33,18.98c.2-.37,.43-.71,.7-1.04l9.72,2.44c-.26,.32-.5,.67-.7,1.04"/>
          <path class="cls-8" d="M10.08,20.38L.36,17.95h0c.27-.34,.58-.65,.9-.91l9.72,2.44c-.32,.27-.63,.57-.9,.91h0"/>
          <path class="cls-10" d="M10.98,19.47L1.26,17.03c.53-.44,1.12-.77,1.74-.99l9.72,2.44c-.62,.22-1.2,.55-1.74,.99"/>
          <path class="cls-11" d="M12.71,18.48l-9.72-2.44c.41-.14,.83-.24,1.25-.27l9.72,2.44c-.43,.04-.85,.13-1.25,.27"/>
        </g>
      </g>
    </g>
    <path class="cls-7" d="M35.43,1.56c.92-.08,1.67,.69,1.67,1.73l.1,12.88,18.13-1.59c.72-.06,1.45,.03,2.12,.29s1.29,.66,1.8,1.2c.52,.54,.93,1.19,1.22,1.93,.28,.73,.43,1.54,.44,2.36l.05,5.74c.01,1.67-.56,3.31-1.58,4.58-1.03,1.26-2.43,2.05-3.9,2.18l.2,17.68c.04,4.7-1.17,9.41-3.46,13.5-2.29,4.1-5.57,7.4-9.4,9.49-.93,.5-1.78,1.22-2.48,2.08l-2.55,3.14c-.69,.86-1.65,1.39-2.65,1.48s-1.95-.27-2.67-1.01l-2.59-2.69c-.71-.74-1.57-1.31-2.51-1.64-3.86-1.41-7.19-4.14-9.54-7.83-2.35-3.69-3.63-8.17-3.67-12.88l-.14-17.69c-1.4,.12-2.81-.42-3.85-1.5-1.05-1.08-1.64-2.63-1.66-4.29l-.05-5.74c-.01-1.66,.56-3.3,1.59-4.57,1.02-1.27,2.42-2.05,3.89-2.18l18.13-1.59-.1-12.88c0-1.04,.72-1.94,1.64-2.02l1.79-.16Z"/>
  </g>
  <polygon class="cls-3" points="40.57 34.28 32.22 34.7 26.13 48.96 34.66 48.6 30.39 63.64 45.37 42.82 36.45 43.14 40.57 34.28"/>
</svg>