<svg width="18" height="20" viewBox="0 0 18 20" fill="none" xmlns="http://www.w3.org/2000/svg">
<path fill-rule="evenodd" clip-rule="evenodd" d="M9.97129 0.539527C9.36724 0.203946 8.63276 0.203947 8.02871 0.539528L1.02871 4.42842C0.393784 4.78116 0 5.4504 0 6.17673V13.8231C0 14.5495 0.393784 15.2187 1.02871 15.5714L8.02872 19.4603C8.63276 19.7959 9.36724 19.7959 9.97129 19.4603L16.9713 15.5714C17.6062 15.2187 18 14.5495 18 13.8231V6.17673C18 5.4504 17.6062 4.78115 16.9713 4.42842L9.97129 0.539527ZM9 13.9999C11.2091 13.9999 13 12.2091 13 9.99992C13 7.79078 11.2091 5.99992 9 5.99992C6.79086 5.99992 5 7.79078 5 9.99992C5 12.2091 6.79086 13.9999 9 13.9999Z" fill="#25392B" />
</svg>
