<svg width="19" height="20" viewBox="0 0 19 20" fill="none" xmlns="http://www.w3.org/2000/svg">
<path d="M5.28306 9C4.50213 9 4.02256 8.1449 4.42978 7.47855L8.14672 1.39628C8.53665 0.758213 9.46335 0.758213 9.85328 1.39628L13.5702 7.47855C13.9774 8.1449 13.4979 9 12.7169 9H5.28306ZM14.5 20C13.25 20 12.1873 19.5627 11.312 18.688C10.4373 17.8127 10 16.75 10 15.5C10 14.25 10.4373 13.1873 11.312 12.312C12.1873 11.4373 13.25 11 14.5 11C15.75 11 16.8127 11.4373 17.688 12.312C18.5627 13.1873 19 14.25 19 15.5C19 16.75 18.5627 17.8127 17.688 18.688C16.8127 19.5627 15.75 20 14.5 20ZM1 19.5C0.447715 19.5 0 19.0523 0 18.5V12.5C0 11.9477 0.447715 11.5 1 11.5H7C7.55228 11.5 8 11.9477 8 12.5V18.5C8 19.0523 7.55228 19.5 7 19.5H1Z" fill="#25392B"/>
</svg>
