<?xml version="1.0" encoding="UTF-8"?>
<svg id="Layer_1" data-name="Layer 1" xmlns="http://www.w3.org/2000/svg" viewBox="0 0 65.61 60.75">
  <defs>
    <style>
      .cls-1 {
        fill: none;
        stroke: #25392b;
        stroke-linecap: round;
        stroke-linejoin: round;
        stroke-width: 6px;
      }
    </style>
  </defs>
  <path class="cls-1" d="m44.01,56.08c1.97,1.37,4.36,2.17,6.93,2.17,6.72,0,12.17-5.45,12.17-12.17s-5.45-12.17-12.17-12.17c-2.22,0-4.3.59-6.09,1.63l-10.4-18.02"/>
  <path class="cls-1" d="m9.47,35.08c-4.12,1.95-6.97,6.15-6.97,11.01,0,6.72,5.45,12.17,12.17,12.17s12.17-5.45,12.17-12.17h20.81"/>
  <path class="cls-1" d="m44.94,15.55c.02-.29.03-.58.03-.88,0-6.72-5.45-12.17-12.17-12.17s-12.17,5.45-12.17,12.17c0,4.5,2.45,8.44,6.08,10.54l-10.4,18.02"/>
  <path class="cls-1" d="m44.86,35.54l-10.4-18.02"/>
  <path class="cls-1" d="m26.84,46.08h20.81"/>
  <path class="cls-1" d="m26.72,25.21l-10.4,18.02"/>
</svg>
