<?xml version="1.0" encoding="UTF-8"?><svg id="Layer_1" xmlns="http://www.w3.org/2000/svg" width="1500" height="1083.37351" viewBox="0 0 1500 1083.37351"><defs><style>.cls-1{letter-spacing:-.04001em;}.cls-2{letter-spacing:-.07998em;}.cls-3{letter-spacing:-.01999em;}.cls-4{letter-spacing:-.03em;}.cls-5{fill:#c4d93b;}.cls-6{fill:#3db988;}.cls-7,.cls-8,.cls-9{fill:#263a2c;}.cls-10,.cls-11{font-size:32.88534px;}.cls-12,.cls-13{font-size:65.77068px;}.cls-14{fill:none;stroke:#3db988;stroke-linecap:round;stroke-miterlimit:10;stroke-width:7px;}.cls-8{font-size:60px;}.cls-8,.cls-13,.cls-15,.cls-9{font-family:Manrope-ExtraBold, Manrope;font-variation-settings:'wght' 800;}.cls-11{letter-spacing:-.01001em;}.cls-13,.cls-15{fill:#231f20;}.cls-16{letter-spacing:-.01501em;}.cls-17{letter-spacing:-.00999em;}.cls-9{font-size:30px;}.cls-18{letter-spacing:-.06999em;}</style></defs><rect class="cls-5" x="142.23195" y="115.18238" width="926.92665" height="178.40463" rx="26.54045" ry="26.54045"/><text class="cls-8" transform="translate(182.43388 233.39401)"><tspan x="0" y="0">Collection Data </tspan><tspan class="cls-18" x="472.73145" y="0">T</tspan><tspan x="505.13086" y="0">ypes (C</tspan><tspan class="cls-3" x="730.54688" y="0">D</tspan><tspan x="771.94727" y="0">T)</tspan></text><rect class="cls-7" x="145.22738" y="357.16315" width="184.92417" height="106.08174" rx="26.51691" ry="26.51691"/><g><path class="cls-5" d="M200.38135,422.15427l2.99805-3.54834c2.20117,1.97754,5.05371,3.29883,8.09082,3.29883,3.37207,0,5.15723-1.4834,5.15723-3.50928,0-2.58301-1.98486-3.2749-4.81396-4.46729l-3.98438-1.73242c-3.04492-1.18555-6.18701-3.43652-6.18701-7.68896,0-4.61328,4.15332-8.17139,10.07031-8.17139,3.55469,0,6.91016,1.38184,9.28271,3.68945l-2.63477,3.27344c-1.97168-1.57129-3.97705-2.47705-6.89453-2.47705-2.75195,0-4.60645,1.23828-4.60645,3.38232,0,2.25635,2.31445,3.08105,4.94385,4.08936l3.80273,1.65527c3.68945,1.41895,6.2998,3.62109,6.2998,7.80859,0,4.70898-3.96729,8.63379-10.74316,8.63379-4.07812,0-7.9375-1.55469-10.78125-4.23633Z"/><path class="cls-5" d="M227.11035,414.94138c0-7.104,5.39502-11.39307,11.22461-11.39307,6.50098,0,10.10449,4.31152,10.10449,10.33789,0,1.02148-.1377,2.01465-.22607,2.5752h-17.44336v-3.61914h14.13135l-.97998,1.13379c0-4.30225-2.02295-6.48779-5.43262-6.48779-3.6001,0-6.375,2.59229-6.375,7.45312,0,5.06641,3.0498,7.48096,7.57861,7.48096,2.27881,0,4.15576-.66797,6.10693-1.7793l1.75342,3.17578c-2.32373,1.5166-5.3335,2.57178-8.53174,2.57178-6.66895,0-11.91064-4.20068-11.91064-11.44922Z"/><path class="cls-5" d="M259.41016,417.10349v-8.96191h-5.82617v-3.82324l6.04053-.23828,.6665-6.81934h4.24805v6.81934h9.90234v4.06152h-9.90234v8.94092c0,3.59766,1.35107,5.21875,5.03076,5.21875,1.81641,0,3.31494-.3667,4.73682-.87793l.99365,3.72998c-1.95117,.64453-4.14941,1.2373-6.96826,1.2373-6.6543,0-8.92188-3.73828-8.92188-9.28711Z"/></g><rect class="cls-7" x="374.82218" y="357.16315" width="365.41399" height="106.08174" rx="26.23762" ry="26.23762"/><g><path class="cls-5" d="M426.57959,396.58152h7.59033c8.55615,0,13.69141,4.78125,13.69141,14.3623,0,9.60938-5.13525,14.62842-13.4165,14.62842h-7.86523v-28.99072Zm7.27539,24.80811c5.53271,0,8.7002-3.31299,8.7002-10.4458,0-7.10498-3.16748-10.17969-8.7002-10.17969h-2.11865v20.62549h2.11865Z"/><path class="cls-5" d="M462.8374,407.85544h-9.40723v-4.06152h14.53613v21.77832h-5.12891v-17.7168Zm-1.41455-11.45459c0-2.04297,1.53467-3.45654,3.64258-3.45654,2.1084,0,3.64307,1.41357,3.64307,3.45654,0,2.07129-1.53467,3.42383-3.64307,3.42383-2.10791,0-3.64258-1.35254-3.64258-3.42383Z"/><path class="cls-5" d="M479.55762,414.7114c0-7.27686,5.72607-11.44922,12.375-11.44922,3.48633,0,6.2373,1.32129,8.04346,3.06689l-2.41992,3.2124c-1.7251-1.36084-3.4248-2.09668-5.37695-2.09668-4.36377,0-7.37158,2.88623-7.37158,7.2666,0,4.35205,2.96338,7.21045,7.21777,7.21045,2.48145,0,4.53613-1.09961,6.21191-2.39551l2.14551,3.27295c-2.5249,2.17725-5.70752,3.30518-8.80225,3.30518-6.83789,0-12.02295-4.17285-12.02295-11.39307Z"/><path class="cls-5" d="M511.3252,416.81736v-8.96191h-5.82617v-3.82324l6.04053-.23828,.6665-6.81934h4.24805v6.81934h9.90234v4.06152h-9.90234v8.94092c0,3.59766,1.35107,5.21875,5.03076,5.21875,1.81641,0,3.31494-.3667,4.73682-.87793l.99365,3.72998c-1.95117,.64453-4.14941,1.2373-6.96826,1.2373-6.6543,0-8.92188-3.73828-8.92188-9.28711Z"/><path class="cls-5" d="M542.64795,407.85544h-9.40723v-4.06152h14.53613v21.77832h-5.12891v-17.7168Zm-1.41455-11.45459c0-2.04297,1.53467-3.45654,3.64258-3.45654,2.1084,0,3.64307,1.41357,3.64307,3.45654,0,2.07129-1.53467,3.42383-3.64307,3.42383-2.10791,0-3.64258-1.35254-3.64258-3.42383Z"/><path class="cls-5" d="M558.48145,414.7114c0-7.27686,5.19385-11.44922,10.93506-11.44922,5.74072,0,10.93506,4.17236,10.93506,11.44922,0,7.22021-5.19434,11.39307-10.93506,11.39307-5.74121,0-10.93506-4.17285-10.93506-11.39307Zm16.62012,0c0-4.38037-2.13086-7.2666-5.68506-7.2666s-5.68506,2.88623-5.68506,7.2666c0,4.35205,2.13086,7.21045,5.68506,7.21045s5.68506-2.8584,5.68506-7.21045Z"/><path class="cls-5" d="M586.36914,403.79392h4.18701l.3916,3.27832h.17773c2.08203-2.10596,4.53271-3.81006,7.854-3.81006,5.03418,0,7.30322,3.21045,7.30322,8.82129v13.48877h-5.12891v-12.82227c0-3.49365-1.12598-5.09082-4.05957-5.09082-2.14893,0-3.60156,1.0415-5.59619,3.06006v14.85303h-5.12891v-21.77832Z"/><path class="cls-5" d="M612.44482,419.72458c0-4.88184,4.29541-7.31348,15.05078-8.07031-.18213-2.43799-1.6333-4.27002-5.18311-4.27002-2.45166,0-4.87549,1.06982-7.11475,2.31104l-1.90283-3.39453c2.64014-1.58154,6.21094-3.03857,9.96387-3.03857,6.04395,0,9.36572,3.35645,9.36572,9.42139v12.88867h-4.21533l-.3916-2.69873h-.14941c-2.28516,1.76465-5.20996,3.23096-8.12744,3.23096-4.24658,0-7.2959-2.60352-7.2959-6.37988Zm15.05078-.28809v-4.57812c-7.82373,.51416-10.08008,2.12061-10.08008,4.47021,0,1.91797,1.69629,2.74707,3.854,2.74707,2.19482,0,4.21484-1.02295,6.22607-2.63916Z"/><path class="cls-5" d="M641.68652,403.79392h4.23145l.43604,4.95312h.12158c2.2124-3.55176,5.51709-5.48486,9.26416-5.48486,1.75879,0,2.94287,.27051,4.24023,.88672l-1.08643,4.33643c-1.44238-.45508-2.28955-.67676-3.94189-.67676-2.97656,0-5.90625,1.52637-8.13623,5.75635v12.00732h-5.12891v-21.77832Z"/><path class="cls-5" d="M665.49854,434.05466l.96582-3.96826c.57617,.17725,1.2207,.29395,1.8208,.29395,2.771,0,4.36133-1.53223,5.24609-3.70459l.52344-1.36816-9.76074-21.51367h5.12402l4.45117,10.64697c.81006,1.98828,1.62744,4.2334,2.4165,6.43115h.17725c.67236-2.12109,1.46631-4.38232,2.15967-6.43115l3.92334-10.64697h4.88184l-9.09424,22.771c-1.87256,4.8916-4.48877,7.93311-9.73633,7.93311-1.15039,0-2.24707-.17725-3.09863-.44336Z"/></g><rect class="cls-7" x="867.51839" y="357.16315" width="207.05394" height="106.08174" rx="26.5954" ry="26.5954"/><g><path class="cls-5" d="M923.16113,396.86765h5.12891v24.6543h13.60156v4.33643h-18.73047v-28.99072Z"/><path class="cls-5" d="M957.5791,408.14157h-9.40723v-4.06152h14.53613v21.77832h-5.12891v-17.7168Zm-1.41406-11.45459c0-2.04297,1.53418-3.45654,3.64258-3.45654,2.10742,0,3.64258,1.41357,3.64258,3.45654,0,2.07129-1.53516,3.42383-3.64258,3.42383-2.1084,0-3.64258-1.35254-3.64258-3.42383Z"/><path class="cls-5" d="M973.78613,423.02048l2.23828-3.26904c2.59766,1.7251,5.57227,2.76416,9.1123,2.76416,3.01758,0,4.43359-1.1499,4.43359-2.59326,0-1.4292-.95703-2.22412-6.02832-3.2749-5.81055-1.21777-8.39258-3.271-8.39258-6.58936,0-3.78418,3.4502-6.50977,9.54297-6.50977,3.60645,0,6.9043,1.41602,9.11426,2.87939l-2.36035,3.14746c-2.1084-1.3584-4.625-2.18018-7.21094-2.18018-2.82227,0-3.99023,1.08887-3.99023,2.42041,0,1.53711,1.60254,2.07471,5.67871,2.95703,6.95996,1.53564,8.77051,3.39062,8.77051,6.84668,0,3.74707-3.60938,6.77148-10.22852,6.77148-4.06641,0-7.98145-1.53564-10.67969-3.37012Z"/><path class="cls-5" d="M1006.06641,417.10349v-8.96191h-5.82617v-3.82324l6.04102-.23828,.66699-6.81934h4.24707v6.81934h9.90234v4.06152h-9.90234v8.94092c0,3.59766,1.35156,5.21875,5.03125,5.21875,1.81641,0,3.31543-.3667,4.73633-.87793l.99414,3.72998c-1.95117,.64453-4.14941,1.2373-6.96777,1.2373-6.65527,0-8.92285-3.73828-8.92285-9.28711Z"/></g><text class="cls-13" transform="translate(343.14442 456.54358)"><tspan x="0" y="0">,</tspan></text><text class="cls-15" transform="translate(760.21474 453.69934)"><tspan class="cls-12" x="0" y="0">,</tspan><tspan class="cls-10" x="20.7832" y="0">a</tspan><tspan class="cls-11" x="39.95508" y="0">n</tspan><tspan class="cls-10" x="60.54102" y="0">d</tspan></text><rect class="cls-7" x="331.09071" y="590.71456" width="107.54063" height="33.631" rx="7.69278" ry="7.69278"/><g><path class="cls-5" d="M347.45801,605.103h-6.56836v-2.44727h10.14941v13.12207h-3.58105v-10.6748Zm-.9873-6.90234c0-1.23145,1.07129-2.08301,2.54297-2.08301,1.47217,0,2.54346,.85156,2.54346,2.08301,0,1.24805-1.07129,2.06348-2.54346,2.06348-1.47168,0-2.54297-.81543-2.54297-2.06348Z"/><path class="cls-5" d="M362.73828,610.50241v-5.39941h-4.06787v-2.30371l4.21729-.14355,.46582-4.10938h2.96582v4.10938h6.91357v2.44727h-6.91357v5.38672c0,2.16797,.94336,3.14453,3.5127,3.14453,1.26807,0,2.31445-.2207,3.30713-.5293l.69336,2.24805c-1.36182,.38867-2.89648,.74512-4.86475,.74512-4.64648,0-6.22949-2.25195-6.22949-5.5957Z"/><path class="cls-5" d="M377.33643,609.19968c0-4.28027,3.7666-6.86523,7.83691-6.86523,4.53906,0,7.05518,2.59863,7.05518,6.22949,0,.61523-.09619,1.21387-.1582,1.55176h-12.17871v-2.18066h9.86621l-.68408,.68262c0-2.5918-1.4126-3.9082-3.79297-3.9082-2.51367,0-4.45117,1.56152-4.45117,4.49023,0,3.05273,2.12939,4.50781,5.2915,4.50781,1.59131,0,2.90186-.40234,4.26367-1.07227l1.22461,1.91309c-1.62256,.91406-3.72412,1.5498-5.95703,1.5498-4.65674,0-8.31592-2.53125-8.31592-6.89844Z"/><path class="cls-5" d="M395.44287,602.65573h2.74805l.27344,1.6709h.08447c.67188-1.13379,1.62354-1.99219,3.37988-1.99219,1.40625,0,2.35791,.74902,2.75732,2.20508,.70801-1.29102,1.71631-2.20508,3.46143-2.20508,2.15039,0,3.38916,1.52441,3.38916,4.14551v9.29785h-3.44775v-9.0791c0-1.15234-.35938-1.73145-1.2124-1.73145-.81396,0-1.2915,.54102-1.90332,1.64062v9.16992h-2.9668v-9.0791c0-1.15234-.354-1.73145-1.20703-1.73145-.80273,0-1.33594,.54102-1.90869,1.64062v9.16992h-3.44775v-13.12207Z"/><path class="cls-5" d="M414.5,614.06784l1.56299-1.96973c1.81299,1.03906,3.89062,1.66504,6.36182,1.66504,2.10693,0,3.0957-.69238,3.0957-1.5625,0-.86035-.66797-1.33984-4.20947-1.97266-4.05664-.73438-5.85938-1.97168-5.85938-3.9707,0-2.28027,2.40869-3.92285,6.66309-3.92285,2.51807,0,4.82031,.85352,6.36328,1.73535l-1.64746,1.89648c-1.47266-.81836-3.229-1.31348-5.03516-1.31348-1.97021,0-2.78564,.65625-2.78564,1.45801,0,.92676,1.11865,1.25098,3.96484,1.78223,4.85938,.9248,6.12354,2.04297,6.12354,4.125,0,2.25781-2.52002,4.08008-7.14209,4.08008-2.83887,0-5.57275-.9248-7.45605-2.03027Z"/></g><path class="cls-6" d="M181.0946,584.84929h-13.70918v-8.44696c0-.68101-.56203-1.23309-1.25532-1.23309h-1.35705c-.69329,0-1.25532,.55207-1.25532,1.23309v8.44696h-13.70813c-1.10782,0-2.17024,.43301-2.95359,1.20376-.78335,.77075-1.22344,1.81614-1.22344,2.90614v3.76283c0,1.09002,.44009,2.13541,1.22344,2.90616,.78335,.77075,1.84577,1.20374,2.95359,1.20374h-.04908v11.60523c.00005,3.08469,.93905,6.09859,2.69602,8.6533,1.75694,2.55495,4.25131,4.53332,7.16154,5.68033,.70609,.2767,1.34768,.69176,1.88591,1.21977l1.94067,1.90956c.53326,.52455,1.25635,.81902,2.01032,.81902s1.47708-.29446,2.01034-.81902l1.9407-1.90956c.53863-.52801,1.1806-.94306,1.88704-1.21977,2.91033-1.14702,5.40465-3.12538,7.16159-5.68033,1.75694-2.5547,2.69592-5.56861,2.69592-8.6533v-11.60523h-.04896c1.10769,0,2.17019-.43299,2.95351-1.20374,.78332-.77075,1.22343-1.81614,1.22343-2.90616v-3.76283c0-.54029-.10821-1.07525-.3186-1.57433s-.5187-.95251-.90734-1.33422c-.38865-.38174-.84985-.68434-1.35725-.89046-.50765-.20615-1.0517-.31177-1.60078-.31089Z"/><text class="cls-9" transform="translate(208.73141 617.14536)"><tspan class="cls-2" x="0" y="0">Y</tspan><tspan x="16.50049" y="0">ou put</tspan></text><text class="cls-9" transform="translate(448.51839 618.30609)"><tspan x="0" y="0">in</tspan><tspan class="cls-4" x="27.95947" y="0">t</tspan><tspan x="40.37891" y="0">o MSC (Mo</tspan><tspan class="cls-17" x="197.96777" y="0">m</tspan><tspan class="cls-16" x="225.14746" y="0">e</tspan><tspan x="242.93701" y="0">n</tspan><tspan class="cls-4" x="262.0166" y="0">t</tspan><tspan x="274.43604" y="0">o Ser</tspan><tspan class="cls-3" x="349.97559" y="0">v</tspan><tspan x="366.41602" y="0">erless Cach</tspan><tspan class="cls-1" x="539.39453" y="0">e</tspan><tspan x="556.43359" y="0">)</tspan></text><path class="cls-6" d="M181.11233,746.90158h-13.70918v-8.44696c0-.68101-.56203-1.23309-1.25532-1.23309h-1.35705c-.69329,0-1.25532,.55207-1.25532,1.23309v8.44696h-13.70813c-1.10782,0-2.17024,.43301-2.95359,1.20376-.78335,.77075-1.22344,1.81614-1.22344,2.90614v3.76283c0,1.09002,.44009,2.13541,1.22344,2.90616,.78335,.77075,1.84577,1.20374,2.95359,1.20374h-.04908v11.60523c.00005,3.08469,.93905,6.09859,2.69602,8.6533,1.75694,2.55495,4.25131,4.53332,7.16154,5.68033,.70609,.2767,1.34768,.69176,1.88591,1.21977l1.94067,1.90956c.53326,.52455,1.25635,.81902,2.01032,.81902s1.47708-.29446,2.01034-.81902l1.9407-1.90956c.53863-.52801,1.1806-.94306,1.88704-1.21977,2.91033-1.14702,5.40465-3.12538,7.16159-5.68033,1.75694-2.5547,2.69592-5.56861,2.69592-8.6533v-11.60523h-.04896c1.10769,0,2.17019-.43299,2.95351-1.20374,.78332-.77075,1.22343-1.81614,1.22343-2.90616v-3.76283c0-.54029-.10821-1.07525-.3186-1.57433s-.5187-.95251-.90734-1.33422c-.38865-.38174-.84985-.68434-1.35725-.89046-.50765-.20615-1.0517-.31177-1.60078-.31089Z"/><text class="cls-9" transform="translate(208.74911 779.19763)"><tspan class="cls-2" x="0" y="0">Y</tspan><tspan x="16.50049" y="0">ou put</tspan></text><text class="cls-9" transform="translate(504.75269 779.19666)"><tspan x="0" y="0">in</tspan><tspan class="cls-4" x="27.95947" y="0">t</tspan><tspan x="40.37891" y="0">o a</tspan></text><rect class="cls-7" x="330.0881" y="752.04667" width="164.44498" height="34.35117" rx="7.07713" ry="7.07713"/><g><path class="cls-5" d="M339.91113,771.25241c0-4.28125,3.7666-6.86523,7.83691-6.86523,4.53906,0,7.05518,2.59766,7.05518,6.22852,0,.61523-.09619,1.21484-.1582,1.55273h-12.17871v-2.18164h9.86621l-.68408,.68359c0-2.5918-1.4126-3.9082-3.79297-3.9082-2.51367,0-4.45117,1.56055-4.45117,4.49023,0,3.05273,2.12939,4.50781,5.2915,4.50781,1.59131,0,2.90186-.40234,4.26367-1.07227l1.22461,1.91211c-1.62256,.91406-3.72412,1.55078-5.95703,1.55078-4.65674,0-8.31592-2.53125-8.31592-6.89844Z"/><path class="cls-5" d="M363.56543,773.0532v-11.64258h-5.0752v-2.44727h8.65625v14.25c0,1.75195,1.19922,2.41797,2.7334,2.41797,.78711,0,1.625-.1582,2.60156-.50977l.83203,2.2832c-1.49561,.47852-2.53174,.74609-4.30908,.74609-3.54932,0-5.43896-1.87695-5.43896-5.09766Z"/><path class="cls-5" d="M377.06152,771.25241c0-4.28125,3.7666-6.86523,7.83691-6.86523,4.53906,0,7.05518,2.59766,7.05518,6.22852,0,.61523-.09619,1.21484-.1582,1.55273h-12.17871v-2.18164h9.86621l-.68408,.68359c0-2.5918-1.4126-3.9082-3.79297-3.9082-2.51367,0-4.45117,1.56055-4.45117,4.49023,0,3.05273,2.12939,4.50781,5.2915,4.50781,1.59131,0,2.90186-.40234,4.26367-1.07227l1.22461,1.91211c-1.62256,.91406-3.72412,1.55078-5.95703,1.55078-4.65674,0-8.31592-2.53125-8.31592-6.89844Z"/><path class="cls-5" d="M395.16797,764.70749h2.74805l.27344,1.67188h.08447c.67188-1.13477,1.62354-1.99219,3.37988-1.99219,1.40625,0,2.35791,.74805,2.75732,2.20508,.70801-1.29102,1.71631-2.20508,3.46143-2.20508,2.15039,0,3.38916,1.52344,3.38916,4.14453v9.29883h-3.44775v-9.08008c0-1.15234-.35938-1.73047-1.2124-1.73047-.81396,0-1.2915,.54102-1.90332,1.64062v9.16992h-2.9668v-9.08008c0-1.15234-.354-1.73047-1.20703-1.73047-.80273,0-1.33594,.54102-1.90869,1.64062v9.16992h-3.44775v-13.12305Z"/><path class="cls-5" d="M414.21191,771.25241c0-4.28125,3.7666-6.86523,7.83691-6.86523,4.53906,0,7.05518,2.59766,7.05518,6.22852,0,.61523-.09619,1.21484-.1582,1.55273h-12.17871v-2.18164h9.86621l-.68408,.68359c0-2.5918-1.4126-3.9082-3.79297-3.9082-2.51367,0-4.45117,1.56055-4.45117,4.49023,0,3.05273,2.12939,4.50781,5.2915,4.50781,1.59131,0,2.90186-.40234,4.26367-1.07227l1.22461,1.91211c-1.62256,.91406-3.72412,1.55078-5.95703,1.55078-4.65674,0-8.31592-2.53125-8.31592-6.89844Z"/><path class="cls-5" d="M433.43604,764.70749h2.92334l.27344,1.97461h.12402c1.4541-1.26758,3.16504-2.29492,5.48389-2.29492,3.51514,0,5.09912,1.93359,5.09912,5.31445v8.12891h-3.58105v-7.72656c0-2.10547-.78613-3.06836-2.83447-3.06836-1.5,0-2.51465,.62891-3.90723,1.8457v8.94922h-3.58105v-13.12305Z"/><path class="cls-5" d="M455.33936,772.55515v-5.40039h-4.06787v-2.30273l4.21729-.14453,.46582-4.10938h2.96582v4.10938h6.91357v2.44727h-6.91357v5.38672c0,2.16797,.94336,3.14453,3.5127,3.14453,1.26807,0,2.31445-.2207,3.30713-.5293l.69336,2.24805c-1.36182,.38867-2.89648,.74609-4.86475,.74609-4.64648,0-6.22949-2.25195-6.22949-5.5957Z"/><path class="cls-5" d="M469.95068,776.1196l1.56299-1.96875c1.81299,1.03906,3.89062,1.66406,6.36182,1.66406,2.10693,0,3.0957-.69141,3.0957-1.5625,0-.85938-.66797-1.33984-4.20947-1.97266-4.05664-.73438-5.85938-1.9707-5.85938-3.9707,0-2.2793,2.40869-3.92188,6.66309-3.92188,2.51807,0,4.82031,.85352,6.36328,1.73438l-1.64746,1.89648c-1.47266-.81836-3.229-1.3125-5.03516-1.3125-1.97021,0-2.78564,.65625-2.78564,1.45703,0,.92773,1.11865,1.25195,3.96484,1.7832,4.85938,.92383,6.12354,2.04297,6.12354,4.125,0,2.25781-2.52002,4.08008-7.14209,4.08008-2.83887,0-5.57275-.92578-7.45605-2.03125Z"/></g><rect class="cls-7" x="604.67545" y="750.49706" width="209.5318" height="35.31727" rx="7.80315" ry="7.80315"/><g><path class="cls-5" d="M618.83887,772.04343c0-4.38477,3.99805-6.89844,8.64014-6.89844,2.43408,0,4.35498,.79688,5.61621,1.84766l-1.68994,1.93555c-1.2041-.82031-2.39111-1.26367-3.75391-1.26367-3.04736,0-5.14697,1.74023-5.14697,4.37891,0,2.62305,2.06885,4.3457,5.03955,4.3457,1.73242,0,3.16699-.66406,4.33691-1.44336l1.49805,1.9707c-1.7627,1.3125-3.98486,1.99219-6.146,1.99219-4.77393,0-8.39404-2.51367-8.39404-6.86523Z"/><path class="cls-5" d="M636.79443,772.04343c0-4.38477,3.62695-6.89844,7.63525-6.89844s7.63477,2.51367,7.63477,6.89844c0,4.35156-3.62646,6.86523-7.63477,6.86523s-7.63525-2.51367-7.63525-6.86523Zm11.60449,0c0-2.63867-1.48779-4.37891-3.96924-4.37891s-3.96924,1.74023-3.96924,4.37891c0,2.62305,1.48779,4.3457,3.96924,4.3457s3.96924-1.72266,3.96924-4.3457Z"/><path class="cls-5" d="M660.69678,773.81101v-11.64258h-5.0752v-2.44727h8.65625v14.25c0,1.75195,1.19922,2.41797,2.7334,2.41797,.78711,0,1.625-.1582,2.60156-.50977l.83203,2.2832c-1.49561,.47852-2.53174,.74609-4.30908,.74609-3.54932,0-5.43896-1.87695-5.43896-5.09766Z"/><path class="cls-5" d="M679.27197,773.81101v-11.64258h-5.0752v-2.44727h8.65625v14.25c0,1.75195,1.19922,2.41797,2.7334,2.41797,.78711,0,1.625-.1582,2.60156-.50977l.83203,2.2832c-1.49561,.47852-2.53174,.74609-4.30908,.74609-3.54932,0-5.43896-1.87695-5.43896-5.09766Z"/><path class="cls-5" d="M692.76807,772.01023c0-4.28125,3.7666-6.86523,7.83691-6.86523,4.53906,0,7.05518,2.59766,7.05518,6.22852,0,.61523-.09619,1.21484-.1582,1.55273h-12.17871v-2.18164h9.86621l-.68408,.68359c0-2.5918-1.4126-3.9082-3.79297-3.9082-2.51367,0-4.45117,1.56055-4.45117,4.49023,0,3.05273,2.12939,4.50781,5.2915,4.50781,1.59131,0,2.90186-.40234,4.26367-1.07227l1.22461,1.91211c-1.62256,.91406-3.72412,1.55078-5.95703,1.55078-4.65674,0-8.31592-2.53125-8.31592-6.89844Z"/><path class="cls-5" d="M711.71484,772.04343c0-4.38477,3.99805-6.89844,8.64014-6.89844,2.43408,0,4.35498,.79688,5.61621,1.84766l-1.68994,1.93555c-1.2041-.82031-2.39111-1.26367-3.75391-1.26367-3.04736,0-5.14697,1.74023-5.14697,4.37891,0,2.62305,2.06885,4.3457,5.03955,4.3457,1.73242,0,3.16699-.66406,4.33691-1.44336l1.49805,1.9707c-1.7627,1.3125-3.98486,1.99219-6.146,1.99219-4.77393,0-8.39404-2.51367-8.39404-6.86523Z"/><path class="cls-5" d="M733.89551,773.31296v-5.40039h-4.06787v-2.30273l4.21729-.14453,.46582-4.10938h2.96582v4.10938h6.91357v2.44727h-6.91357v5.38672c0,2.16797,.94336,3.14453,3.5127,3.14453,1.26807,0,2.31445-.2207,3.30713-.5293l.69336,2.24805c-1.36182,.38867-2.89648,.74609-4.86475,.74609-4.64648,0-6.22949-2.25195-6.22949-5.5957Z"/><path class="cls-5" d="M755.76562,767.91257h-6.56836v-2.44727h10.14941v13.12305h-3.58105v-10.67578Zm-.9873-6.90234c0-1.23047,1.07129-2.08203,2.54297-2.08203,1.47266,0,2.54395,.85156,2.54395,2.08203,0,1.24805-1.07129,2.06445-2.54395,2.06445-1.47168,0-2.54297-.81641-2.54297-2.06445Z"/><path class="cls-5" d="M766.82129,772.04343c0-4.38477,3.62695-6.89844,7.63477-6.89844,4.00879,0,7.63477,2.51367,7.63477,6.89844,0,4.35156-3.62598,6.86523-7.63477,6.86523-4.00781,0-7.63477-2.51367-7.63477-6.86523Zm11.60449,0c0-2.63867-1.48828-4.37891-3.96973-4.37891s-3.96875,1.74023-3.96875,4.37891c0,2.62305,1.4873,4.3457,3.96875,4.3457s3.96973-1.72266,3.96973-4.3457Z"/><path class="cls-5" d="M786.29297,765.4653h2.92383l.27344,1.97461h.12402c1.4541-1.26758,3.16504-2.29492,5.4834-2.29492,3.51562,0,5.09961,1.93359,5.09961,5.31445v8.12891h-3.58105v-7.72656c0-2.10547-.78613-3.06836-2.83496-3.06836-1.5,0-2.51465,.62891-3.90723,1.8457v8.94922h-3.58105v-13.12305Z"/></g><path class="cls-6" d="M183.17642,919.27557h-13.70918v-8.44696c0-.68101-.56203-1.23309-1.25532-1.23309h-1.35705c-.69329,0-1.25532,.55207-1.25532,1.23309v8.44696h-13.70813c-1.10782,0-2.17024,.43301-2.95359,1.20376-.78335,.77075-1.22344,1.81614-1.22344,2.90614v3.76283c0,1.09002,.44009,2.13541,1.22344,2.90616,.78335,.77075,1.84577,1.20374,2.95359,1.20374h-.04908v11.60523c.00005,3.08469,.93905,6.09859,2.69602,8.6533,1.75694,2.55495,4.25131,4.53332,7.16154,5.68033,.70609,.2767,1.34768,.69176,1.88591,1.21977l1.94067,1.90956c.53326,.52455,1.25635,.81902,2.01032,.81902s1.47708-.29446,2.01034-.81902l1.9407-1.90956c.53863-.52801,1.1806-.94306,1.88704-1.21977,2.91033-1.14702,5.40465-3.12538,7.16159-5.68033,1.75694-2.5547,2.69592-5.56861,2.69592-8.6533v-11.60523h-.04896c1.10769,0,2.17019-.43299,2.95351-1.20374,.78332-.77075,1.22343-1.81614,1.22343-2.90616v-3.76283c0-.54029-.10821-1.07525-.3186-1.57433s-.5187-.95251-.90734-1.33422c-.38865-.38174-.84985-.68434-1.35725-.89046-.50765-.20615-1.0517-.31177-1.60078-.31089Z"/><text class="cls-9" transform="translate(209.81322 951.57065)"><tspan x="0" y="0">The</tspan></text><text class="cls-9" transform="translate(449.04418 951.57065)"><tspan x="0" y="0">of a </tspan></text><rect class="cls-7" x="515.88848" y="923.6329" width="205.75481" height="35.13893" rx="7.33253" ry="7.33253"/><g><path class="cls-5" d="M529.43262,943.65964c0-4.28027,3.23975-6.89941,6.68652-6.89941,1.73877,0,3.00684,.56641,4.19043,1.53906h.08496l-.16943-2.21094v-4.75098h3.58105v18.86621h-2.92334l-.27393-1.5332h-.104c-1.18164,1.02637-2.875,1.85352-4.58154,1.85352-3.9126,0-6.49072-2.53613-6.49072-6.86426Zm10.79248,2.7373v-5.89746c-1.08936-.86914-2.14307-1.18164-3.23877-1.18164-2.12354,0-3.8877,1.56445-3.8877,4.30469,0,2.84473,1.3877,4.34473,3.68848,4.34473,1.25879,0,2.37939-.48438,3.43799-1.57031Z"/><path class="cls-5" d="M555.52783,939.52878h-6.56836v-2.44727h10.14941v13.12207h-3.58105v-10.6748Zm-.9873-6.90234c0-1.23145,1.07129-2.08301,2.54297-2.08301,1.47217,0,2.54346,.85156,2.54346,2.08301,0,1.24805-1.07129,2.06348-2.54346,2.06348-1.47168,0-2.54297-.81543-2.54297-2.06348Z"/><path class="cls-5" d="M567.20264,943.65964c0-4.38477,3.99805-6.89941,8.64014-6.89941,2.43408,0,4.35498,.79688,5.61621,1.84863l-1.68994,1.93555c-1.2041-.82031-2.39111-1.26367-3.75391-1.26367-3.04736,0-5.14697,1.73926-5.14697,4.37891,0,2.62207,2.06885,4.34473,5.03955,4.34473,1.73242,0,3.16699-.66309,4.33691-1.44336l1.49805,1.97168c-1.7627,1.3125-3.98486,1.99121-6.146,1.99121-4.77393,0-8.39404-2.51367-8.39404-6.86426Z"/><path class="cls-5" d="M589.3833,944.9282v-5.39941h-4.06787v-2.30371l4.21729-.14355,.46582-4.10938h2.96582v4.10938h6.91357v2.44727h-6.91357v5.38672c0,2.16797,.94336,3.14453,3.5127,3.14453,1.26807,0,2.31445-.2207,3.30713-.5293l.69336,2.24805c-1.36182,.38867-2.89648,.74512-4.86475,.74512-4.64648,0-6.22949-2.25195-6.22949-5.5957Z"/><path class="cls-5" d="M611.25342,939.52878h-6.56836v-2.44727h10.14941v13.12207h-3.58105v-10.6748Zm-.9873-6.90234c0-1.23145,1.07129-2.08301,2.54297-2.08301,1.47217,0,2.54346,.85156,2.54346,2.08301,0,1.24805-1.07129,2.06348-2.54346,2.06348-1.47168,0-2.54297-.81543-2.54297-2.06348Z"/><path class="cls-5" d="M622.30859,943.65964c0-4.38477,3.62695-6.89941,7.63525-6.89941s7.63477,2.51465,7.63477,6.89941c0,4.35059-3.62646,6.86426-7.63477,6.86426s-7.63525-2.51367-7.63525-6.86426Zm11.60449,0c0-2.63965-1.48779-4.37891-3.96924-4.37891s-3.96924,1.73926-3.96924,4.37891c0,2.62207,1.48779,4.34473,3.96924,4.34473s3.96924-1.72266,3.96924-4.34473Z"/><path class="cls-5" d="M641.78076,937.08152h2.92334l.27344,1.97461h.12402c1.4541-1.26855,3.16504-2.2959,5.48389-2.2959,3.51514,0,5.09912,1.93457,5.09912,5.31543v8.12793h-3.58105v-7.72559c0-2.10547-.78613-3.06836-2.83447-3.06836-1.5,0-2.51465,.62793-3.90723,1.84473v8.94922h-3.58105v-13.12207Z"/><path class="cls-5" d="M659.9873,946.68015c0-2.94141,2.99902-4.40625,10.50879-4.8623-.12695-1.46973-1.14062-2.57324-3.61914-2.57324-1.71191,0-3.40381,.64453-4.96777,1.39258l-1.32812-2.0459c1.84326-.95215,4.33643-1.83105,6.95654-1.83105,4.22021,0,6.53955,2.02246,6.53955,5.67773v7.76562h-2.94336l-.27344-1.62598h-.104c-1.5957,1.06348-3.6377,1.94629-5.6748,1.94629-2.96533,0-5.09424-1.56836-5.09424-3.84375Zm10.50879-.17383v-2.75879c-5.4624,.31055-7.03809,1.27832-7.03809,2.69434,0,1.15527,1.18457,1.65527,2.69092,1.65527,1.53223,0,2.94287-.61621,4.34717-1.59082Z"/><path class="cls-5" d="M680.40479,937.08152h2.9541l.30469,2.98438h.08447c1.54492-2.14062,3.85254-3.30566,6.46826-3.30566,1.22852,0,2.05518,.16309,2.96094,.53516l-.75879,2.6123c-1.00684-.27441-1.59814-.40723-2.75195-.40723-2.07861,0-4.12354,.91992-5.68066,3.46777v7.23535h-3.58105v-13.12207Z"/><path class="cls-5" d="M697.03076,955.31491l.67432-2.3916c.40234,.10742,.85205,.17773,1.271,.17773,1.93506,0,3.04541-.92383,3.66309-2.23242l.36572-.82422-6.81543-12.96289h3.57812l3.10791,6.41504c.56543,1.19824,1.13574,2.55078,1.68701,3.875h.12354c.46973-1.27832,1.02393-2.64062,1.50781-3.875l2.73926-6.41504h3.40869l-6.34961,13.71973c-1.30762,2.94727-3.13428,4.78027-6.79785,4.78027-.80322,0-1.56885-.10645-2.16357-.2666Z"/></g><text class="cls-9" transform="translate(735.7244 951.57065)"><tspan class="cls-16" x="0" y="0">c</tspan><tspan x="17.03955" y="0">ollection a</tspan><tspan class="cls-17" x="172.91748" y="0">r</tspan><tspan x="184.97705" y="0">e</tspan></text><rect class="cls-7" x="958.85654" y="923.6329" width="109.24078" height="36.14" rx="7.09955" ry="7.09955"/><g><path class="cls-5" d="M969.15918,937.22507l4.28516-.14355h9.22754v2.44727h-13.5127v-2.30371Zm4.17773-.85645c0-3.09473,1.98828-5.35254,6.47754-5.35254,1.62305,0,3.1377,.29004,4.49414,.72852l-.73633,2.28418c-1.10254-.38477-2.11914-.56543-3.35059-.56543-2.31836,0-3.32324,1.01562-3.32324,2.85449v13.88574h-3.56152v-13.83496Z"/><path class="cls-5" d="M994.04785,939.52878h-6.56836v-2.44727h10.14941v13.12207h-3.58105v-10.6748Zm-.9873-6.90234c0-1.23145,1.07129-2.08301,2.54297-2.08301s2.54297,.85156,2.54297,2.08301c0,1.24805-1.07129,2.06348-2.54297,2.06348s-2.54297-.81543-2.54297-2.06348Z"/><path class="cls-5" d="M1005.35059,943.62546c0-4.28027,3.7666-6.86523,7.83691-6.86523,4.53906,0,7.05566,2.59863,7.05566,6.22949,0,.61523-.09668,1.21387-.1582,1.55176h-12.17871v-2.18066h9.86621l-.68457,.68262c0-2.5918-1.41211-3.9082-3.79297-3.9082-2.51367,0-4.45117,1.56152-4.45117,4.49023,0,3.05273,2.12988,4.50781,5.29199,4.50781,1.59082,0,2.90137-.40234,4.26367-1.07227l1.22461,1.91309c-1.62305,.91406-3.72461,1.5498-5.95703,1.5498-4.65723,0-8.31641-2.53125-8.31641-6.89844Z"/><path class="cls-5" d="M1029.00488,945.42722v-11.64258h-5.0752v-2.44727h8.65625v14.25c0,1.75195,1.19922,2.41699,2.7334,2.41699,.78711,0,1.625-.1582,2.60156-.50977l.83203,2.28418c-1.49512,.47852-2.53125,.74512-4.30859,.74512-3.5498,0-5.43945-1.87695-5.43945-5.09668Z"/><path class="cls-5" d="M1042.25293,943.65964c0-4.28027,3.24023-6.89941,6.68652-6.89941,1.73926,0,3.00684,.56641,4.19043,1.53906h.08496l-.16895-2.21094v-4.75098h3.58105v18.86621h-2.92383l-.27344-1.5332h-.10449c-1.18164,1.02637-2.875,1.85352-4.58105,1.85352-3.91309,0-6.49121-2.53613-6.49121-6.86426Zm10.79297,2.7373v-5.89746c-1.08984-.86914-2.14355-1.18164-3.23926-1.18164-2.12305,0-3.8877,1.56445-3.8877,4.30469,0,2.84473,1.3877,4.34473,3.68848,4.34473,1.25879,0,2.37988-.48438,3.43848-1.57031Z"/></g><rect class="cls-7" x="1130.47506" y="923.6329" width="129.11745" height="35.13896" rx="7.74915" ry="7.74915"/><g><path class="cls-5" d="M1150.1416,937.08152h3.62012l2.93359,6.78809c.54297,1.31934,1.03223,2.64062,1.52441,3.96484h.12402c.49219-1.32422,.94238-2.64551,1.50391-3.96484l2.93359-6.78809h3.43164l-5.93555,13.12207h-4.07227l-6.06348-13.12207Z"/><path class="cls-5" d="M1169.64551,946.68015c0-2.94141,2.99902-4.40625,10.50879-4.8623-.12695-1.46973-1.14062-2.57324-3.61914-2.57324-1.71191,0-3.40332,.64453-4.96777,1.39258l-1.32812-2.0459c1.84375-.95215,4.33691-1.83105,6.95703-1.83105,4.21973,0,6.53906,2.02246,6.53906,5.67773v7.76562h-2.94336l-.27344-1.62598h-.10352c-1.5957,1.06348-3.6377,1.94629-5.6748,1.94629-2.96582,0-5.09473-1.56836-5.09473-3.84375Zm10.50879-.17383v-2.75879c-5.46191,.31055-7.03809,1.27832-7.03809,2.69434,0,1.15527,1.18457,1.65527,2.69141,1.65527,1.53223,0,2.94238-.61621,4.34668-1.59082Z"/><path class="cls-5" d="M1193.01953,945.42722v-11.64258h-5.0752v-2.44727h8.65625v14.25c0,1.75195,1.19922,2.41699,2.7334,2.41699,.78711,0,1.625-.1582,2.60156-.50977l.83203,2.28418c-1.49512,.47852-2.53125,.74512-4.30859,.74512-3.5498,0-5.43945-1.87695-5.43945-5.09668Z"/><path class="cls-5" d="M1206.76074,945.20945v-8.12793h3.58105v7.72559c0,2.08789,.7627,3.06738,2.8418,3.06738,1.42676,0,2.45801-.51758,3.81152-1.93652v-8.85645h3.58105v13.12207h-2.94336l-.27344-2.08496h-.12402c-1.4375,1.43457-3.12207,2.40527-5.3877,2.40527-3.52637,0-5.08691-1.93457-5.08691-5.31445Z"/><path class="cls-5" d="M1225.09082,943.62546c0-4.28027,3.7666-6.86523,7.83691-6.86523,4.53906,0,7.05566,2.59863,7.05566,6.22949,0,.61523-.09668,1.21387-.1582,1.55176h-12.17871v-2.18066h9.86621l-.68457,.68262c0-2.5918-1.41211-3.9082-3.79297-3.9082-2.51367,0-4.45117,1.56152-4.45117,4.49023,0,3.05273,2.12988,4.50781,5.29199,4.50781,1.59082,0,2.90137-.40234,4.26367-1.07227l1.22461,1.91309c-1.62305,.91406-3.72461,1.5498-5.95703,1.5498-4.65723,0-8.31641-2.53125-8.31641-6.89844Z"/></g><text class="cls-9" transform="translate(1277.84674 951.57166)"><tspan x="0" y="0">pai</tspan><tspan class="cls-3" x="45.08936" y="0">r</tspan><tspan x="56.84961" y="0">s</tspan></text><g><line class="cls-14" x1="1082.79224" y1="940.77182" x2="1111.29053" y2="940.77182"/><polygon class="cls-6" points="1102.36694 948.36679 1109.96643 940.77182 1102.36694 933.17673 1108.81592 933.17673 1116.41089 940.77182 1108.81592 948.36679 1102.36694 948.36679"/></g><rect class="cls-7" x="274.29823" y="924.42067" width="164.44498" height="34.35117" rx="7.07713" ry="7.07713"/><g><path class="cls-5" d="M284.12158,943.62546c0-4.28027,3.7666-6.86523,7.83691-6.86523,4.53906,0,7.05518,2.59863,7.05518,6.22949,0,.61523-.09619,1.21387-.1582,1.55176h-12.17871v-2.18066h9.86621l-.68408,.68262c0-2.5918-1.4126-3.9082-3.79297-3.9082-2.51367,0-4.45117,1.56152-4.45117,4.49023,0,3.05273,2.12939,4.50781,5.2915,4.50781,1.59131,0,2.90186-.40234,4.26367-1.07227l1.22461,1.91309c-1.62256,.91406-3.72412,1.5498-5.95703,1.5498-4.65674,0-8.31592-2.53125-8.31592-6.89844Z"/><path class="cls-5" d="M307.77588,945.42722v-11.64258h-5.0752v-2.44727h8.65625v14.25c0,1.75195,1.19922,2.41699,2.7334,2.41699,.78711,0,1.625-.1582,2.60156-.50977l.83203,2.28418c-1.49561,.47852-2.53174,.74512-4.30908,.74512-3.54932,0-5.43896-1.87695-5.43896-5.09668Z"/><path class="cls-5" d="M321.27197,943.62546c0-4.28027,3.7666-6.86523,7.83691-6.86523,4.53906,0,7.05518,2.59863,7.05518,6.22949,0,.61523-.09619,1.21387-.1582,1.55176h-12.17871v-2.18066h9.86621l-.68408,.68262c0-2.5918-1.4126-3.9082-3.79297-3.9082-2.51367,0-4.45117,1.56152-4.45117,4.49023,0,3.05273,2.12939,4.50781,5.2915,4.50781,1.59131,0,2.90186-.40234,4.26367-1.07227l1.22461,1.91309c-1.62256,.91406-3.72412,1.5498-5.95703,1.5498-4.65674,0-8.31592-2.53125-8.31592-6.89844Z"/><path class="cls-5" d="M339.37842,937.08152h2.74805l.27344,1.6709h.08447c.67188-1.13379,1.62354-1.99219,3.37988-1.99219,1.40625,0,2.35791,.74902,2.75732,2.20508,.70801-1.29102,1.71631-2.20508,3.46143-2.20508,2.15039,0,3.38916,1.52441,3.38916,4.14551v9.29785h-3.44775v-9.0791c0-1.15234-.35938-1.73145-1.2124-1.73145-.81396,0-1.2915,.54102-1.90332,1.64062v9.16992h-2.9668v-9.0791c0-1.15234-.354-1.73145-1.20703-1.73145-.80273,0-1.33594,.54102-1.90869,1.64062v9.16992h-3.44775v-13.12207Z"/><path class="cls-5" d="M358.42236,943.62546c0-4.28027,3.7666-6.86523,7.83691-6.86523,4.53906,0,7.05518,2.59863,7.05518,6.22949,0,.61523-.09619,1.21387-.1582,1.55176h-12.17871v-2.18066h9.86621l-.68408,.68262c0-2.5918-1.4126-3.9082-3.79297-3.9082-2.51367,0-4.45117,1.56152-4.45117,4.49023,0,3.05273,2.12939,4.50781,5.2915,4.50781,1.59131,0,2.90186-.40234,4.26367-1.07227l1.22461,1.91309c-1.62256,.91406-3.72412,1.5498-5.95703,1.5498-4.65674,0-8.31592-2.53125-8.31592-6.89844Z"/><path class="cls-5" d="M377.64648,937.08152h2.92334l.27344,1.97461h.12402c1.4541-1.26855,3.16504-2.2959,5.48389-2.2959,3.51514,0,5.09912,1.93457,5.09912,5.31543v8.12793h-3.58105v-7.72559c0-2.10547-.78613-3.06836-2.83447-3.06836-1.5,0-2.51465,.62793-3.90723,1.84473v8.94922h-3.58105v-13.12207Z"/><path class="cls-5" d="M399.5498,944.9282v-5.39941h-4.06787v-2.30371l4.21729-.14355,.46582-4.10938h2.96582v4.10938h6.91357v2.44727h-6.91357v5.38672c0,2.16797,.94336,3.14453,3.5127,3.14453,1.26807,0,2.31445-.2207,3.30713-.5293l.69336,2.24805c-1.36182,.38867-2.89648,.74512-4.86475,.74512-4.64648,0-6.22949-2.25195-6.22949-5.5957Z"/><path class="cls-5" d="M414.16113,948.49362l1.56299-1.96973c1.81299,1.03906,3.89062,1.66504,6.36182,1.66504,2.10693,0,3.0957-.69238,3.0957-1.5625,0-.86035-.66797-1.33984-4.20947-1.97266-4.05664-.73438-5.85938-1.97168-5.85938-3.9707,0-2.28027,2.40869-3.92285,6.66309-3.92285,2.51807,0,4.82031,.85352,6.36328,1.73535l-1.64746,1.89648c-1.47266-.81836-3.229-1.31348-5.03516-1.31348-1.97021,0-2.78564,.65625-2.78564,1.45801,0,.92676,1.11865,1.25098,3.96484,1.78223,4.85938,.9248,6.12354,2.04297,6.12354,4.125,0,2.25781-2.52002,4.08008-7.14209,4.08008-2.83887,0-5.57275-.9248-7.45605-2.03027Z"/></g></svg>