<?xml version="1.0" encoding="UTF-8"?>
<svg id="Layer_1" data-name="Layer 1" xmlns="http://www.w3.org/2000/svg" viewBox="0 0 300 300">
  <defs>
    <style>
      .cls-1 {
        fill: #00c88c;
        stroke-width: 0px;
      }
    </style>
  </defs>
  <path class="cls-1" d="m246.71,81.55c-1.04-2.52-2.57-4.81-4.5-6.74-1.93-1.93-4.21-3.45-6.73-4.49-2.52-1.04-5.21-1.57-7.94-1.57h-62.68V26.11c0-3.44-2.79-6.22-6.22-6.22h-17.29c-3.44,0-6.22,2.79-6.22,6.22v42.64h-62.71c-5.49,0-10.76,2.19-14.65,6.08-3.88,3.89-6.07,9.17-6.07,14.67v18.99c0,5.5,2.18,10.78,6.07,14.67,3.88,3.89,9.15,6.08,14.65,6.08h-.24v58.58c0,15.57,4.66,30.79,13.37,43.68,8.71,12.9,21.08,22.88,35.51,28.67,3.5,1.4,6.68,3.49,9.35,6.16l9.62,9.64c2.64,2.65,6.23,4.13,9.97,4.13s7.32-1.49,9.97-4.13l9.62-9.64c2.67-2.67,5.85-4.76,9.36-6.16,14.43-5.79,26.8-15.78,35.51-28.67,8.71-12.9,13.37-28.11,13.37-43.68v-58.58h-.24c5.49,0,10.76-2.19,14.65-6.08s6.07-9.17,6.07-14.67v-18.99c0-2.73-.54-5.43-1.58-7.95Zm-67.67,87.26l-39.39,58.46c-.39.58-1.04.92-1.74.92h-4.99c-1.32,0-2.31-1.21-2.05-2.5l6.78-34.2h-11.44c-1.26,0-2.23-1.1-2.08-2.35l7.31-58.46c.13-1.05,1.02-1.83,2.08-1.83h37.95c1.52,0,2.53,1.56,1.91,2.95l-15.21,33.75h19.13c1.68,0,2.67,1.87,1.74,3.26Z"/>
</svg>