<?xml version="1.0" encoding="iso-8859-1"?>
<!-- Generator: Adobe Illustrator 16.0.0, SVG Export Plug-In . SVG Version: 6.00 Build 0)  -->
<!DOCTYPE svg PUBLIC "-//W3C//DTD SVG 1.1//EN" "http://www.w3.org/Graphics/SVG/1.1/DTD/svg11.dtd">
<svg version="1.1" id="Capa_1" xmlns="http://www.w3.org/2000/svg" xmlns:xlink="http://www.w3.org/1999/xlink" x="0px" y="0px"
	 width="20px" height="20px" viewBox="0 0 197.844 197.844" style="enable-background:new 0 0 197.844 197.844;"
	 xml:space="preserve">
<g>
	<g id="_x31_24_57_">
		<g>
			<path d="M176.419,76.815c1.199,0,2.377,0.099,3.555,0.178c0.168-1.176,0.3-2.356,0.361-3.547
				c-1.158-21.498-16.463-36.785-37.943-37.945c-12.604-0.675-23.115,5.759-29.858,15.168C105.8,41.8,95.316,36.189,82.654,35.501
				C61.215,34.349,45.789,53.7,44.722,73.446c-0.12,2.536,0.041,4.977,0.437,7.335c-1.343-0.19-2.709-0.32-4.103-0.398
				c-23.176-1.249-39.852,19.672-41.002,41c-1.178,21.805,17.265,37.851,37.222,40.628v0.381h101.679
				c-8.389-9.095-13.553-21.205-13.553-34.561C125.401,99.658,148.241,76.815,176.419,76.815z"/>
			<path d="M197.198,129.518c-0.421-1.682-1.346-3.23-2.762-4.657c-1.417-1.411-3.474-2.717-6.155-3.909
				c-2.681-1.188-6.276-2.275-10.796-3.256v-7.825c0.889,0.193,1.631,0.396,2.234,0.63c0.609,0.233,1.107,0.543,1.509,0.909
				c0.391,0.376,0.695,0.868,0.909,1.468c0.208,0.604,0.355,1.351,0.451,2.244h13.351c0-2.844-0.508-5.291-1.503-7.338
				c-1.001-2.057-2.356-3.742-4.053-5.072c-1.701-1.326-3.666-2.301-5.911-2.931c-2.233-0.624-4.56-0.944-6.987-0.944v-5.593h-3.631
				v5.593c-2.188,0-4.402,0.32-6.631,0.944c-2.245,0.63-4.256,1.61-6.043,2.931c-1.803,1.33-3.266,3.026-4.413,5.104
				c-1.143,2.066-1.711,4.534-1.711,7.373c0,2,0.31,3.691,0.914,5.062c0.599,1.381,1.462,2.56,2.584,3.564
				c1.117,1.006,2.474,1.863,4.048,2.59c1.589,0.727,3.336,1.406,5.24,2.057c1.071,0.371,2.107,0.686,3.118,0.944
				c0.995,0.259,1.965,0.528,2.899,0.803v9.856c-1.356-0.097-2.402-0.381-3.139-0.869c-0.751-0.497-1.32-1.071-1.716-1.746
				c-0.396-0.686-0.65-1.392-0.762-2.133c-0.117-0.752-0.183-1.422-0.183-2.036h-14.95c0.097,2.285,0.538,4.499,1.331,6.642
				c0.787,2.143,2.016,4.042,3.666,5.697c1.65,1.65,3.777,2.981,6.362,3.986c2.585,1.001,5.718,1.503,9.399,1.503v6.917h3.631
				v-6.917c3.682,0,6.814-0.497,9.404-1.473c2.58-0.975,4.692-2.233,6.322-3.772s2.809-3.266,3.534-5.17
				c0.721-1.909,1.082-3.818,1.082-5.732C197.823,133.011,197.615,131.193,197.198,129.518z M173.854,116.868
				c-3.306-0.655-4.961-1.909-4.961-3.778c0-1.396,0.514-2.28,1.534-2.661c1.025-0.365,2.173-0.559,3.427-0.559V116.868z
				 M181.609,138.846c-1.117,0.675-2.493,1.081-4.124,1.219v-8.871c1.818,0.599,3.24,1.219,4.266,1.843
				c1.021,0.63,1.539,1.554,1.539,2.763C183.295,137.154,182.727,138.165,181.609,138.846z"/>
		</g>
	</g>
</g>
<g>
</g>
<g>
</g>
<g>
</g>
<g>
</g>
<g>
</g>
<g>
</g>
<g>
</g>
<g>
</g>
<g>
</g>
<g>
</g>
<g>
</g>
<g>
</g>
<g>
</g>
<g>
</g>
<g>
</g>
</svg>
