<svg width="20" height="18" viewBox="0 0 20 18" fill="none" xmlns="http://www.w3.org/2000/svg">
<path d="M3 6H8V4H3V6ZM3 10H8V8H3V10ZM3 14H8V12H3V14ZM12.55 12L17.5 7.05L16.075 5.625L12.55 9.175L11.125 7.75L9.725 9.175L12.55 12ZM2 18C1.45 18 0.979333 17.8043 0.588 17.413C0.196 17.021 0 16.55 0 16V2C0 1.45 0.196 0.979 0.588 0.587C0.979333 0.195667 1.45 0 2 0H18C18.55 0 19.021 0.195667 19.413 0.587C19.8043 0.979 20 1.45 20 2V16C20 16.55 19.8043 17.021 19.413 17.413C19.021 17.8043 18.55 18 18 18H2ZM2 16H18V2H2V16ZM2 16V2H18V16H2Z" fill="#25392B"/>
</svg>
