<svg width="25" height="26" viewBox="0 0 25 26" fill="none" xmlns="http://www.w3.org/2000/svg">
<path d="M20.808 3.30462H14.7255V0.759916C14.7255 0.340226 14.3853 0 13.9656 0H11.8676C11.448 0 11.1077 0.340226 11.1077 0.759917V3.30462H5.0258C4.46695 3.30462 3.93099 3.52699 3.53582 3.92282C3.14065 4.31865 2.91864 4.85551 2.91864 5.4153V7.34774C2.91864 7.90753 3.14065 8.4444 3.53582 8.84023C3.93099 9.23606 4.46695 9.45842 5.0258 9.45842H5.00104V15.4184C5.00106 17.0026 5.47476 18.5504 6.36109 19.8625C7.24741 21.1745 8.50573 22.1905 9.97384 22.7796C10.33 22.9218 10.6537 23.1349 10.9252 23.406L11.9042 24.3867C12.1732 24.656 12.538 24.8073 12.9183 24.8073C13.2987 24.8073 13.6635 24.656 13.9325 24.3867L14.9115 23.406C15.1832 23.1349 15.5071 22.9217 15.8634 22.7796C17.3315 22.1905 18.5899 21.1745 19.4762 19.8625C20.3625 18.5504 20.8362 17.0026 20.8362 15.4184V9.45842H20.8115C21.3703 9.45842 21.9063 9.23606 22.3015 8.84023C22.6966 8.4444 22.9186 7.90753 22.9186 7.34774V5.4153C22.9186 5.13783 22.864 4.86309 22.7579 4.60679C22.6518 4.35048 22.4963 4.11762 22.3002 3.92158C22.1042 3.72554 21.8715 3.57014 21.6155 3.46427C21.3594 3.3584 21.085 3.30417 20.808 3.30462Z" fill="#00C88C"/>
</svg>
