<svg width="22" height="19" viewBox="0 0 22 19" fill="none" xmlns="http://www.w3.org/2000/svg">
<path fill-rule="evenodd" clip-rule="evenodd" d="M2 2C2 0.89543 2.89543 0 4 0H7.34315C8.66923 0 9.941 0.526785 10.8787 1.46447L11 1.58579L11.1213 1.46447C12.059 0.526785 13.3308 0 14.6569 0H18C19.1046 0 20 0.89543 20 2C21.1046 2 22 2.89543 22 4V15C22 16.1046 21.1046 17 20 17H15C14.4477 17 14.0207 17.4745 13.7555 17.959C13.4159 18.5793 12.7571 19 12 19H10C9.24291 19 8.58407 18.5793 8.24447 17.959C7.97928 17.4745 7.55228 17 7 17H2C0.89543 17 0 16.1046 0 15V4C0 2.89543 0.895431 2 2 2ZM12 13.672C12.6276 13.2374 13.3771 13 14.1511 13H18V2H14.6569C13.8612 2 13.0981 2.31607 12.5355 2.87868L12 3.41421V13.672ZM10 3.41421L9.46447 2.87868C8.90186 2.31607 8.1388 2 7.34315 2H4V13H7.84888C8.62286 13 9.37236 13.2374 10 13.672V3.41421Z" fill="#25392B"/>
</svg>
