<svg width="22" height="21" viewBox="0 0 22 21" fill="none" xmlns="http://www.w3.org/2000/svg">
<path d="M6.038 20.7493C6.10565 20.821 6.19099 20.8737 6.28544 20.9019C6.3799 20.9302 6.48013 20.9331 6.57607 20.9103C6.672 20.8876 6.76025 20.84 6.83193 20.7723C6.90361 20.7046 6.9562 20.6192 6.98441 20.5247L7.73833 17.7817L11.1711 4.82063C11.1872 4.74975 11.227 4.68646 11.2838 4.64113C11.3407 4.59579 11.4112 4.5711 11.4839 4.5711C11.5566 4.5711 11.6271 4.59579 11.684 4.64113C11.7408 4.68646 11.7805 4.74975 11.7967 4.82063L12.1656 5.81517C12.2953 6.16821 12.5092 6.48426 12.7887 6.73586C13.0683 6.98745 13.405 7.16699 13.7697 7.25886L16.9779 8.14111C17.2893 8.22651 17.5676 8.40387 17.7765 8.64999C17.9854 8.89611 18.1152 9.19955 18.1489 9.52063C18.1725 9.90497 18.1082 10.2896 17.9609 10.6454C17.8135 11.0012 17.5871 11.3187 17.2987 11.5739L16.4967 12.2636C15.8604 12.8202 15.4067 13.5558 15.1949 14.3742C14.9832 15.1927 15.0231 16.056 15.3097 16.8513L16.625 20.5407C16.6561 20.6243 16.7057 20.6998 16.7701 20.7616C16.8344 20.8234 16.9118 20.8699 16.9966 20.8976C17.0814 20.9254 17.1713 20.9337 17.2597 20.9219C17.3481 20.9101 17.4327 20.8785 17.5073 20.8295C19.1708 19.6046 20.4572 17.9374 21.22 16.0176C21.9829 14.0978 22.1915 12.0023 21.8223 9.96977C21.4344 7.79908 20.4023 5.79531 18.8604 4.21901C17.3184 2.64272 15.3378 1.56682 13.1762 1.13122C11.6718 0.825496 10.1202 0.836995 8.62049 1.16498C7.12079 1.49296 5.706 2.13021 4.46657 3.03601C3.22713 3.94181 2.19031 5.09623 1.42235 6.42549C0.654396 7.75474 0.17221 9.22959 0.00660501 10.7558C-0.00952744 10.8832 0.00398821 11.0126 0.0460979 11.134C0.0882075 11.2553 0.157776 11.3653 0.249375 11.4554C0.340975 11.5454 0.452127 11.6131 0.574179 11.6531C0.696231 11.6932 0.825889 11.7045 0.953026 11.6861C1.3853 11.6459 1.82121 11.6965 2.23276 11.8347C2.6443 11.973 3.02236 12.1958 3.34264 12.4889C3.66293 12.782 3.91833 13.1388 4.09246 13.5365C4.26658 13.9342 4.35557 14.364 4.3537 14.7981V16.4022C4.3728 18.0069 4.97094 19.5506 6.038 20.7493Z" fill="currentColor"/>
<path d="M13.6093 10.2618C14.1586 10.2618 14.6039 9.81651 14.6039 9.26724C14.6039 8.71797 14.1586 8.27271 13.6093 8.27271C13.0601 8.27271 12.6148 8.71797 12.6148 9.26724C12.6148 9.81651 13.0601 10.2618 13.6093 10.2618Z" fill="currentColor"/>
</svg>
