<svg width="20" height="20" viewBox="0 0 20 20" fill="none" xmlns="http://www.w3.org/2000/svg">
<path d="M1.80766 9.15715C1.15739 8.87847 0.994216 8.03115 1.49447 7.5309L4.65005 4.37532C4.88338 4.14199 5.15838 3.97532 5.47505 3.87532C5.79172 3.77532 6.11671 3.75865 6.45005 3.82532L7.75005 4.10032C6.85005 5.16699 6.14172 6.13365 5.62505 7.00032C5.10838 7.86699 4.60838 8.91699 4.12505 10.1503L1.80766 9.15715ZM5.57505 10.8503C5.95838 9.65032 6.47905 8.51699 7.13705 7.45032C7.79572 6.38365 8.59171 5.38365 9.52505 4.45032C10.9917 2.98365 12.6667 1.88765 14.55 1.16232C16.1678 0.539828 17.6934 0.289232 19.1267 0.410533C19.5476 0.446156 19.8792 0.777717 19.9151 1.19862C20.0373 2.63195 19.7907 4.15752 19.175 5.77532C18.4584 7.65865 17.3667 9.33365 15.9 10.8003C14.9834 11.717 13.9834 12.513 12.9 13.1883C11.8167 13.863 10.675 14.392 9.47505 14.7753L5.57505 10.8503ZM12.475 7.85032C12.8584 8.23365 13.3294 8.42532 13.888 8.42532C14.446 8.42532 14.9167 8.23365 15.3 7.85032C15.6834 7.46699 15.875 6.99599 15.875 6.43732C15.875 5.87932 15.6834 5.40865 15.3 5.02532C14.9167 4.64199 14.446 4.45032 13.888 4.45032C13.3294 4.45032 12.8584 4.64199 12.475 5.02532C12.0917 5.40865 11.9 5.87932 11.9 6.43732C11.9 6.99599 12.0917 7.46699 12.475 7.85032ZM12.813 18.8373C12.3145 19.3358 11.4705 19.1758 11.1891 18.5294L10.175 16.2003C11.4084 15.717 12.4627 15.217 13.338 14.7003C14.2127 14.1837 15.1834 13.4753 16.25 12.5753L16.5 13.8753C16.5667 14.2087 16.5501 14.538 16.4501 14.8633C16.35 15.188 16.1834 15.467 15.95 15.7003L12.813 18.8373ZM2.05005 14.0503C2.63338 13.467 3.34172 13.171 4.17505 13.1623C5.00838 13.1543 5.71672 13.442 6.30005 14.0253C6.88338 14.6087 7.17505 15.317 7.17505 16.1503C7.17505 16.9837 6.88338 17.692 6.30005 18.2753C5.88338 18.692 5.18772 19.0503 4.21305 19.3503C3.4991 19.5699 2.58654 19.7717 1.47536 19.9555C0.823222 20.0635 0.261885 19.5021 0.369979 18.85C0.553818 17.741 0.755508 16.8327 0.975049 16.1253C1.27505 15.1587 1.63338 14.467 2.05005 14.0503Z" fill="#25392B" />
</svg>
