<?xml version="1.0" encoding="UTF-8"?><svg id="Layer_1" xmlns="http://www.w3.org/2000/svg" xmlns:xlink="http://www.w3.org/1999/xlink" viewBox="0 0 100 100"><defs><style>.cls-1{fill:none;}.cls-2{fill:url(#linear-gradient);}.cls-3{clip-path:url(#clippath);}.cls-4{mask:url(#mask);}.cls-5{fill:#7dcbec;}.cls-6{fill:#127bca;}.cls-7{fill:#1e5cb3;}.cls-8{fill:#1d60b5;}.cls-9{fill:#125a9e;}.cls-10{fill:#079ae1;}.cls-11{fill:#05a1e6;}.cls-12{fill:#14559a;}.cls-13{fill:#0d82ca;}.cls-14{fill:#175fab;}.cls-15{fill:#1969bc;}.cls-16{fill:#2b74b1;}.cls-17{fill:#33bdf2;}.cls-18{fill:#3092c4;}.cls-19{fill:#5ec5ed;}.cls-20{clip-path:url(#clippath-1);}.cls-21{clip-path:url(#clippath-4);}.cls-22{clip-path:url(#clippath-3);}.cls-23{clip-path:url(#clippath-2);}.cls-24{clip-path:url(#clippath-7);}.cls-25{clip-path:url(#clippath-8);}.cls-26{clip-path:url(#clippath-6);}.cls-27{clip-path:url(#clippath-5);}.cls-28{clip-path:url(#clippath-9);}.cls-29{clip-path:url(#clippath-60);}.cls-30{clip-path:url(#clippath-20);}.cls-31{clip-path:url(#clippath-21);}.cls-32{clip-path:url(#clippath-24);}.cls-33{clip-path:url(#clippath-23);}.cls-34{clip-path:url(#clippath-22);}.cls-35{clip-path:url(#clippath-25);}.cls-36{clip-path:url(#clippath-44);}.cls-37{clip-path:url(#clippath-45);}.cls-38{clip-path:url(#clippath-40);}.cls-39{clip-path:url(#clippath-42);}.cls-40{clip-path:url(#clippath-41);}.cls-41{clip-path:url(#clippath-47);}.cls-42{clip-path:url(#clippath-43);}.cls-43{clip-path:url(#clippath-46);}.cls-44{clip-path:url(#clippath-48);}.cls-45{clip-path:url(#clippath-49);}.cls-46{clip-path:url(#clippath-27);}.cls-47{clip-path:url(#clippath-28);}.cls-48{clip-path:url(#clippath-26);}.cls-49{clip-path:url(#clippath-29);}.cls-50{clip-path:url(#clippath-34);}.cls-51{clip-path:url(#clippath-35);}.cls-52{clip-path:url(#clippath-36);}.cls-53{clip-path:url(#clippath-37);}.cls-54{clip-path:url(#clippath-39);}.cls-55{clip-path:url(#clippath-33);}.cls-56{clip-path:url(#clippath-32);}.cls-57{clip-path:url(#clippath-30);}.cls-58{clip-path:url(#clippath-38);}.cls-59{clip-path:url(#clippath-31);}.cls-60{clip-path:url(#clippath-53);}.cls-61{clip-path:url(#clippath-54);}.cls-62{clip-path:url(#clippath-50);}.cls-63{clip-path:url(#clippath-51);}.cls-64{clip-path:url(#clippath-52);}.cls-65{clip-path:url(#clippath-55);}.cls-66{clip-path:url(#clippath-56);}.cls-67{clip-path:url(#clippath-57);}.cls-68{clip-path:url(#clippath-58);}.cls-69{clip-path:url(#clippath-61);}.cls-70{clip-path:url(#clippath-64);}.cls-71{clip-path:url(#clippath-62);}.cls-72{clip-path:url(#clippath-59);}.cls-73{clip-path:url(#clippath-65);}.cls-74{clip-path:url(#clippath-63);}.cls-75{clip-path:url(#clippath-14);}.cls-76{clip-path:url(#clippath-13);}.cls-77{clip-path:url(#clippath-12);}.cls-78{clip-path:url(#clippath-10);}.cls-79{clip-path:url(#clippath-15);}.cls-80{clip-path:url(#clippath-17);}.cls-81{clip-path:url(#clippath-16);}.cls-82{clip-path:url(#clippath-19);}.cls-83{clip-path:url(#clippath-11);}.cls-84{clip-path:url(#clippath-18);}.cls-85{fill:url(#linear-gradient-8);}.cls-86{fill:url(#linear-gradient-9);}.cls-87{fill:url(#linear-gradient-3);}.cls-88{fill:url(#linear-gradient-4);}.cls-89{fill:url(#linear-gradient-2);}.cls-90{fill:url(#linear-gradient-6);}.cls-91{fill:url(#linear-gradient-7);}.cls-92{fill:url(#linear-gradient-5);}.cls-93{fill:url(#linear-gradient-14);}.cls-94{fill:url(#linear-gradient-15);}.cls-95{fill:url(#linear-gradient-16);}.cls-96{fill:url(#linear-gradient-13);}.cls-97{fill:url(#linear-gradient-12);}.cls-98{fill:url(#linear-gradient-10);}.cls-99{fill:url(#linear-gradient-11);}.cls-100{mask:url(#mask-3);}.cls-101{mask:url(#mask-2);}.cls-102{mask:url(#mask-5);}.cls-103{mask:url(#mask-4);}.cls-104{mask:url(#mask-1);}.cls-105{mask:url(#mask-7);}.cls-106{mask:url(#mask-6);}.cls-107{mask:url(#mask-8);}</style><clipPath id="clippath"><path class="cls-1" d="M36.48,40.78c3.08,9.41,4.24,26.2,13.25,26.2,.69,0,1.38-.07,2.07-.2-8.17-1.91-9.15-18.51-14.14-27.11-.4,.36-.79,.73-1.17,1.11"/></clipPath><clipPath id="clippath-1"><rect class="cls-1" x="36.5" y="39.66" width="15.31" height="27.31"/></clipPath><clipPath id="clippath-2"><rect class="cls-1" x="36.5" y="39.66" width="15.31" height="27.31"/></clipPath><linearGradient id="linear-gradient" x1="167.7" y1="-221.99" x2="167.7" y2="-163.36" gradientTransform="translate(-72.33 188.54) scale(.69)" gradientUnits="userSpaceOnUse"><stop offset="0" stop-color="#0994dc"/><stop offset=".11" stop-color="#0994dc"/><stop offset=".35" stop-color="#66cef5"/><stop offset=".45" stop-color="#66cef5"/><stop offset=".85" stop-color="#127bca"/><stop offset="1" stop-color="#127bca"/></linearGradient><clipPath id="clippath-3"><path class="cls-1" d="M37.65,39.67c4.99,8.6,5.96,25.2,14.14,27.11,.64-.12,1.29-.3,1.93-.52-7.34-3.6-9.37-19.72-15.04-27.48-.34,.29-.69,.58-1.03,.9"/></clipPath><clipPath id="clippath-4"><rect class="cls-1" x="37.69" y="38.78" width="16.07" height="28.01"/></clipPath><clipPath id="clippath-5"><rect class="cls-1" x="37.69" y="38.79" width="16.07" height="28.01"/></clipPath><linearGradient id="linear-gradient-2" x1="169.95" y1="-223.44" x2="169.95" y2="-163.32" gradientTransform="translate(-72.33 188.54) scale(.69)" gradientUnits="userSpaceOnUse"><stop offset="0" stop-color="#0e76bc"/><stop offset=".18" stop-color="#0e76bc"/><stop offset=".36" stop-color="#36aee8"/><stop offset=".52" stop-color="#36aee8"/><stop offset=".85" stop-color="#00adef"/><stop offset="1" stop-color="#00adef"/></linearGradient><mask id="mask" x="127.91" y="279.29" width="70.57" height="25.98" maskUnits="userSpaceOnUse"/><clipPath id="clippath-6"><rect class="cls-1" x="46.44" y="34.57" width="15.28" height="28.39"/></clipPath><clipPath id="clippath-7"><polygon class="cls-1" points="46.46 62.94 61.71 62.94 61.71 34.56 46.46 34.56 46.46 62.94 46.46 62.94"/></clipPath><clipPath id="clippath-8"><path class="cls-1" d="M59.46,62.94l2.26-1.98c-3.13-9.36-4.25-26.39-13.31-26.39-.65,0-1.3,.06-1.95,.18,8.25,2.05,9.31,20.01,13,28.19"/></clipPath><clipPath id="clippath-9"><rect class="cls-1" x="46.44" y="34.59" width="15.26" height="28.37"/></clipPath><clipPath id="clippath-10"><polygon class="cls-1" points="46.44 62.95 46.44 34.59 61.7 34.59 61.7 62.96 46.44 62.96 46.44 62.95"/></clipPath><linearGradient id="linear-gradient-3" x1="181.96" y1="-176.33" x2="181.96" y2="-224.17" gradientTransform="translate(-72.33 188.54) scale(.69)" gradientUnits="userSpaceOnUse"><stop offset="0" stop-color="#1c63b7"/><stop offset=".5" stop-color="#33bdf2"/><stop offset="1" stop-color="#33bdf2"/></linearGradient><mask id="mask-1" x="127.91" y="279.29" width="70.57" height="25.98" maskUnits="userSpaceOnUse"/><clipPath id="clippath-11"><rect class="cls-1" x="44.84" y="34.55" width="3.56" height=".2"/></clipPath><clipPath id="clippath-12"><rect class="cls-1" x="44.84" y="34.55" width="3.56" height=".2"/></clipPath><clipPath id="clippath-13"><path class="cls-1" d="M44.34,35.34c7.39,3.87,8.04,21.38,13.93,28.49,.4-.28,.79-.58,1.18-.89-3.69-8.17-4.75-26.14-13-28.19-.72,.13-1.43,.33-2.11,.59"/></clipPath><clipPath id="clippath-14"><polygon class="cls-1" points="59.5 63.85 44.38 63.85 44.38 34.78 59.49 34.78 59.49 63.85 59.5 63.85"/></clipPath><clipPath id="clippath-15"><polygon class="cls-1" points="59.5 34.77 59.5 63.85 44.38 63.85 44.38 34.78 59.49 34.78 59.5 34.77"/></clipPath><linearGradient id="linear-gradient-4" x1="178.9" y1="-229.52" x2="178.9" y2="-167.09" gradientTransform="translate(-72.33 188.54) scale(.69)" gradientUnits="userSpaceOnUse"><stop offset="0" stop-color="#166ab8"/><stop offset=".1" stop-color="#166ab8"/><stop offset=".4" stop-color="#36aee8"/><stop offset=".52" stop-color="#36aee8"/><stop offset=".85" stop-color="#0798dd"/><stop offset="1" stop-color="#0798dd"/></linearGradient><clipPath id="clippath-16"><path class="cls-1" d="M38.69,38.77c5.67,7.76,7.7,23.89,15.04,27.48,1.52-.53,3.03-1.35,4.55-2.43-5.9-7.12-6.54-24.62-13.93-28.49-1.88,.7-3.76,1.86-5.66,3.43"/></clipPath><clipPath id="clippath-17"><rect class="cls-1" x="38.69" y="35.35" width="19.59" height="30.91"/></clipPath><clipPath id="clippath-18"><rect class="cls-1" x="38.69" y="35.34" width="19.59" height="30.92"/></clipPath><linearGradient id="linear-gradient-5" x1="173.93" y1="-229.22" x2="173.93" y2="-162.84" gradientTransform="translate(-72.33 188.54) scale(.69)" gradientUnits="userSpaceOnUse"><stop offset="0" stop-color="#124379"/><stop offset=".11" stop-color="#124379"/><stop offset=".39" stop-color="#1487cb"/><stop offset=".52" stop-color="#1487cb"/><stop offset=".78" stop-color="#165197"/><stop offset="1" stop-color="#165197"/></linearGradient><mask id="mask-2" x="101.7" y="246.36" width="70.58" height="60.33" maskUnits="userSpaceOnUse"/><clipPath id="clippath-19"><rect class="cls-1" x="29.96" y="38.26" width="6.52" height="10.38"/></clipPath><clipPath id="clippath-20"><rect class="cls-1" x="29.96" y="38.26" width="6.51" height="10.38"/></clipPath><mask id="mask-3" x="176.63" y="262.2" width="70.58" height="43.85" maskUnits="userSpaceOnUse"/><clipPath id="clippath-21"><polygon class="cls-1" points="65.6 33.82 92.22 33.82 92.22 66.97 65.6 66.97 65.6 33.82 65.6 33.82"/></clipPath><clipPath id="clippath-22"><polygon class="cls-1" points="65.64 66.97 92.21 66.97 92.21 33.84 65.64 33.84 65.64 66.97 65.64 66.97"/></clipPath><clipPath id="clippath-23"><path class="cls-1" d="M87.66,33.84c-4.18,16.12-12.91,29.08-20.24,32.34,0,0-.01,0-.01,0-.13,.07-.27,.12-.4,.17-.02,0-.03,.01-.05,.02-.04,.02-.07,.03-.11,.04-.02,0-.03,.01-.05,.02l-.18,.07s-.05,.02-.08,.03c-.03,0-.07,.02-.09,.03s-.06,.02-.09,.03c-.03,0-.05,.01-.08,.03l-.16,.05s-.04,.01-.07,.02c-.03,0-.07,.02-.11,.03-.03,0-.05,.01-.07,.02-.04,.01-.08,.02-.12,.03-.05,0-.09,.02-.14,.03,.33,.12,.68,.18,1.05,.18,6.94,0,13.94-12.44,25.53-33.13h-4.55Z"/></clipPath><clipPath id="clippath-24"><polygon class="cls-1" points="65.6 33.82 92.18 33.82 92.18 66.95 65.6 66.95 65.6 33.82 65.6 33.82"/></clipPath><clipPath id="clippath-25"><rect class="cls-1" x="65.6" y="33.82" width="26.57" height="33.13"/></clipPath><linearGradient id="linear-gradient-6" x1="217.7" y1="-177.57" x2="217.7" y2="-224.18" gradientTransform="translate(-72.33 188.54) scale(.69)" gradientUnits="userSpaceOnUse"><stop offset="0" stop-color="#136ab4"/><stop offset=".32" stop-color="#59caf5"/><stop offset=".6" stop-color="#59caf5"/><stop offset="1" stop-color="#59caf5"/></linearGradient><mask id="mask-4" x="85.45" y="248.65" width="70.58" height="60.33" maskUnits="userSpaceOnUse"/><clipPath id="clippath-26"><rect class="cls-1" x="6.83" y="34.55" width="24.18" height="33.29"/></clipPath><clipPath id="clippath-27"><polygon class="cls-1" points="6.83 67.84 31 67.84 31 34.55 6.82 34.55 6.82 67.84 6.83 67.84"/></clipPath><clipPath id="clippath-28"><path class="cls-1" d="M11.98,59.99c7.13-13.74,10.51-22.43,16.47-24.79-6.15,2.41-13.07,11.48-16.47,24.79"/></clipPath><clipPath id="clippath-29"><rect class="cls-1" x="11.97" y="35.22" width="16.47" height="24.79"/></clipPath><clipPath id="clippath-30"><polygon class="cls-1" points="11.97 60 11.97 35.22 28.44 35.22 28.44 60 11.97 60 11.97 60"/></clipPath><linearGradient id="linear-gradient-7" x1="133.22" y1="-176.36" x2="133.22" y2="-224.08" gradientTransform="translate(-72.33 188.54) scale(.69)" gradientUnits="userSpaceOnUse"><stop offset="0" stop-color="#318ed5"/><stop offset=".68" stop-color="#38a7e4"/><stop offset="1" stop-color="#38a7e4"/></linearGradient><mask id="mask-5" x="68.88" y="214.45" width="106.01" height="107.38" maskUnits="userSpaceOnUse"/><clipPath id="clippath-31"><rect class="cls-1" x="14.66" y="48.62" width="15.31" height="19.2"/></clipPath><clipPath id="clippath-32"><rect class="cls-1" x="14.66" y="48.65" width="15.31" height="19.18"/></clipPath><clipPath id="clippath-33"><path class="cls-1" d="M15.22,67.78l-.13,.02s-.02,0-.03,0h-.11s-.01,.01-.02,.01l-.26,.02h-.03c7.22-.2,10.51-3.81,12.15-9.05l3.16-10.13c-3.02,4.25-6.06,9.32-9.11,15-1.47,2.74-3.71,3.89-5.63,4.13"/></clipPath><clipPath id="clippath-34"><rect class="cls-1" x="14.66" y="48.62" width="15.31" height="19.18"/></clipPath><clipPath id="clippath-35"><rect class="cls-1" x="14.66" y="48.62" width="15.31" height="19.18"/></clipPath><linearGradient id="linear-gradient-8" x1="136.25" y1="-176.24" x2="136.25" y2="-222.62" gradientTransform="translate(-72.33 188.54) scale(.69)" gradientUnits="userSpaceOnUse"><stop offset="0" stop-color="#05a1e6"/><stop offset="1" stop-color="#05a1e6"/></linearGradient><clipPath id="clippath-36"><path class="cls-1" d="M15.22,67.78h0c1.92-.24,4.15-1.38,5.63-4.12,3.05-5.68,6.09-10.75,9.11-15,1.1-3.45,2.01-6.09,2.9-8.1-6.02,5.73-12.06,15.25-17.63,27.22"/></clipPath><clipPath id="clippath-37"><rect class="cls-1" x="15.26" y="40.57" width="17.63" height="27.22"/></clipPath><clipPath id="clippath-38"><polygon class="cls-1" points="15.26 67.8 15.26 40.58 32.89 40.58 32.89 67.8 15.26 67.8 15.26 67.8"/></clipPath><linearGradient id="linear-gradient-9" x1="138.79" y1="-173.82" x2="138.79" y2="-213" gradientTransform="translate(-72.33 188.54) scale(.69)" gradientUnits="userSpaceOnUse"><stop offset="0" stop-color="#1959a6"/><stop offset=".15" stop-color="#1959a6"/><stop offset=".48" stop-color="#05a1e6"/><stop offset=".5" stop-color="#05a1e6"/><stop offset=".92" stop-color="#7ec5ea"/><stop offset="1" stop-color="#7ec5ea"/></linearGradient><clipPath id="clippath-39"><path class="cls-1" d="M30.76,34.61s-.04,0-.06,0h-.1s-.06,.02-.06,.02l-.11,.02h-.05s-.23,.05-.23,.05h-.03s-.11,.03-.11,.03l-.06,.02-.11,.02s-.03,0-.05,.01l-.38,.1s-.03,0-.04,.01c-.04,0-.08,.02-.12,.03l-.05,.02s-.08,.02-.11,.03c-.01,0-.03,0-.04,0l-.26,.09-.13,.05-.05,.02-.11,.04s-.03,.01-.04,.02c-5.96,2.35-9.34,11.05-16.47,24.79-.66,2.58-1.16,5.2-1.5,7.85h3.97s.23-.01,.23-.01c.09,0,.17,0,.26-.02,0,0,.01,0,.02,0,.04,0,.07,0,.11-.01,0,0,.02,0,.03,0,.04,0,.08,0,.13-.02h0c5.57-11.97,11.62-21.5,17.63-27.23,.66-1.5,1.31-2.64,2.03-3.51-.42-.71-.88-1.3-1.39-1.73,0,0-.01,0-.02,0-.03-.01-.06-.03-.08-.04-.03-.02-.06-.03-.08-.04-.03-.01-.06-.02-.08-.04-.04-.01-.06-.03-.1-.04-.03,0-.05-.02-.07-.03-.05-.02-.11-.04-.16-.07-.02,0-.05-.02-.07-.03-.04-.01-.08-.03-.12-.05-.02,0-.04-.01-.06-.02l-.16-.06s-.01,0-.01,0c-.06-.02-.13-.04-.19-.05-.01,0-.03,0-.04-.01-.06-.01-.11-.03-.16-.04-.01,0-.03,0-.04,0-.13-.03-.26-.06-.4-.09-.01,0-.03,0-.04,0-.06,0-.11-.02-.17-.03-.01,0-.02,0-.03,0l-.2-.03s-.02,0-.04,0c-.05,0-.11-.01-.16-.02l-.25,.02"/></clipPath><clipPath id="clippath-40"><polygon class="cls-1" points="11.16 72.01 4.74 35.59 34.09 30.42 40.51 66.84 11.16 72.01 11.16 72.01"/></clipPath><clipPath id="clippath-41"><polygon class="cls-1" points="11.16 72.01 4.74 35.59 34.09 30.42 40.51 66.84 11.16 72.01 11.16 72.01"/></clipPath><linearGradient id="linear-gradient-10" x1="140.46" y1="-176.4" x2="132.96" y2="-218.9" gradientTransform="translate(-72.33 188.54) scale(.69)" gradientUnits="userSpaceOnUse"><stop offset="0" stop-color="#165096"/><stop offset=".1" stop-color="#165096"/><stop offset="1" stop-color="#0d82ca"/></linearGradient><clipPath id="clippath-42"><path class="cls-1" d="M71.33,42.76l-3.45,11c3.76-5.18,7.47-11.69,11-19.22-4.12,1.29-6.31,4.25-7.55,8.21"/></clipPath><clipPath id="clippath-43"><polygon class="cls-1" points="67.88 34.55 78.89 34.55 78.89 53.77 67.88 53.77 67.88 34.55 67.88 34.55"/></clipPath><clipPath id="clippath-44"><rect class="cls-1" x="67.88" y="34.55" width="11" height="19.21"/></clipPath><linearGradient id="linear-gradient-11" x1="209.77" y1="-200.37" x2="209.77" y2="-222.58" gradientTransform="translate(-72.33 188.54) scale(.69)" gradientUnits="userSpaceOnUse"><stop offset="0" stop-color="#05a1e6"/><stop offset=".65" stop-color="#05a1e6"/><stop offset=".87" stop-color="#0495d6"/><stop offset="1" stop-color="#0495d6"/></linearGradient><mask id="mask-6" x="178.57" y="283.28" width="70.58" height="25.84" maskUnits="userSpaceOnUse"/><clipPath id="clippath-45"><polygon class="cls-1" points="61.88 30.37 93.17 30.37 93.17 69.63 61.88 69.63 61.88 30.37 61.88 30.37"/></clipPath><clipPath id="clippath-46"><rect class="cls-1" x="67.42" y="33.84" width="20.23" height="32.34"/></clipPath><clipPath id="clippath-47"><path class="cls-1" d="M68,65.9l-.57,.27c7.32-3.27,16.06-16.22,20.24-32.34h-.85c-9.61,17.16-12.7,28.65-18.81,32.07"/></clipPath><clipPath id="clippath-48"><rect class="cls-1" x="59.84" y="37.22" width="35.36" height="25.54" transform="translate(14.83 117.66) rotate(-80)"/></clipPath><clipPath id="clippath-49"><rect class="cls-1" x="59.84" y="37.22" width="35.36" height="25.54" transform="translate(14.83 117.66) rotate(-80)"/></clipPath><linearGradient id="linear-gradient-12" x1="220.18" y1="-224.66" x2="211.15" y2="-173.44" gradientTransform="translate(-72.33 188.54) scale(.69)" gradientUnits="userSpaceOnUse"><stop offset="0" stop-color="#38a7e4"/><stop offset=".36" stop-color="#38a7e4"/><stop offset=".96" stop-color="#0e88d3"/><stop offset="1" stop-color="#0e88d3"/></linearGradient><clipPath id="clippath-50"><path class="cls-1" d="M84.12,33.84h-3.56c-.12,0-.24,0-.35,0h-.34s-.68,.04-.68,.04l-.32,.67c-3.53,7.51-7.24,14.03-11,19.22-1.77,5.45-3.07,8.75-4.66,10.7,.68,1.16,1.47,1.98,2.41,2.32,.03,0,.05-.01,.07-.02,0,0,.01,0,.02,0,.02,0,.03,0,.05-.01,.04,0,.08-.02,.12-.03l.07-.02,.11-.03s.04-.01,.07-.02c.06-.02,.11-.03,.16-.05,.02-.01,.05-.02,.08-.03,.03-.01,.06-.02,.09-.03,.03,0,.06-.02,.09-.03,.03,0,.05-.02,.07-.03,.06-.02,.12-.04,.18-.06,.02,0,.03-.01,.05-.02,.04-.02,.08-.03,.11-.04,.01,0,.03-.01,.05-.02l.4-.17s0,0,.01,0c.19-.09,.38-.18,.57-.27,6.12-3.42,9.21-14.91,18.82-32.07h-2.69Z"/></clipPath><clipPath id="clippath-51"><rect class="cls-1" x="63.19" y="33.83" width="23.6" height="32.95"/></clipPath><clipPath id="clippath-52"><rect class="cls-1" x="63.19" y="33.83" width="23.6" height="32.95"/></clipPath><linearGradient id="linear-gradient-13" x1="212.09" y1="-222.85" x2="212.09" y2="-174.4" gradientTransform="translate(-72.33 188.54) scale(.69)" gradientUnits="userSpaceOnUse"><stop offset="0" stop-color="#168cd4"/><stop offset=".5" stop-color="#1c87cc"/><stop offset="1" stop-color="#154b8d"/></linearGradient><mask id="mask-7" x="129.75" y="297.19" width="31.05" height="8.62" maskUnits="userSpaceOnUse"/><clipPath id="clippath-53"><rect class="cls-1" x="29.75" y="30.7" width="16.03" height="9.7"/></clipPath><clipPath id="clippath-54"><rect class="cls-1" x="30.27" y="34.55" width="14.58" height="3.13"/></clipPath><clipPath id="clippath-55"><path class="cls-1" d="M31,34.59l.58-.02c1.66,0,3.1,.51,4.37,1.41,1.34-1.06,2.96-1.43,5.21-1.43h-10.88c.25,0,.49,.01,.74,.04"/></clipPath><clipPath id="clippath-56"><polygon class="cls-1" points="31.86 30.7 41.67 34.77 39.56 39.84 29.76 35.77 31.86 30.7 31.86 30.7"/></clipPath><clipPath id="clippath-57"><rect class="cls-1" x="32.96" y="29.96" width="5.49" height="10.61" transform="translate(-10.55 54.74) rotate(-67.47)"/></clipPath><linearGradient id="linear-gradient-14" x1="149.95" y1="-222.96" x2="161.11" y2="-218.33" gradientTransform="translate(-72.33 188.54) scale(.69)" gradientUnits="userSpaceOnUse"><stop offset="0" stop-color="#97d6ee"/><stop offset=".7" stop-color="#55c1ea"/><stop offset="1" stop-color="#55c1ea"/></linearGradient><clipPath id="clippath-58"><path class="cls-1" d="M41.17,34.55c-2.25,0-3.87,.37-5.21,1.43,.46,.33,.89,.69,1.28,1.09,1.87-1.19,3.71-1.97,5.54-2.31,.7-.13,1.39-.2,2.07-.2h-3.68Z"/></clipPath><clipPath id="clippath-59"><polygon class="cls-1" points="35.01 34.97 43.33 31.2 45.79 36.63 37.47 40.4 35.01 34.97 35.01 34.97"/></clipPath><clipPath id="clippath-60"><rect class="cls-1" x="35.83" y="32.82" width="9.13" height="5.96" transform="translate(-11.18 19.87) rotate(-24.38)"/></clipPath><linearGradient id="linear-gradient-15" x1="157.12" y1="-217.53" x2="165.94" y2="-221.52" gradientTransform="translate(-72.33 188.54) scale(.69)" gradientUnits="userSpaceOnUse"><stop offset="0" stop-color="#7accec"/><stop offset=".34" stop-color="#7accec"/><stop offset=".84" stop-color="#3fb7ed"/><stop offset="1" stop-color="#3fb7ed"/></linearGradient><mask id="mask-8" x="162.75" y="261.66" width="70.58" height="39.58" maskUnits="userSpaceOnUse"/><clipPath id="clippath-61"><polygon class="cls-1" points="61.72 33.87 79.22 33.87 79.22 60.95 61.72 60.95 61.72 33.87 61.72 33.87"/></clipPath><clipPath id="clippath-62"><rect class="cls-1" x="61.73" y="33.88" width="17.47" height="27.07"/></clipPath><clipPath id="clippath-63"><path class="cls-1" d="M67.88,53.77l3.45-11c1.24-3.95,3.43-6.92,7.55-8.21l.32-.67c-6.71,.4-9.85,3.82-11.43,8.87-2.77,8.83-4.43,14.55-6.04,18.2,2.06-1.97,4.11-4.38,6.16-7.18"/></clipPath><clipPath id="clippath-64"><polygon class="cls-1" points="79.22 60.94 61.74 60.94 61.74 33.87 79.22 33.87 79.22 60.94 79.22 60.94"/></clipPath><clipPath id="clippath-65"><rect class="cls-1" x="61.74" y="33.87" width="17.47" height="27.07"/></clipPath><linearGradient id="linear-gradient-16" x1="205.59" y1="-220.18" x2="205.59" y2="-172.79" gradientTransform="translate(-72.33 188.54) scale(.69)" gradientUnits="userSpaceOnUse"><stop offset="0" stop-color="#1da7e7"/><stop offset="1" stop-color="#37abe7"/></linearGradient></defs><g><g class="cls-3"><g class="cls-20"><g class="cls-23"><path class="cls-2" d="M51.82,66.97h-15.31v-27.31h15.31v27.31Z"/></g></g></g><g class="cls-22"><g class="cls-21"><g class="cls-27"><path class="cls-89" d="M53.76,66.79h-16.07v-28.01h16.07v28.01Z"/></g></g></g></g><path class="cls-12" d="M44.84,34.55c-.68,0-1.38,.07-2.07,.19-1.82,.34-3.67,1.13-5.54,2.31,.51,.5,.99,1.08,1.45,1.71,1.9-1.58,3.78-2.74,5.66-3.43,.7-.26,1.41-.46,2.11-.59-.53-.13-1.07-.2-1.61-.2"/><g class="cls-4"><g class="cls-26"><g class="cls-24"><g class="cls-25"><g class="cls-28"><g class="cls-78"><path class="cls-87" d="M46.44,34.59h15.26v28.37h-15.26v-28.37Z"/></g></g></g></g></g></g><g class="cls-104"><g class="cls-83"><g class="cls-77"><path class="cls-18" d="M46.45,34.75c-.53-.13-1.07-.2-1.61-.2h3.56c-.65,.01-1.3,.07-1.95,.2"/></g></g></g><path class="cls-15" d="M59.3,64.93c-.36-.35-.7-.72-1.02-1.1-1.52,1.08-3.04,1.9-4.55,2.43,.54,.26,1.1,.46,1.7,.57,.46,.09,.94,.14,1.45,.14,1.69,0,3.03-.2,4.17-.75-.63-.34-1.2-.78-1.74-1.3"/><g><g class="cls-76"><g class="cls-75"><g class="cls-79"><path class="cls-88" d="M59.5,63.85h-15.12v-29.08h15.11v29.08h0Z"/></g></g></g><g class="cls-81"><g class="cls-80"><g class="cls-84"><path class="cls-92" d="M58.28,66.26h-19.59v-30.91h19.59v30.91Z"/></g></g></g></g><g class="cls-101"><g class="cls-82"><g class="cls-30"><path class="cls-17" d="M32.85,40.55c-.89,2.01-1.8,4.65-2.9,8.1,2.18-3.07,4.36-5.72,6.52-7.87-.3-.92-.62-1.76-.96-2.51-.89,.68-1.78,1.44-2.66,2.29"/></g></g></g><path class="cls-16" d="M36.31,37.69l-.79,.57c.34,.75,.66,1.6,.96,2.51l1.17-1.11c-.42-.72-.85-1.39-1.35-1.98"/><path class="cls-9" d="M37.24,37.07l-.93,.62c.5,.62,.95,1.29,1.35,1.98l1.04-.9c-.44-.61-.92-1.18-1.45-1.71"/><g class="cls-100"><g class="cls-31"><g class="cls-34"><g class="cls-33"><g class="cls-32"><g class="cls-35"><path class="cls-90" d="M65.6,33.82h26.57v33.13h-26.57V33.82h0Z"/></g></g></g></g></g></g><g class="cls-103"><g class="cls-48"><g class="cls-46"><path class="cls-11" d="M28.45,35.21s0,0,.01,0h.02s.12-.05,.12-.05c0,0,.01,0,.02,0,0,0,.02,0,.03-.01l.12-.04,.27-.1s.03,0,.04,0l.11-.03s.04,0,.05-.02l.12-.03s.03,0,.04-.01l.43-.11,.11-.02,.05-.02,.11-.02s.02,0,.03,0l.23-.04s.03,0,.05,0l.11-.02h.07s.1-.02,.1-.02h.06s.25-.03,.25-.03l-.74-.04c-7.82,0-18.59,14.5-23.44,33.29h.93c1.56-2.77,2.95-5.39,4.22-7.85,3.4-13.31,10.32-22.38,16.47-24.79"/></g></g></g><g><path class="cls-13" d="M32.85,40.55c.89-.85,1.78-1.61,2.66-2.28l-.64-1.23c-.72,.87-1.37,2.01-2.03,3.51"/><path class="cls-13" d="M33.5,35.32c.51,.43,.97,1.02,1.39,1.72,.13-.16,.26-.31,.4-.45-.56-.53-1.2-.98-1.89-1.32l.09,.04"/></g><g class="cls-47"><g class="cls-49"><g class="cls-57"><path class="cls-91" d="M11.97,35.22H28.44v24.79H11.97v-24.79Z"/></g></g></g><path class="cls-6" d="M35.29,36.59l-.4,.45c.23,.4,.45,.81,.64,1.22l.79-.57c-.32-.4-.66-.77-1.02-1.1"/><g><g class="cls-102"><g class="cls-59"><g class="cls-56"><g class="cls-55"><g class="cls-50"><g class="cls-51"><path class="cls-85" d="M14.66,48.62h15.31v19.18H14.66v-19.18Z"/></g></g></g></g></g></g><g class="cls-52"><g class="cls-53"><g class="cls-58"><path class="cls-86" d="M15.26,40.57h17.63v27.22H15.26v-27.22Z"/></g></g></g></g><path class="cls-11" d="M11.98,59.99l-4.23,7.85h2.72c.34-2.64,.85-5.26,1.5-7.85"/><g><g class="cls-54"><g class="cls-38"><g class="cls-40"><path class="cls-98" d="M11.16,72.01L4.74,35.59l29.35-5.18,6.42,36.42-29.35,5.18h0Z"/></g></g></g><g class="cls-39"><g class="cls-42"><g class="cls-36"><path class="cls-99" d="M67.88,34.55h11v19.21h-11v-19.21h0Z"/></g></g></g><g class="cls-106"><g class="cls-37"><g class="cls-43"><g class="cls-41"><g class="cls-44"><g class="cls-45"><path class="cls-97" d="M93.17,34.8l-6.14,34.83-25.16-4.44,6.14-34.83,25.16,4.44Z"/></g></g></g></g></g></g></g><path class="cls-10" d="M63.22,64.46c1.59-1.95,2.89-5.25,4.66-10.7-2.04,2.81-4.1,5.22-6.17,7.19,.44,1.36,.94,2.55,1.5,3.51"/><path class="cls-15" d="M63.22,64.46c-.54,.66-1.11,1.17-1.76,1.54l-.43,.23c.69,.37,1.45,.61,2.23,.7h0l.36,.03h.2s.02,0,.02,0h.19s.19,0,.19,0c.02,0,.04,0,.06,0h.14s.04,0,.07-.01h.13s.06-.02,.06-.02l.14-.02h.06s.15-.03,.15-.03c.02,0,.03,0,.05,0l.17-.03h0l.36-.08c-.94-.35-1.73-1.16-2.42-2.32"/><path class="cls-7" d="M49.72,66.97c.7,0,1.39-.07,2.07-.2,.64-.12,1.29-.3,1.93-.52,.54,.26,1.1,.46,1.7,.57,.46,.09,.94,.14,1.45,.14h-7.15Zm7.15,0c1.69,0,3.03-.19,4.17-.75,.69,.38,1.45,.61,2.23,.7h0l.36,.03h.2s.02,0,.02,0h.19s-7.18,0-7.18,0h0Z"/><path class="cls-8" d="M64.05,66.97h.19s.04,0,.06,0h.14s.04,0,.07-.01h.13s.07-.02,.07-.02l.14-.02h.06s.15-.03,.15-.03c.02,0,.03,0,.05,0l.17-.03h0l.36-.08c.34,.12,.69,.19,1.05,.18h-2.64s0,0,0,0Z"/><path class="cls-14" d="M61.72,60.97l-2.26,1.97-1.18,.89c.32,.39,.66,.76,1.02,1.1,.54,.52,1.11,.96,1.74,1.3l.43-.23c.64-.37,1.21-.88,1.76-1.54-.57-.95-1.04-2.15-1.5-3.49"/><g><g class="cls-62"><g class="cls-63"><g class="cls-64"><path class="cls-96" d="M86.79,66.78h-23.6V33.83h23.6v32.95Z"/></g></g></g><g class="cls-105"><g class="cls-60"><g class="cls-61"><g><path class="cls-5" d="M31,34.59h.04s.07,0,.11,.02c.01,0,.03,0,.04,0l.2,.03s.02,0,.03,0l.17,.03s.03,0,.04,0l.4,.09h.04s.16,.05,.16,.05c.02,0,.03,0,.04,.01l.19,.05s0,0,.01,0l.16,.06,.06,.02,.12,.05s.04,.01,.07,.02l.16,.07,.08,.03,.1,.04s.06,.03,.08,.04l.08,.04c.68,.33,1.31,.78,1.89,1.32,.21-.23,.44-.43,.67-.61-1.27-.9-2.7-1.41-4.37-1.41-.19,0-.39,0-.58,.02"/><path class="cls-19" d="M35.29,36.59c.36,.34,.71,.71,1.02,1.1l.93-.62c-.4-.4-.82-.76-1.28-1.09-.24,.19-.46,.39-.67,.61"/><g class="cls-65"><g class="cls-66"><g class="cls-67"><path class="cls-93" d="M31.86,30.7l9.8,4.07-2.1,5.07-9.8-4.07,2.11-5.08h0Z"/></g></g></g><g class="cls-68"><g class="cls-72"><g class="cls-29"><path class="cls-94" d="M35.01,34.97l8.32-3.77,2.46,5.43-8.32,3.77-2.46-5.43h0Z"/></g></g></g></g></g></g></g><g class="cls-107"><g class="cls-69"><g class="cls-71"><g class="cls-74"><g class="cls-70"><g class="cls-73"><path class="cls-95" d="M79.22,60.94h-17.47v-27.07h17.47v27.07h0Z"/></g></g></g></g></g></g></g></svg>