<?xml version="1.0" encoding="UTF-8"?><svg id="Layer_1" xmlns="http://www.w3.org/2000/svg" viewBox="0 0 100 100"><defs><style>.cls-1{fill:#282828;}</style></defs><g><path class="cls-1" d="M28.29,68.29c-10.08,0-18.29-8.2-18.29-18.29s8.2-18.28,18.29-18.28,18.29,8.2,18.29,18.28-8.2,18.29-18.29,18.29Zm0-34.48c-8.93,0-16.2,7.27-16.2,16.2s7.27,16.2,16.2,16.2,16.2-7.27,16.2-16.2-7.27-16.2-16.2-16.2Z"/><path class="cls-1" d="M28.29,68.29c-5.36,0-9.56-8.03-9.56-18.29s4.2-18.28,9.56-18.28,9.56,8.03,9.56,18.28-4.2,18.29-9.56,18.29Zm0-34.48c-4.05,0-7.47,7.42-7.47,16.2s3.42,16.2,7.47,16.2,7.47-7.42,7.47-16.2-3.42-16.2-7.47-16.2Z"/><g><path class="cls-1" d="M39.72,63.38c-3.56-1.83-7.41-2.76-11.44-2.76s-7.88,.93-11.44,2.75l-.95-1.86c3.86-1.98,8.03-2.99,12.39-2.99s8.53,1,12.39,2.99l-.95,1.86Z"/><path class="cls-1" d="M28.29,41.46c-4.37,0-8.54-1.01-12.39-2.99l.95-1.86c3.56,1.83,7.41,2.76,11.44,2.76s7.88-.93,11.44-2.76l.95,1.86c-3.86,1.98-8.03,2.99-12.39,2.99Z"/></g><rect class="cls-1" x="11.04" y="48.96" width="34.48" height="2.09"/><rect class="cls-1" x="27.24" y="32.76" width="2.09" height="34.48"/></g><g><path class="cls-1" d="M54.67,56.19l-3.92-13.39h2.66l2.51,9.21,2.51-9.19,2.66-.02,2.51,9.21,2.51-9.21h2.66l-3.92,13.39h-2.49l-2.59-9.04-2.59,9.04h-2.49Z"/><path class="cls-1" d="M73.8,56.47c-1.03,0-1.94-.22-2.72-.66s-1.4-1.05-1.84-1.83c-.44-.78-.66-1.67-.66-2.67,0-1.1,.22-2.05,.65-2.86s1.03-1.44,1.79-1.89c.76-.45,1.64-.67,2.63-.67,1.05,0,1.95,.25,2.69,.74,.74,.5,1.28,1.19,1.64,2.09,.35,.9,.48,1.96,.37,3.17h-2.5v-.93c0-1.02-.16-1.76-.49-2.21-.33-.45-.86-.67-1.59-.67-.86,0-1.5,.26-1.9,.79-.41,.52-.61,1.3-.61,2.32,0,.94,.2,1.66,.61,2.17,.41,.51,1,.77,1.79,.77,.5,0,.92-.11,1.27-.33,.35-.22,.62-.53,.81-.94l2.53,.73c-.38,.92-.97,1.63-1.79,2.14-.82,.51-1.71,.76-2.67,.76Zm-3.33-4.59v-1.88h6.66v1.88h-6.66Z"/><path class="cls-1" d="M80.42,56.19v-13.39h2.55v6.51h-.32v6.88h-2.23Zm4.95,.28c-1,0-1.83-.23-2.5-.7-.67-.46-1.17-1.1-1.51-1.9-.34-.8-.51-1.7-.51-2.71s.17-1.91,.5-2.71,.83-1.43,1.48-1.9c.65-.46,1.45-.7,2.41-.7s1.8,.23,2.51,.69c.71,.46,1.27,1.09,1.66,1.88,.39,.8,.59,1.71,.59,2.73s-.19,1.91-.58,2.71c-.39,.8-.93,1.43-1.62,1.9s-1.5,.7-2.43,.7Zm-.41-2.25c.55,0,.99-.14,1.34-.41,.35-.27,.6-.64,.77-1.1,.17-.46,.25-.97,.25-1.54s-.09-1.07-.26-1.53c-.17-.46-.44-.83-.8-1.11-.36-.28-.83-.41-1.39-.41-.53,0-.95,.13-1.28,.38-.33,.25-.56,.61-.71,1.07s-.22,.99-.22,1.6,.07,1.14,.22,1.6c.15,.46,.39,.82,.73,1.07,.34,.25,.79,.38,1.35,.38Z"/></g></svg>