<svg version="1.1" xmlns="http://www.w3.org/2000/svg" viewBox="0 0 1988.0417175292969 587.9154481617268" width="3976.0834350585938" height="1175.8308963234535">
  <!-- svg-source:excalidraw -->
  
  <defs>
    <style class="style-fonts">
      @font-face {
        font-family: "Virgil";
        src: url("https://excalidraw.com/Virgil.woff2");
      }
      @font-face {
        font-family: "Cascadia";
        src: url("https://excalidraw.com/Cascadia.woff2");
      }
    </style>
  </defs>
  <rect x="0" y="0" width="1988.0417175292969" height="587.9154481617268" fill="#ffffff"></rect><g stroke-linecap="round"><g transform="translate(84.07917244659882 73.2758489973931) rotate(0 44.2737673060675 47.93783397594939)" fill-rule="evenodd"><path d="M1.4 -1.16 L1.4 95.59 L-0.54 97.95 L21.19 101.9 L48.44 103.73 L73.52 102.58 L82.4 102.35 L89.56 98.56 L87.68 -0.22 L88.38 -1.59 L83.55 -4.71 L75.67 -5.4 L41.31 -11.05 L12.07 -4.61 L4.12 -3.22 L0.63 1.44" stroke="none" stroke-width="0" fill="#228be6" fill-rule="evenodd"></path><path d="M0.86 0.83 C1.13 15.21, 0.5 69.97, 0.54 85.92 C0.58 101.88, 0.37 94.19, 1.09 96.55 C1.82 98.91, 1.73 98.98, 4.91 100.08 C8.09 101.17, 13.01 102.51, 20.18 103.11 C27.35 103.7, 39.3 103.84, 47.94 103.63 C56.59 103.42, 65.65 102.46, 72.04 101.84 C78.43 101.21, 83.78 101.11, 86.28 99.88 C88.79 98.66, 86.7 96.47, 87.07 94.47 C87.45 92.48, 88.56 102.45, 88.53 87.9 C88.49 73.36, 87.09 22.02, 86.87 7.2 C86.65 -7.61, 87.97 0.81, 87.2 -1 C86.43 -2.8, 85.01 -2.67, 82.24 -3.62 C79.47 -4.57, 77.24 -5.96, 70.57 -6.7 C63.89 -7.44, 50.52 -7.96, 42.19 -8.07 C33.86 -8.19, 26.93 -8.11, 20.59 -7.38 C14.26 -6.65, 7.76 -4.95, 4.21 -3.7 C0.65 -2.45, 0.1 -0.71, -0.71 0.1 C-1.52 0.91, -0.58 1.06, -0.66 1.17 M-0.15 0.22 C0.08 14.83, -0.45 71.67, -0.28 87.39 C-0.1 103.12, -0.04 92.28, 0.89 94.57 C1.83 96.87, 2.39 99.74, 5.35 101.17 C8.31 102.61, 11.83 102.46, 18.64 103.2 C25.45 103.95, 37.23 105.59, 46.2 105.64 C55.17 105.7, 65.93 104.46, 72.47 103.54 C79 102.62, 82.72 101.34, 85.41 100.14 C88.1 98.95, 87.95 98.45, 88.63 96.39 C89.31 94.33, 89.82 102.49, 89.48 87.79 C89.15 73.08, 86.64 23.1, 86.61 8.18 C86.58 -6.75, 89.96 0.26, 89.3 -1.76 C88.65 -3.78, 85.87 -3.12, 82.69 -3.95 C79.51 -4.77, 76.95 -6.03, 70.21 -6.72 C63.48 -7.42, 50.37 -7.63, 42.25 -8.1 C34.12 -8.57, 27.97 -10.4, 21.46 -9.54 C14.95 -8.69, 6.53 -4.64, 3.18 -2.96 C-0.18 -1.28, 1.64 0.32, 1.32 0.55 C1 0.77, 1.71 -1.42, 1.26 -1.62" stroke="#0a11d3" stroke-width="1" fill="none"></path></g></g><mask></mask><g stroke-linecap="round"><g transform="translate(84.76653403609623 138.56597702818067) rotate(0 44.30202042198886 3.818847953767147)"><path d="M0.25 -0.13 C0.68 0.5, 1.33 3.39, 3.41 4.6 C5.49 5.82, 9.03 6.51, 12.73 7.17 C16.42 7.84, 19.76 8.44, 25.57 8.61 C31.38 8.78, 40.08 8.48, 47.59 8.2 C55.1 7.91, 64.29 7.51, 70.62 6.92 C76.95 6.33, 82.77 5.97, 85.58 4.63 C88.39 3.29, 86.97 -0.39, 87.48 -1.13 M-1.08 -1.24 C-0.79 -1.03, 0.82 1.23, 3.03 2.85 C5.23 4.47, 8.36 7.39, 12.15 8.49 C15.94 9.58, 20 9.5, 25.75 9.42 C31.49 9.33, 38.94 8.06, 46.62 7.98 C54.3 7.9, 65.19 9.61, 71.81 8.93 C78.44 8.25, 83.4 5.68, 86.38 3.89 C89.35 2.1, 89.55 -1.03, 89.68 -1.82" stroke="#0a11d3" stroke-width="1" fill="none"></path></g></g><mask></mask><g stroke-linecap="round"><g transform="translate(83.67279252403478 105.49182246610889) rotate(0 44.42712948127331 4.7518842125391245)"><path d="M1.08 0.7 C1.49 1.37, 0.84 2.91, 2.69 3.9 C4.55 4.89, 8.23 5.94, 12.22 6.62 C16.22 7.31, 21.01 7.75, 26.67 8.01 C32.34 8.27, 38.77 7.98, 46.21 8.18 C53.65 8.39, 64.95 10.12, 71.33 9.23 C77.7 8.33, 81.57 4.32, 84.46 2.81 C87.35 1.3, 88.21 0.74, 88.67 0.19 M0.19 0.02 C0.45 0.91, 0.07 4.16, 1.94 5.43 C3.8 6.7, 7.14 7.13, 11.39 7.65 C15.63 8.16, 21.29 8.46, 27.42 8.51 C33.56 8.57, 41.21 7.92, 48.18 7.96 C55.15 8.01, 63.15 9.32, 69.23 8.79 C75.31 8.26, 81.57 6.2, 84.67 4.77 C87.77 3.34, 87.17 1.29, 87.83 0.19" stroke="#0a11d3" stroke-width="1" fill="none"></path></g></g><mask></mask><g stroke-linecap="round" transform="translate(82.55196983787312 65.25115277029641) rotate(0 43.825373054270926 8.863351988406833)"><path d="M29.49 0.71 C37.88 -0.04, 50.21 0.13, 59.04 0.85 C67.88 1.56, 77.96 3.35, 82.5 4.99 C87.04 6.64, 88.1 8.87, 86.27 10.72 C84.44 12.58, 78.64 14.77, 71.51 16.1 C64.38 17.44, 52.65 18.64, 43.5 18.72 C34.35 18.8, 23.79 17.99, 16.61 16.6 C9.43 15.22, 2.22 12.38, 0.41 10.4 C-1.41 8.42, 0.04 6.39, 5.71 4.72 C11.39 3.05, 28.97 1.15, 34.47 0.37 C39.97 -0.4, 38.54 0.05, 38.71 0.06 M34.6 0.7 C43.27 0.16, 56.02 1.21, 64.3 2.11 C72.57 3, 80.66 4.68, 84.26 6.07 C87.87 7.45, 88.83 8.91, 85.92 10.41 C83 11.92, 74.52 13.85, 66.77 15.09 C59.03 16.33, 48.52 17.75, 39.46 17.87 C30.4 17.99, 18.81 17.3, 12.43 15.8 C6.05 14.3, 1.58 11.03, 1.18 8.86 C0.78 6.68, 4.37 4.39, 10.03 2.76 C15.69 1.14, 31.24 -0.43, 35.15 -0.89 C39.05 -1.36, 33.44 -0.18, 33.46 -0.06" stroke="none" stroke-width="0" fill="#fff"></path><path d="M40.36 -0.33 C49.15 -0.64, 61.22 0.92, 69.06 2 C76.91 3.08, 85.21 4.28, 87.43 6.14 C89.66 8, 86.7 11.49, 82.4 13.15 C78.11 14.81, 70.21 15.43, 61.68 16.1 C53.14 16.76, 40.37 17.45, 31.2 17.12 C22.02 16.78, 11.66 15.53, 6.64 14.07 C1.62 12.62, -0.14 10.4, 1.09 8.39 C2.33 6.37, 6.08 3.41, 14.05 1.98 C22.02 0.54, 42.12 -0.03, 48.94 -0.23 C55.75 -0.42, 55.16 0.71, 54.94 0.81 M45.08 0.99 C54.33 0.6, 67.84 0.42, 75.1 1.57 C82.35 2.72, 87.96 5.9, 88.61 7.88 C89.25 9.86, 84.26 12.1, 78.96 13.46 C73.67 14.82, 65.45 15.59, 56.86 16.04 C48.26 16.5, 35.96 16.79, 27.38 16.19 C18.79 15.6, 9.51 13.89, 5.37 12.49 C1.22 11.09, 0.21 9.43, 2.51 7.81 C4.8 6.19, 11.86 3.93, 19.16 2.77 C26.46 1.61, 41.62 1.41, 46.29 0.83 C50.97 0.24, 47.42 -0.51, 47.19 -0.74" stroke="#0a11d3" stroke-width="1" fill="none"></path></g><g stroke-linecap="round" transform="translate(154.0617021384536 89.82695564742994) rotate(0 6.423028523489904 6.970952181208048)"><path d="M8 0.47 C9.31 0.75, 11.53 2.07, 12.22 3.25 C12.9 4.44, 12.38 6.08, 12.13 7.55 C11.87 9.03, 11.56 10.88, 10.7 12.1 C9.84 13.32, 8.09 14.58, 6.97 14.87 C5.85 15.16, 5.11 14.78, 3.96 13.82 C2.81 12.86, 0.66 10.64, 0.05 9.11 C-0.56 7.58, -0.37 5.99, 0.32 4.63 C1 3.27, 2.91 1.71, 4.16 0.94 C5.42 0.18, 7.05 0.24, 7.85 0.04 C8.65 -0.17, 9.04 -0.42, 8.96 -0.27 M9.84 1.76 C10.95 2.3, 11.91 3.64, 12.39 4.62 C12.88 5.6, 13.32 6.52, 12.76 7.65 C12.21 8.79, 10.07 10.34, 9.06 11.42 C8.05 12.5, 7.8 13.89, 6.7 14.13 C5.59 14.37, 3.37 14, 2.44 12.85 C1.51 11.69, 1.14 8.95, 1.14 7.19 C1.14 5.43, 1.63 3.61, 2.46 2.27 C3.28 0.93, 5.07 -0.5, 6.09 -0.86 C7.11 -1.22, 8 0.08, 8.58 0.13 C9.16 0.18, 9.41 -0.71, 9.56 -0.55" stroke="none" stroke-width="0" fill="#fff"></path><path d="M7.96 0.79 C9.51 1.21, 12.4 1.77, 13.1 3.11 C13.79 4.45, 12.5 7.41, 12.12 8.83 C11.74 10.25, 11.83 10.81, 10.83 11.62 C9.82 12.44, 7.63 13.56, 6.08 13.7 C4.52 13.83, 2.38 13.31, 1.5 12.42 C0.63 11.54, 0.87 10, 0.84 8.39 C0.81 6.78, 0.54 4.14, 1.3 2.75 C2.06 1.36, 3.96 0.3, 5.38 0.04 C6.8 -0.22, 9.08 1.06, 9.82 1.17 C10.57 1.28, 9.93 0.74, 9.84 0.69 M10.49 -0.06 C12.13 0.37, 13.49 2.89, 13.61 4.37 C13.72 5.84, 11.69 7.62, 11.17 8.82 C10.65 10.02, 11.24 10.85, 10.48 11.56 C9.73 12.27, 7.96 13.12, 6.62 13.08 C5.28 13.04, 3.34 12.13, 2.45 11.32 C1.56 10.51, 1.24 9.51, 1.28 8.24 C1.32 6.97, 2.12 4.93, 2.7 3.72 C3.29 2.51, 3.57 1.6, 4.81 0.96 C6.04 0.33, 9.57 0.13, 10.11 -0.12 C10.64 -0.36, 8.37 -0.84, 8.02 -0.51" stroke="#0a11d3" stroke-width="1" fill="none"></path></g><g stroke-linecap="round" transform="translate(154.0617021384536 120.4294095064904) rotate(0 6.423028523489904 6.970952181208048)"><path d="M7.7 0.59 C8.85 0.62, 9.47 1.32, 10.25 2.36 C11.02 3.39, 12.15 5.21, 12.33 6.81 C12.52 8.41, 11.91 10.65, 11.36 11.96 C10.81 13.26, 10.36 14.43, 9.05 14.65 C7.73 14.87, 4.89 14.03, 3.46 13.29 C2.02 12.55, 0.86 11.54, 0.45 10.21 C0.03 8.88, 0.6 6.83, 0.96 5.31 C1.31 3.79, 1.2 2.02, 2.59 1.09 C3.97 0.15, 8.15 -0.33, 9.29 -0.3 C10.42 -0.27, 9.41 0.96, 9.38 1.28 M7.62 0.8 C8.8 0.57, 10.68 0.59, 11.36 1.39 C12.04 2.2, 11.57 3.96, 11.7 5.65 C11.83 7.35, 12.73 10.05, 12.13 11.55 C11.54 13.05, 9.42 14.49, 8.13 14.66 C6.85 14.83, 5.48 13.55, 4.42 12.55 C3.37 11.55, 2.24 10.17, 1.8 8.67 C1.36 7.18, 1.65 4.94, 1.79 3.58 C1.94 2.23, 1.63 1.33, 2.66 0.54 C3.7 -0.26, 7.1 -1.12, 8.01 -1.19 C8.92 -1.26, 8.39 -0.33, 8.12 0.12" stroke="none" stroke-width="0" fill="#fff"></path><path d="M6.27 -0.58 C7.61 -0.91, 7.96 0.53, 9.08 1.24 C10.2 1.95, 12.44 2.37, 13 3.69 C13.56 5, 13.09 7.52, 12.44 9.13 C11.79 10.74, 10.14 12.48, 9.08 13.36 C8.02 14.24, 7.31 14.79, 6.09 14.4 C4.87 14, 2.64 12.3, 1.76 11.01 C0.89 9.73, 0.81 8.06, 0.84 6.69 C0.86 5.33, 1.11 4.04, 1.9 2.84 C2.69 1.64, 4.88 0.05, 5.56 -0.49 C6.24 -1.03, 5.79 -0.42, 5.97 -0.38 M9.69 0.37 C10.56 0.83, 9.91 1.97, 10.54 3.03 C11.16 4.08, 13.23 5.29, 13.43 6.68 C13.64 8.08, 12.78 10.25, 11.77 11.4 C10.76 12.56, 8.73 13.28, 7.38 13.63 C6.04 13.97, 4.68 14.15, 3.7 13.45 C2.71 12.74, 2 10.9, 1.47 9.4 C0.94 7.9, -0.05 6.09, 0.5 4.45 C1.04 2.81, 3.64 0.47, 4.74 -0.45 C5.85 -1.37, 6.68 -1.31, 7.1 -1.09 C7.53 -0.87, 7.26 0.78, 7.28 0.89" stroke="#0a11d3" stroke-width="1" fill="none"></path></g><g stroke-linecap="round" transform="translate(154.0617021384536 153.69021068098704) rotate(0 6.423028523489904 6.970952181208048)"><path d="M6.71 0.41 C7.81 0.52, 9.81 1.61, 10.78 2.85 C11.75 4.09, 12.25 6.27, 12.51 7.84 C12.78 9.42, 13.22 11.31, 12.37 12.3 C11.52 13.3, 8.93 13.64, 7.39 13.81 C5.86 13.99, 4.19 14.06, 3.15 13.36 C2.12 12.65, 1.66 11.08, 1.17 9.61 C0.68 8.13, -0.25 6.07, 0.2 4.53 C0.66 2.98, 2.58 1, 3.89 0.32 C5.2 -0.37, 6.98 0.21, 8.05 0.42 C9.12 0.63, 10.22 1.4, 10.31 1.59 M8.96 -0.47 C9.97 -0.33, 10.22 1.02, 10.96 2.55 C11.7 4.07, 13.43 6.85, 13.41 8.65 C13.39 10.45, 11.85 12.54, 10.82 13.33 C9.8 14.12, 8.5 13.75, 7.27 13.41 C6.05 13.08, 4.44 12.42, 3.47 11.32 C2.51 10.21, 1.99 8.2, 1.51 6.78 C1.02 5.36, -0.04 4.07, 0.55 2.78 C1.14 1.5, 3.55 -0.54, 5.06 -0.94 C6.56 -1.33, 9.11 0.03, 9.59 0.42 C10.06 0.8, 8 1.33, 7.88 1.38" stroke="none" stroke-width="0" fill="#fff"></path><path d="M6.64 0.35 C7.87 0.4, 10.62 0.3, 11.65 1.3 C12.68 2.3, 12.93 4.66, 12.82 6.36 C12.72 8.07, 11.7 10.18, 11.01 11.51 C10.32 12.84, 9.87 14.12, 8.66 14.32 C7.46 14.53, 5 13.57, 3.78 12.75 C2.56 11.94, 1.87 10.68, 1.35 9.43 C0.83 8.19, 0.41 6.77, 0.67 5.3 C0.93 3.82, 1.76 1.54, 2.91 0.58 C4.06 -0.38, 6.61 -0.25, 7.56 -0.46 C8.52 -0.68, 8.56 -1.05, 8.63 -0.73 M3.22 -0.01 C4.35 -0.73, 7.95 -1.26, 9.62 -0.75 C11.3 -0.24, 12.62 1.55, 13.26 3.05 C13.9 4.55, 13.76 6.51, 13.47 8.26 C13.18 10.02, 12.55 12.47, 11.54 13.59 C10.52 14.71, 9.03 15.09, 7.39 14.97 C5.76 14.85, 2.85 14.21, 1.73 12.85 C0.62 11.5, 1.05 8.71, 0.71 6.85 C0.37 4.99, -0.76 2.71, -0.3 1.69 C0.15 0.66, 2.79 1.15, 3.43 0.69 C4.08 0.23, 3.24 -1.26, 3.57 -1.05" stroke="#0a11d3" stroke-width="1" fill="none"></path></g><g stroke-linecap="round" transform="translate(73.68803612348279 324.150160073973) rotate(0 56.32368262651727 18.386723501592797)"><path d="M58.93 -1.51 L112.06 18.38 L57.79 35.08 L0.98 18.86" stroke="none" stroke-width="0" fill="#e64980" fill-rule="evenodd"></path><path d="M57.53 -0.86 C77.46 5.52, 95.2 13.13, 112.62 17.9 M56 0.65 C74.99 4.81, 92.5 11.34, 111.74 18.8 M111.59 20.06 C92.94 27.22, 75.6 33.42, 58.39 36.4 M111.74 18.03 C92.25 25.21, 72.61 30.26, 57.42 37.43 M58.44 37.9 C37.45 31.96, 19.82 26.58, -0.66 20.99 M57 36.62 C34.58 30.34, 11.9 22.43, -0.18 19.78 M1.67 20.19 C13.93 15.66, 28.08 10.44, 57.96 0.14 M0.47 19.14 C13.79 15.57, 27.55 10.21, 57.91 -0.54" stroke="#c92a2a" stroke-width="1" fill="none"></path></g><g stroke-linecap="round" transform="translate(73.68803612348279 315.27838014571444) rotate(0 56.32368262651727 18.386723501592797)"><path d="M56.41 -0.62 L113.44 17.31 L57.98 36.64 L-1.23 19.98" stroke="none" stroke-width="0" fill="#e64980" fill-rule="evenodd"></path><path d="M58.67 -0.54 C77.65 7.72, 96.66 12.67, 112.9 17.9 M57.7 -0.58 C79.76 7.2, 100.17 14.55, 113.09 18.12 M112.23 20.7 C93.16 27.72, 72.43 32.18, 58.08 37.67 M111.88 19.26 C98.56 21.7, 86.45 27.57, 57.17 37 M55.57 37.42 C37.01 32.1, 18.43 27.3, 1.91 20.9 M57.29 37.51 C41.51 31.66, 25.56 27.71, -0.68 18.53 M0.62 20.09 C18.72 13.16, 35.45 7.25, 55.68 -1.53 M0.31 19.57 C13.27 14.37, 26.07 9.97, 57.96 -0.76" stroke="#c92a2a" stroke-width="1" fill="none"></path></g><g stroke-linecap="round" transform="translate(73.68803612348279 302.64782055100227) rotate(0 56.32368262651727 18.386723501592797)"><path d="M57.79 -1.69 L113.62 18.86 L55.77 37.76 L0.35 18.47" stroke="none" stroke-width="0" fill="#e64980" fill-rule="evenodd"></path><path d="M57.78 0.72 C71.43 3.93, 86 8.81, 114.6 17.01 M57.82 0 C76.52 7.05, 98.16 13.3, 113.38 18.47 M114.02 20.79 C94.35 25.37, 74.39 32.92, 55.75 34.96 M111.95 18.02 C101.63 23.41, 90.07 26.6, 57.31 37.49 M56.03 37.67 C36.17 32.62, 18.44 26.2, -0.52 19 M57.14 36.63 C40.57 32.92, 23.87 26.63, 0.04 19.83 M1.55 19.27 C21.39 12, 39.61 3.5, 55.43 0.94 M0.73 18.65 C18.73 12.18, 36.65 6.01, 56.71 -0.31" stroke="#c92a2a" stroke-width="1" fill="none"></path></g><g stroke-linecap="round" transform="translate(73.68803612348279 290.116148253705) rotate(0 56.32368262651727 18.386723501592797)"><path d="M57.98 -0.14 L111.41 19.98 L57.35 36.24 L-1.18 17.49" stroke="none" stroke-width="0" fill="#e64980" fill-rule="evenodd"></path><path d="M56.98 -1.1 C72.53 3.89, 89.44 8.19, 113.94 20.4 M56.09 -0.2 C71.05 3.71, 84.8 8.66, 113.18 18.79 M114.04 18.62 C92.42 27.24, 68.66 31.37, 55.06 35.24 M113.07 19.65 C94.53 24.48, 76.5 30.78, 57.56 36.06 M56.34 38.76 C40.06 33.02, 18.7 25.22, -0.32 19.57 M56.82 37.55 C34.98 29.58, 14.38 24.23, 0.6 19.31 M0.96 19.14 C18.73 10.66, 38.69 6.4, 57.27 0.62 M0.91 18.46 C21.15 11.67, 40.22 5.34, 57.4 -0.85" stroke="#c92a2a" stroke-width="1" fill="none"></path></g><g stroke-linecap="round" transform="translate(71.89506737348279 541.1420011585412) rotate(0 56.32368262651727 18.38672350159277)"><path d="M56.63 -0.66 L111.08 19.99 L58.16 35.17 L1.99 17.26" stroke="none" stroke-width="0" fill="#fd8888" fill-rule="evenodd"></path><path d="M58.93 -1.51 C71.33 4.71, 87.45 8.68, 113.62 18.86 M56.74 -0.59 C69.6 5.25, 83.14 8.04, 112.92 18.58 M114.18 17.26 C91.52 26.94, 72.22 31.73, 58.89 38.25 M113.63 19.65 C100.71 22.95, 89.11 27.62, 56.93 36.27 M57.41 35.29 C37.77 32.59, 14.78 25.21, -0.46 19.02 M56.46 37.21 C44.34 32.24, 29.28 28.32, -0.07 19.83 M-0.35 20.53 C21.01 10.53, 40.62 7.51, 55.3 0.74 M-0.12 18.85 C15.67 13.97, 32.92 8.18, 56.72 0.8" stroke="#c92a2a" stroke-width="1" fill="none"></path></g><g stroke-linecap="round" transform="translate(71.89506737348279 532.2702212302827) rotate(0 56.32368262651727 18.38672350159277)"><path d="M55.43 0.99 L113.81 17.4 L58.99 35.03 L0.47 20.67" stroke="none" stroke-width="0" fill="#fd8888" fill-rule="evenodd"></path><path d="M56.41 -0.62 C71.65 3.4, 85.52 9.62, 111.41 19.98 M56.24 0.82 C74.15 5.45, 92.58 11.99, 113.24 19.14 M111.51 20.94 C99.52 22.95, 88.99 28.19, 55.38 36.04 M112.98 19.18 C98.27 25.25, 81.8 28.74, 57.69 36.8 M58.81 38.59 C34.12 30.26, 11.12 22.22, -1.23 17.26 M57.78 36.52 C39.81 31.92, 23.83 27.51, 0.48 19.4 M1.27 17.11 C17.87 14.67, 31.9 8.12, 56.71 0.54 M-0.54 19.06 C14.29 14.17, 27.38 10.68, 56.81 -0.33" stroke="#c92a2a" stroke-width="1" fill="none"></path></g><g stroke-linecap="round" transform="translate(71.89506737348279 519.6396616355705) rotate(0 56.32368262651727 18.38672350159277)"><path d="M58.16 -1.6 L114.64 17.26 L57.47 38.44 L1.98 18.62" stroke="none" stroke-width="0" fill="#fd8888" fill-rule="evenodd"></path><path d="M57.79 -1.69 C70.4 4.3, 80.68 9.68, 113 18.47 M56.52 -0.91 C70.54 3.71, 84.28 8.84, 111.95 19.77 M112.22 19.33 C102.59 24.8, 87.25 26.37, 56.56 38.73 M113.57 19.95 C92.34 25.07, 72.8 32.09, 57.98 36.98 M56.85 37.76 C43.5 33.3, 29.85 27.52, -0.18 17.92 M56.31 36.85 C37.19 31.35, 18.12 24.8, -0.06 18.83 M1.05 20.7 C19.64 13.13, 42.51 5.77, 55.85 -0.23 M0.45 18.69 C16.07 14.35, 32.42 7.8, 56.21 0.5" stroke="#c92a2a" stroke-width="1" fill="none"></path></g><g stroke-linecap="round" transform="translate(71.89506737348279 507.1079893382732) rotate(0 56.32368262651727 18.38672350159277)"><path d="M58.99 -1.74 L113.12 20.67 L58.98 36.39 L-1.71 19.48" stroke="none" stroke-width="0" fill="#fd8888" fill-rule="evenodd"></path><path d="M57.98 -0.14 C70.8 6.56, 87.35 10.16, 111.47 17.49 M57.27 -0.42 C78.76 7.91, 98.73 15.79, 111.78 18.43 M114.53 20.48 C88.91 25.41, 68.01 35.15, 58.3 37.43 M112.58 18.49 C95.82 25.2, 78.42 31.03, 56.26 37.68 M56.54 36.79 C33.5 28.37, 12.28 22.08, 0.88 20.56 M56.93 37.61 C41.92 32.32, 25.7 26.86, 0.77 19.63 M-1.7 19.74 C11.31 15.16, 22.15 10.48, 56.7 -1.07 M-0.28 19.8 C17.19 13.02, 34.06 8.03, 57.58 -0.8" stroke="#c92a2a" stroke-width="1" fill="none"></path></g><g transform="translate(87.94002532958984 10) rotate(0 46.00833511352539 22.5)"><text x="0" y="0" font-family="Virgil, Segoe UI Emoji" font-size="36px" fill="#000000" text-anchor="start" style="white-space: pre;" direction="ltr" dominant-baseline="text-before-edge">Redis</text></g><g transform="translate(94.625 237.7308151654317) rotate(0 31.84166717529297 22.5)"><text x="0" y="0" font-family="Virgil, Segoe UI Emoji" font-size="36px" fill="#000000" text-anchor="start" style="white-space: pre;" direction="ltr" dominant-baseline="text-before-edge">CSV</text></g><g transform="translate(10 448.96484375) rotate(0 218.5833282470703 22.5)"><text x="0" y="0" font-family="Virgil, Segoe UI Emoji" font-size="36px" fill="#000000" text-anchor="start" style="white-space: pre;" direction="ltr" dominant-baseline="text-before-edge">[your data source here]</text></g><g stroke-linecap="round" transform="translate(401.4621887207031 281.57436226445714) rotate(0 133.76437377929688 44.54351806640625)"><path d="M22.27 0 M22.27 0 C77.73 1.52, 130.6 -0.74, 245.26 0 M22.27 0 C92.14 -1.25, 162.42 -1.36, 245.26 0 M245.26 0 C261.13 1.89, 267.32 9.36, 267.53 22.27 M245.26 0 C257.85 -0.77, 266.67 5.42, 267.53 22.27 M267.53 22.27 C267.49 33.07, 268.32 44.08, 267.53 66.82 M267.53 22.27 C267.99 39.92, 267.16 58.58, 267.53 66.82 M267.53 66.82 C268.2 81.96, 258.67 90.09, 245.26 89.09 M267.53 66.82 C268.58 82.02, 261.41 91.02, 245.26 89.09 M245.26 89.09 C200.22 88.22, 156.75 88.82, 22.27 89.09 M245.26 89.09 C156.31 89.08, 66.67 88.37, 22.27 89.09 M22.27 89.09 C8.75 88.33, -0.06 81.76, 0 66.82 M22.27 89.09 C7.37 87.42, 1.45 82.66, 0 66.82 M0 66.82 C-1.56 58.17, 0.26 45.86, 0 22.27 M0 66.82 C0.54 56.5, -0.4 46.71, 0 22.27 M0 22.27 C-1.85 7.01, 5.83 -0.02, 22.27 0 M0 22.27 C-1.71 8.86, 8.91 -0.07, 22.27 0" stroke="#000000" stroke-width="1" fill="none"></path></g><g transform="translate(460.5765914916992 302.01987766543175) rotate(0 71.36666870117188 22.5)"><text x="0" y="0" font-family="Virgil, Segoe UI Emoji" font-size="36px" fill="#000000" text-anchor="start" style="white-space: pre;" direction="ltr" dominant-baseline="text-before-edge">Extract</text></g><g stroke-linecap="round" transform="translate(792.0044423734828 324.150160073973) rotate(0 56.32368262651721 18.386723501592797)"><path d="M57.8 -0.78 L112.49 17.37 L57.8 38.42 L-1.36 18.92" stroke="none" stroke-width="0" fill="#228be6" fill-rule="evenodd"></path><path d="M57.23 1.61 C76.52 8.42, 95.89 14.58, 112.01 17.35 M56.11 0.72 C79.08 8.04, 99.73 14.09, 113.13 18.6 M111.22 17.18 C101.72 22.72, 89.91 27.64, 57.26 37.45 M111.67 18.85 C97.98 23.65, 84.84 28.56, 56.8 36.36 M55.17 36.94 C37.88 29.87, 19.75 24.64, -0.06 20.8 M57.42 36.36 C45.1 33.57, 32.96 30.28, -0.83 18.09 M1.67 20.27 C14.57 13.24, 30.24 9.44, 55.33 0.4 M0.72 18.78 C17.17 14.84, 32.54 7.63, 56.76 -0.91" stroke="#c92a2a" stroke-width="1" fill="none"></path></g><g stroke-linecap="round" transform="translate(792.0044423734828 315.27838014571444) rotate(0 56.32368262651721 18.386723501592797)"><path d="M56.85 -1.63 L113.44 20.64 L55.64 36.69 L-0.27 19.49" stroke="none" stroke-width="0" fill="#228be6" fill-rule="evenodd"></path><path d="M57.7 1.5 C69.74 4.71, 79.06 5.64, 114.28 19.46 M57.8 0.95 C75.32 5.59, 93.84 11.68, 111.73 19.41 M113.23 18.89 C94.84 25.36, 76.73 30.68, 56.11 38.07 M112.07 19.23 C97.48 24.47, 81.31 28.4, 57.1 37.27 M55.62 35.62 C40.64 31.37, 27.77 29.47, -1.92 20.03 M56.81 36.9 C36.16 30.74, 15.99 23.13, -0.32 19.5 M-0.6 17.89 C12.29 14.59, 23.49 10.59, 56.89 1.66 M0.54 19.94 C11.1 14.41, 23.84 10.14, 57.4 -0.39" stroke="#c92a2a" stroke-width="1" fill="none"></path></g><g stroke-linecap="round" transform="translate(792.0044423734828 302.64782055100227) rotate(0 56.32368262651721 18.386723501592797)"><path d="M57.8 1.64 L111.29 18.92 L56.73 37.26 L-1.74 17.53" stroke="none" stroke-width="0" fill="#228be6" fill-rule="evenodd"></path><path d="M58.38 1.28 C77.6 5.16, 101.05 14.5, 113.21 17.22 M57.23 -0.25 C78.31 6.14, 97.6 14.01, 112.89 18.29 M112.99 20.11 C101.33 23.36, 88.55 27.69, 56.56 34.82 M113.14 19.61 C96.48 23.78, 80.93 29.75, 56.57 35.86 M55.14 35.9 C39.48 32.76, 20.04 26.51, 1.04 19.84 M56.29 37.23 C41.45 31.34, 27.2 28.14, -0.78 19.83 M-0.21 19.18 C19.12 12.8, 41.41 7.16, 55.25 1.45 M-0.87 18.32 C15.51 12.27, 31.99 7.51, 56.92 -0.81" stroke="#c92a2a" stroke-width="1" fill="none"></path></g><g stroke-linecap="round" transform="translate(792.0044423734828 290.116148253705) rotate(0 56.32368262651721 18.386723501592797)"><path d="M55.64 -0.08 L112.37 19.49 L55.26 35.31 L0.81 19.61" stroke="none" stroke-width="0" fill="#228be6" fill-rule="evenodd"></path><path d="M56.36 -1.65 C79.63 7.23, 99.43 12.11, 114.08 20.61 M57.48 -0.4 C78.1 8.05, 101.23 14.43, 111.74 19.29 M112.9 19.67 C95.39 25.84, 79.45 27.83, 56.7 35.62 M112.44 18.59 C94.84 25.58, 76.32 29.92, 57.08 36.08 M56.94 38.57 C41.43 33.25, 30.57 28.75, -0.82 18.61 M56.17 35.87 C38.98 31.97, 20.69 26.75, 0.64 18.7 M-1.67 19.4 C13.84 15.97, 26.13 11.11, 56.56 1.08 M-0.24 18.09 C23.02 11.51, 45 3.61, 57.4 0.82" stroke="#c92a2a" stroke-width="1" fill="none"></path></g><g transform="translate(770.1328125 240.7308151654317) rotate(0 92.71666717529297 22.5)"><text x="0" y="0" font-family="Virgil, Segoe UI Emoji" font-size="36px" fill="#000000" text-anchor="start" style="white-space: pre;" direction="ltr" dominant-baseline="text-before-edge">JSON lines</text></g><g stroke-linecap="round" transform="translate(1015.3254699707031 281.57436226445714) rotate(0 133.76437377929688 44.54351806640625)"><path d="M22.27 0 M22.27 0 C72.88 1.1, 127.1 1.47, 245.26 0 M22.27 0 C88.07 -1.36, 155.69 -2.37, 245.26 0 M245.26 0 C260.2 -0.97, 266.94 8.81, 267.53 22.27 M245.26 0 C259.09 1.34, 266.68 5.17, 267.53 22.27 M267.53 22.27 C266.33 32.79, 267.77 47.31, 267.53 66.82 M267.53 22.27 C268.15 33.7, 267.39 44.45, 267.53 66.82 M267.53 66.82 C265.84 80.11, 259.26 87.29, 245.26 89.09 M267.53 66.82 C268.59 83.67, 261.8 91.07, 245.26 89.09 M245.26 89.09 C173.91 88.04, 100.3 88.42, 22.27 89.09 M245.26 89.09 C179.65 88.56, 113.09 89.54, 22.27 89.09 M22.27 89.09 C7.84 89.26, 0.03 81.04, 0 66.82 M22.27 89.09 C5.56 91.09, -1.6 83.21, 0 66.82 M0 66.82 C0.46 53.75, 1.5 39.33, 0 22.27 M0 66.82 C0.55 53.88, 0.15 40.1, 0 22.27 M0 22.27 C-0.82 6.95, 8.66 -1.42, 22.27 0 M0 22.27 C-0.47 5.85, 5.34 -0.31, 22.27 0" stroke="#000000" stroke-width="1" fill="none"></path></g><g transform="translate(1076.8315124511719 303.6178803308634) rotate(0 72.25833129882812 22.5)"><text x="72.25833129882812" y="0" font-family="Virgil, Segoe UI Emoji" font-size="36px" fill="#000000" text-anchor="middle" style="white-space: pre;" direction="ltr" dominant-baseline="text-before-edge">Validate</text></g><g stroke-linecap="round" transform="translate(1438.9145986234828 324.150160073973) rotate(0 56.323682626517325 18.386723501592797)"><path d="M57.28 0.7 L111.2 18.6 L57.96 37.12 L-1.15 17.07" stroke="none" stroke-width="0" fill="#12b886" fill-rule="evenodd"></path><path d="M55.08 1.32 C68.61 4.52, 85.78 8.17, 112.44 17.89 M56.41 0.99 C72.31 6.1, 87.68 11.96, 112.86 19.46 M110.94 20.04 C96.06 24.97, 80.01 31.7, 58.43 38.23 M112.45 18.53 C90.94 25.95, 68.91 32.59, 56.96 36.15 M56.71 38.26 C42.35 32.26, 27.29 27.03, -1.1 20.07 M57.65 37.03 C35.93 29.25, 14.49 22.79, 0.83 19.4 M-1.33 19.85 C17.94 13.35, 39.23 4.79, 57.05 -1.81 M-0.13 18.55 C19.59 12.08, 39.24 5.54, 57.59 -0.83" stroke="#c92a2a" stroke-width="1" fill="none"></path></g><g stroke-linecap="round" transform="translate(1438.9145986234828 315.27838014571444) rotate(0 56.323682626517325 18.386723501592797)"><path d="M55.55 -0.4 L113.61 19.35 L55.85 34.85 L1.46 17.28" stroke="none" stroke-width="0" fill="#12b886" fill-rule="evenodd"></path><path d="M55.19 -0.42 C72.03 2.81, 83.31 7.64, 112.19 18.72 M56.91 0.28 C67.92 4.14, 79.43 7.53, 112.74 19.62 M113.16 19.14 C94.13 27.06, 73.85 33.54, 58.77 35.3 M112.7 19.16 C96.74 23.59, 81.52 28.04, 56.76 36.72 M58.1 37.72 C47.16 34.19, 32.59 30.99, 1.37 17.69 M56.81 36.23 C43.4 32.45, 31.99 29.3, 0.37 18.33 M-1.38 20.1 C21.5 10.81, 41.45 3.19, 57.97 1.08 M-0.18 19.22 C21.81 12.16, 44.99 3.63, 57.14 0.35" stroke="#c92a2a" stroke-width="1" fill="none"></path></g><g stroke-linecap="round" transform="translate(1438.9145986234828 302.64782055100227) rotate(0 56.323682626517325 18.386723501592797)"><path d="M57.96 0.35 L111.5 17.07 L58.46 35.06 L-0.59 20.34" stroke="none" stroke-width="0" fill="#12b886" fill-rule="evenodd"></path><path d="M58.86 -1.38 C76.99 5.96, 97.09 13.74, 110.66 17.83 M56.86 0.88 C79.39 7.88, 101.46 15.62, 113.25 18.15 M114.32 20.37 C94.54 26.75, 75.32 30.07, 56.58 36.38 M112.3 18.89 C98.51 22.97, 84.21 28.04, 56.05 36.63 M58.8 37.4 C34.48 31.46, 15.63 22.44, -1.49 20.31 M56.37 36.31 C39.3 31.07, 20.28 24.22, 0.62 18.33 M0.73 17.93 C19.69 10.37, 40.13 6.76, 58.78 -0.27 M-0.4 19.3 C15.18 13.19, 29.29 9.52, 56.28 -0.2" stroke="#c92a2a" stroke-width="1" fill="none"></path></g><g stroke-linecap="round" transform="translate(1438.9145986234828 290.116148253705) rotate(0 56.323682626517325 18.386723501592797)"><path d="M55.85 -1.93 L114.1 17.28 L56.41 38.12 L0.23 17.98" stroke="none" stroke-width="0" fill="#12b886" fill-rule="evenodd"></path><path d="M56.8 -1.11 C72.23 5.4, 86.22 9.8, 114.62 18.83 M57.21 0.46 C75.32 6.36, 94.09 11.13, 113.16 19.26 M114.07 20.46 C97.48 23.37, 78.2 29.9, 56.07 36.87 M112.61 18.38 C94.76 24.5, 76.45 30.03, 57.74 37.32 M55.9 37.84 C38.41 29.47, 15.76 25.92, 0.51 18.63 M57.83 37.17 C43.5 31.49, 29.78 27.13, 0.42 18.31 M0.05 17.19 C21.13 13.65, 42.17 5.55, 56.11 -0.36 M0.59 18.17 C18.55 13.06, 36.02 6.41, 57.48 0.17" stroke="#c92a2a" stroke-width="1" fill="none"></path></g><g stroke-linecap="round" transform="translate(1438.9145986234828 109.94668865854123) rotate(0 56.323682626517325 18.386723501592797)"><path d="M58.76 0.04 L112.18 17.55 L55.51 38.65 L-1.19 18.55" stroke="none" stroke-width="0" fill="#fd8888" fill-rule="evenodd"></path><path d="M55.77 1.3 C75.46 6.8, 89.61 12.1, 112.17 20.31 M57.59 0.81 C69.22 5.22, 81.42 9.74, 112.57 19.55 M112.08 18.32 C92.87 24.68, 71.66 31.72, 55.09 38.12 M112.1 19.17 C95.32 23.68, 78.14 28.87, 56.35 36.39 M57.37 37.44 C46.38 31.88, 32.14 30.14, 1.02 17.29 M57.85 36.71 C40.59 30.81, 24.88 25.68, -0.28 19.77 M0.92 18.1 C15.42 14.49, 35.3 6.26, 57.41 -0.61 M-0.04 18.82 C17.35 12.02, 37.33 7.4, 57.23 0.6" stroke="#c92a2a" stroke-width="1" fill="none"></path></g><g stroke-linecap="round" transform="translate(1438.9145986234828 101.07490873028269) rotate(0 56.323682626517325 18.386723501592797)"><path d="M56.53 -1.45 L111.16 20.88 L55.81 36.32 L0.37 19.99" stroke="none" stroke-width="0" fill="#fd8888" fill-rule="evenodd"></path><path d="M58.59 0.69 C69.17 4.45, 83.46 10.18, 111.16 19.39 M56.62 0.72 C70.96 5.48, 86.19 10.06, 113.32 18.74 M113.33 18.42 C98.47 23.23, 82.66 29.11, 57.2 37.22 M112.54 18.57 C99.88 22.38, 86.59 26.79, 56.05 36.34 M57.99 35.63 C39.31 32.71, 25.82 25.22, -0.51 20.23 M56.34 36.13 C43.46 31.9, 31.27 29.63, 0 18.65 M-1.74 20.08 C16.98 12.47, 32.38 7.96, 57.37 -1.18 M-0.93 18.46 C21.83 13.02, 42.13 5.74, 57.88 0.02" stroke="#c92a2a" stroke-width="1" fill="none"></path></g><g stroke-linecap="round" transform="translate(1438.9145986234828 88.44434913557052) rotate(0 56.323682626517325 18.386723501592797)"><path d="M55.51 1.88 L111.45 18.55 L57.37 37.77 L-0.49 18.03" stroke="none" stroke-width="0" fill="#fd8888" fill-rule="evenodd"></path><path d="M55.76 0.19 C76.97 8.05, 96.26 14.06, 111.89 20.18 M56.27 0.96 C78.04 7.39, 99.98 13.81, 112.17 18.72 M112.54 18.95 C96 24.92, 83.31 28.74, 55.55 35.69 M112.63 18.24 C94.36 24, 76.45 29.58, 56.82 36.96 M55.43 37.53 C38.94 28.82, 18.41 25.83, -1.56 20.69 M56.26 35.88 C40.07 31.95, 23.59 25.6, -0.19 19.46 M1.04 17.55 C15.11 13.24, 29.62 7.82, 58.35 -0.08 M0.88 19.89 C16.47 14.56, 33.17 8.63, 56.76 -0.72" stroke="#c92a2a" stroke-width="1" fill="none"></path></g><g stroke-linecap="round" transform="translate(1438.9145986234828 75.91267683827323) rotate(0 56.323682626517325 18.386723501592797)"><path d="M55.81 -0.45 L113.01 19.99 L56.51 35.8 L1.42 20.36" stroke="none" stroke-width="0" fill="#fd8888" fill-rule="evenodd"></path><path d="M56.53 1.31 C74.01 6.7, 93.36 13.84, 114.26 18.25 M56.92 0.55 C78.24 6.28, 97.8 13.33, 112.31 19.34 M110.74 20.35 C97.75 24.25, 81.01 27.54, 57.33 36.56 M112 18.61 C97.37 22.72, 83.83 27.91, 57.33 37.27 M58.02 35.07 C42.8 33.91, 27.92 30.06, -0.12 17.67 M56.72 37.55 C43.71 31.73, 30.09 28.35, -0.45 18.13 M0.41 18.39 C20.44 11.51, 41.59 5.89, 56.63 -1.86 M0.23 19.6 C14.73 13.84, 27.64 8.42, 56.26 0.94" stroke="#c92a2a" stroke-width="1" fill="none"></path></g><g transform="translate(1300.5975341796875 27.32421875) rotate(0 219.10833740234375 22.5)"><text x="0" y="0" font-family="Virgil, Segoe UI Emoji" font-size="36px" fill="#c92a2a" text-anchor="start" style="white-space: pre;" direction="ltr" dominant-baseline="text-before-edge">Errors for manual review</text></g><g transform="translate(1407.1483154296875 243.7308151654317) rotate(0 93.65833282470703 22.5)"><text x="0" y="0" font-family="Virgil, Segoe UI Emoji" font-size="36px" fill="#087f5b" text-anchor="start" style="white-space: pre;" direction="ltr" dominant-baseline="text-before-edge">Valid data</text></g><g stroke-linecap="round" transform="translate(1710.5129699707031 283.19085693359375) rotate(0 133.76437377929688 50)"><path d="M25 0 M25 0 C90.7 0.61, 153.84 -2.44, 242.53 0 M25 0 C72.72 -2.28, 121.86 -1.11, 242.53 0 M242.53 0 C257.52 -0.37, 265.82 9.17, 267.53 25 M242.53 0 C259.69 -0.18, 268.76 7.98, 267.53 25 M267.53 25 C265.84 44.05, 265.95 58.02, 267.53 75 M267.53 25 C267.44 41.77, 267.79 59.21, 267.53 75 M267.53 75 C269.49 90.68, 259.62 98.22, 242.53 100 M267.53 75 C266.37 92.54, 260.85 99.41, 242.53 100 M242.53 100 C163.54 99.69, 80.13 100.14, 25 100 M242.53 100 C167.71 101.04, 94.58 102.58, 25 100 M25 100 C8 98.45, -0.79 91.56, 0 75 M25 100 C9.78 99.41, 1.79 90.92, 0 75 M0 75 C2.46 60.7, 1.45 49.07, 0 25 M0 75 C-0.63 60.11, 0.31 45.66, 0 25 M0 25 C0.94 8.03, 9.3 -1.95, 25 0 M0 25 C-0.12 9.61, 10.54 -0.2, 25 0" stroke="#000000" stroke-width="1" fill="none"></path></g><g transform="translate(1770.719009399414 288.19085693359375) rotate(0 73.55833435058594 45)"><text x="73.55833435058594" y="0" font-family="Virgil, Segoe UI Emoji" font-size="36px" fill="#000000" text-anchor="middle" style="white-space: pre;" direction="ltr" dominant-baseline="text-before-edge">Load in </text><text x="73.55833435058594" y="45" font-family="Virgil, Segoe UI Emoji" font-size="36px" fill="#000000" text-anchor="middle" style="white-space: pre;" direction="ltr" dominant-baseline="text-before-edge">Momento</text></g><g stroke-linecap="round"><g transform="translate(176.3515625 130.27734375) rotate(0 111.47574726641182 94.83863022051284)"><path d="M-0.56 -0.38 C36.7 31.68, 186.31 159.55, 223.51 191.3 M1.35 -1.63 C38.52 30.19, 186.25 157.42, 222.99 189.55" stroke="#000000" stroke-width="1" fill="none"></path></g><g transform="translate(176.3515625 130.27734375) rotate(0 111.47574726641182 94.83863022051284)"><path d="M194.33 180.2 C204.41 182.03, 210.8 186.85, 221.93 189.02 M195.15 179.42 C201.49 181.13, 209.21 184.84, 222.49 189.96" stroke="#000000" stroke-width="1" fill="none"></path></g><g transform="translate(176.3515625 130.27734375) rotate(0 111.47574726641182 94.83863022051284)"><path d="M207.77 164.69 C213.69 171.09, 216.07 180.54, 221.93 189.02 M208.59 163.91 C211.54 169.7, 215.73 177.49, 222.49 189.96" stroke="#000000" stroke-width="1" fill="none"></path></g></g><mask></mask><g stroke-linecap="round"><g transform="translate(190.15625 328.5) rotate(0 104.17361122667785 -0.38423985265660576)"><path d="M-0.82 0.69 C33.91 0.58, 174.18 0.34, 209.17 0.32 M0.95 0 C35.43 -0.54, 173.57 -1.23, 208.1 -1.45" stroke="#000000" stroke-width="1" fill="none"></path></g><g transform="translate(190.15625 328.5) rotate(0 104.17361122667785 -0.38423985265660576)"><path d="M181.12 8.6 C191.29 4.85, 201.91 -0.17, 209.11 -0.05 M180.02 8.97 C190.65 5.76, 200.08 2.22, 208.87 -2.34" stroke="#000000" stroke-width="1" fill="none"></path></g><g transform="translate(190.15625 328.5) rotate(0 104.17361122667785 -0.38423985265660576)"><path d="M181 -11.92 C191.38 -8.17, 202.04 -5.69, 209.11 -0.05 M179.9 -11.55 C190.59 -7.61, 200.06 -4, 208.87 -2.34" stroke="#000000" stroke-width="1" fill="none"></path></g></g><mask></mask><g stroke-linecap="round"><g transform="translate(198.45703125 542.7890625) rotate(0 99.76747366630008 -105.7156092971563)"><path d="M-0.99 0.94 C32.2 -34.32, 164.74 -176.9, 198.32 -212.37 M0.7 0.39 C34.32 -34.67, 167.25 -176.09, 200.52 -211.28" stroke="#000000" stroke-width="1" fill="none"></path></g><g transform="translate(198.45703125 542.7890625) rotate(0 99.76747366630008 -105.7156092971563)"><path d="M190.22 -185.35 C190.17 -188.05, 193.74 -195.13, 201.61 -210.39 M189.61 -183.97 C193.38 -192.61, 195.47 -202.15, 201.36 -210.72" stroke="#000000" stroke-width="1" fill="none"></path></g><g transform="translate(198.45703125 542.7890625) rotate(0 99.76747366630008 -105.7156092971563)"><path d="M175.29 -199.43 C178.61 -198.73, 185.65 -202.54, 201.61 -210.39 M174.68 -198.05 C183.51 -201.96, 190.57 -206.8, 201.36 -210.72" stroke="#000000" stroke-width="1" fill="none"></path></g></g><mask></mask><g stroke-linecap="round"><g transform="translate(670.68359375 328.95703125) rotate(0 60.183182810326116 -0.8983267158269825)"><path d="M-0.19 0.58 C20.22 0.28, 102.03 -1.88, 122.12 -2.38 M-1.75 -0.16 C18.62 -0.2, 101.57 -0.65, 121.73 -0.81" stroke="#000000" stroke-width="1" fill="none"></path></g><g transform="translate(670.68359375 328.95703125) rotate(0 60.183182810326116 -0.8983267158269825)"><path d="M94.58 11.41 C101.38 5.7, 108.92 5.42, 120.92 0.02 M94.27 9 C101.87 6.26, 108.19 3.39, 122.3 -0.35" stroke="#000000" stroke-width="1" fill="none"></path></g><g transform="translate(670.68359375 328.95703125) rotate(0 60.183182810326116 -0.8983267158269825)"><path d="M94.45 -9.11 C101.18 -9.25, 108.76 -3.96, 120.92 0.02 M94.14 -11.53 C101.86 -8.61, 108.22 -5.83, 122.3 -0.35" stroke="#000000" stroke-width="1" fill="none"></path></g></g><mask></mask><g stroke-linecap="round"><g transform="translate(908.9598085638709 327.4510075886565) rotate(0 49.2979418241365 -0.6094769699182052)"><path d="M1 -0.39 C17.55 -0.5, 82.42 0.29, 98.53 0.42 M0.06 -1.64 C16.55 -1.55, 81.65 -1.21, 97.74 -1.18" stroke="#000000" stroke-width="1" fill="none"></path></g><g transform="translate(908.9598085638709 327.4510075886565) rotate(0 49.2979418241365 -0.6094769699182052)"><path d="M68.87 9.49 C77.75 5.47, 84.36 2.7, 96.69 0.35 M68.81 9.93 C79.48 5.67, 87.57 1.91, 98.34 -1.54" stroke="#000000" stroke-width="1" fill="none"></path></g><g transform="translate(908.9598085638709 327.4510075886565) rotate(0 49.2979418241365 -0.6094769699182052)"><path d="M68.95 -11.03 C78 -10.21, 84.59 -8.15, 96.69 0.35 M68.89 -10.59 C79.74 -7.94, 87.8 -4.78, 98.34 -1.54" stroke="#000000" stroke-width="1" fill="none"></path></g></g><mask></mask><g stroke-linecap="round"><g transform="translate(1283.8542175292969 330.0335476483185) rotate(0 75.87568266900075 -0.535381021890089)"><path d="M-0.82 0.59 C24.03 0.2, 125.11 -1.43, 150.21 -1.66 M0.96 -0.14 C26.09 -0.39, 127.37 0.34, 152.57 -0.08" stroke="#000000" stroke-width="1" fill="none"></path></g><g transform="translate(1283.8542175292969 330.0335476483185) rotate(0 75.87568266900075 -0.535381021890089)"><path d="M125.4 9.13 C135.65 4.53, 148.2 0.33, 151 1.35 M123.42 10.52 C131.07 8.23, 138.17 5.05, 153.21 -0.75" stroke="#000000" stroke-width="1" fill="none"></path></g><g transform="translate(1283.8542175292969 330.0335476483185) rotate(0 75.87568266900075 -0.535381021890089)"><path d="M125.33 -11.39 C135.73 -7.86, 148.31 -3.93, 151 1.35 M123.35 -10 C131.02 -7.23, 138.14 -5.35, 153.21 -0.75" stroke="#000000" stroke-width="1" fill="none"></path></g></g><mask></mask><g stroke-linecap="round"><g transform="translate(1282.66015625 326.6875) rotate(0 74.00855796949008 -103.34801189005375)"><path d="M0.99 0.65 C25.1 -33.86, 121.51 -172.67, 145.78 -207.34 M0.05 -0.06 C24.44 -34.39, 123.68 -171.75, 147.97 -206.13" stroke="#000000" stroke-width="1" fill="none"></path></g><g transform="translate(1282.66015625 326.6875) rotate(0 74.00855796949008 -103.34801189005375)"><path d="M140.99 -178.89 C142.08 -188.8, 145.18 -198.25, 146.63 -206.32 M139.32 -176.7 C143.09 -184.34, 143.94 -191.46, 148.31 -207.03" stroke="#000000" stroke-width="1" fill="none"></path></g><g transform="translate(1282.66015625 326.6875) rotate(0 74.00855796949008 -103.34801189005375)"><path d="M124.3 -190.83 C131.85 -196.23, 141.46 -201.03, 146.63 -206.32 M122.63 -188.64 C130.73 -193.21, 135.94 -197.21, 148.31 -207.03" stroke="#000000" stroke-width="1" fill="none"></path></g></g><mask></mask><g stroke-linecap="round"><g transform="translate(1554.1543235756444 331.25013209308275) rotate(0 71.45103189338306 0.4450540201191302)"><path d="M0.1 -0.67 C23.94 -0.81, 120.21 -0.3, 144.2 -0.16 M-1.3 1.59 C22.23 1.49, 118.31 0.87, 142.96 0.79" stroke="#000000" stroke-width="1" fill="none"></path></g><g transform="translate(1554.1543235756444 331.25013209308275) rotate(0 71.45103189338306 0.4450540201191302)"><path d="M113.7 10.25 C124.08 5.82, 135.83 1.37, 144.65 0.36 M115.25 11.21 C120.36 9.39, 126.16 6.87, 142.03 1.71" stroke="#000000" stroke-width="1" fill="none"></path></g><g transform="translate(1554.1543235756444 331.25013209308275) rotate(0 71.45103189338306 0.4450540201191302)"><path d="M113.59 -10.28 C124.14 -6.53, 135.92 -2.82, 144.65 0.36 M115.14 -9.31 C120.43 -6.82, 126.25 -5.04, 142.03 1.71" stroke="#000000" stroke-width="1" fill="none"></path></g></g><mask></mask></svg>