<?xml version="1.0" encoding="UTF-8"?><svg id="Layer_1" xmlns="http://www.w3.org/2000/svg" xmlns:xlink="http://www.w3.org/1999/xlink" viewBox="0 0 59.988929453 79.4072474"><defs><style>.cls-1{fill:none;}.cls-2{clip-path:url(#clippath);}.cls-3{fill:#006847;}.cls-4{fill:#006848;}.cls-5{fill:#006545;}.cls-6{fill:#00704d;}.cls-7{fill:#006d4b;}.cls-8{fill:#007652;}.cls-9{fill:#007350;}.cls-10{fill:#007552;}.cls-11{fill:#006a49;}.cls-12{fill:#fff;}.cls-13{fill:#009c6e;}.cls-14{clip-path:url(#clippath-1);}.cls-15{clip-path:url(#clippath-4);}.cls-16{clip-path:url(#clippath-3);}.cls-17{clip-path:url(#clippath-2);}.cls-18{clip-path:url(#clippath-6);}.cls-19{clip-path:url(#clippath-5);}.cls-20{isolation:isolate;}</style><clipPath id="clippath"><path class="cls-1" d="M47.2034068211,12.2550716381l9.7158146487,2.439262041c-.5128917034-.1287678151-1.0418982707-.1692454409-1.5744783441-.1225319293l-9.7158175285-2.4392620077c.5325800734-.0467135115,1.0615866406-.0062358857,1.5744812239,.122531896Z"/></clipPath><clipPath id="clippath-1"><path class="cls-1" d="M34.0913431079,80.1328188738l-9.71582281-2.4392481342c-.5960360582-.1496565557-1.1455163025-.4701751728-1.5981758408-.9387646649l9.7158175285,2.4392620077c.4526595383,.4685894921,1.0021397825,.7891081092,1.5981811222,.9387507914Z"/></clipPath><clipPath id="clippath-2"><path class="cls-1" d="M26.1977122353-.8429926867l9.7158024473,2.4392733872c-.1515634387-.038066821-.3118628172-.0515701902-.4773791735-.0370524668L25.7203179806-.8800337739c.1655163563-.0145177234,.3258157348-.0010143542,.4773942547,.0370410872Z"/></clipPath><clipPath id="clippath-3"><path class="cls-1" d="M31.9898268428,3.7420083365L22.2740093143,1.3027463289c-.0082557431-1.0420170803,.7324151614-1.9447398496,1.6527804084-2.0254666637l9.7158175285,2.4392620077c-.9203652469,.0807268141-1.6610361514,.9834495833-1.6527804084,2.0254666637Z"/></clipPath><clipPath id="clippath-4"><path class="cls-1" d="M29.9057240672,76.5156041477l-9.7158175285-2.4392620077c-.7222600282-.7476701672-1.5689681089-1.3061781964-2.5083838154-1.6426557555-3.8604772685-1.4082044391-7.1882708723-4.1375949431-9.5396812825-7.8260286741-2.3593480325-3.6966524821-3.6307058947-8.1749834259-3.6679625268-12.8774126084l9.7158175285,2.4392620077c.0372566322,4.7024291825,1.3086144944,9.1807601263,3.6679625268,12.8774126084,2.3514104102,3.688433731,5.679204014,6.417824235,9.5396812825,7.8260286741,.9394157065,.3364775592,1.7861237872,.8949855883,2.5083838154,1.6426557555Z"/></clipPath><clipPath id="clippath-5"><path class="cls-1" d="M12.5355565099,36.3512460804l-9.7158223448-2.4392610342c-.8654339687-.217278824-1.6804039149-.6851721263-2.3472479176-1.3754754616-1.0398063232-1.0852257826-1.6345477664-2.6283605132-1.6476723036-4.2849033425l9.7158175285,2.4392620077c.0131245372,1.6565428292,.6078659805,3.1996775598,1.6476723036,4.2849033425,.6668440027,.6903033353,1.4818139489,1.1581966377,2.3472527339,1.3754744881Z"/></clipPath><clipPath id="clippath-6"><path class="cls-1" d="M8.4951896427,24.955326051L-1.2206278859,22.5160640433c-.0131950753-1.6654459495,.5562852452-3.310700345,1.5774632074-4.576694816,1.0290466686-1.2666846487,2.4319034272-2.0492432332,3.8950460414-2.1775779809l9.7158175285,2.4392620077c-1.4631426142,.1283347477-2.8659993728,.9108933322-3.8950460414,2.1775779809-1.0211779622,1.265994471-1.5906582827,2.9112488665-1.5774632074,4.576694816Z"/></clipPath></defs><g class="cls-20"><g class="cls-20"><g class="cls-2"><g class="cls-20"><path class="cls-10" d="M55.3447431257,14.5718017497l-9.7158175285-2.4392620077c.0806039101-.0070699072,.1611259668-.0121426457,.2415227032-.0152144057l9.7158175285,2.4392620077c-.0803967364,.00307176-.1609187931,.0081444985-.2415227032,.0152144057"/><path class="cls-9" d="M55.5862658289,14.556587344l-9.7158175285-2.4392620077c.4508144629-.0172245029,.8976885257,.0284670199,1.3329585208,.1377463017l9.7158175285,2.4392620077c-.4352699951-.1092792818-.8821440579-.1549708046-1.3329585208-.1377463017"/></g></g></g><g class="cls-20"><g class="cls-14"><g class="cls-20"><path class="cls-3" d="M34.0913431079,80.1328188738l-9.7158175285-2.4392620077c-.5960413397-.1496426822-1.145521584-.4701612993-1.5981811222-.9387507914l9.7158175285,2.4392620077c.4526595383,.4685894921,1.0021397825,.7891081092,1.5981811222,.9387507914"/></g></g></g><polygon class="cls-5" points="32.4931619857 79.1940680824 22.7773444571 76.7548060747 20.1899065386 74.0763421401 29.9057240672 76.5156041477 32.4931619857 79.1940680824"/><polygon class="cls-8" points="37.2127895645 16.1621864898 27.496972036 13.7229244821 45.6289255972 12.1325397421 55.3447431257 14.5718017497 37.2127895645 16.1621864898"/><g class="cls-20"><g class="cls-17"><g class="cls-20"><path class="cls-10" d="M35.4361355092,1.5592282338L25.7203179806-.8800337739c.0214192414-.0018787184,.0427511163-.0032881791,.0639880311-.0042359l9.7158175285,2.4392620077c-.0212369148,.0009477209-.0425687897,.0023571816-.0639880311,.0042359"/><path class="cls-9" d="M35.5001235403,1.5549923338L25.7843060117-.8842696739c.1428705198-.0063757556,.2814432691,.0081462475,.4134062236,.0412769872l9.7158175285,2.4392620077c-.1319629545-.0331307397-.2705357038-.0476527428-.4134062236-.0412769872"/></g></g></g><polygon class="cls-8" points="33.6426072512 1.7165416729 23.9267897227 -.7227203348 25.7203179806 -.8800337739 35.4361355092 1.5592282338 33.6426072512 1.7165416729"/><polygon class="cls-4" points="32.0917887476 16.6113582531 22.375971219 14.1720962454 22.2740093143 1.3027463289 31.9898268428 3.7420083365 32.0917887476 16.6113582531"/><g class="cls-20"><g class="cls-16"><g class="cls-20"><path class="cls-3" d="M31.9898268428,3.7420083365L22.2740093143,1.3027463289c-.001870544-.2360948959,.0347059427-.4650389545,.1031084413-.6788913396l9.7158175285,2.4392620077c-.0684024986,.2138523851-.1049789853,.4427964437-.1031084413,.6788913396"/><path class="cls-11" d="M32.0929352841,3.0631169969L22.3771177556,.6238549893c.0422727282-.1321607241,.0967005649-.2585575802,.1617207593-.3773163027l9.7158175285,2.4392620077c-.0650201944,.1187587225-.1194480312,.2451555786-.1617207593,.3773163027"/><path class="cls-7" d="M32.2546560435,2.6858006943L22.5388385149,.2465386866c.0598102537-.1092428188,.1285833836-.2120225207,.2051030024-.3068802466l9.7158175285,2.4392620077c-.0765196188,.094857726-.1452927487,.1976374278-.2051030024,.3068802466"/><path class="cls-6" d="M32.4597590459,2.3789204476L22.7439415173-.0603415601c.0833133525-.1032795939,.1758097883-.1971680732,.275919316-.2797824881l9.7158175285,2.4392620077c-.1001095276,.0826144148-.1926059635,.1765028941-.275919316,.2797824881"/><path class="cls-9" d="M32.7356783618,2.0991379595L23.0198608333-.3401240481c.1587840398-.1310349859,.3367205119-.2337075452,.5275448408-.300504338l9.7158175285,2.4392620077c-.1908243289,.0667967928-.368760801,.1694693521-.5275448408,.300504338"/><path class="cls-10" d="M33.2632232027,1.7986336215L23.5474056741-.6406283861c.1217569152-.0426202019,.2487607027-.070634751,.3793840486-.0820919487l9.7158175285,2.4392620077c-.1306233459,.0114571977-.2576271333,.0394717467-.3793840486,.0820919487"/></g></g></g><g class="cls-20"><g class="cls-15"><g class="cls-20"><path class="cls-3" d="M29.9057240672,76.5156041477l-9.7158175285-2.4392620077c-.7222600282-.7476701672-1.5689681089-1.3061781964-2.5083838154-1.6426557555-3.8604772685-1.4082044391-7.1882708723-4.1375949431-9.5396812825-7.8260286741-2.3593480325-3.6966524821-3.6307058947-8.1749834259-3.6679625268-12.8774126084l9.7158175285,2.4392620077c.0372566322,4.7024291825,1.3086144944,9.1807601263,3.6679625268,12.8774126084,2.3514104102,3.688433731,5.679204014,6.417824235,9.5396812825,7.8260286741,.9394157065,.3364775592,1.7861237872,.8949855883,2.5083838154,1.6426557555"/></g></g></g><polygon class="cls-4" points="14.1896964424 54.1695071098 4.4738789139 51.7302451021 4.3336724701 34.0337751331 14.0494899987 36.4730371407 14.1896964424 54.1695071098"/><polygon class="cls-8" points="13.9676988915 18.2010532541 4.251881363 15.7617912464 22.375971219 14.1720962454 32.0917887476 16.6113582531 13.9676988915 18.2010532541"/><g class="cls-20"><g class="cls-19"><g class="cls-20"><path class="cls-3" d="M12.5355565099,36.3512460804l-9.7158175285-2.4392620077c-.865438785-.2172778505-1.6804087311-.6851711528-2.3472527339-1.3754744881-1.0398063232-1.0852257826-1.6345477664-2.6283605132-1.6476723036-4.2849033425l9.7158175285,2.4392620077c.0131245372,1.6565428292,.6078659805,3.1996775598,1.6476723036,4.2849033425,.6668440027,.6903033353,1.4818139489,1.1581966377,2.3472527339,1.3754744881"/></g></g></g><polygon class="cls-4" points="8.5406314724 30.6908682498 -1.1751860562 28.2516062421 -1.2206278859 22.5160640433 8.4951896427 24.955326051 8.5406314724 30.6908682498"/><g class="cls-20"><g class="cls-18"><g class="cls-20"><path class="cls-3" d="M8.4951896427,24.955326051L-1.2206278859,22.5160640433c-.0061672372-.7784116446,.1149525818-1.5524123882,.3499863019-2.2853404552l9.7158175285,2.4392620077c-.2350337201,.732928067-.3561535392,1.5069288106-.3499863019,2.2853404552"/><path class="cls-11" d="M8.8451759446,22.6699855957L-.8706415839,20.2307235881c.1412736563-.440547117,.323703842-.8662548789,.5443863546-1.2691615725l9.7158175285,2.4392620077c-.2206825126,.4029066937-.4031126983,.8286144556-.5443863546,1.2691615725"/><path class="cls-7" d="M9.3895622992,21.4008240232L-.3262552293,18.9615620155c.1942325182-.3546161442,.4180973731-.6915693386,.6696144563-1.0054312239l9.7158175285,2.4392620077c-.2515170831,.3138618852-.4753819381,.6508150796-.6696144563,1.0054312239"/><path class="cls-6" d="M10.0591767555,20.3953927993L.3433592269,17.9561307917c.0044832495-.005594535,.0089752847-.0111817334,.0134760946-.0167615643,.2744229061-.3377954499,.5754298898-.6411615326,.8970749226-.9068723214l9.7158175285,2.4392620077c-.3216450329,.2657107888-.6226520165,.5690768715-.8970749226,.9068723214-.0045008098,.0055798309-.0089928451,.0111670293-.0134760946,.0167615643"/><path class="cls-9" d="M10.9697277727,19.4717589137L1.2539102441,17.032496906c.5337776134-.4409533996,1.124392817-.778203385,1.7446701134-.9970063064l9.7158175285,2.4392620077c-.6202772965,.2188029214-1.2108925,.5560529068-1.7446701134,.9970063064"/><path class="cls-10" d="M12.7143978861,18.4747526073l-9.7158175285-2.4392620077c.4075318931-.1437569443,.827868009-.2363838956,1.2533010054-.2736993532l9.7158175285,2.4392620077c-.4254329964,.0373154577-.8457691123,.1299424089-1.2533010054,.2736993532"/></g></g></g><path class="cls-13" d="M35.4361355092,1.5592282338c.9124998747-.0800369288,1.6664364075,.6915912591,1.6746921506,1.7336083395l.1019619047,12.8693499165,18.1319535612-1.5903847401c.723707602-.0634776348,1.4408166165,.0340458089,2.1198655396,.2953279849,.6711096637,.253067346,1.2883512702,.6623687719,1.8042503292,1.1964178964,.5159057423,.534050427,.9304556004,1.1928497223,1.2117780591,1.9257205486,.2892550647,.7410881286,.4372729025,1.5391260631,.4438351562,2.3673955902l.0454418297,5.7355421988c.0131245372,1.6565428292-.5563558131,3.3017934498-1.585404119,4.5684820197-1.0211729609,1.2659940323-2.4240297195,2.0485526168-3.8871756679,2.176887657l.2031360899,17.6909503018c.0372566322,4.7024291825-1.169286169,9.3981010427-3.4589549374,13.5025267606-2.2976080578,4.0962071131-5.5696919638,7.4044841912-9.4025123119,9.4874809569-.9327796105,.5006910209-1.7773366121,1.2075428107-2.486754375,2.080787892l-2.5414282706,3.1283255832c-.7016229138,.8636539633-1.649854331,1.4013526278-2.6488799686,1.4889788797-.9990289718,.0876265443-1.9544576946-.283098825-2.6687784933-1.0225579371l-2.5874379185-2.6784639347c-.7222600282-.7476701672-1.5689681089-1.3061781964-2.5083838154-1.6426557555-3.8604772685-1.4082044391-7.1882708723-4.1375949431-9.5396812825-7.8260286741-2.3593480325-3.6966524821-3.6307058947-8.1749834259-3.6679625268-12.8774126084l-.1402064437-17.696469969c-1.400211301,.1228149343-2.813511223-.4127337185-3.8611862227-1.4972655484-1.0398063232-1.0852257826-1.6345477664-2.6283605132-1.6476723036-4.2849033425l-.0454418297-5.7355421988c-.0131950753-1.6654459495,.5562852452-3.310700345,1.5774632074-4.576694816,1.0290466686-1.2666846487,2.4319034272-2.0492432332,3.8950460414-2.1775779809l18.1240898561-1.589695001-.1019619047-12.8693499165c-.0082557431-1.0420170803,.7324151614-1.9447398496,1.6527804084-2.0254666637l1.7935282579-.1573134391Z"/></g><polygon class="cls-12" points="40.5718057816 34.2751650085 32.2190969546 34.695854297 26.129717388 48.9600873565 34.6647828579 48.6036709561 30.3897500886 63.6390515135 45.3695223932 42.8249536538 36.4463531421 43.1389422051 40.5718057816 34.2751650085"/></svg>