<?xml version="1.0" encoding="UTF-8"?>
<svg id="Layer_1" data-name="Layer 1" xmlns="http://www.w3.org/2000/svg" viewBox="0 0 78.58 69.94">
  <defs>
    <style>
      .cls-1 {
        fill: #fff;
      }

      .cls-2 {
        fill: #567dbf;
      }

      .cls-3 {
        fill: #4e77bb;
      }
    </style>
  </defs>
  <path class="cls-2" d="M1.14,31.35C9.6,16.56,15.85,5.79,17.29,3.28c.26-.46,.96-1.69,2.37-2.49C20.93,.06,22.14,0,22.69,0H56.45c.57,.05,1.83,.24,3.09,1.14,1.14,.81,1.71,1.81,1.96,2.31,5.34,9.34,10.68,18.67,16.02,28.01,.33,.51,.9,1.54,1.03,2.97,.17,1.78-.45,3.14-.73,3.68-5.5,9.71-11,19.43-16.5,29.14-.29,.43-.77,1.06-1.54,1.6-1.19,.84-2.38,1.03-2.97,1.09H22.45c-.57-.04-1.58-.19-2.67-.79-1.07-.58-1.73-1.33-2.08-1.78C12.02,57.6,6.35,47.83,.67,38.06c-.27-.55-.79-1.83-.65-3.5,.13-1.58,.78-2.7,1.12-3.2Z"/>
  <path class="cls-3" d="M52.42,69.94l-20.41-21.5-3.44-17.57,3.32-6.77,23.5-1.42c6.57,6.75,13.13,13.5,19.7,20.25-4.43,7.84-8.86,15.68-13.29,23.51-.16,.29-.58,1.22-1.54,2.05-1.1,.94-2.35,1.29-3.23,1.44h-4.6Z"/>
  <path class="cls-1" d="M52.47,20.64h-10.85v-6.81c0-.55-.44-.99-.99-.99h-1.07c-.55,0-.99,.44-.99,.99v6.81h-10.85c-.88,0-1.72,.35-2.34,.97-.62,.62-.97,1.46-.97,2.34v3.03c0,.88,.35,1.72,.97,2.34,.62,.62,1.46,.97,2.34,.97h-.04v9.35c0,2.49,.74,4.91,2.13,6.97,1.39,2.06,3.37,3.65,5.67,4.58,.56,.22,1.07,.56,1.49,.98l1.54,1.54c.42,.42,.99,.66,1.59,.66s1.17-.24,1.59-.66l1.54-1.54c.43-.43,.93-.76,1.49-.98,2.3-.92,4.28-2.52,5.67-4.58,1.39-2.06,2.13-4.49,2.13-6.97v-9.35h-.04c.88,0,1.72-.35,2.34-.97,.62-.62,.97-1.46,.97-2.34v-3.03c0-.44-.09-.87-.25-1.27s-.41-.77-.72-1.08c-.31-.31-.67-.55-1.07-.72-.4-.17-.83-.25-1.27-.25Z"/>
  <polygon class="cls-3" points="42.98 30.48 38.82 30.69 35.78 37.8 40.04 37.63 37.9 45.12 45.38 34.74 40.93 34.9 42.98 30.48"/>
</svg>