<svg width="218" height="40" viewBox="0 0 218 40" fill="none" xmlns="http://www.w3.org/2000/svg">
<path d="M12.0658 39.6447C12.201 39.788 12.3715 39.8933 12.5603 39.9498C12.749 40.0063 12.9493 40.0121 13.141 39.9666C13.3327 39.9211 13.5091 39.8259 13.6523 39.6906C13.7956 39.5553 13.9006 39.3847 13.957 39.1959L15.4636 33.7146L22.3233 7.81434C22.3556 7.6727 22.435 7.54623 22.5486 7.45564C22.6621 7.36504 22.8031 7.3157 22.9484 7.3157C23.0936 7.3157 23.2346 7.36504 23.3482 7.45564C23.4617 7.54623 23.5411 7.6727 23.5734 7.81434L24.3107 9.80173C24.5698 10.5072 24.9972 11.1388 25.5558 11.6416C26.1144 12.1443 26.7874 12.5031 27.5162 12.6867L33.9271 14.4497C34.5493 14.6203 35.1055 14.9747 35.5229 15.4666C35.9404 15.9584 36.1998 16.5648 36.2671 17.2064C36.3142 17.9744 36.1857 18.7431 35.8913 19.454C35.597 20.165 35.1445 20.7995 34.5682 21.3094L32.9655 22.6877C31.6939 23.8 30.7873 25.2699 30.3642 26.9054C29.941 28.5409 30.0209 30.266 30.5934 31.8554L33.2219 39.228C33.2841 39.395 33.3832 39.5459 33.5118 39.6693C33.6403 39.7928 33.795 39.8857 33.9644 39.9412C34.1338 39.9966 34.3135 40.0132 34.4902 39.9896C34.6669 39.966 34.836 39.9029 34.9849 39.805C38.3092 37.3573 40.8798 34.0258 42.4042 30.1893C43.9286 26.3529 44.3455 22.1656 43.6076 18.1039C42.8325 13.7662 40.7702 9.76205 37.6888 6.61212C34.6075 3.46219 30.6497 1.31222 26.3301 0.441754C23.3239 -0.169176 20.2233 -0.146199 17.2264 0.509215C14.2295 1.16463 11.4024 2.43805 8.92559 4.24812C6.44881 6.05819 4.37691 8.36507 2.8423 11.0213C1.30769 13.6776 0.34413 16.6248 0.0131988 19.6746C-0.0190388 19.9292 0.00796968 20.1879 0.0921178 20.4304C0.176266 20.6729 0.315284 20.8927 0.498329 21.0726C0.681374 21.2526 0.903489 21.3878 1.14739 21.4678C1.39128 21.5478 1.65038 21.5704 1.90444 21.5338C2.76825 21.4533 3.63935 21.5544 4.46174 21.8307C5.28413 22.1069 6.03962 22.5522 6.67964 23.1379C7.31966 23.7236 7.83004 24.4367 8.178 25.2314C8.52595 26.0261 8.70377 26.8849 8.70003 27.7524V30.9579C8.73821 34.1645 9.93348 37.2494 12.0658 39.6447Z" fill="white"/>
<path d="M27.1956 18.6882C28.2932 18.6882 29.183 17.7984 29.183 16.7008C29.183 15.6032 28.2932 14.7134 27.1956 14.7134C26.098 14.7134 25.2082 15.6032 25.2082 16.7008C25.2082 17.7984 26.098 18.6882 27.1956 18.6882Z" fill="#C4F135"/>
<g clip-path="url(#clip0_5913_1182)">
<path d="M82.9515 13.9598C81.9833 13.2368 80.7688 12.8701 79.3447 12.8701C76.5804 12.8701 74.4032 13.9423 72.8622 16.0594C72.4247 15.2871 71.8166 14.607 71.0488 14.0307C70.0222 13.2604 68.7787 12.8701 67.3536 12.8701C65.7736 12.8701 64.4607 13.2075 63.4495 13.8722C62.8378 14.2761 62.2762 14.7511 61.7711 15.2935V15.1523C61.7711 14.5761 61.5642 14.0755 61.1548 13.6642C60.3306 12.8447 58.9868 12.8485 58.1925 13.6717C57.7996 14.0811 57.6 14.5798 57.6 15.1525V32.4844H61.7711C61.7711 31.7273 61.7711 30.9701 61.7711 30.213C61.7711 28.61 61.7711 27.0069 61.7711 25.4039C61.7711 23.9523 61.7711 22.5009 61.7711 21.0492C61.7711 20.722 61.7731 20.3755 61.8105 20.0485C61.8503 19.7001 62.0507 19.4361 62.255 19.1609C62.6755 18.5948 63.1586 18.0742 63.712 17.6357C64.4179 17.0768 65.3321 16.7933 66.4281 16.7933C67.5951 16.7933 68.4156 17.096 68.8661 17.6924C69.3475 18.3305 69.5909 19.3799 69.5909 20.8096V32.4843H73.763C73.763 31.7543 73.763 31.0245 73.763 30.2947C73.763 28.7335 73.763 27.1722 73.763 25.611C73.763 24.1562 73.763 22.7013 73.763 21.2464C73.763 20.9406 73.7671 20.6085 73.7716 20.302C73.7773 19.9231 73.84 19.7378 74.0527 19.4304C74.5164 18.7597 75.0627 18.1426 75.7029 17.6357C76.4195 17.0686 77.3095 16.7933 78.42 16.7933C79.587 16.7933 80.4075 17.096 80.8579 17.6924C81.3376 18.3305 81.5818 19.3799 81.5818 20.8096V32.4843H85.7539V20.1687C85.7539 18.9752 85.526 17.8145 85.0793 16.7187C84.62 15.6009 83.9052 14.6728 82.9515 13.9598Z" fill="white"/>
<path d="M103.735 14.1055C102.293 13.2858 100.612 12.8701 98.7373 12.8701C96.839 12.8701 95.1451 13.2858 93.7009 14.1055C92.253 14.9307 91.1207 16.1141 90.3347 17.6229C89.5561 19.1191 89.1604 20.8496 89.1604 22.7659C89.1604 24.6842 89.5561 26.4147 90.3347 27.909C91.1205 29.4187 92.253 30.6021 93.7009 31.4264C95.1432 32.246 96.8372 32.6617 98.7373 32.6617C100.614 32.6617 102.295 32.246 103.734 31.4264C105.181 30.6039 106.321 29.4213 107.12 27.9116C107.911 26.4165 108.312 24.685 108.312 22.7658C108.312 20.8483 107.911 19.117 107.12 17.619C106.321 16.1114 105.181 14.9287 103.735 14.1055ZM103.334 26.1915C102.802 27.0831 102.123 27.7424 101.319 28.1498C99.6598 28.9923 97.7343 28.9705 96.1187 28.1498C95.3163 27.7432 94.6435 27.0849 94.1221 26.1951C93.5988 25.3007 93.3325 24.1345 93.3325 22.7304C93.3325 21.351 93.5988 20.1977 94.1221 19.3024C94.6436 18.4144 95.3127 17.7636 96.1133 17.3677C96.934 16.9629 97.8165 16.7578 98.7373 16.7578C99.6343 16.7578 100.504 16.9629 101.325 17.3677C102.125 17.7636 102.802 18.4162 103.334 19.306C103.868 20.1995 104.14 21.3519 104.14 22.7304C104.14 24.1345 103.868 25.2989 103.334 26.1915Z" fill="white"/>
<path d="M178.672 13.8694C177.639 13.2065 176.411 12.8701 175.024 12.8701C173.526 12.8701 172.205 13.1901 171.09 13.8212C170.315 14.2634 169.571 14.8159 168.871 15.4695V15.1523C168.871 14.5769 168.663 14.0763 168.255 13.6642C167.431 12.8446 166.089 12.8501 165.292 13.6716C164.9 14.0807 164.701 14.5787 164.701 15.1523V32.4843H168.871C168.871 32.1316 168.871 31.7792 168.871 31.4265C168.871 30.5593 168.871 29.6919 168.871 28.8246C168.871 27.7281 168.871 26.6313 168.871 25.5346C168.871 24.494 168.871 23.4535 168.871 22.4129C168.871 21.7141 168.867 21.0151 168.871 20.316C168.872 20.2183 168.869 20.1215 168.867 20.0234C168.861 19.7854 169.182 19.535 169.331 19.3703C169.538 19.1407 169.754 18.9188 169.979 18.706C170.393 18.3147 170.837 17.9542 171.313 17.6413C172.168 17.0787 173.153 16.7933 174.24 16.7933C176.592 16.7933 177.688 18.0242 177.688 20.6673V32.4843H181.86V20.3116C181.86 18.9669 181.586 17.7131 181.048 16.5873C180.503 15.4457 179.703 14.5314 178.672 13.8694Z" fill="white"/>
<path d="M216.141 17.6193C215.342 16.1114 214.204 14.9299 212.756 14.1055C211.314 13.2858 209.633 12.8701 207.758 12.8701C205.858 12.8701 204.166 13.2858 202.724 14.1055C201.276 14.9299 200.142 16.1131 199.356 17.6229C198.577 19.1209 198.183 20.8504 198.183 22.7659C198.183 24.6834 198.577 26.4137 199.356 27.909C200.142 29.4197 201.276 30.6031 202.724 31.4264C204.164 32.246 205.856 32.6617 207.758 32.6617C209.635 32.6617 211.316 32.246 212.758 31.4264C214.204 30.6039 215.342 29.4213 216.141 27.9116C216.932 26.4165 217.333 24.685 217.333 22.7658C217.333 20.8486 216.932 19.1173 216.141 17.6193ZM212.357 26.1915C211.825 27.0841 211.146 27.7432 210.34 28.1498C208.679 28.9897 206.757 28.9687 205.142 28.1498C204.337 27.7432 203.665 27.0859 203.145 26.1951C202.62 25.3016 202.354 24.1355 202.354 22.7304C202.354 21.3501 202.62 20.1968 203.145 19.3016C203.665 18.4144 204.334 17.7636 205.136 17.3677C205.957 16.9629 206.839 16.7578 207.758 16.7578C208.655 16.7578 209.525 16.9629 210.346 17.3677C211.148 17.7636 211.825 18.4154 212.357 19.305C212.891 20.2024 213.163 21.3547 213.163 22.7304C213.163 24.1309 212.891 25.2961 212.357 26.1915Z" fill="white"/>
<path d="M157.236 14.1721C155.883 13.3078 154.265 12.8701 152.429 12.8701C150.469 12.8701 148.788 13.3407 147.433 14.2686C146.083 15.1941 145.071 16.4224 144.422 17.9204C143.784 19.3956 143.459 21.0256 143.459 22.7661C143.459 25.8688 144.324 28.3195 146.031 30.0498C147.737 31.7831 150.13 32.6621 153.142 32.6621C154.601 32.6621 155.817 32.5243 156.758 32.2527C157.692 31.9819 158.647 31.5734 159.601 31.0338C159.637 31.0125 159.658 30.9985 159.694 30.9766L160.652 30.4129L158.666 27.2554L157.666 27.7831C157.094 28.0438 156.516 28.2845 155.927 28.4343C155.221 28.6129 154.378 28.7042 153.426 28.7042C151.678 28.7042 150.31 28.2765 149.36 27.4342C148.507 26.6783 147.972 25.6726 147.739 24.3716H159.261C159.89 24.3716 160.403 24.1672 160.788 23.7662C161.171 23.3705 161.364 22.8783 161.364 22.3038C161.364 20.628 161.014 19.0561 160.321 17.6339C159.623 16.1988 158.585 15.0338 157.236 14.1721ZM147.712 20.8048C147.823 19.9453 148.078 19.2093 148.478 18.613C148.948 17.9064 149.543 17.3812 150.244 17.0502C151.678 16.3774 153.178 16.3774 154.615 17.0502C155.319 17.3812 155.919 17.9081 156.402 18.6166C156.809 19.2147 157.07 19.9485 157.183 20.8047H147.712V20.8048Z" fill="white"/>
<path d="M137.16 13.9598C136.192 13.2368 134.978 12.8701 133.554 12.8701C130.789 12.8701 128.612 13.9423 127.071 16.0594C126.633 15.2871 126.025 14.607 125.258 14.0307C124.231 13.2604 122.987 12.8701 121.562 12.8701C119.982 12.8701 118.669 13.2075 117.658 13.8722C117.047 14.2761 116.485 14.7511 115.98 15.2935V15.1523C115.98 14.5761 115.773 14.0755 115.364 13.6642C114.539 12.8446 113.196 12.8481 112.401 13.6716C112.008 14.0807 111.809 14.5796 111.809 15.1523V32.4843H115.98C115.98 31.7271 115.98 30.97 115.98 30.2128C115.98 28.6098 115.98 27.0068 115.98 25.4037C115.98 23.9521 115.98 22.5007 115.98 21.0491C115.98 20.7218 115.982 20.3753 116.019 20.0483C116.059 19.6999 116.26 19.436 116.464 19.1608C116.884 18.5946 117.368 18.0741 117.921 17.6356C118.627 17.0766 119.541 16.7931 120.637 16.7931C121.804 16.7931 122.625 17.0958 123.075 17.6922C123.556 18.3304 123.8 19.3798 123.8 20.8094V32.4841H127.972C127.972 31.7542 127.972 31.0244 127.972 30.2946C127.972 28.7334 127.972 27.172 127.972 25.6108C127.972 24.156 127.972 22.7011 127.972 21.2463C127.972 20.9405 127.976 20.6083 127.981 20.3019C127.986 19.923 128.049 19.7377 128.262 19.4303C128.725 18.7596 129.272 18.1425 129.912 17.6356C130.629 17.0685 131.519 16.7931 132.629 16.7931C133.796 16.7931 134.617 17.0958 135.067 17.6922C135.547 18.3304 135.791 19.3798 135.791 20.8094V32.4841H139.963V20.1687C139.963 18.9752 139.735 17.8145 139.288 16.7187C138.829 15.6009 138.114 14.6728 137.16 13.9598Z" fill="white"/>
<path d="M195.311 28.3305L193.741 28.7928C192.874 29.0133 192.324 29.122 191.602 28.5692C191.284 28.3256 191.181 27.7232 191.181 27.2145V16.9356H196.143V13.2265H191.81H191.181H191.176V9.81677C191.176 8.66607 190.243 7.7334 189.093 7.7334C187.942 7.7334 187.009 8.66607 187.009 9.81677V13.2265H183.843V16.9356H187.009V22.4451V27.4986C187.009 30.8767 188.968 32.6619 192.671 32.6619C193.734 32.6619 194.751 32.437 195.717 32.0099L196.928 31.4685L195.311 28.3305Z" fill="white"/>
</g>
<defs>
<clipPath id="clip0_5913_1182">
<rect width="159.733" height="24.9287" fill="white" transform="translate(57.6 7.7334)"/>
</clipPath>
</defs>
</svg>
