<?xml version="1.0" encoding="UTF-8"?>
<svg id="Layer_1" data-name="Layer 1" xmlns="http://www.w3.org/2000/svg" viewBox="0 0 749.08 79.49">
  <defs>
    <style>
      .cls-1 {
        fill: #fff;
      }

      .cls-1, .cls-2 {
        stroke-width: 0px;
      }

      .cls-2 {
        fill: #00c88c;
      }
    </style>
  </defs>
  <g>
    <g>
      <path class="cls-1" d="m148.57,27.75c-3.28,0-6.42.72-9.43,2.16-2.8,1.35-5.23,3.21-7.3,5.55-.69-2.12-1.89-3.89-3.64-5.25-2.11-1.64-5.09-2.46-8.95-2.46-3.37,0-6.58.75-9.63,2.23-2.34,1.14-4.41,2.6-6.23,4.36l.02-.09c.61-2.73-1.47-5.32-4.27-5.32h-5.48l-10.91,49.19h12.48l6.61-29.78h0c.63-2.82,1.92-5.13,3.88-6.9,1.96-1.78,4.22-2.67,6.8-2.67,2.71,0,4.63.9,5.75,2.71,1.13,1.81,1.34,4.34.62,7.58l-6.45,29.06h12.39l6.61-29.78c.42-1.88,1.14-3.55,2.17-4.99,1.04-1.44,2.28-2.56,3.74-3.37,1.45-.8,3.05-1.21,4.77-1.21,2.71,0,4.62.9,5.75,2.71,1.13,1.81,1.34,4.34.62,7.58l-6.45,29.06h12.39l7.18-32.33c1.19-5.37.72-9.73-1.41-13.05-2.13-3.32-6.01-4.99-11.62-4.99Z"/>
      <path class="cls-1" d="m211.01,30.9c-3.26-2.22-7.36-3.32-12.31-3.32s-9.4,1.09-13.62,3.28c-4.21,2.19-7.82,5.23-10.81,9.13-2.99,3.9-5.06,8.42-6.19,13.55-1.13,5.07-1.08,9.56.13,13.46,1.22,3.9,3.44,6.96,6.69,9.18,3.24,2.22,7.33,3.32,12.29,3.32s9.5-1.1,13.73-3.3c4.24-2.2,7.84-5.25,10.82-9.15,2.98-3.9,5.03-8.4,6.16-13.51,1.13-5.07,1.08-9.55-.16-13.46-1.23-3.9-3.47-6.96-6.73-9.18Zm-5.43,22.63c-.94,4.22-2.69,7.68-5.24,10.36s-6.61,4.03-10.59,4.03-7.28-1.3-8.7-3.89c-1.41-2.6-1.63-6.1-.65-10.5.63-2.85,1.6-5.36,2.92-7.51,1.32-2.16,2.97-3.84,4.97-5.06,2-1.22,5.15-1.82,7.85-1.82,3.92,0,7.38,1.31,8.79,3.92,1.41,2.61,1.63,6.1.66,10.47Z"/>
      <path class="cls-1" d="m288.2,27.75c-3.28,0-6.42.72-9.43,2.16-2.8,1.35-5.23,3.21-7.3,5.55-.69-2.12-1.89-3.89-3.64-5.25-2.11-1.64-5.09-2.46-8.95-2.46-3.37,0-6.58.75-9.63,2.23-2.34,1.14-4.41,2.6-6.23,4.36l.02-.09c.61-2.73-1.47-5.32-4.27-5.32h-5.48l-10.92,49.19h12.48l6.61-29.78c.63-2.82,1.92-5.13,3.88-6.9,1.96-1.78,4.22-2.67,6.8-2.67,2.71,0,4.63.9,5.75,2.71,1.13,1.81,1.34,4.34.62,7.58l-6.45,29.06h12.39l6.61-29.78c.42-1.88,1.14-3.55,2.17-4.99,1.04-1.44,2.28-2.56,3.73-3.37,1.45-.8,3.05-1.21,4.78-1.21,2.71,0,4.62.9,5.75,2.71,1.13,1.81,1.34,4.34.62,7.58l-6.45,29.06h12.39l7.18-32.33c1.19-5.37.72-9.73-1.41-13.05-2.13-3.32-6.01-4.99-11.62-4.99Z"/>
      <path class="cls-1" d="m350.7,31.22c-3.08-2.43-7.2-3.64-12.36-3.64-4.86,0-9.4,1.1-13.62,3.3-4.22,2.2-7.84,5.29-10.84,9.27-3.01,3.98-5.11,8.65-6.3,14.03-1.09,4.92-.98,9.28.35,13.09,1.33,3.81,3.66,6.8,7.02,8.97,3.36,2.17,7.56,3.26,12.6,3.26,4.74,0,9.38-1.25,13.93-3.74,4.54-2.49,8.24-5.98,11.09-10.47l-11.61-3.55c-1.35,2.01-3.02,3.54-4.98,4.6-1.97,1.06-4.16,1.59-6.6,1.59-3.85,0-6.5-1.25-7.94-3.75-1.05-1.83-1.42-4.23-1.16-7.18h34.52c1.83-5.95,2.38-11.13,1.62-15.53-.75-4.4-2.67-7.82-5.74-10.25Zm-28,16.58c.99-2.26,2.18-4.16,3.64-5.62,2.56-2.57,5.95-3.85,10.17-3.85,3.61,0,5.98,1.1,7.08,3.3.73,1.45.96,3.51.73,6.17h-21.62Z"/>
      <path class="cls-1" d="m410.68,34.41c-.9-2.01-2.43-3.66-4.57-4.97-2.14-1.3-5.14-1.96-8.99-1.96-4.83,0-9.06,1.04-12.7,3.14-1.72.99-3.29,2.14-4.72,3.43.46-2.65-1.56-5.12-4.29-5.12h-5.57l-10.92,49.19h12.57l5.54-24.96h0c.68-3.07,1.57-5.53,2.66-7.38,1.09-1.85,2.28-3.26,3.55-4.21,1.27-.96,2.56-1.6,3.85-1.93,1.29-.33,2.46-.5,3.53-.5,2.64,0,4.55.59,5.73,1.78,1.18,1.18,1.89,2.66,2.14,4.42.25,1.76.24,3.51-.03,5.26-.27,1.75-.53,3.18-.78,4.3l-5.15,23.23h12.57l6.12-27.6c.18-.82.41-2.12.68-3.91.28-1.79.37-3.77.27-5.94-.1-2.17-.6-4.26-1.5-6.26Z"/>
      <path class="cls-1" d="m437.03,56.54l4-18.03h14.2l2.12-9.56h-14.2l1.35-6.07c.87-3.9-2.1-7.6-6.1-7.6h-4.61l-3.03,13.66h-8.38l-2.12,9.56h8.38l-4.16,18.77c-.65,2.95-1.21,5.58-1.66,7.9-.46,2.32-.33,4.61.39,6.85.8,2.4,2.37,4.14,4.69,5.21,2.33,1.08,5.12,1.66,8.36,1.73,3.24.08,6.64-.2,10.18-.84l2.28-10.29c-3,.39-5.68.52-8.05.36-2.36-.15-3.9-1.09-4.61-2.82-.38-.91-.42-2.13-.12-3.67.3-1.53.66-3.25,1.08-5.17Z"/>
      <path class="cls-1" d="m507.04,40.07c-1.23-3.9-3.47-6.96-6.73-9.18-3.26-2.22-7.36-3.32-12.31-3.32s-9.4,1.09-13.62,3.28c-4.21,2.19-7.82,5.23-10.81,9.13-2.99,3.9-5.06,8.42-6.19,13.55-1.13,5.07-1.08,9.56.13,13.46,1.22,3.9,3.44,6.96,6.69,9.18,3.24,2.22,7.33,3.32,12.29,3.32s9.5-1.1,13.73-3.3c4.24-2.2,7.84-5.25,10.82-9.15,2.98-3.9,5.03-8.4,6.16-13.51,1.13-5.07,1.08-9.55-.16-13.46Zm-12.16,13.46c-.94,4.22-2.69,7.68-5.24,10.36s-6.61,4.03-10.59,4.03-7.28-1.3-8.7-3.89c-1.41-2.6-1.63-6.1-.65-10.5.63-2.85,1.6-5.36,2.92-7.51,1.32-2.16,2.97-3.84,4.97-5.06,2-1.22,5.15-1.82,7.85-1.82,3.92,0,7.38,1.31,8.79,3.92,1.41,2.61,1.63,6.1.66,10.47Z"/>
    </g>
    <path class="cls-1" d="m64.47,22.26l-10.35-3.45-1.42-3.41c-.51-1.23-2.28-1.16-2.7.11l-15.87,48.67h0s-.89,2.74-.89,2.74c-.39,1.2-1.51,2.01-2.77,2.01h0,0c-1.89,0-3.26-1.76-2.84-3.56.02-.09.04-.17.07-.26l12.44-38.17c1.88-5.78,1.07-11.63-1.59-16.39-.04-.08-.09-.16-.14-.24-.67-1.16-1.45-2.25-2.32-3.26-.37-.43-.76-.84-1.16-1.23,0,0,0,0,0,0-.16-.15-.31-.3-.47-.45-.25-.23-.51-.46-.77-.68-.05-.04-.11-.09-.16-.13C30.01,1.73,25.55,0,20.57,0c-.2,0-.41,0-.61,0-.06,0-.12,0-.19,0-.14,0-.29.01-.43.02-.07,0-.14,0-.2.01-.15.01-.3.02-.44.04-.05,0-.11,0-.16.01-.2.02-.4.04-.6.07-.02,0-.03,0-.05,0-.18.02-.36.05-.55.08-.05,0-.11.02-.16.03-.15.02-.3.05-.44.08-.05.01-.11.02-.16.03-.17.03-.33.07-.5.1-.03,0-.06.01-.08.02-.2.05-.4.09-.6.15,0,0-.01,0-.02,0-.19.05-.37.1-.56.15-.04.01-.07.02-.11.03-.16.05-.33.1-.49.15-.03,0-.06.02-.09.03-.59.19-1.17.42-1.73.66,0,0-.02,0-.03.01C5.08,4.88,0,12.13,0,20.57v2.41c5.08,0,9.19,4.12,9.19,9.19v29.71c0,8.97,7.27,16.25,16.25,16.25h0c4.04,0,7.92-1.52,10.9-4.23v.02c.36-.32.59-.04.49.3h0c-.03.16-.05.32-.06.49,0,0,0,0,0,0,0,.05,0,.1,0,.15h0v.07c0,1.79,1.46,3.22,3.25,3.18h0s19.73,0,19.73,0h4.6c0-1.99-1.26-3.68-3.03-4.32-.49-.18-1.02-.28-1.57-.28h-3.83c-.44,0-.36-.57.07-.72l3.56-1.3c4.25-1.55,7.09-5.59,7.09-10.12,0-3.86-2.07-7.43-5.42-9.35l-1.47-.84v-.66c2.54,0,4.6-2.06,4.6-4.6v-.19c0-2.43-2.16-4.41-4.6-4.41v-6.28l6.18-5.84s.06-.05.08-.08c.41-.43.63-.99.63-1.58h0v-2.31c0-1.36-.87-2.57-2.17-3Z"/>
  </g>
  <g>
    <path class="cls-2" d="m554.3,79.44c-4.55,0-8.31-1.14-11.28-3.43-2.97-2.29-5.03-5.4-6.18-9.34-1.14-3.94-1.24-8.38-.28-13.32.98-5.04,2.81-9.51,5.51-13.44,2.7-3.92,6.02-7.01,9.97-9.27,3.95-2.26,8.29-3.39,13.02-3.39s8.43,1.14,11.19,3.43c2.76,2.29,4.58,5.4,5.47,9.34.89,3.94.85,8.38-.11,13.32s-2.65,9.38-5.08,13.32c-2.43,3.94-5.51,7.05-9.25,9.34-3.74,2.29-8.06,3.43-12.98,3.43Zm4.16-11.08c2.78,0,5.12-.63,7.02-1.88,1.91-1.25,3.44-3.01,4.61-5.26,1.17-2.26,2.04-4.88,2.62-7.87.58-2.99.72-5.61.43-7.87-.29-2.26-1.12-4.01-2.48-5.26-1.36-1.25-3.34-1.88-5.93-1.88-2.78,0-5.19.68-7.24,2.04-2.05,1.36-3.72,3.17-5.02,5.45-1.3,2.27-2.21,4.78-2.74,7.53-.54,2.78-.62,5.3-.23,7.58.38,2.27,1.3,4.08,2.75,5.42,1.45,1.34,3.52,2.01,6.2,2.01Zm9.47,9.7l6.56-33.87h-1.56l5.6-28.92h12.54l-12.17,62.79h-10.99Z"/>
    <path class="cls-2" d="m613.71,79.44c-4.97,0-9.12-1.11-12.44-3.34-3.32-2.23-5.65-5.3-6.98-9.22-1.33-3.92-1.5-8.43-.51-13.53,1-5.16,2.95-9.7,5.84-13.62,2.89-3.92,6.43-6.98,10.61-9.18,4.18-2.2,8.71-3.3,13.59-3.3s9.13,1.11,12.47,3.34c3.34,2.23,5.68,5.3,7.02,9.22,1.35,3.92,1.53,8.43.54,13.53-.99,5.13-2.93,9.65-5.81,13.57-2.88,3.92-6.42,6.99-10.62,9.2-4.2,2.21-8.77,3.32-13.71,3.32Zm2.25-11.63c4,0,7.24-1.35,9.73-4.05,2.49-2.7,4.15-6.17,4.97-10.41.85-4.39.53-7.9-.96-10.53-1.49-2.62-4.2-3.94-8.14-3.94-2.72,0-5.06.61-7.04,1.83-1.97,1.22-3.59,2.91-4.85,5.08-1.26,2.17-2.17,4.69-2.72,7.55-.86,4.42-.54,7.94.95,10.55,1.49,2.61,4.18,3.91,8.05,3.91Z"/>
    <path class="cls-2" d="m670.65,79.44c-5.13,0-9.3-1.14-12.52-3.43-3.22-2.29-5.42-5.4-6.61-9.34-1.19-3.94-1.31-8.38-.35-13.32.97-5,2.85-9.47,5.64-13.41,2.79-3.94,6.25-7.03,10.38-9.29,4.13-2.26,8.71-3.39,13.75-3.39,5.83,0,10.43,1.47,13.81,4.42,3.38,2.95,5.13,6.97,5.24,12.06l-13.09,3.3c-.24-2.56-1.12-4.56-2.66-6-1.54-1.43-3.45-2.15-5.74-2.15-2.62,0-4.9.63-6.82,1.9-1.92,1.27-3.49,2.99-4.71,5.17-1.22,2.18-2.09,4.65-2.62,7.39-.83,4.3-.56,7.79.83,10.46,1.39,2.67,3.96,4,7.71,4,2.81,0,5.07-.64,6.78-1.92s3.17-3.11,4.36-5.49l12.21,2.65c-2.42,5.25-5.86,9.29-10.32,12.13-4.46,2.84-9.55,4.26-15.29,4.26Z"/>
    <path class="cls-2" d="m721.55,79.44c-6.22,0-10.98-1.41-14.26-4.23-3.28-2.82-4.84-6.81-4.66-11.97l13.1-1.92c.07,2.32.87,4.14,2.4,5.45,1.53,1.31,3.67,1.97,6.42,1.97,2.26,0,4.08-.43,5.47-1.3,1.39-.87,2.23-2.08,2.54-3.64.19-.98.1-1.76-.28-2.36-.37-.59-1.35-1.18-2.93-1.76-1.58-.58-4.07-1.34-7.45-2.29-3.83-1.04-6.82-2.2-8.98-3.48s-3.6-2.82-4.33-4.6c-.72-1.79-.84-3.94-.35-6.48.62-3.17,1.96-5.93,4.03-8.26,2.07-2.33,4.7-4.13,7.89-5.4,3.19-1.27,6.78-1.9,10.78-1.9s7.19.6,9.95,1.79c2.76,1.19,4.85,2.88,6.27,5.08,1.42,2.2,2.05,4.79,1.9,7.78l-13.17,2.29c.14-1.83-.37-3.28-1.54-4.35s-2.91-1.69-5.22-1.88c-2.26-.15-4.16.15-5.69.92s-2.44,1.86-2.72,3.3c-.17.85,0,1.57.48,2.15.48.58,1.6,1.17,3.36,1.79,1.76.61,4.47,1.4,8.12,2.38,3.56.98,6.36,2.11,8.38,3.41,2.02,1.3,3.37,2.85,4.06,4.67.69,1.82.78,4,.28,6.57-.98,5.07-3.58,9.05-7.81,11.95-4.22,2.9-9.57,4.35-16.04,4.35Z"/>
  </g>
</svg>